<svg width="736" height="107" viewBox="0 0 736 107" fill="none" xmlns="http://www.w3.org/2000/svg">
<g clip-path="url(#clip0_2408_16773)">
<g clip-path="url(#clip1_2408_16773)">
<path d="M619.655 41.8389H621.589V93.5724H619.655V41.8389Z" fill="black"/>
<path d="M608.1 43.2471H633.411V44.5189H608.1V43.2471Z" fill="black"/>
<path d="M632.039 40.4316H632.457V43.2478H632.039V40.4316Z" fill="black"/>
<path d="M633.376 41.0061C633.376 40.8636 632.864 40.748 632.233 40.748C631.601 40.748 631.089 40.8636 631.089 41.0061C631.089 41.1487 631.601 41.2642 632.233 41.2642C632.864 41.2642 633.376 41.1487 633.376 41.0061Z" fill="black"/>
<path d="M633.376 40.4895C633.376 40.347 632.864 40.2314 632.233 40.2314C631.601 40.2314 631.089 40.347 631.089 40.4895C631.089 40.6321 631.601 40.7476 632.233 40.7476C632.864 40.7476 633.376 40.6321 633.376 40.4895Z" fill="black"/>
<path d="M632.233 40.232C631.601 40.232 631.089 40.1164 631.089 39.9739C631.089 39.8314 631.601 39.7158 632.233 39.7158C632.864 39.7158 633.376 39.8314 633.376 39.9739C633.376 40.1164 632.864 40.232 632.233 40.232Z" fill="black"/>
<path d="M633.376 39.4573C633.376 39.3148 632.864 39.1992 632.233 39.1992C631.601 39.1992 631.089 39.3148 631.089 39.4573C631.089 39.5998 631.601 39.7154 632.233 39.7154C632.864 39.7154 633.376 39.5998 633.376 39.4573Z" fill="black"/>
<path d="M631.554 39.3408H632.942V41.0971H631.554V39.3408Z" fill="black"/>
<path d="M620.562 40.4316H620.979V43.2478H620.562V40.4316Z" fill="black"/>
<path d="M621.899 41.0061C621.899 40.8636 621.387 40.748 620.755 40.748C620.124 40.748 619.612 40.8636 619.612 41.0061C619.612 41.1487 620.124 41.2642 620.755 41.2642C621.387 41.2642 621.899 41.1487 621.899 41.0061Z" fill="black"/>
<path d="M621.899 40.4895C621.899 40.347 621.387 40.2314 620.755 40.2314C620.124 40.2314 619.612 40.347 619.612 40.4895C619.612 40.6321 620.124 40.7476 620.755 40.7476C621.387 40.7476 621.899 40.6321 621.899 40.4895Z" fill="black"/>
<path d="M620.755 40.232C620.124 40.232 619.612 40.1164 619.612 39.9739C619.612 39.8314 620.124 39.7158 620.755 39.7158C621.387 39.7158 621.899 39.8314 621.899 39.9739C621.899 40.1164 621.387 40.232 620.755 40.232Z" fill="black"/>
<path d="M621.899 39.4573C621.899 39.3148 621.387 39.1992 620.755 39.1992C620.124 39.1992 619.612 39.3148 619.612 39.4573C619.612 39.5998 620.124 39.7154 620.755 39.7154C621.387 39.7154 621.899 39.5998 621.899 39.4573Z" fill="black"/>
<path d="M620.077 39.3408H621.465V41.0971H620.077V39.3408Z" fill="black"/>
<path d="M609.05 40.4316H609.468V43.2478H609.05V40.4316Z" fill="black"/>
<path d="M610.387 41.0061C610.387 40.8636 609.875 40.748 609.244 40.748C608.612 40.748 608.1 40.8636 608.1 41.0061C608.1 41.1487 608.612 41.2642 609.244 41.2642C609.875 41.2642 610.387 41.1487 610.387 41.0061Z" fill="black"/>
<path d="M610.387 40.4895C610.387 40.347 609.875 40.2314 609.244 40.2314C608.612 40.2314 608.1 40.347 608.1 40.4895C608.1 40.6321 608.612 40.7476 609.244 40.7476C609.875 40.7476 610.387 40.6321 610.387 40.4895Z" fill="black"/>
<path d="M610.387 39.9739C610.387 39.8314 609.875 39.7158 609.244 39.7158C608.612 39.7158 608.1 39.8314 608.1 39.9739C608.1 40.1164 608.612 40.232 609.244 40.232C609.875 40.232 610.387 40.1164 610.387 39.9739Z" fill="black"/>
<path d="M610.387 39.4573C610.387 39.3148 609.875 39.1992 609.244 39.1992C608.612 39.1992 608.1 39.3148 608.1 39.4573C608.1 39.5998 608.612 39.7154 609.244 39.7154C609.875 39.7154 610.387 39.5998 610.387 39.4573Z" fill="black"/>
<path d="M608.565 39.3408H609.953V41.0971H608.565V39.3408Z" fill="black"/>
<path d="M620.621 50.1967L627.792 44.2325L627.527 43.9191L620.623 49.6615L613.608 43.7275L613.34 44.0387L620.621 50.1967Z" fill="black"/>
<path d="M643.136 30.749H645.483V93.5009H643.136V30.749Z" fill="black"/>
<path d="M629.113 32.457H659.83V33.9997H629.113V32.457Z" fill="black"/>
<path d="M658.166 29.041H658.672V32.457H658.166V29.041Z" fill="black"/>
<path d="M658.4 30.0509C657.634 30.0509 657.012 29.9107 657.012 29.7378C657.012 29.565 657.634 29.4248 658.4 29.4248C659.167 29.4248 659.788 29.565 659.788 29.7378C659.788 29.9107 659.167 30.0509 658.4 30.0509Z" fill="black"/>
<path d="M659.788 29.1119C659.788 28.939 659.167 28.7988 658.4 28.7988C657.634 28.7988 657.012 28.939 657.012 29.1119C657.012 29.2848 657.634 29.4249 658.4 29.4249C659.167 29.4249 659.788 29.2848 659.788 29.1119Z" fill="black"/>
<path d="M659.788 28.4859C659.788 28.313 659.167 28.1729 658.4 28.1729C657.634 28.1729 657.012 28.313 657.012 28.4859C657.012 28.6588 657.634 28.799 658.4 28.799C659.167 28.799 659.788 28.6588 659.788 28.4859Z" fill="black"/>
<path d="M658.4 28.173C657.634 28.173 657.012 28.0328 657.012 27.8599C657.012 27.687 657.634 27.5469 658.4 27.5469C659.167 27.5469 659.788 27.687 659.788 27.8599C659.788 28.0328 659.167 28.173 658.4 28.173Z" fill="black"/>
<path d="M657.577 27.7188H659.261V29.8491H657.577V27.7188Z" fill="black"/>
<path d="M644.237 29.041H644.743V32.457H644.237V29.041Z" fill="black"/>
<path d="M644.471 30.0509C643.705 30.0509 643.083 29.9107 643.083 29.7378C643.083 29.565 643.705 29.4248 644.471 29.4248C645.238 29.4248 645.859 29.565 645.859 29.7378C645.859 29.9107 645.238 30.0509 644.471 30.0509Z" fill="black"/>
<path d="M645.859 29.1119C645.859 28.939 645.238 28.7988 644.471 28.7988C643.705 28.7988 643.083 28.939 643.083 29.1119C643.083 29.2848 643.705 29.4249 644.471 29.4249C645.238 29.4249 645.859 29.2848 645.859 29.1119V29.1119Z" fill="black"/>
<path d="M645.859 28.4859C645.859 28.313 645.238 28.1729 644.471 28.1729C643.705 28.1729 643.083 28.313 643.083 28.4859C643.083 28.6588 643.705 28.799 644.471 28.799C645.238 28.799 645.859 28.6588 645.859 28.4859V28.4859Z" fill="black"/>
<path d="M644.471 28.173C643.705 28.173 643.083 28.0328 643.083 27.8599C643.083 27.687 643.705 27.5469 644.471 27.5469C645.238 27.5469 645.859 27.687 645.859 27.8599C645.859 28.0328 645.238 28.173 644.471 28.173Z" fill="black"/>
<path d="M643.648 27.7188H645.332V29.8491H643.648V27.7188Z" fill="black"/>
<path d="M630.266 29.041H630.773V32.457H630.266V29.041Z" fill="black"/>
<path d="M631.889 29.7378C631.889 29.565 631.268 29.4248 630.501 29.4248C629.735 29.4248 629.113 29.565 629.113 29.7378C629.113 29.9107 629.735 30.0509 630.501 30.0509C631.268 30.0509 631.889 29.9107 631.889 29.7378Z" fill="black"/>
<path d="M631.889 29.1119C631.889 28.939 631.268 28.7988 630.501 28.7988C629.735 28.7988 629.113 28.939 629.113 29.1119C629.113 29.2848 629.735 29.4249 630.501 29.4249C631.268 29.4249 631.889 29.2848 631.889 29.1119V29.1119Z" fill="black"/>
<path d="M631.889 28.4859C631.889 28.313 631.268 28.1729 630.501 28.1729C629.735 28.1729 629.113 28.313 629.113 28.4859C629.113 28.6588 629.735 28.799 630.501 28.799C631.268 28.799 631.889 28.6588 631.889 28.4859V28.4859Z" fill="black"/>
<path d="M631.889 27.8599C631.889 27.687 631.268 27.5469 630.501 27.5469C629.735 27.5469 629.113 27.687 629.113 27.8599C629.113 28.0328 629.735 28.173 630.501 28.173C631.268 28.173 631.889 28.0328 631.889 27.8599Z" fill="black"/>
<path d="M629.678 27.7188H631.362V29.8491H629.678V27.7188Z" fill="black"/>
<path d="M644.308 40.887L653.01 33.6525L652.689 33.2724L644.311 40.2379L635.797 33.04L635.473 33.4175L644.308 40.887Z" fill="black"/>
<path d="M593.35 58.6179C594.757 58.4091 599.183 55.2443 600.857 53.5726C602.195 52.2373 603.607 50.4428 605.054 48.2391C607.434 44.6137 609.134 41.0479 609.261 40.7798C610.976 40.8226 613.159 40.2562 615.748 39.0955C617.824 38.1646 620.165 36.8514 622.706 35.1925C627.032 32.3684 630.484 29.4818 630.518 29.453L630.484 29.4121C630.449 29.4409 627 32.3257 622.676 35.1481C620.138 36.8054 617.799 38.1171 615.725 39.0469C613.136 40.2081 610.954 40.7733 609.245 40.726L609.227 40.7255L609.219 40.7414C609.202 40.7782 607.469 44.4624 605.008 48.2104C603.563 50.4109 602.154 52.2024 600.819 53.5351C599.153 55.1983 594.738 58.358 593.342 58.5651L593.35 58.6179Z" fill="black" stroke="black"/>
<path d="M598.914 58.3267C600.752 58.0453 608.561 54.5162 610.644 52.8379C612.309 51.4965 614.039 49.717 615.785 47.5487C618.67 43.9664 620.655 40.4819 620.787 40.2473C624.278 39.9178 627.696 39.1123 630.947 37.853C633.552 36.8443 636.055 35.5438 638.388 33.9876C641.567 31.8673 643.783 29.671 644.51 28.8058L644.469 28.7715C643.743 29.635 641.531 31.8274 638.357 33.9443C636.027 35.4981 633.527 36.7966 630.927 37.8037C627.676 39.0626 624.258 39.8673 620.768 40.1954L620.754 40.1967L620.747 40.209C620.727 40.2448 618.713 43.8284 615.743 47.5159C613.999 49.681 612.272 51.4577 610.61 52.7966C608.534 54.4687 600.734 57.994 598.906 58.2739L598.914 58.3267Z" fill="black" stroke="black"/>
<path d="M605.357 58.3269C607.819 58.2477 617.306 55.4272 619.941 53.7313C622.047 52.3755 624.191 50.5107 626.312 48.1888C629.82 44.3492 632.114 40.501 632.263 40.2481C634.624 40.1838 637.466 39.5439 640.712 38.3459C643.313 37.3859 646.178 36.0673 649.227 34.4268C654.417 31.6339 658.394 28.8381 658.434 28.8102L658.403 28.7666C658.363 28.7945 654.388 31.5887 649.201 34.3801C646.154 36.0193 643.292 37.3368 640.693 38.2959C637.446 39.4943 634.605 40.1332 632.247 40.1951L632.232 40.1955L632.225 40.2083C632.202 40.2479 629.879 44.2052 626.272 48.1536C624.154 50.4719 622.014 52.3335 619.911 53.6867C617.285 55.3771 607.807 58.1947 605.355 58.2735L605.357 58.3269Z" fill="black" stroke="black"/>
<rect x="582.842" y="59.2461" width="25.1149" height="33.0071" rx="2.5" fill="white" stroke="black" stroke-width="3"/>
<path d="M590.142 77.1445H592.968L591.181 85.4943C591.124 85.765 591.266 86.0388 591.523 86.152C591.602 86.1868 591.685 86.2036 591.768 86.2036C591.954 86.2036 592.134 86.1189 592.25 85.965L601.14 74.1691C601.274 73.9905 601.295 73.7527 601.193 73.5543C601.091 73.356 600.884 73.2309 600.657 73.2309H597.824L599.618 64.844C599.676 64.5732 599.534 64.2993 599.276 64.1862C599.019 64.0731 598.716 64.1513 598.549 64.3741L589.659 76.2071C589.525 76.3857 589.505 76.6233 589.607 76.8215C589.709 77.0196 589.916 77.1445 590.142 77.1445V77.1445ZM597.878 67.2495L596.499 73.6984C596.462 73.8718 596.507 74.0525 596.62 74.1901C596.734 74.3277 596.905 74.4076 597.086 74.4076H599.468L592.92 83.0978L594.294 76.677C594.331 76.5036 594.286 76.3229 594.172 76.1853C594.058 76.0477 593.887 75.9678 593.707 75.9678H591.329L597.878 67.2495Z" fill="black"/>
</g>
<path d="M151.248 74.7522H141.868C141.398 74.7522 141.017 75.1318 141.017 75.6V90.4365C141.017 90.9047 141.398 91.2843 141.868 91.2843H151.248C151.718 91.2843 152.099 90.9047 152.099 90.4365V75.6C152.099 75.1318 151.718 74.7522 151.248 74.7522ZM150.398 89.5887H142.718V76.4478H150.398V89.5887ZM124.129 8.62965C124.599 8.62965 124.979 8.25001 124.979 7.78185V2.24452C124.975 1.1356 123.283 1.13628 123.278 2.24452V7.78185C123.278 8.25001 123.659 8.62965 124.129 8.62965ZM134.617 12.9597C134.843 12.9599 135.059 12.8705 135.219 12.7113L139.146 8.79599C139.913 8.03026 138.71 6.8335 137.943 7.5972L134.015 11.5125C133.477 12.0173 133.882 12.9806 134.617 12.9597H134.617ZM134.016 32.4227C133.684 32.7537 133.684 33.2905 134.016 33.6215L137.943 37.5368C138.711 38.3012 139.912 37.1029 139.146 36.338L135.219 32.4227C134.887 32.0915 134.348 32.0912 134.016 32.4222L134.015 32.4227H134.016ZM138.111 22.567C138.111 23.0351 138.492 23.4148 138.961 23.4148H144.516C145.629 23.4099 145.628 21.7238 144.516 21.7192H138.961C138.491 21.7192 138.11 22.0988 138.11 22.567H138.111ZM113.038 32.4227L109.11 36.338C108.305 37.0907 109.509 38.3332 110.292 37.5575C110.299 37.5507 110.306 37.5437 110.312 37.5368L114.242 33.6215C115.015 32.8554 113.807 31.652 113.039 32.4227H113.038ZM113.038 12.7113C113.807 13.4825 115.014 12.2779 114.241 11.5125L110.312 7.5972C109.543 6.83282 108.343 8.0311 109.109 8.79599L113.038 12.7113ZM124.129 34.2159C130.583 34.2159 135.815 29.0006 135.815 22.5672C135.279 7.14312 112.974 7.15448 112.443 22.5672C112.45 28.9976 117.678 34.2085 124.129 34.2159ZM124.129 12.614C137.329 13.0214 137.323 32.1161 124.129 32.5203C118.614 32.5203 114.144 28.0641 114.144 22.5672C114.15 17.0727 118.617 12.6203 124.129 12.6136V12.614ZM103.741 23.415H109.296C110.408 23.41 110.408 21.7239 109.296 21.7194H103.741C102.628 21.7243 102.629 23.4104 103.741 23.415H103.741ZM123.278 37.3528V42.89C123.283 43.9989 124.975 43.9982 124.979 42.89V37.353C124.975 36.2441 123.283 36.2447 123.278 37.3528ZM170.358 92.5263L147.311 48.8571C147.15 48.5952 146.866 48.4346 146.559 48.4046H99.7838C99.4639 48.4042 99.1709 48.5835 99.0264 48.8681L76.8404 92.3251C76.5461 92.8702 76.9792 93.5695 77.5978 93.5571H124.373C124.693 93.5574 124.986 93.378 125.13 93.0933L146.571 51.096L168.853 93.3165C169.358 94.2801 170.869 93.486 170.358 92.5267V92.5263ZM129.577 50.0998L123.051 62.8194H109.371L115.896 50.0998H129.577ZM122.181 64.515L115.655 77.2344H101.975L108.501 64.515H122.181ZM100.306 50.0998H113.986L107.46 62.8194H93.8117L100.306 50.0998ZM92.9464 64.515H106.59L100.065 77.2344H86.4522L92.9464 64.515ZM78.9845 91.8615L85.5865 78.93H99.1948L92.5607 91.8615H78.9845ZM94.4715 91.8615L101.106 78.93H114.785L108.151 91.8615H94.4715ZM123.851 91.8615H110.061L116.695 78.93H130.452L123.851 91.8615ZM131.318 77.2344H117.566L124.092 64.515H137.812L131.318 77.2344ZM138.678 62.8194H124.962L131.488 50.0998H145.173L138.678 62.8194Z" fill="black" stroke="black"/>
<path d="M411.431 77.4917C411.46 77.4922 411.49 77.4925 411.52 77.4925C412.768 77.4925 413.942 77.0149 414.835 76.142C415.748 75.2481 416.252 74.0531 416.252 72.7773V69.7476C416.252 68.7225 416.673 67.7203 417.438 66.9257C418.909 65.3974 419.719 63.3892 419.719 61.271C419.719 59.0063 418.811 56.9005 417.161 55.3416C415.512 53.7837 413.35 52.9921 411.072 53.1126C406.78 53.3397 403.302 57.014 403.319 61.3031C403.327 63.3584 404.104 65.3198 405.506 66.826C406.332 67.7129 406.787 68.8175 406.787 69.9362V72.6322C406.787 75.265 408.87 77.4449 411.431 77.4917V77.4917ZM414.356 75.6563C413.574 76.421 412.539 76.8309 411.443 76.8111C409.252 76.7711 407.47 74.8965 407.47 72.6322V72.3967H415.568V72.7773C415.568 73.869 415.138 74.8914 414.356 75.6563V75.6563ZM406.007 66.3631C404.721 64.9824 404.009 63.1845 404.002 61.3005C403.987 57.3686 407.175 54.0005 411.109 53.7923C411.247 53.785 411.385 53.7813 411.523 53.7813C413.458 53.7813 415.28 54.5023 416.691 55.8355C418.203 57.2646 419.036 59.1949 419.036 61.271C419.036 63.2127 418.293 65.0536 416.945 66.4545C416.057 67.3765 415.568 68.546 415.568 69.7476V71.7161H407.47V69.9362C407.47 68.6452 406.95 67.3763 406.007 66.3631Z" fill="black" stroke="black" stroke-width="2"/>
<path d="M410.584 26.7178H372.612L354.118 62.9404M410.584 26.7178L430.848 62.9404V91.7628H392.877M410.584 26.7178L392.877 62.9404M354.118 62.9404V91.7628H392.877M354.118 62.9404H392.877M392.877 91.7628V62.9404" stroke="black" stroke-width="3"/>
</g>
<path d="M118 94.7051V106.5H408.041V72.5H414.882V106.5H596V94.7051" stroke="black"/>
<defs>
<clipPath id="clip0_2408_16773">
<rect width="584" height="95" fill="white" transform="translate(75.8333)"/>
</clipPath>
<clipPath id="clip1_2408_16773">
<rect width="78.4909" height="67.534" fill="white" transform="matrix(-1 0 0 1 659.833 26.9658)"/>
</clipPath>
</defs>
</svg>
