<svg width="64" height="64" viewBox="0 0 64 64" fill="none" xmlns="http://www.w3.org/2000/svg">
<path d="M54.3965 38.3057C54.3411 38.2346 44.5943 19.6083 44.5208 19.5682C44.4335 19.4349 44.2767 19.3851 44.1292 19.3624H33.9422L37.585 12.2042C37.9606 11.4658 37.6664 10.5627 36.928 10.1872C36.7173 10.0801 36.4844 10.0242 36.248 10.0242H19.1655C18.2242 10.0216 17.3621 10.5503 16.9375 11.3904L8.7749 27.43C8.3993 28.1684 8.6935 29.0715 9.4319 29.447C9.6425 29.5541 9.8755 29.61 10.1118 29.61H18.6885L14.2856 38.22C14.2833 38.2247 14.2846 38.23 14.2824 38.2348C14.2495 38.301 14.2319 38.3737 14.231 38.4476V53.4756C14.231 53.7517 14.4549 53.9756 14.731 53.9756H53.9541C54.2302 53.9756 54.4541 53.7517 54.4541 53.4756V38.5381C54.4543 38.4571 54.4345 38.3773 54.3965 38.3057ZM36.248 11.0244C36.6134 11.0155 36.8661 11.4298 36.6943 11.751L34.4354 16.1895H28.897L31.5384 11.0244H36.248ZM25.2333 23.3535H30.7892L28.5312 27.79C28.2765 28.2938 27.7594 28.6109 27.1948 28.6094H22.5454L25.2333 23.3535ZM24.6213 22.3535H19.0982L21.7391 17.1895H27.2622L24.6213 22.3535ZM25.7447 22.3535L28.3856 17.1895H33.9264L31.2982 22.3535H25.7447ZM30.4147 11.0244L27.7733 16.1895H22.2505L24.8919 11.0244H30.4147ZM17.8288 11.8438C18.0835 11.34 18.6006 11.0229 19.1652 11.0244H23.7683L21.1268 16.1895H15.6168L17.8288 11.8438ZM15.1086 17.19H20.6157L17.9749 22.354H12.4805L15.1086 17.19ZM10.1118 28.61C9.7464 28.6189 9.4941 28.2042 9.6665 27.8834L11.9716 23.3541H17.4634L14.7756 28.61H10.1118ZM15.8989 28.61L18.5868 23.3541H24.11L21.4222 28.61H15.8989ZM34.1709 52.9762H15.231V38.9473H34.171L34.1709 52.9762ZM15.5483 37.9473L19.8118 29.6094H27.1948C28.1361 29.6119 28.9983 29.0833 29.4229 28.2432L33.4329 20.3623H43.3129L34.3637 37.9473H15.5483ZM47.6709 52.9756H41.5625V40.4336H47.6709V52.9756ZM53.4541 52.9756H48.6709V39.9336C48.6709 39.6575 48.447 39.4336 48.1709 39.4336H41.0625C40.7864 39.4336 40.5625 39.6575 40.5625 39.9336V52.9756H35.1709V38.5663L44.1362 20.95L53.4541 38.6616V52.9756Z" fill="black" stroke="black" stroke-width="0.75"/>
<rect x="19" y="42" width="5" height="6" rx="0.25" stroke="#DD3627" stroke-width="1.5"/>
</svg>
