<svg width="120" height="64" viewBox="0 0 120 64" fill="none" xmlns="http://www.w3.org/2000/svg">
<rect width="120" height="64" rx="8" fill="#FEF08A"/>
<g clip-path="url(#clip0_359_13866)">
<g clip-path="url(#clip1_359_13866)">
<path d="M104.898 69.9523C102.11 69.674 99.2663 68.2529 97.661 65.468C95.7488 62.1506 95.8666 57.4904 93.7383 54.3737C90.7237 49.9592 83.8963 49.5419 83.0687 43.8932C82.6369 40.9465 84.3051 38.1126 86.2684 36.3068C88.2316 34.5011 90.5619 33.3123 92.399 31.3199C95.9228 27.4982 97.2101 21.1992 100.967 17.7209C106.168 12.9052 113.575 15.4138 119.723 18.1192C123.682 19.8616 127.746 21.6783 130.891 25.0825C134.036 28.4868 136.086 33.8993 134.854 38.7942C134.283 41.059 133.045 43.1957 133.245 45.5518C133.422 47.6356 134.685 49.3104 135.384 51.2249C137.506 57.0301 133.84 64.0097 129.025 66.4771C124.601 68.744 120.552 67.3972 116.014 67.7851C112.185 68.1124 108.91 70.3527 104.898 69.9523Z" fill="#D1FAE5"/>
</g>
<g clip-path="url(#clip2_359_13866)">
<path d="M47.6466 52.1289C46.5976 52.1065 45.4996 52.1168 44.3508 52.1625C37.9455 52.4154 35.3478 51.4077 33.5 49.7406C32.8301 49.1378 32.259 48.4474 31.6409 47.6991C31.4565 47.4762 31.2683 47.2485 31.0726 47.0163C30.9146 46.8297 30.7508 46.6403 30.5805 46.448C29.9568 45.7437 29.2351 45.0058 28.3188 44.2546C28.2792 44.223 28.2397 44.1912 28.2002 44.1595C26.2912 42.6229 23.5486 41.0332 19.1285 39.5581C18.7493 39.4322 18.373 39.3108 17.9986 39.1952C17.8969 39.1644 17.7953 39.1336 17.6946 39.1028C17.4115 39.0179 17.1311 38.9358 16.8507 38.8565C16.6005 38.7856 16.3521 38.7175 16.1037 38.6513C16.0689 38.6419 16.0341 38.6326 15.9993 38.6233C15.8751 38.5906 15.7509 38.5589 15.6276 38.5272C12.1154 37.6288 8.81584 37.1911 5.81362 37.0522C5.47867 37.0363 5.14749 37.0241 4.82008 37.0158C3.10278 36.9715 1.49081 37.0231 0 37.1377V64H64.533C64.5386 63.9841 64.5443 63.9692 64.5499 63.9534C66.6574 58.2669 61.4197 52.4134 47.6466 52.1289Z" fill="#A7F3D0"/>
</g>
<g clip-path="url(#clip3_359_13866)">
<path d="M62.9628 37.4222C62.9628 33.049 72.8439 34.7311 75.9108 22.2844C78.3883 12.23 75.5789 11.1832 75.5789 11.1832H46.2839C46.2839 11.1832 43.2834 12.2803 45.9518 22.2844C49.2718 34.7311 58.8999 33.049 58.8999 37.4222C58.8999 43.141 49.6038 40.1134 45.9518 52.5601C43.0373 62.4934 46.2839 63.6612 46.2839 63.6612H75.5789C75.5789 63.6612 78.3879 62.6145 75.9108 52.5601C73.1759 41.459 62.9628 43.141 62.9628 37.4222Z" fill="white"/>
<path d="M47.0623 62C46.6785 60.934 48.1752 55.5092 48.6357 54.5194C49.0962 53.5296 60.0334 46.9245 60.8777 47.0007C61.7219 47.0768 72.141 52.5207 73.4458 54.8049C74.7506 57.0891 75 62 75 62H47.0623Z" fill="#FDBA74"/>
<path d="M60.2482 34.3185C59.738 34.3185 55.8254 32.1353 53.614 30.5266C51.4026 28.9178 51.9129 28.2284 52.7634 27.9411C53.614 27.6539 68.697 27.7688 69.3208 28.4008C69.9445 29.0328 66.4289 31.1586 64.8979 32.2502C63.7773 33.0492 61.2122 34.3185 60.2482 34.3185Z" fill="#FDBA74"/>
<rect x="42" y="11" width="38" height="3" rx="1.5" fill="#6366F1"/>
<rect x="42" y="61" width="38" height="3" rx="1.5" fill="#6366F1"/>
</g>
</g>
<defs>
<clipPath id="clip0_359_13866">
<rect width="120" height="64" rx="8" fill="white"/>
</clipPath>
<clipPath id="clip1_359_13866">
<rect width="53" height="55" fill="white" transform="translate(83 15)"/>
</clipPath>
<clipPath id="clip2_359_13866">
<rect width="65" height="27" fill="white" transform="translate(0 37)"/>
</clipPath>
<clipPath id="clip3_359_13866">
<rect width="38" height="53" fill="white" transform="translate(42 11)"/>
</clipPath>
</defs>
</svg>
