<svg width="354" height="161" viewBox="0 0 354 161" fill="none" xmlns="http://www.w3.org/2000/svg">
<g clip-path="url(#clip0_2052_29243)">
<rect width="354" height="161" rx="12" fill="#FEF08A"/>
<path d="M244.335 170.918C244.335 170.918 226.784 165.549 235.361 160.021C240.952 156.419 261.925 154.444 273.761 156.419C278.802 157.259 292.909 156.14 303.611 152.966C321.357 147.702 376.889 153.551 359.761 164.077C351.935 168.886 365.319 168.271 361.963 171L244.335 170.918Z" fill="#A7F3D0"/>
<path d="M12.3346 169.918C12.3346 169.918 -5.21627 164.549 3.36121 159.021C8.95218 155.419 29.9249 153.444 41.7609 155.419C46.802 156.259 60.9093 155.14 71.6106 151.966C89.3575 146.702 144.889 152.551 127.761 163.077C119.935 167.886 133.319 167.271 129.963 170L12.3346 169.918Z" fill="#A7F3D0"/>
<g clip-path="url(#clip1_2052_29243)">
<path d="M173.658 110.134H173.655L210.178 62.4336L247.774 110.134H247.773V176L173.658 175.858V110.134Z" fill="#FED7AA"/>
<path d="M171.422 113.05L173.655 110.134H173.658V175.858H110.897V113.05H171.422Z" fill="#FFF7ED"/>
<path fill-rule="evenodd" clip-rule="evenodd" d="M171.422 113.05L173.655 110.134L210.178 62.4335L211.275 61.0011L211.276 61L210.976 61.0001L208.867 61.0004L191.192 61.0034L149.141 61.0122L145.012 61.013L104 113.05H110.897H171.422ZM250 110.134L211.275 61.0015L210.178 62.4339L247.774 110.134H250Z" fill="#FB923C"/>
<path d="M173.655 110.134L174.449 110.742L174.449 110.742L173.655 110.134ZM171.422 113.05L172.216 113.658C172.027 113.905 171.733 114.05 171.422 114.05V113.05ZM210.178 62.4335L209.384 61.8256L209.384 61.8256L210.178 62.4335ZM211.275 61.0011L212.075 61.6016L212.069 61.6091L211.275 61.0011ZM211.276 61L211.276 60C211.654 59.9999 212.001 60.214 212.17 60.5529C212.34 60.8918 212.303 61.2974 212.075 61.6004L211.276 61ZM210.976 61.0001L210.976 62.0001H210.976L210.976 61.0001ZM208.867 61.0004L208.867 62.0004H208.867L208.867 61.0004ZM191.192 61.0034L191.192 60.0034H191.192L191.192 61.0034ZM149.141 61.0122L149.142 62.0122L149.141 61.0122ZM145.012 61.013L144.227 60.394C144.416 60.1535 144.706 60.0131 145.012 60.013L145.012 61.013ZM104 113.05V114.05C103.617 114.05 103.268 113.831 103.1 113.486C102.933 113.142 102.978 112.732 103.215 112.431L104 113.05ZM211.275 61.0015L210.481 60.3936C210.669 60.1484 210.959 60.0037 211.268 60.0016C211.577 59.9994 211.869 60.14 212.06 60.3825L211.275 61.0015ZM250 110.134L250.785 109.515C251.023 109.816 251.067 110.226 250.9 110.571C250.733 110.916 250.383 111.134 250 111.134V110.134ZM210.178 62.4339L209.393 63.0529C209.11 62.694 209.106 62.1889 209.384 61.826L210.178 62.4339ZM247.774 110.134V111.134C247.468 111.134 247.179 110.994 246.989 110.753L247.774 110.134ZM174.449 110.742L172.216 113.658L170.628 112.442L172.861 109.526L174.449 110.742ZM210.972 63.0415L174.449 110.742L172.861 109.526L209.384 61.8256L210.972 63.0415ZM212.069 61.6091L210.972 63.0415L209.384 61.8256L210.481 60.3932L212.069 61.6091ZM212.075 61.6004L212.075 61.6015L210.475 60.4008L210.476 60.3996L212.075 61.6004ZM210.975 60.0001L211.276 60L211.276 62L210.976 62.0001L210.975 60.0001ZM208.866 60.0004L210.975 60.0001L210.976 62.0001L208.867 62.0004L208.866 60.0004ZM191.192 60.0034L208.866 60.0004L208.867 62.0004L191.192 62.0034L191.192 60.0034ZM149.141 60.0122L191.192 60.0034L191.192 62.0034L149.142 62.0122L149.141 60.0122ZM145.012 60.013L149.141 60.0122L149.142 62.0122L145.012 62.013L145.012 60.013ZM103.215 112.431L144.227 60.394L145.798 61.632L104.785 113.669L103.215 112.431ZM110.897 114.05H104V112.05H110.897V114.05ZM171.422 114.05H110.897V112.05H171.422V114.05ZM212.06 60.3825L250.785 109.515L249.215 110.753L210.489 61.6205L212.06 60.3825ZM209.384 61.826L210.481 60.3936L212.069 61.6095L210.972 63.0419L209.384 61.826ZM246.989 110.753L209.393 63.0529L210.963 61.8149L248.56 109.515L246.989 110.753ZM250 111.134H247.774V109.134H250V111.134Z" fill="#FB923C"/>
<path d="M164.802 102.222H124.598L149.304 70.7388H189.508L164.802 102.222Z" fill="#F97316"/>
<path d="M160 153C156.336 146.39 149.868 142 142.5 142C135.132 142 128.664 146.39 125 153C125 153 132 149.5 142.5 149.5C153 149.5 160 153 160 153Z" fill="#FED7AA"/>
<path d="M135 123C135 126.314 131.418 129 127 129C122.582 129 119 126.314 119 123" stroke="#3730A3" stroke-linejoin="round"/>
<path d="M166 123C166 126.314 162.418 129 158 129C153.582 129 150 126.314 150 123" stroke="#3730A3" stroke-linejoin="round"/>
</g>
<path d="M135.606 72.6322C135.386 72.8829 135.071 73.0305 134.755 73.0305H79.3231C78.9446 73.0305 78.6249 72.8185 78.4971 72.4827C78.3692 72.1469 78.4552 71.7449 78.7191 71.4441L112.784 32.6168C113.004 32.3662 113.319 32.2186 113.635 32.2186H169.067C169.445 32.2186 169.765 32.4306 169.893 32.7664C170.02 33.1022 169.935 33.5042 169.671 33.805L135.606 72.6322Z" fill="#4F46E5" stroke="#C7D2FE" stroke-width="2" stroke-linejoin="round"/>
<path fill-rule="evenodd" clip-rule="evenodd" d="M119.192 42.981L119.13 41.6566L126.541 33.21H126.119L118.809 41.5424L116.218 42.981H105.091L104.69 43.4377H115.758L115.828 44.9401L110.576 50.9258L107.928 52.3962H96.6785L96.278 52.8529H107.527L107.595 54.3233L101.666 61.0817L99.0177 62.5522H87.7684L87.3676 63.0089H98.617L98.685 64.4794L92.0539 72.0375H92.4757L99.207 64.3651L101.65 63.0089H113.146L113.222 64.6506L106.741 72.0375H107.162L114.044 64.1941L116.179 63.0089H127.489L127.554 64.4222L120.873 72.0375H121.295L127.976 64.4225L130.522 63.0089H142.8L143.2 62.5522H130.923L130.857 61.1386L136.886 54.2666L139.432 52.8529H151.71L152.111 52.3962H139.833L139.767 50.9825L145.119 44.883L147.722 43.4377H160.123L160.524 42.981H148.064L148 41.5993L155.36 33.21H154.938L147.578 41.5995L145.09 42.981H133.72L133.667 41.8278L141.228 33.21H140.806L133.646 41.3712L130.747 42.981H119.192ZM127.89 62.5522L130.435 61.1389L136.465 54.2662L136.399 52.8529H125.089L122.954 54.0381L116.524 61.367L116.579 62.5522H127.89ZM102.05 62.5522H113.546L116.503 60.9106L122.132 54.4946L122.056 52.8529H110.56L108.117 54.2093L101.988 61.1959L102.05 62.5522ZM125.49 52.3962H136.8L139.345 50.9829L144.697 44.8827L144.63 43.4377H133.379L131.187 44.6545L125.435 51.211L125.49 52.3962ZM116.35 44.8254L110.898 51.0398L110.961 52.3962H122.457L125.413 50.7545L130.365 45.111L130.287 43.4377H118.85L116.35 44.8254Z" fill="#C7D2FE"/>
<rect x="161" y="17" width="32" height="32" rx="16" fill="#FECDD3"/>
<g clip-path="url(#clip2_2052_29243)">
<path fill-rule="evenodd" clip-rule="evenodd" d="M185.372 26.5144C185.892 25.9937 185.892 25.1495 185.372 24.6288C184.851 24.1081 184.007 24.1081 183.486 24.6288L177 31.1146L170.514 24.6288C169.994 24.1081 169.15 24.1081 168.629 24.6288C168.108 25.1495 168.108 25.9937 168.629 26.5144L175.115 33.0002L168.629 39.4859C168.108 40.0066 168.108 40.8509 168.629 41.3716C169.15 41.8923 169.994 41.8923 170.514 41.3716L177 34.8858L183.486 41.3716C184.007 41.8923 184.851 41.8923 185.372 41.3716C185.892 40.8509 185.892 40.0066 185.372 39.4859L178.886 33.0002L185.372 26.5144Z" fill="#BE123C"/>
</g>
</g>
<defs>
<clipPath id="clip0_2052_29243">
<rect width="354" height="161" rx="12" fill="white"/>
</clipPath>
<clipPath id="clip1_2052_29243">
<rect width="146" height="115" fill="white" transform="matrix(-1 0 0 1 250 61)"/>
</clipPath>
<clipPath id="clip2_2052_29243">
<rect width="16" height="16" fill="white" transform="translate(169 25)"/>
</clipPath>
</defs>
</svg>
