<svg width="64" height="64" viewBox="0 0 64 64" fill="none" xmlns="http://www.w3.org/2000/svg">
<path d="M44.3512 9.50605C44.3512 9.78215 44.1273 10.006 43.8512 10.006C43.5751 10.006 43.3512 9.78215 43.3512 9.50605V6.24035C43.3539 5.58675 44.3483 5.58635 44.3512 6.24035V9.50605Z" fill="black"/>
<path d="M50.3706 12.4132C50.2769 12.5071 50.1497 12.5598 50.0172 12.5597C49.5851 12.572 49.3466 12.0039 49.6632 11.7062L51.9722 9.39715C52.4233 8.94675 53.1301 9.65255 52.6792 10.1041L50.3706 12.4132Z" fill="black"/>
<path d="M49.6637 24.0382C49.4684 24.2334 49.4684 24.55 49.6637 24.7452L51.9722 27.0543C52.4238 27.5051 53.1297 26.7984 52.6792 26.3473L50.3706 24.0382C50.1754 23.8429 49.859 23.843 49.6637 24.0382Z" fill="black"/>
<path d="M52.5709 18.7257C52.2948 18.7257 52.0709 18.5018 52.0709 18.2257C52.0709 17.9496 52.2943 17.7257 52.5704 17.7257H55.8364C56.49 17.7284 56.4904 18.7228 55.8364 18.7257H52.5709Z" fill="black"/>
<path d="M37.3312 24.0382L35.0217 26.3473C34.5484 26.7912 35.2567 27.524 35.7165 27.0665C35.7207 27.0625 35.7247 27.0584 35.7287 27.0543L38.0387 24.7452C38.4935 24.2934 37.7825 23.5837 37.3312 24.0382Z" fill="black"/>
<path d="M38.0383 11.7062C38.4927 12.1576 37.7829 12.868 37.3312 12.4132L35.0213 10.1041C34.5709 9.65305 35.2767 8.94635 35.7283 9.39715L38.0383 11.7062Z" fill="black"/>
<path fill-rule="evenodd" clip-rule="evenodd" d="M13.8917 20.583C13.8917 19.2523 15.7946 18.1698 17.1254 18.1698L17.3232 18.1699C17.6014 18.1699 17.8271 18.3955 17.8271 18.6738V26.5036C17.8271 26.7819 17.6014 27.0075 17.3232 27.0075H17.1254C15.7947 27.0075 13.8917 25.9251 13.8917 24.5944V20.583ZM16.8192 19.2112C16.1911 19.3513 14.8995 19.9134 14.8995 20.583V24.5943C14.8995 25.2639 16.1911 25.826 16.8192 25.9661V19.2112Z" fill="black"/>
<path fill-rule="evenodd" clip-rule="evenodd" d="M13.8917 36.8167C13.8917 35.486 15.7946 34.4035 17.1254 34.4035H17.3232C17.6014 34.4035 17.8271 34.6291 17.8271 34.9074V42.7373C17.8271 43.0156 17.6014 43.2412 17.3232 43.2412H17.1254C15.7947 43.2412 13.8917 42.1588 13.8917 40.8281V36.8167ZM16.8192 35.4449C16.1911 35.585 14.8995 36.1471 14.8995 36.8167V40.8281C14.8995 41.4976 16.1911 42.0597 16.8192 42.1998V35.4449Z" fill="black"/>
<path fill-rule="evenodd" clip-rule="evenodd" d="M35.1312 18.7258C35.7852 18.7229 35.7848 17.7285 35.1312 17.7258H31.8654C31.8287 17.726 31.7941 17.7293 31.7615 17.7353V17.0024C31.7615 14.8371 29.9862 13.0718 27.8308 13.0718H14.7454C12.5778 13.0718 10.8146 14.835 10.8146 17.0024V50.9162C10.8146 53.0837 12.5778 54.8468 14.7454 54.8468H27.8308C29.0083 54.8468 30.0633 54.3241 30.7834 53.5018C30.9303 54.267 31.6046 54.8468 32.4121 54.8468H50.277C51.1916 54.8468 51.9354 54.103 51.9354 53.1884V36.062C51.9354 35.1474 51.1916 34.4035 50.277 34.4035H31.7615V18.7164C31.7941 18.7224 31.8287 18.7257 31.8654 18.7258H35.1312ZM14.7454 14.0797C13.1338 14.0797 11.8224 15.3909 11.8224 17.0024V31.2943H30.7537V17.0024C30.7537 15.4138 29.4029 14.0797 27.8308 14.0797H14.7454ZM11.8224 32.3021V50.9162C11.8224 52.5277 13.1338 53.839 14.7454 53.839H27.8308C29.4424 53.839 30.7537 52.5277 30.7537 50.9162V32.3021H11.8224ZM31.7615 35.4113V38.1011H50.9276V36.0619C50.9276 35.7033 50.6356 35.4113 50.277 35.4113H31.7615ZM31.7615 39.109V53.1884C31.7615 53.5471 32.0535 53.839 32.4121 53.839H50.277C50.6356 53.839 50.9276 53.547 50.9276 53.1884V39.109H31.7615Z" fill="black"/>
<path d="M43.3512 30.2114V26.9458C43.3539 26.2923 44.3483 26.2919 44.3512 26.9459V30.2114C44.3485 30.865 43.354 30.8654 43.3512 30.2114Z" fill="black"/>
<path fill-rule="evenodd" clip-rule="evenodd" d="M50.7211 18.2258C50.7211 22.02 47.6454 25.0958 43.8512 25.0958C40.0588 25.0914 36.9856 22.0182 36.9812 18.2258C37.2933 9.13605 50.4059 9.12935 50.7211 18.2258ZM43.8512 12.3558C51.6112 12.5961 51.6077 23.8574 43.8511 24.0958C40.6092 24.0958 37.9812 21.4677 37.9812 18.2258C37.9849 14.9854 40.6108 12.3597 43.8512 12.3558Z" fill="black"/>
<path d="M44.3512 9.50605C44.3512 9.78215 44.1273 10.006 43.8512 10.006C43.5751 10.006 43.3512 9.78215 43.3512 9.50605V6.24035C43.3539 5.58675 44.3483 5.58635 44.3512 6.24035V9.50605Z" stroke="black" stroke-width="0.75"/>
<path d="M50.3706 12.4132C50.2769 12.5071 50.1497 12.5598 50.0172 12.5597C49.5851 12.572 49.3466 12.0039 49.6632 11.7062L51.9722 9.39715C52.4233 8.94675 53.1301 9.65255 52.6792 10.1041L50.3706 12.4132Z" stroke="black" stroke-width="0.75"/>
<path d="M49.6637 24.0382C49.4684 24.2334 49.4684 24.55 49.6637 24.7452L51.9722 27.0543C52.4238 27.5051 53.1297 26.7984 52.6792 26.3473L50.3706 24.0382C50.1754 23.8429 49.859 23.843 49.6637 24.0382Z" stroke="black" stroke-width="0.75"/>
<path d="M52.5709 18.7257C52.2948 18.7257 52.0709 18.5018 52.0709 18.2257C52.0709 17.9496 52.2943 17.7257 52.5704 17.7257H55.8364C56.49 17.7284 56.4904 18.7228 55.8364 18.7257H52.5709Z" stroke="black" stroke-width="0.75"/>
<path d="M37.3312 24.0382L35.0217 26.3473C34.5484 26.7912 35.2567 27.524 35.7165 27.0665C35.7207 27.0625 35.7247 27.0584 35.7287 27.0543L38.0387 24.7452C38.4935 24.2934 37.7825 23.5837 37.3312 24.0382Z" stroke="black" stroke-width="0.75"/>
<path d="M38.0383 11.7062C38.4927 12.1576 37.7829 12.868 37.3312 12.4132L35.0213 10.1041C34.5709 9.65305 35.2767 8.94635 35.7283 9.39715L38.0383 11.7062Z" stroke="black" stroke-width="0.75"/>
<path fill-rule="evenodd" clip-rule="evenodd" d="M13.8917 20.583C13.8917 19.2523 15.7946 18.1698 17.1254 18.1698L17.3232 18.1699C17.6014 18.1699 17.8271 18.3955 17.8271 18.6738V26.5036C17.8271 26.7819 17.6014 27.0075 17.3232 27.0075H17.1254C15.7947 27.0075 13.8917 25.9251 13.8917 24.5944V20.583ZM16.8192 19.2112C16.1911 19.3513 14.8995 19.9134 14.8995 20.583V24.5943C14.8995 25.2639 16.1911 25.826 16.8192 25.9661V19.2112Z" stroke="black" stroke-width="0.75"/>
<path fill-rule="evenodd" clip-rule="evenodd" d="M13.8917 36.8167C13.8917 35.486 15.7946 34.4035 17.1254 34.4035H17.3232C17.6014 34.4035 17.8271 34.6291 17.8271 34.9074V42.7373C17.8271 43.0156 17.6014 43.2412 17.3232 43.2412H17.1254C15.7947 43.2412 13.8917 42.1588 13.8917 40.8281V36.8167ZM16.8192 35.4449C16.1911 35.585 14.8995 36.1471 14.8995 36.8167V40.8281C14.8995 41.4976 16.1911 42.0597 16.8192 42.1998V35.4449Z" stroke="black" stroke-width="0.75"/>
<path fill-rule="evenodd" clip-rule="evenodd" d="M35.1312 18.7258C35.7852 18.7229 35.7848 17.7285 35.1312 17.7258H31.8654C31.8287 17.726 31.7941 17.7293 31.7615 17.7353V17.0024C31.7615 14.8371 29.9862 13.0718 27.8308 13.0718H14.7454C12.5778 13.0718 10.8146 14.835 10.8146 17.0024V50.9162C10.8146 53.0837 12.5778 54.8468 14.7454 54.8468H27.8308C29.0083 54.8468 30.0633 54.3241 30.7834 53.5018C30.9303 54.267 31.6046 54.8468 32.4121 54.8468H50.277C51.1916 54.8468 51.9354 54.103 51.9354 53.1884V36.062C51.9354 35.1474 51.1916 34.4035 50.277 34.4035H31.7615V18.7164C31.7941 18.7224 31.8287 18.7257 31.8654 18.7258H35.1312ZM14.7454 14.0797C13.1338 14.0797 11.8224 15.3909 11.8224 17.0024V31.2943H30.7537V17.0024C30.7537 15.4138 29.4029 14.0797 27.8308 14.0797H14.7454ZM11.8224 32.3021V50.9162C11.8224 52.5277 13.1338 53.839 14.7454 53.839H27.8308C29.4424 53.839 30.7537 52.5277 30.7537 50.9162V32.3021H11.8224ZM31.7615 35.4113V38.1011H50.9276V36.0619C50.9276 35.7033 50.6356 35.4113 50.277 35.4113H31.7615ZM31.7615 39.109V53.1884C31.7615 53.5471 32.0535 53.839 32.4121 53.839H50.277C50.6356 53.839 50.9276 53.547 50.9276 53.1884V39.109H31.7615Z" stroke="black" stroke-width="0.75"/>
<path d="M43.3512 30.2114V26.9458C43.3539 26.2923 44.3483 26.2919 44.3512 26.9459V30.2114C44.3485 30.865 43.354 30.8654 43.3512 30.2114Z" stroke="black" stroke-width="0.75"/>
<path fill-rule="evenodd" clip-rule="evenodd" d="M50.7211 18.2258C50.7211 22.02 47.6454 25.0958 43.8512 25.0958C40.0588 25.0914 36.9856 22.0182 36.9812 18.2258C37.2933 9.13605 50.4059 9.12935 50.7211 18.2258ZM43.8512 12.3558C51.6112 12.5961 51.6077 23.8574 43.8511 24.0958C40.6092 24.0958 37.9812 21.4677 37.9812 18.2258C37.9849 14.9854 40.6108 12.3597 43.8512 12.3558Z" stroke="black" stroke-width="0.75"/>
<circle cx="41.5" cy="46.5" r="4.5" stroke="#DD3627" stroke-width="1.5"/>
</svg>
