<svg width="669" height="209" viewBox="0 0 669 209" fill="none" xmlns="http://www.w3.org/2000/svg">
<g clip-path="url(#clip0_2670_17595)">
<path fill-rule="evenodd" clip-rule="evenodd" d="M269 27.752C268.83 27.752 268.661 27.7522 268.491 27.7527C267.939 27.7543 267.49 27.3079 267.488 26.7556C267.487 26.2033 267.933 25.7543 268.485 25.7527C268.657 25.7522 268.828 25.752 269 25.752C269.172 25.752 269.343 25.7522 269.515 25.7527C270.067 25.7543 270.513 26.2033 270.512 26.7556C270.51 27.3079 270.061 27.7543 269.509 27.7527C269.339 27.7522 269.17 27.752 269 27.752ZM259.31 27.0162C259.343 27.5675 258.924 28.0416 258.373 28.0752C258.034 28.0959 257.697 28.1175 257.359 28.14C256.808 28.1769 256.331 27.76 256.294 27.209C256.258 26.6579 256.674 26.1813 257.225 26.1445C257.567 26.1216 257.909 26.0998 258.251 26.0789C258.802 26.0453 259.276 26.4649 259.31 27.0162ZM278.69 27.0162C278.724 26.4649 279.198 26.0453 279.749 26.0789C280.091 26.0998 280.433 26.1217 280.775 26.1445C281.326 26.1813 281.742 26.6579 281.706 27.209C281.669 27.76 281.192 28.1769 280.641 28.14C280.304 28.1175 279.966 28.0959 279.628 28.0752C279.076 28.0416 278.657 27.5675 278.69 27.0162ZM248.151 27.993C248.22 28.5409 247.832 29.0411 247.284 29.11C246.948 29.1523 246.613 29.1955 246.278 29.2396C245.731 29.3118 245.228 28.9265 245.156 28.3789C245.084 27.8314 245.469 27.329 246.017 27.2568C246.355 27.2121 246.695 27.1684 247.034 27.1257C247.582 27.0567 248.082 27.445 248.151 27.993ZM289.849 27.993C289.918 27.445 290.418 27.0567 290.966 27.1257C291.306 27.1684 291.645 27.2121 291.983 27.2568C292.531 27.329 292.916 27.8314 292.844 28.3789C292.772 28.9265 292.269 29.3118 291.722 29.2396C291.387 29.1955 291.052 29.1523 290.716 29.11C290.168 29.0411 289.78 28.5409 289.849 27.993ZM237.081 29.6855C237.185 30.2279 236.83 30.752 236.288 30.8561C235.956 30.9198 235.625 30.9844 235.294 31.05C234.752 31.1573 234.226 30.8051 234.119 30.2634C234.011 29.7216 234.363 29.1954 234.905 29.0881C235.24 29.0218 235.575 28.9564 235.91 28.892C236.453 28.7879 236.977 29.1431 237.081 29.6855ZM300.919 29.6855C301.023 29.1431 301.547 28.7879 302.09 28.892C302.425 28.9564 302.76 29.0218 303.095 29.0881C303.637 29.1954 303.989 29.7216 303.881 30.2634C303.774 30.8051 303.248 31.1573 302.706 31.05C302.375 30.9844 302.044 30.9198 301.712 30.8561C301.17 30.752 300.815 30.2279 300.919 29.6855ZM226.145 32.0871C226.284 32.6216 225.963 33.1675 225.429 33.3063C225.102 33.3911 224.776 33.4768 224.45 33.5635C223.917 33.7054 223.369 33.3878 223.227 32.854C223.085 32.3203 223.403 31.7726 223.936 31.6306C224.266 31.543 224.596 31.4563 224.926 31.3706C225.46 31.2317 226.006 31.5525 226.145 32.0871ZM311.855 32.0871C311.994 31.5525 312.54 31.2317 313.074 31.3706C313.404 31.4563 313.734 31.543 314.064 31.6306C314.597 31.7726 314.915 32.3203 314.773 32.854C314.631 33.3878 314.083 33.7054 313.55 33.5635C313.224 33.4768 312.898 33.3911 312.571 33.3063C312.037 33.1675 311.716 32.6217 311.855 32.0871ZM215.387 35.1853C215.559 35.7099 215.274 36.2751 214.75 36.4478C214.429 36.5533 214.109 36.6596 213.79 36.7668C213.266 36.9426 212.699 36.6606 212.524 36.137C212.348 35.6134 212.63 35.0465 213.154 34.8708C213.477 34.7623 213.8 34.6548 214.124 34.5481C214.649 34.3754 215.214 34.6607 215.387 35.1853ZM322.613 35.1853C322.786 34.6607 323.351 34.3754 323.876 34.5481C324.2 34.6548 324.523 34.7623 324.846 34.8708C325.37 35.0465 325.652 35.6134 325.476 36.137C325.301 36.6606 324.734 36.9426 324.21 36.7668C323.891 36.6596 323.571 36.5533 323.25 36.4478C322.726 36.2751 322.441 35.7099 322.613 35.1853ZM333.153 38.9624C333.358 38.4498 333.941 38.2009 334.453 38.4065C334.77 38.5335 335.087 38.6615 335.403 38.7904C335.914 38.9989 336.16 39.5825 335.951 40.0939C335.743 40.6053 335.159 40.8509 334.648 40.6424C334.335 40.515 334.022 40.3884 333.709 40.2628C333.196 40.0572 332.947 39.475 333.153 38.9624ZM204.847 38.9624C205.053 39.475 204.804 40.0572 204.291 40.2628C203.978 40.3884 203.665 40.515 203.352 40.6424C202.841 40.8509 202.257 40.6053 202.049 40.0939C201.84 39.5825 202.086 38.9989 202.597 38.7904C202.913 38.6615 203.23 38.5336 203.547 38.4065C204.059 38.2009 204.642 38.4498 204.847 38.9624ZM343.436 43.3969C343.673 42.8982 344.27 42.6861 344.768 42.9234C345.076 43.0699 345.384 43.2174 345.692 43.3657C346.189 43.6057 346.398 44.2035 346.158 44.7009C345.918 45.1983 345.32 45.407 344.822 45.167C344.518 45.0203 344.214 44.8745 343.909 44.7295C343.41 44.4923 343.198 43.8957 343.436 43.3969ZM194.564 43.3969C194.802 43.8957 194.59 44.4923 194.091 44.7295C193.786 44.8745 193.482 45.0203 193.178 45.167C192.68 45.407 192.082 45.1983 191.842 44.7009C191.602 44.2035 191.811 43.6057 192.308 43.3657C192.616 43.2174 192.924 43.07 193.232 42.9234C193.73 42.6862 194.327 42.8982 194.564 43.3969ZM353.422 48.4615C353.69 47.9784 354.298 47.8035 354.781 48.071C355.08 48.2362 355.378 48.4023 355.676 48.5692C356.157 48.8394 356.329 49.4489 356.059 49.9306C355.788 50.4123 355.179 50.5838 354.697 50.3136C354.403 50.1485 354.108 49.9842 353.813 49.8208C353.33 49.5533 353.155 48.9447 353.422 48.4615ZM184.578 48.4616C184.845 48.9447 184.67 49.5533 184.187 49.8208C183.892 49.9842 183.597 50.1485 183.303 50.3136C182.821 50.5838 182.212 50.4123 181.941 49.9306C181.671 49.4489 181.843 48.8394 182.324 48.5692C182.622 48.4023 182.92 48.2362 183.219 48.071C183.702 47.8035 184.31 47.9784 184.578 48.4616ZM363.08 54.1277C363.376 53.6616 363.994 53.5239 364.461 53.8202C364.748 54.0032 365.036 54.1871 365.323 54.3717C365.787 54.6706 365.922 55.2893 365.623 55.7538C365.324 56.2183 364.705 56.3525 364.241 56.0537C363.957 55.8711 363.673 55.6892 363.388 55.5081C362.922 55.2118 362.784 54.5938 363.08 54.1277ZM174.92 54.1277C175.216 54.5938 175.078 55.2118 174.612 55.5081C174.327 55.6892 174.043 55.8711 173.759 56.0537C173.295 56.3526 172.676 56.2183 172.377 55.7538C172.078 55.2893 172.213 54.6706 172.677 54.3718C172.964 54.1871 173.252 54.0033 173.539 53.8202C174.006 53.5239 174.624 53.6616 174.92 54.1277ZM372.38 60.365C372.704 59.9174 373.329 59.8168 373.777 60.1403C374.053 60.3402 374.329 60.5409 374.605 60.7424C375.051 61.0683 375.148 61.694 374.822 62.1399C374.496 62.5857 373.871 62.683 373.425 62.3571C373.152 62.1577 372.879 61.9591 372.605 61.7613C372.157 61.4378 372.057 60.8127 372.38 60.365ZM165.62 60.365C165.943 60.8127 165.843 61.4378 165.395 61.7613C165.121 61.9591 164.848 62.1577 164.575 62.3571C164.129 62.683 163.504 62.5857 163.178 62.1399C162.852 61.694 162.949 61.0683 163.395 60.7424C163.671 60.541 163.947 60.3402 164.223 60.1403C164.671 59.8168 165.296 59.9174 165.62 60.365ZM381.297 67.1421C381.646 66.7142 382.276 66.6503 382.704 66.9994C382.968 67.2152 383.232 67.4317 383.495 67.6489C383.921 68.0003 383.982 68.6305 383.631 69.0566C383.279 69.4827 382.649 69.5433 382.223 69.1919C381.962 68.9769 381.701 68.7626 381.439 68.5491C381.011 68.2 380.947 67.57 381.297 67.1421ZM156.703 67.1421C157.053 67.57 156.989 68.2 156.561 68.5491C156.299 68.7626 156.038 68.9769 155.777 69.1919C155.351 69.5433 154.721 69.4827 154.369 69.0566C154.018 68.6305 154.079 68.0003 154.505 67.6489C154.768 67.4317 155.032 67.2152 155.296 66.9994C155.724 66.6503 156.354 66.7142 156.703 67.1421ZM389.803 74.4244C390.176 74.0173 390.809 73.9897 391.216 74.3628C391.467 74.5929 391.718 74.8237 391.968 75.0552C392.373 75.4304 392.397 76.0631 392.022 76.4684C391.647 76.8736 391.014 76.8979 390.609 76.5227C390.361 76.2935 390.113 76.0651 389.865 75.8373C389.458 75.4642 389.43 74.8316 389.803 74.4244ZM148.197 74.4244C148.57 74.8316 148.542 75.4642 148.135 75.8373C147.887 76.0651 147.639 76.2935 147.391 76.5227C146.986 76.8979 146.353 76.8736 145.978 76.4684C145.603 76.0632 145.627 75.4305 146.032 75.0552C146.282 74.8237 146.533 74.5929 146.784 74.3628C147.191 73.9897 147.824 74.0173 148.197 74.4244ZM397.879 82.1788C398.274 81.7934 398.908 81.8015 399.293 82.1971C399.531 82.4411 399.768 82.6858 400.005 82.9312C400.388 83.3286 400.377 83.9617 399.979 84.3451C399.582 84.7286 398.949 84.7172 398.565 84.3197C398.403 84.1513 398.24 83.9832 398.077 83.8155C398.005 83.7412 397.933 83.667 397.861 83.5929C397.475 83.1974 397.483 82.5643 397.879 82.1788ZM140.121 82.1788C140.517 82.5643 140.525 83.1974 140.139 83.5929C139.904 83.8345 139.669 84.0768 139.435 84.3197C139.051 84.7172 138.418 84.7286 138.021 84.3451C137.623 83.9617 137.612 83.3287 137.995 82.9312C138.232 82.6858 138.469 82.4411 138.707 82.1971C139.092 81.8016 139.726 81.7934 140.121 82.1788ZM405.508 90.3747C405.924 90.0118 406.556 90.0551 406.919 90.4714C407.143 90.7285 407.366 90.9861 407.589 91.2444C407.95 91.6625 407.903 92.294 407.485 92.6548C407.067 93.0156 406.436 92.9691 406.075 92.5509C405.854 92.2952 405.633 92.0401 405.411 91.7856C405.048 91.3692 405.091 90.7375 405.508 90.3747ZM132.492 90.3747C132.909 90.7375 132.952 91.3692 132.589 91.7856C132.367 92.0401 132.146 92.2952 131.925 92.5509C131.564 92.9691 130.933 93.0156 130.515 92.6548C130.097 92.294 130.05 91.6626 130.411 91.2444C130.634 90.9861 130.857 90.7285 131.081 90.4715C131.444 90.0551 132.076 90.0118 132.492 90.3747ZM412.673 98.98C413.109 98.6405 413.737 98.7183 414.077 99.1538C414.287 99.4229 414.496 99.6926 414.704 99.9629C415.042 100.4 414.961 101.028 414.524 101.366C414.087 101.703 413.459 101.622 413.121 101.185C412.915 100.917 412.707 100.65 412.5 100.384C412.16 99.948 412.238 99.3196 412.673 98.98ZM125.327 98.98C125.762 99.3196 125.84 99.948 125.5 100.384C125.293 100.65 125.085 100.917 124.879 101.185C124.541 101.622 123.913 101.703 123.476 101.366C123.039 101.028 122.958 100.4 123.295 99.9629C123.504 99.6926 123.713 99.423 123.923 99.1539C124.263 98.7183 124.891 98.6405 125.327 98.98ZM419.361 107.963C419.815 107.648 420.438 107.759 420.754 108.213C420.949 108.493 421.143 108.774 421.337 109.055C421.65 109.51 421.536 110.133 421.081 110.446C420.626 110.759 420.003 110.645 419.69 110.19C419.498 109.911 419.305 109.633 419.112 109.356C418.797 108.902 418.908 108.279 419.361 107.963ZM118.639 107.963C119.092 108.279 119.203 108.902 118.888 109.356C118.695 109.633 118.502 109.911 118.31 110.19C117.997 110.645 117.374 110.759 116.919 110.446C116.464 110.133 116.35 109.51 116.663 109.055C116.857 108.774 117.051 108.493 117.246 108.213C117.562 107.759 118.185 107.648 118.639 107.963ZM425.559 117.294C426.028 117.003 426.644 117.147 426.935 117.617C427.115 117.907 427.295 118.198 427.473 118.489C427.762 118.96 427.615 119.576 427.144 119.865C426.673 120.153 426.057 120.006 425.768 119.535C425.592 119.246 425.414 118.958 425.236 118.671C424.945 118.201 425.089 117.585 425.559 117.294ZM112.441 117.294C112.911 117.585 113.055 118.201 112.764 118.671C112.586 118.958 112.408 119.246 112.231 119.535C111.943 120.006 111.327 120.153 110.856 119.865C110.385 119.576 110.238 118.96 110.527 118.489C110.705 118.198 110.885 117.907 111.065 117.617C111.356 117.147 111.972 117.003 112.441 117.294ZM431.252 126.938C431.736 126.672 432.344 126.849 432.61 127.333C432.774 127.631 432.937 127.929 433.099 128.228C433.363 128.714 433.183 129.321 432.698 129.584C432.212 129.848 431.605 129.668 431.342 129.183C431.181 128.887 431.019 128.591 430.857 128.296C430.591 127.812 430.768 127.204 431.252 126.938ZM106.748 126.938C107.232 127.204 107.409 127.812 107.143 128.296C106.981 128.591 106.819 128.887 106.658 129.183C106.395 129.668 105.788 129.848 105.302 129.585C104.817 129.321 104.637 128.714 104.901 128.228C105.063 127.93 105.226 127.631 105.39 127.333C105.656 126.849 106.264 126.672 106.748 126.938ZM436.431 136.863C436.928 136.623 437.526 136.831 437.766 137.328C437.915 137.635 438.062 137.941 438.209 138.249C438.447 138.747 438.236 139.344 437.737 139.582C437.239 139.82 436.642 139.609 436.404 139.111C436.299 138.891 436.194 138.673 436.089 138.454C436.048 138.369 436.007 138.284 435.966 138.199C435.725 137.702 435.934 137.104 436.431 136.863ZM101.569 136.863C102.066 137.104 102.275 137.702 102.034 138.199C101.887 138.502 101.741 138.806 101.596 139.111C101.358 139.609 100.761 139.82 100.263 139.582C99.7643 139.344 99.5532 138.747 99.7913 138.249C99.938 137.941 100.085 137.635 100.234 137.328C100.474 136.831 101.072 136.623 101.569 136.863ZM441.089 147.044C441.598 146.83 442.184 147.069 442.399 147.578C442.531 147.891 442.663 148.205 442.793 148.52C443.005 149.03 442.764 149.615 442.254 149.827C441.744 150.039 441.159 149.798 440.947 149.288C440.817 148.976 440.687 148.665 440.556 148.354C440.341 147.845 440.58 147.259 441.089 147.044ZM96.911 147.044C97.4199 147.259 97.6587 147.845 97.4442 148.354C97.3132 148.665 97.1829 148.976 97.0533 149.288C96.8412 149.798 96.2559 150.039 95.7459 149.827C95.236 149.615 94.9945 149.03 95.2066 148.52C95.3374 148.205 95.4689 147.891 95.6011 147.578C95.8156 147.069 96.402 146.83 96.911 147.044ZM445.219 157.452C445.738 157.264 446.312 157.532 446.5 158.051C446.616 158.371 446.731 158.692 446.846 159.013C447.032 159.533 446.761 160.106 446.241 160.291C445.721 160.477 445.148 160.206 444.963 159.686C444.849 159.368 444.735 159.05 444.619 158.733C444.431 158.213 444.7 157.64 445.219 157.452ZM92.7811 157.452C93.3003 157.64 93.5687 158.213 93.3805 158.733C93.2655 159.05 93.1511 159.368 93.0374 159.686C92.8517 160.206 92.2794 160.477 91.7593 160.291C91.2392 160.106 90.9682 159.533 91.154 159.013C91.2687 158.692 91.3841 158.372 91.5002 158.051C91.6884 157.532 92.2619 157.264 92.7811 157.452ZM448.814 168.057C449.342 167.895 449.902 168.192 450.063 168.72C450.163 169.046 450.262 169.373 450.361 169.699C450.52 170.228 450.22 170.786 449.691 170.945C449.162 171.104 448.605 170.805 448.445 170.276C448.348 169.952 448.25 169.629 448.151 169.306C447.989 168.777 448.286 168.218 448.814 168.057ZM89.1857 168.057C89.7138 168.218 90.0108 168.777 89.8492 169.306C89.7503 169.629 89.6521 169.952 89.5545 170.276C89.3953 170.805 88.8375 171.104 88.3087 170.945C87.7798 170.786 87.4802 170.228 87.6395 169.699C87.7379 169.373 87.837 169.046 87.9368 168.72C88.0984 168.192 88.6576 167.895 89.1857 168.057ZM451.87 178.83C452.406 178.695 452.949 179.02 453.084 179.555C453.123 179.707 453.161 179.858 453.198 180.01C453.243 180.19 453.288 180.369 453.332 180.549C453.465 181.085 453.138 181.627 452.602 181.76C452.065 181.892 451.523 181.565 451.391 181.029C451.31 180.7 451.228 180.372 451.145 180.044C451.01 179.509 451.335 178.965 451.87 178.83ZM86.1296 178.83C86.6652 178.965 86.9899 179.509 86.855 180.044C86.7723 180.372 86.6904 180.7 86.6092 181.029C86.4767 181.565 85.9346 181.892 85.3985 181.76C84.8623 181.627 84.5351 181.085 84.6676 180.549C84.7496 180.218 84.8322 179.886 84.9156 179.555C85.0505 179.02 85.5941 178.695 86.1296 178.83ZM454.384 189.744C454.925 189.636 455.452 189.987 455.56 190.529C455.627 190.864 455.693 191.199 455.758 191.534C455.864 192.076 455.51 192.602 454.968 192.707C454.426 192.813 453.901 192.459 453.795 191.917C453.731 191.584 453.665 191.252 453.599 190.92C453.491 190.379 453.842 189.852 454.384 189.744ZM83.6163 189.744C84.1579 189.852 84.5093 190.379 84.4012 190.92C84.335 191.252 84.2694 191.584 84.2046 191.917C84.0989 192.459 83.5738 192.813 83.0317 192.707C82.4897 192.602 82.1359 192.076 82.2415 191.534C82.3069 191.199 82.3731 190.864 82.4399 190.529C82.548 189.987 83.0747 189.636 83.6163 189.744ZM81.6476 200.769C82.1939 200.85 82.5709 201.359 82.4897 201.905C82.4398 202.241 82.3907 202.576 82.3423 202.912C82.2636 203.458 81.7566 203.838 81.2099 203.759C80.6633 203.68 80.284 203.173 80.3628 202.626C80.4116 202.288 80.4611 201.949 80.5114 201.611C80.5927 201.065 81.1013 200.688 81.6476 200.769ZM456.352 200.769C456.899 200.688 457.407 201.065 457.489 201.611C457.539 201.949 457.588 202.288 457.637 202.626C457.716 203.173 457.337 203.68 456.79 203.759C456.243 203.838 455.736 203.458 455.658 202.912C455.627 202.702 455.597 202.492 455.566 202.282C455.548 202.156 455.529 202.031 455.51 201.905C455.429 201.359 455.806 200.85 456.352 200.769ZM80.2238 211.879C80.7734 211.933 81.1748 212.423 81.1204 212.972C81.087 213.31 81.0544 213.648 81.0224 213.986C80.9705 214.535 80.4826 214.939 79.9328 214.887C79.383 214.835 78.9793 214.347 79.0313 213.797C79.0635 213.456 79.0965 213.116 79.1301 212.775C79.1845 212.226 79.6742 211.824 80.2238 211.879ZM457.776 211.879C458.326 211.824 458.815 212.226 458.87 212.775C458.904 213.116 458.936 213.456 458.969 213.797C459.021 214.347 458.617 214.835 458.067 214.887C457.517 214.939 457.03 214.535 456.978 213.986C456.961 213.812 456.945 213.638 456.928 213.465C456.912 213.301 456.896 213.137 456.88 212.972C456.825 212.423 457.227 211.933 457.776 211.879ZM79.3433 223.045C79.8949 223.072 80.3196 223.542 80.2919 224.094C80.2749 224.432 80.2586 224.771 80.2431 225.11C80.2178 225.662 79.7501 226.089 79.1984 226.064C78.6467 226.038 78.2199 225.571 78.2452 225.019C78.2608 224.677 78.2772 224.335 78.2944 223.993C78.3221 223.442 78.7917 223.017 79.3433 223.045ZM458.657 223.045C459.208 223.017 459.678 223.442 459.706 223.993C459.714 224.155 459.722 224.317 459.73 224.479C459.738 224.659 459.747 224.839 459.755 225.019C459.78 225.571 459.353 226.038 458.802 226.064C458.25 226.089 457.782 225.662 457.757 225.11C457.741 224.771 457.725 224.432 457.708 224.094C457.68 223.542 458.105 223.072 458.657 223.045ZM79.0027 234.24C79.555 234.241 80.0018 234.69 80.0006 235.242C80.0002 235.412 80 235.582 80 235.752C80 236.304 79.5523 236.752 79 236.752C78.4477 236.752 78 236.304 78 235.752C78 235.581 78.0002 235.409 78.0006 235.238C78.0018 234.686 78.4505 234.239 79.0027 234.24ZM458.997 234.24C459.55 234.239 459.998 234.686 459.999 235.238C460 235.409 460 235.581 460 235.752C460 236.304 459.552 236.752 459 236.752C458.448 236.752 458 236.304 458 235.752C458 235.582 458 235.412 457.999 235.242C457.998 234.69 458.445 234.241 458.997 234.24Z" fill="#C7D2FE"/>
<path fill-rule="evenodd" clip-rule="evenodd" d="M649 40.752C648.83 40.752 648.661 40.7522 648.491 40.7527C647.939 40.7543 647.49 40.3079 647.488 39.7556C647.487 39.2033 647.933 38.7543 648.485 38.7527C648.657 38.7522 648.828 38.752 649 38.752C649.172 38.752 649.343 38.7522 649.515 38.7527C650.067 38.7543 650.513 39.2033 650.512 39.7556C650.51 40.3079 650.061 40.7543 649.509 40.7527C649.339 40.7522 649.17 40.752 649 40.752ZM639.31 40.0162C639.343 40.5675 638.924 41.0416 638.373 41.0752C638.034 41.0959 637.697 41.1175 637.359 41.14C636.808 41.1769 636.331 40.76 636.294 40.209C636.258 39.6579 636.674 39.1813 637.225 39.1445C637.567 39.1216 637.909 39.0998 638.251 39.0789C638.802 39.0453 639.276 39.4649 639.31 40.0162ZM658.69 40.0162C658.724 39.4649 659.198 39.0453 659.749 39.0789C660.091 39.0998 660.433 39.1217 660.775 39.1445C661.326 39.1813 661.742 39.6579 661.706 40.209C661.669 40.76 661.192 41.1769 660.641 41.14C660.304 41.1175 659.966 41.0959 659.628 41.0752C659.076 41.0416 658.657 40.5675 658.69 40.0162ZM628.151 40.993C628.22 41.5409 627.832 42.0411 627.284 42.11C626.948 42.1523 626.613 42.1955 626.278 42.2396C625.731 42.3118 625.228 41.9265 625.156 41.3789C625.084 40.8314 625.469 40.329 626.017 40.2568C626.355 40.2121 626.695 40.1684 627.034 40.1257C627.582 40.0567 628.082 40.445 628.151 40.993ZM669.849 40.993C669.918 40.445 670.418 40.0567 670.966 40.1257C671.306 40.1684 671.645 40.2121 671.983 40.2568C672.531 40.329 672.916 40.8314 672.844 41.3789C672.772 41.9265 672.269 42.3118 671.722 42.2396C671.387 42.1955 671.052 42.1523 670.716 42.11C670.168 42.0411 669.78 41.5409 669.849 40.993ZM617.081 42.6855C617.185 43.2279 616.83 43.752 616.288 43.8561C615.956 43.9198 615.625 43.9844 615.294 44.05C614.752 44.1573 614.226 43.8051 614.119 43.2634C614.011 42.7216 614.363 42.1954 614.905 42.0881C615.24 42.0218 615.575 41.9564 615.91 41.892C616.453 41.7879 616.977 42.1431 617.081 42.6855ZM680.919 42.6855C681.023 42.1431 681.547 41.7879 682.09 41.892C682.425 41.9564 682.76 42.0218 683.095 42.0881C683.637 42.1954 683.989 42.7216 683.881 43.2634C683.774 43.8051 683.248 44.1573 682.706 44.05C682.375 43.9844 682.044 43.9198 681.712 43.8561C681.17 43.752 680.815 43.2279 680.919 42.6855ZM606.145 45.0871C606.284 45.6216 605.963 46.1675 605.429 46.3063C605.102 46.3911 604.776 46.4768 604.45 46.5635C603.917 46.7054 603.369 46.3878 603.227 45.854C603.085 45.3203 603.403 44.7726 603.936 44.6306C604.266 44.543 604.596 44.4563 604.926 44.3706C605.46 44.2317 606.006 44.5525 606.145 45.0871ZM691.855 45.0871C691.994 44.5525 692.54 44.2317 693.074 44.3706C693.404 44.4563 693.734 44.543 694.064 44.6306C694.597 44.7726 694.915 45.3203 694.773 45.854C694.631 46.3878 694.083 46.7054 693.55 46.5635C693.224 46.4768 692.898 46.3911 692.571 46.3063C692.037 46.1675 691.716 45.6217 691.855 45.0871ZM595.387 48.1853C595.559 48.7099 595.274 49.2751 594.75 49.4478C594.429 49.5533 594.109 49.6596 593.79 49.7668C593.266 49.9426 592.699 49.6606 592.524 49.137C592.348 48.6134 592.63 48.0465 593.154 47.8708C593.477 47.7623 593.8 47.6548 594.124 47.5481C594.649 47.3754 595.214 47.6607 595.387 48.1853ZM702.613 48.1853C702.786 47.6607 703.351 47.3754 703.876 47.5481C704.2 47.6548 704.523 47.7623 704.846 47.8708C705.37 48.0465 705.652 48.6134 705.476 49.137C705.301 49.6606 704.734 49.9426 704.21 49.7668C703.891 49.6596 703.571 49.5533 703.25 49.4478C702.726 49.2751 702.441 48.7099 702.613 48.1853ZM713.153 51.9624C713.358 51.4498 713.941 51.2009 714.453 51.4065C714.77 51.5335 715.087 51.6615 715.403 51.7904C715.914 51.9989 716.16 52.5825 715.951 53.0939C715.743 53.6053 715.159 53.8509 714.648 53.6424C714.335 53.515 714.022 53.3884 713.709 53.2628C713.196 53.0572 712.947 52.475 713.153 51.9624ZM584.847 51.9624C585.053 52.475 584.804 53.0572 584.291 53.2628C583.978 53.3884 583.665 53.515 583.352 53.6424C582.841 53.8509 582.257 53.6053 582.049 53.0939C581.84 52.5825 582.086 51.9989 582.597 51.7904C582.913 51.6615 583.23 51.5336 583.547 51.4065C584.059 51.2009 584.642 51.4498 584.847 51.9624ZM723.436 56.3969C723.673 55.8982 724.27 55.6861 724.768 55.9234C725.076 56.0699 725.384 56.2174 725.692 56.3657C726.189 56.6057 726.398 57.2035 726.158 57.7009C725.918 58.1983 725.32 58.407 724.822 58.167C724.518 58.0203 724.214 57.8745 723.909 57.7295C723.41 57.4923 723.198 56.8957 723.436 56.3969ZM574.564 56.3969C574.802 56.8957 574.59 57.4923 574.091 57.7295C573.786 57.8745 573.482 58.0203 573.178 58.167C572.68 58.407 572.082 58.1983 571.842 57.7009C571.602 57.2035 571.811 56.6057 572.308 56.3657C572.616 56.2174 572.924 56.07 573.232 55.9234C573.73 55.6862 574.327 55.8982 574.564 56.3969ZM733.422 61.4615C733.69 60.9784 734.298 60.8035 734.781 61.071C735.08 61.2362 735.378 61.4023 735.676 61.5692C736.157 61.8394 736.329 62.4489 736.059 62.9306C735.788 63.4123 735.179 63.5838 734.697 63.3136C734.403 63.1485 734.108 62.9842 733.813 62.8208C733.33 62.5533 733.155 61.9447 733.422 61.4615ZM564.578 61.4616C564.845 61.9447 564.67 62.5533 564.187 62.8208C563.892 62.9842 563.597 63.1485 563.303 63.3136C562.821 63.5838 562.212 63.4123 561.941 62.9306C561.671 62.4489 561.843 61.8394 562.324 61.5692C562.622 61.4023 562.92 61.2362 563.219 61.071C563.702 60.8035 564.31 60.9784 564.578 61.4616ZM743.08 67.1277C743.376 66.6616 743.994 66.5239 744.461 66.8202C744.748 67.0032 745.036 67.1871 745.323 67.3717C745.787 67.6706 745.922 68.2893 745.623 68.7538C745.324 69.2183 744.705 69.3525 744.241 69.0537C743.957 68.8711 743.673 68.6892 743.388 68.5081C742.922 68.2118 742.784 67.5938 743.08 67.1277ZM554.92 67.1277C555.216 67.5938 555.078 68.2118 554.612 68.5081C554.327 68.6892 554.043 68.8711 553.759 69.0537C553.295 69.3526 552.676 69.2183 552.377 68.7538C552.078 68.2893 552.213 67.6706 552.677 67.3718C552.964 67.1871 553.252 67.0032 553.539 66.8202C554.006 66.5239 554.624 66.6616 554.92 67.1277ZM752.38 73.365C752.704 72.9174 753.329 72.8168 753.777 73.1403C754.053 73.3402 754.329 73.5409 754.605 73.7424C755.051 74.0683 755.148 74.694 754.822 75.1399C754.496 75.5857 753.871 75.683 753.425 75.3571C753.152 75.1577 752.879 74.9591 752.605 74.7613C752.157 74.4378 752.057 73.8127 752.38 73.365ZM545.62 73.365C545.943 73.8127 545.843 74.4378 545.395 74.7613C545.121 74.9591 544.848 75.1577 544.575 75.3571C544.129 75.683 543.504 75.5857 543.178 75.1399C542.852 74.694 542.949 74.0683 543.395 73.7424C543.671 73.541 543.947 73.3402 544.223 73.1403C544.671 72.8168 545.296 72.9174 545.62 73.365ZM761.297 80.1421C761.646 79.7142 762.276 79.6503 762.704 79.9994C762.968 80.2152 763.232 80.4317 763.495 80.6489C763.921 81.0003 763.982 81.6305 763.631 82.0566C763.279 82.4827 762.649 82.5433 762.223 82.1919C761.962 81.9769 761.701 81.7626 761.439 81.5491C761.011 81.2 760.947 80.57 761.297 80.1421ZM536.703 80.1421C537.053 80.57 536.989 81.2 536.561 81.5491C536.299 81.7626 536.038 81.9769 535.777 82.1919C535.351 82.5433 534.721 82.4827 534.369 82.0566C534.018 81.6305 534.079 81.0003 534.505 80.6489C534.768 80.4317 535.032 80.2152 535.296 79.9994C535.724 79.6503 536.354 79.7142 536.703 80.1421ZM769.803 87.4244C770.176 87.0173 770.809 86.9897 771.216 87.3628C771.467 87.5929 771.718 87.8237 771.968 88.0552C772.373 88.4304 772.397 89.0631 772.022 89.4684C771.647 89.8736 771.014 89.8979 770.609 89.5227C770.361 89.2935 770.113 89.0651 769.865 88.8373C769.458 88.4642 769.43 87.8316 769.803 87.4244ZM528.197 87.4244C528.57 87.8316 528.542 88.4642 528.135 88.8373C527.887 89.0651 527.639 89.2935 527.391 89.5227C526.986 89.8979 526.353 89.8736 525.978 89.4684C525.603 89.0632 525.627 88.4305 526.032 88.0552C526.282 87.8237 526.533 87.5929 526.784 87.3628C527.191 86.9897 527.824 87.0173 528.197 87.4244ZM777.879 95.1788C778.274 94.7934 778.908 94.8015 779.293 95.1971C779.531 95.4411 779.768 95.6858 780.005 95.9312C780.388 96.3286 780.377 96.9617 779.979 97.3451C779.582 97.7286 778.949 97.7172 778.565 97.3197C778.331 97.0768 778.096 96.8345 777.861 96.5929C777.475 96.1974 777.483 95.5643 777.879 95.1788ZM520.121 95.1788C520.517 95.5643 520.525 96.1974 520.139 96.5929C519.904 96.8345 519.669 97.0768 519.435 97.3197C519.051 97.7172 518.418 97.7286 518.021 97.3451C517.623 96.9617 517.612 96.3287 517.995 95.9312C518.232 95.6858 518.469 95.4411 518.707 95.1971C519.092 94.8016 519.726 94.7934 520.121 95.1788ZM785.508 103.375C785.924 103.012 786.556 103.055 786.919 103.471C787.143 103.728 787.366 103.986 787.589 104.244C787.95 104.663 787.903 105.294 787.485 105.655C787.067 106.016 786.436 105.969 786.075 105.551C785.854 105.295 785.633 105.04 785.411 104.786C785.048 104.369 785.091 103.738 785.508 103.375ZM512.492 103.375C512.909 103.738 512.952 104.369 512.589 104.786C512.367 105.04 512.146 105.295 511.925 105.551C511.564 105.969 510.933 106.016 510.515 105.655C510.097 105.294 510.05 104.663 510.411 104.244C510.634 103.986 510.857 103.728 511.081 103.471C511.444 103.055 512.076 103.012 512.492 103.375ZM792.673 111.98C793.109 111.64 793.737 111.718 794.077 112.154C794.287 112.423 794.496 112.693 794.704 112.963C795.042 113.4 794.961 114.028 794.524 114.366C794.087 114.703 793.459 114.622 793.121 114.185C792.915 113.917 792.707 113.65 792.5 113.384C792.16 112.948 792.238 112.32 792.673 111.98ZM505.327 111.98C505.762 112.32 505.84 112.948 505.5 113.384C505.293 113.65 505.085 113.917 504.879 114.185C504.541 114.622 503.913 114.703 503.476 114.366C503.039 114.028 502.958 113.4 503.295 112.963C503.504 112.693 503.713 112.423 503.923 112.154C504.263 111.718 504.891 111.64 505.327 111.98ZM799.361 120.963C799.815 120.648 800.438 120.759 800.754 121.213C800.949 121.493 801.143 121.774 801.337 122.055C801.65 122.51 801.536 123.133 801.081 123.446C800.626 123.759 800.003 123.645 799.69 123.19C799.498 122.911 799.305 122.633 799.112 122.356C798.797 121.902 798.908 121.279 799.361 120.963ZM498.639 120.963C499.092 121.279 499.203 121.902 498.888 122.356C498.695 122.633 498.502 122.911 498.31 123.19C497.997 123.645 497.374 123.759 496.919 123.446C496.464 123.133 496.35 122.51 496.663 122.055C496.857 121.774 497.051 121.493 497.246 121.213C497.562 120.759 498.185 120.648 498.639 120.963ZM805.559 130.294C806.028 130.003 806.644 130.147 806.935 130.617C807.115 130.907 807.295 131.198 807.473 131.489C807.762 131.96 807.615 132.576 807.144 132.865C806.673 133.153 806.057 133.006 805.768 132.535C805.592 132.246 805.414 131.958 805.236 131.671C804.945 131.201 805.089 130.585 805.559 130.294ZM492.441 130.294C492.911 130.585 493.055 131.201 492.764 131.671C492.586 131.958 492.408 132.246 492.231 132.535C491.943 133.006 491.327 133.153 490.856 132.865C490.385 132.576 490.238 131.96 490.527 131.489C490.705 131.198 490.885 130.907 491.065 130.617C491.356 130.147 491.972 130.003 492.441 130.294ZM811.252 139.938C811.736 139.672 812.344 139.849 812.61 140.333C812.774 140.631 812.937 140.93 813.099 141.228C813.363 141.714 813.183 142.321 812.698 142.585C812.212 142.848 811.605 142.668 811.342 142.183C811.181 141.887 811.019 141.591 810.857 141.296C810.591 140.812 810.768 140.204 811.252 139.938ZM486.748 139.938C487.232 140.204 487.409 140.812 487.143 141.296C486.981 141.591 486.819 141.887 486.658 142.183C486.395 142.668 485.788 142.848 485.302 142.585C484.817 142.321 484.637 141.714 484.901 141.228C485.063 140.93 485.226 140.631 485.39 140.333C485.656 139.849 486.264 139.672 486.748 139.938ZM816.431 149.863C816.928 149.623 817.526 149.831 817.766 150.328C817.915 150.635 818.062 150.941 818.209 151.249C818.447 151.747 818.236 152.344 817.737 152.582C817.239 152.82 816.642 152.609 816.404 152.111C816.323 151.942 816.242 151.773 816.161 151.604C816.096 151.469 816.031 151.334 815.966 151.199C815.725 150.702 815.934 150.104 816.431 149.863ZM481.569 149.863C482.066 150.104 482.275 150.702 482.034 151.199C481.887 151.502 481.741 151.806 481.596 152.111C481.358 152.609 480.761 152.82 480.263 152.582C479.764 152.344 479.553 151.747 479.791 151.249C479.938 150.941 480.085 150.635 480.234 150.328C480.474 149.831 481.072 149.623 481.569 149.863ZM476.911 160.044C477.42 160.259 477.659 160.845 477.444 161.354C477.313 161.665 477.183 161.976 477.053 162.288C476.841 162.798 476.256 163.039 475.746 162.827C475.236 162.615 474.995 162.03 475.207 161.52C475.337 161.205 475.469 160.891 475.601 160.578C475.816 160.069 476.402 159.83 476.911 160.044ZM821.089 160.044C821.598 159.83 822.184 160.069 822.399 160.578C822.531 160.891 822.663 161.205 822.793 161.52C823.005 162.03 822.764 162.615 822.254 162.827C821.744 163.039 821.159 162.798 820.947 162.288C820.861 162.082 820.775 161.875 820.688 161.669C820.644 161.564 820.6 161.459 820.556 161.354C820.341 160.845 820.58 160.259 821.089 160.044ZM472.781 170.452C473.3 170.64 473.569 171.213 473.381 171.733C473.265 172.05 473.151 172.368 473.037 172.686C472.852 173.206 472.279 173.477 471.759 173.291C471.239 173.106 470.968 172.533 471.154 172.013C471.269 171.692 471.384 171.372 471.5 171.051C471.688 170.532 472.262 170.264 472.781 170.452ZM825.219 170.452C825.738 170.264 826.312 170.532 826.5 171.051C826.616 171.371 826.731 171.692 826.846 172.013C827.032 172.533 826.761 173.106 826.241 173.291C825.721 173.477 825.148 173.206 824.963 172.686C824.849 172.368 824.735 172.05 824.619 171.733C824.431 171.213 824.7 170.64 825.219 170.452ZM828.814 181.057C829.342 180.895 829.902 181.192 830.063 181.72C830.163 182.046 830.262 182.373 830.361 182.699C830.52 183.228 830.22 183.786 829.691 183.945C829.162 184.104 828.605 183.805 828.445 183.276C828.348 182.952 828.25 182.629 828.151 182.306C827.989 181.777 828.286 181.218 828.814 181.057ZM469.186 181.057C469.714 181.218 470.011 181.777 469.849 182.306C469.75 182.629 469.652 182.952 469.555 183.276C469.395 183.805 468.838 184.104 468.309 183.945C467.78 183.786 467.48 183.228 467.639 182.699C467.738 182.373 467.837 182.046 467.937 181.72C468.098 181.192 468.658 180.895 469.186 181.057ZM831.87 191.83C832.406 191.695 832.949 192.02 833.084 192.555C833.168 192.886 833.25 193.218 833.332 193.549C833.465 194.085 833.138 194.627 832.602 194.76C832.065 194.892 831.523 194.565 831.391 194.029C831.31 193.7 831.228 193.372 831.145 193.044C831.01 192.509 831.335 191.965 831.87 191.83ZM466.13 191.83C466.665 191.965 466.99 192.509 466.855 193.044C466.772 193.372 466.69 193.7 466.609 194.029C466.477 194.565 465.935 194.892 465.398 194.76C464.862 194.627 464.535 194.085 464.668 193.549C464.75 193.218 464.832 192.886 464.916 192.555C465.051 192.02 465.594 191.695 466.13 191.83ZM463.616 202.744C464.158 202.852 464.509 203.379 464.401 203.92C464.335 204.252 464.269 204.584 464.205 204.917C464.099 205.459 463.574 205.813 463.032 205.707C462.49 205.602 462.136 205.076 462.242 204.534C462.307 204.199 462.373 203.864 462.44 203.529C462.548 202.987 463.075 202.636 463.616 202.744ZM834.384 202.744C834.925 202.636 835.452 202.987 835.56 203.529C835.587 203.662 835.613 203.796 835.64 203.93C835.68 204.131 835.719 204.333 835.758 204.534C835.864 205.076 835.51 205.602 834.968 205.707C834.426 205.813 833.901 205.459 833.795 204.917C833.731 204.584 833.665 204.252 833.599 203.92C833.491 203.379 833.842 202.852 834.384 202.744ZM461.648 213.769C462.194 213.85 462.571 214.359 462.49 214.905C462.44 215.241 462.391 215.576 462.342 215.912C462.264 216.458 461.757 216.838 461.21 216.759C460.663 216.68 460.284 216.173 460.363 215.626C460.412 215.288 460.461 214.949 460.511 214.611C460.593 214.065 461.101 213.688 461.648 213.769ZM836.352 213.769C836.899 213.688 837.407 214.065 837.489 214.611C837.539 214.949 837.588 215.288 837.637 215.626C837.716 216.173 837.337 216.68 836.79 216.759C836.243 216.838 835.736 216.458 835.658 215.912C835.609 215.576 835.56 215.241 835.51 214.905C835.429 214.359 835.806 213.85 836.352 213.769ZM460.224 224.879C460.773 224.933 461.175 225.423 461.12 225.972C461.087 226.31 461.054 226.648 461.022 226.986C460.97 227.535 460.483 227.939 459.933 227.887C459.383 227.835 458.979 227.347 459.031 226.797C459.064 226.456 459.096 226.116 459.13 225.775C459.185 225.226 459.674 224.824 460.224 224.879ZM837.776 224.879C838.326 224.824 838.815 225.226 838.87 225.775C838.904 226.116 838.936 226.456 838.969 226.797C839.021 227.347 838.617 227.835 838.067 227.887C837.517 227.939 837.03 227.535 836.978 226.986C836.946 226.648 836.913 226.31 836.88 225.972C836.825 225.423 837.227 224.933 837.776 224.879ZM459.343 236.045C459.895 236.072 460.32 236.542 460.292 237.094C460.275 237.432 460.259 237.771 460.243 238.11C460.218 238.662 459.75 239.089 459.198 239.064C458.647 239.038 458.22 238.571 458.245 238.019C458.261 237.677 458.277 237.335 458.294 236.993C458.322 236.442 458.792 236.017 459.343 236.045ZM838.657 236.045C839.208 236.017 839.678 236.442 839.706 236.993C839.723 237.335 839.739 237.677 839.755 238.019C839.78 238.571 839.353 239.038 838.802 239.064C838.25 239.089 837.782 238.662 837.757 238.11C837.741 237.771 837.725 237.432 837.708 237.094C837.68 236.542 838.105 236.072 838.657 236.045ZM459.003 247.24C459.555 247.241 460.002 247.69 460.001 248.242C460 248.412 460 248.582 460 248.752C460 249.304 459.552 249.752 459 249.752C458.448 249.752 458 249.304 458 248.752C458 248.581 458 248.409 458.001 248.238C458.002 247.686 458.45 247.239 459.003 247.24ZM838.997 247.24C839.55 247.239 839.998 247.686 839.999 248.238C840 248.409 840 248.581 840 248.752C840 249.304 839.552 249.752 839 249.752C838.448 249.752 838 249.304 838 248.752C838 248.582 838 248.412 837.999 248.242C837.998 247.69 838.445 247.241 838.997 247.24Z" fill="#C7D2FE"/>
<path fill-rule="evenodd" clip-rule="evenodd" d="M-111 27.752C-111.17 27.752 -111.339 27.7522 -111.509 27.7527C-112.061 27.7543 -112.51 27.3079 -112.512 26.7556C-112.513 26.2033 -112.067 25.7543 -111.515 25.7527C-111.343 25.7522 -111.172 25.752 -111 25.752C-110.828 25.752 -110.657 25.7522 -110.485 25.7527C-109.933 25.7543 -109.487 26.2033 -109.488 26.7556C-109.49 27.3079 -109.939 27.7543 -110.491 27.7527C-110.661 27.7522 -110.83 27.752 -111 27.752ZM-120.69 27.0162C-120.657 27.5675 -121.076 28.0416 -121.627 28.0752C-121.966 28.0959 -122.303 28.1175 -122.641 28.14C-123.192 28.1769 -123.669 27.76 -123.706 27.209C-123.742 26.6579 -123.326 26.1813 -122.775 26.1445C-122.433 26.1216 -122.091 26.0998 -121.749 26.0789C-121.198 26.0453 -120.724 26.4649 -120.69 27.0162ZM-101.31 27.0162C-101.276 26.4649 -100.802 26.0453 -100.251 26.0789C-99.9087 26.0998 -99.5669 26.1217 -99.2254 26.1445C-98.6743 26.1813 -98.2575 26.6579 -98.2944 27.209C-98.3312 27.76 -98.8078 28.1769 -99.3588 28.14C-99.6965 28.1175 -100.034 28.0959 -100.372 28.0752C-100.924 28.0416 -101.343 27.5675 -101.31 27.0162ZM-131.849 27.993C-131.78 28.5409 -132.168 29.0411 -132.716 29.11C-133.052 29.1523 -133.387 29.1955 -133.722 29.2396C-134.269 29.3118 -134.772 28.9265 -134.844 28.3789C-134.916 27.8314 -134.531 27.329 -133.983 27.2568C-133.645 27.2121 -133.305 27.1684 -132.966 27.1257C-132.418 27.0567 -131.918 27.445 -131.849 27.993ZM-90.1509 27.993C-90.0819 27.445 -89.5818 27.0567 -89.0338 27.1257C-88.6945 27.1684 -88.3554 27.2121 -88.0167 27.2568C-87.4691 27.329 -87.0838 27.8314 -87.156 28.3789C-87.2282 28.9265 -87.7306 29.3118 -88.2781 29.2396C-88.613 29.1955 -88.9482 29.1523 -89.2836 29.11C-89.8316 29.0411 -90.2199 28.5409 -90.1509 27.993ZM-142.919 29.6855C-142.815 30.2279 -143.17 30.752 -143.712 30.8561C-144.044 30.9198 -144.375 30.9844 -144.706 31.05C-145.248 31.1573 -145.774 30.8051 -145.881 30.2634C-145.989 29.7216 -145.637 29.1954 -145.095 29.0881C-144.76 29.0218 -144.425 28.9564 -144.09 28.892C-143.547 28.7879 -143.023 29.1431 -142.919 29.6855ZM-79.081 29.6855C-78.9769 29.1431 -78.4528 28.7879 -77.9104 28.892C-77.575 28.9564 -77.2399 29.0218 -76.9052 29.0881C-76.3634 29.1954 -76.0113 29.7216 -76.1186 30.2634C-76.2259 30.8051 -76.7521 31.1573 -77.2939 31.05C-77.6248 30.9844 -77.956 30.9198 -78.2876 30.8561C-78.8299 30.752 -79.1852 30.2279 -79.081 29.6855ZM-153.855 32.0871C-153.716 32.6216 -154.037 33.1675 -154.571 33.3063C-154.898 33.3911 -155.224 33.4768 -155.55 33.5635C-156.083 33.7054 -156.631 33.3878 -156.773 32.854C-156.915 32.3203 -156.597 31.7726 -156.064 31.6306C-155.734 31.543 -155.404 31.4563 -155.074 31.3706C-154.54 31.2317 -153.994 31.5525 -153.855 32.0871ZM-68.1451 32.0871C-68.0063 31.5525 -67.4604 31.2317 -66.9259 31.3706C-66.5957 31.4563 -66.2658 31.543 -65.9362 31.6306C-65.4025 31.7726 -65.0849 32.3203 -65.2268 32.854C-65.3688 33.3878 -65.9165 33.7054 -66.4502 33.5635C-66.776 33.4768 -67.1022 33.3911 -67.4286 33.3063C-67.9632 33.1675 -68.284 32.6217 -68.1451 32.0871ZM-164.613 35.1853C-164.441 35.7099 -164.726 36.2751 -165.25 36.4478C-165.571 36.5533 -165.891 36.6596 -166.21 36.7668C-166.734 36.9426 -167.301 36.6606 -167.476 36.137C-167.652 35.6134 -167.37 35.0465 -166.846 34.8708C-166.523 34.7623 -166.2 34.6548 -165.876 34.5481C-165.351 34.3754 -164.786 34.6607 -164.613 35.1853ZM-57.3867 35.1853C-57.214 34.6607 -56.6487 34.3754 -56.1241 34.5481C-55.8002 34.6548 -55.4767 34.7623 -55.1535 34.8708C-54.6299 35.0465 -54.348 35.6134 -54.5237 36.137C-54.6994 36.6606 -55.2663 36.9426 -55.7899 36.7668C-56.1094 36.6596 -56.4293 36.5533 -56.7495 36.4478C-57.2741 36.2751 -57.5594 35.7099 -57.3867 35.1853ZM-46.8471 38.9624C-46.6415 38.4498 -46.0593 38.2009 -45.5467 38.4065C-45.2299 38.5335 -44.9134 38.6615 -44.5973 38.7904C-44.0859 38.9989 -43.8403 39.5825 -44.0488 40.0939C-44.2573 40.6053 -44.8409 40.8509 -45.3524 40.6424C-45.6649 40.515 -45.9778 40.3884 -46.2911 40.2628C-46.8037 40.0572 -47.0526 39.475 -46.8471 38.9624ZM-175.153 38.9624C-174.947 39.475 -175.196 40.0572 -175.709 40.2628C-176.022 40.3884 -176.335 40.515 -176.648 40.6424C-177.159 40.8509 -177.743 40.6053 -177.951 40.0939C-178.16 39.5825 -177.914 38.9989 -177.403 38.7904C-177.087 38.6615 -176.77 38.5336 -176.453 38.4065C-175.941 38.2009 -175.358 38.4498 -175.153 38.9624ZM-36.5643 43.3969C-36.3271 42.8982 -35.7305 42.6861 -35.2318 42.9234C-34.9236 43.0699 -34.6158 43.2174 -34.3084 43.3657C-33.811 43.6057 -33.6024 44.2035 -33.8424 44.7009C-34.0824 45.1983 -34.6802 45.407 -35.1776 45.167C-35.4816 45.0203 -35.786 44.8745 -36.0908 44.7295C-36.5895 44.4923 -36.8015 43.8957 -36.5643 43.3969ZM-185.436 43.3969C-185.198 43.8957 -185.41 44.4923 -185.909 44.7295C-186.214 44.8745 -186.518 45.0203 -186.822 45.167C-187.32 45.407 -187.918 45.1983 -188.158 44.7009C-188.398 44.2035 -188.189 43.6057 -187.692 43.3657C-187.384 43.2174 -187.076 43.07 -186.768 42.9234C-186.27 42.6862 -185.673 42.8982 -185.436 43.3969ZM-26.5778 48.4615C-26.3103 47.9784 -25.7018 47.8035 -25.2185 48.071C-24.92 48.2362 -24.622 48.4023 -24.3244 48.5692C-23.8427 48.8394 -23.6712 49.4489 -23.9414 49.9306C-24.2115 50.4123 -24.821 50.5838 -25.3027 50.3136C-25.5971 50.1485 -25.8919 49.9842 -26.1872 49.8208C-26.6704 49.5533 -26.8452 48.9447 -26.5778 48.4615ZM-195.422 48.4616C-195.155 48.9447 -195.33 49.5533 -195.813 49.8208C-196.108 49.9842 -196.403 50.1485 -196.697 50.3136C-197.179 50.5838 -197.788 50.4123 -198.059 49.9306C-198.329 49.4489 -198.157 48.8394 -197.676 48.5692C-197.378 48.4023 -197.08 48.2362 -196.781 48.071C-196.298 47.8035 -195.69 47.9784 -195.422 48.4616ZM-16.9199 54.1277C-16.6236 53.6616 -16.0056 53.5239 -15.5395 53.8202C-15.2515 54.0032 -14.964 54.1871 -14.677 54.3717C-14.2125 54.6706 -14.0782 55.2893 -14.377 55.7538C-14.6758 56.2183 -15.2946 56.3525 -15.7591 56.0537C-16.043 55.8711 -16.3275 55.6892 -16.6124 55.5081C-17.0785 55.2118 -17.2162 54.5938 -16.9199 54.1277ZM-205.08 54.1277C-204.784 54.5938 -204.922 55.2118 -205.388 55.5081C-205.673 55.6892 -205.957 55.8711 -206.241 56.0537C-206.705 56.3526 -207.324 56.2183 -207.623 55.7538C-207.922 55.2893 -207.787 54.6706 -207.323 54.3718C-207.036 54.1871 -206.748 54.0032 -206.461 53.8202C-205.994 53.5239 -205.376 53.6616 -205.08 54.1277ZM-7.61972 60.365C-7.29623 59.9174 -6.67111 59.8168 -6.22348 60.1403C-5.94681 60.3402 -5.67065 60.5409 -5.39499 60.7424C-4.9491 61.0683 -4.85184 61.694 -5.1777 62.1399C-5.5036 62.5857 -6.12924 62.683 -6.57513 62.3571C-6.84793 62.1577 -7.12119 61.9591 -7.39496 61.7613C-7.84259 61.4378 -7.94321 60.8127 -7.61972 60.365ZM-214.38 60.365C-214.057 60.8127 -214.157 61.4378 -214.605 61.7613C-214.879 61.9591 -215.152 62.1577 -215.425 62.3571C-215.871 62.683 -216.496 62.5857 -216.822 62.1399C-217.148 61.694 -217.051 61.0683 -216.605 60.7424C-216.329 60.541 -216.053 60.3402 -215.777 60.1403C-215.329 59.8168 -214.704 59.9174 -214.38 60.365ZM1.29657 67.1421C1.64569 66.7142 2.27563 66.6503 2.70355 66.9994C2.96805 67.2152 3.23196 67.4317 3.49539 67.6489C3.92148 68.0003 3.98206 68.6305 3.63068 69.0566C3.2793 69.4827 2.64905 69.5433 2.22296 69.1919C1.96225 68.9769 1.70102 68.7626 1.43927 68.5491C1.01132 68.2 0.947449 67.57 1.29657 67.1421ZM-223.297 67.1421C-222.947 67.57 -223.011 68.2 -223.439 68.5491C-223.701 68.7626 -223.962 68.9769 -224.223 69.1919C-224.649 69.5433 -225.279 69.4827 -225.631 69.0566C-225.982 68.6305 -225.921 68.0003 -225.495 67.6489C-225.232 67.4317 -224.968 67.2152 -224.704 66.9994C-224.276 66.6503 -223.646 66.7142 -223.297 67.1421ZM9.80307 74.4244C10.1762 74.0173 10.8087 73.9897 11.2159 74.3628C11.467 74.5929 11.7176 74.8237 11.9676 75.0552C12.3728 75.4304 12.3971 76.0631 12.0219 76.4684C11.6466 76.8736 11.0139 76.8979 10.6087 76.5227C10.3612 76.2935 10.1132 76.0651 9.86469 75.8373C9.45752 75.4642 9.42993 74.8316 9.80307 74.4244ZM-231.803 74.4244C-231.43 74.8316 -231.458 75.4642 -231.865 75.8373C-232.113 76.0651 -232.361 76.2935 -232.609 76.5227C-233.014 76.8979 -233.647 76.8736 -234.022 76.4684C-234.397 76.0632 -234.373 75.4305 -233.968 75.0552C-233.718 74.8237 -233.467 74.5929 -233.216 74.3628C-232.809 73.9897 -232.176 74.0173 -231.803 74.4244ZM17.8789 82.1788C18.2744 81.7934 18.9075 81.8015 19.293 82.1971C19.5308 82.4411 19.7681 82.6858 20.0047 82.9312C20.3882 83.3286 20.3768 83.9617 19.9793 84.3451C19.5818 84.7286 18.9487 84.7172 18.5653 84.3197C18.331 84.0768 18.0961 83.8345 17.8606 83.5929C17.4752 83.1974 17.4834 82.5643 17.8789 82.1788ZM-239.879 82.1788C-239.483 82.5643 -239.475 83.1974 -239.861 83.5929C-240.096 83.8345 -240.331 84.0768 -240.565 84.3197C-240.949 84.7172 -241.582 84.7286 -241.979 84.3451C-242.377 83.9617 -242.388 83.3287 -242.005 82.9312C-241.768 82.6858 -241.531 82.4411 -241.293 82.1971C-240.908 81.8016 -240.274 81.7934 -239.879 82.1788ZM25.5078 90.3747C25.9241 90.0118 26.5558 90.0551 26.9187 90.4714C27.1427 90.7285 27.3662 90.9861 27.589 91.2444C27.9498 91.6625 27.9033 92.294 27.4852 92.6548C27.067 93.0156 26.4356 92.9691 26.0748 92.5509C25.8541 92.2952 25.6328 92.0401 25.411 91.7856C25.0481 91.3692 25.0915 90.7375 25.5078 90.3747ZM-247.508 90.3747C-247.091 90.7375 -247.048 91.3692 -247.411 91.7856C-247.633 92.0401 -247.854 92.2952 -248.075 92.5509C-248.436 92.9691 -249.067 93.0156 -249.485 92.6548C-249.903 92.294 -249.95 91.6625 -249.589 91.2444C-249.366 90.9861 -249.143 90.7285 -248.919 90.4714C-248.556 90.0551 -247.924 90.0118 -247.508 90.3747ZM32.6735 98.98C33.109 98.6405 33.7374 98.7183 34.077 99.1538C34.2868 99.4229 34.4959 99.6926 34.7045 99.9629C35.0419 100.4 34.961 101.028 34.5238 101.366C34.0865 101.703 33.4586 101.622 33.1212 101.185C32.9146 100.917 32.7074 100.65 32.4997 100.384C32.1601 99.948 32.2379 99.3196 32.6735 98.98ZM-254.673 98.98C-254.238 99.3196 -254.16 99.948 -254.5 100.384C-254.707 100.65 -254.915 100.917 -255.121 101.185C-255.459 101.622 -256.087 101.703 -256.524 101.366C-256.961 101.028 -257.042 100.4 -256.705 99.9629C-256.496 99.6926 -256.287 99.423 -256.077 99.1539C-255.737 98.7183 -255.109 98.6405 -254.673 98.98ZM39.3614 107.963C39.8147 107.648 40.4379 107.759 40.7535 108.213C40.9486 108.493 41.1431 108.774 41.337 109.055C41.6504 109.51 41.5357 110.133 41.081 110.446C40.6262 110.759 40.0035 110.645 39.6901 110.19C39.4981 109.911 39.3055 109.633 39.1122 109.356C38.7966 108.902 38.9082 108.279 39.3614 107.963ZM-261.361 107.963C-260.908 108.279 -260.797 108.902 -261.112 109.356C-261.305 109.633 -261.498 109.911 -261.69 110.19C-262.003 110.645 -262.626 110.759 -263.081 110.446C-263.536 110.133 -263.65 109.51 -263.337 109.055C-263.143 108.774 -262.949 108.493 -262.754 108.213C-262.438 107.759 -261.815 107.648 -261.361 107.963ZM45.5587 117.294C46.028 117.003 46.6445 117.147 46.9355 117.617C47.1154 117.907 47.2947 118.198 47.4734 118.489C47.7621 118.96 47.6146 119.576 47.1438 119.865C46.673 120.153 46.0573 120.006 45.7685 119.535C45.5915 119.246 45.4139 118.958 45.2356 118.671C44.9446 118.201 45.0893 117.585 45.5587 117.294ZM-267.559 117.294C-267.089 117.585 -266.945 118.201 -267.236 118.671C-267.414 118.958 -267.592 119.246 -267.769 119.535C-268.057 120.006 -268.673 120.153 -269.144 119.865C-269.615 119.576 -269.762 118.96 -269.473 118.489C-269.295 118.198 -269.115 117.907 -268.935 117.617C-268.644 117.147 -268.028 117.003 -267.559 117.294ZM51.2521 126.938C51.7362 126.672 52.3441 126.849 52.61 127.333C52.7738 127.631 52.9368 127.93 53.0992 128.228C53.3628 128.714 53.1831 129.321 52.6978 129.585C52.2125 129.848 51.6053 129.668 51.3417 129.183C51.1808 128.887 51.0193 128.591 50.8571 128.296C50.5912 127.812 50.7681 127.204 51.2521 126.938ZM-273.252 126.938C-272.768 127.204 -272.591 127.812 -272.857 128.296C-273.019 128.591 -273.181 128.887 -273.342 129.183C-273.605 129.668 -274.212 129.848 -274.698 129.585C-275.183 129.321 -275.363 128.714 -275.099 128.228C-274.937 127.93 -274.774 127.631 -274.61 127.333C-274.344 126.849 -273.736 126.672 -273.252 126.938ZM56.4309 136.863C56.9282 136.623 57.5261 136.831 57.7665 137.328C57.9146 137.635 58.062 137.941 58.2087 138.249C58.4467 138.747 58.2357 139.344 57.7374 139.582C57.239 139.82 56.6421 139.609 56.404 139.111C56.3234 138.942 56.2425 138.773 56.1614 138.604C56.0963 138.469 56.0312 138.334 55.9659 138.199C55.7255 137.702 55.9337 137.104 56.4309 136.863ZM-278.431 136.863C-277.934 137.104 -277.725 137.702 -277.966 138.199C-278.113 138.502 -278.259 138.806 -278.404 139.111C-278.642 139.609 -279.239 139.82 -279.737 139.582C-280.236 139.344 -280.447 138.747 -280.209 138.249C-280.062 137.941 -279.915 137.635 -279.766 137.328C-279.526 136.831 -278.928 136.623 -278.431 136.863ZM-283.089 147.044C-282.58 147.259 -282.341 147.845 -282.556 148.354C-282.687 148.665 -282.817 148.976 -282.947 149.288C-283.159 149.798 -283.744 150.039 -284.254 149.827C-284.764 149.615 -285.005 149.03 -284.793 148.52C-284.663 148.205 -284.531 147.891 -284.399 147.578C-284.184 147.069 -283.598 146.83 -283.089 147.044ZM61.0891 147.044C61.598 146.83 62.1844 147.069 62.3989 147.578C62.5311 147.891 62.6626 148.205 62.7934 148.52C63.0055 149.03 62.764 149.615 62.2541 149.827C61.7441 150.039 61.1588 149.798 60.9467 149.288C60.8609 149.082 60.7748 148.875 60.6884 148.669C60.6442 148.564 60.6 148.459 60.5558 148.354C60.3413 147.845 60.5801 147.259 61.0891 147.044ZM-287.219 157.452C-286.7 157.64 -286.431 158.213 -286.619 158.733C-286.735 159.05 -286.849 159.368 -286.963 159.686C-287.148 160.206 -287.721 160.477 -288.241 160.291C-288.761 160.106 -289.032 159.533 -288.846 159.013C-288.731 158.692 -288.616 158.372 -288.5 158.051C-288.312 157.532 -287.738 157.264 -287.219 157.452ZM65.2189 157.452C65.7381 157.264 66.3116 157.532 66.4998 158.051C66.6159 158.371 66.7313 158.692 66.846 159.013C67.0318 159.533 66.7608 160.106 66.2407 160.291C65.7206 160.477 65.1483 160.206 64.9626 159.686C64.8489 159.368 64.7345 159.05 64.6195 158.733C64.4313 158.213 64.6997 157.64 65.2189 157.452ZM68.8143 168.057C69.3424 167.895 69.9016 168.192 70.0632 168.72C70.163 169.046 70.2621 169.373 70.3605 169.699C70.5198 170.228 70.2202 170.786 69.6913 170.945C69.1625 171.104 68.6047 170.805 68.4455 170.276C68.348 169.952 68.2497 169.629 68.1508 169.306C67.9891 168.777 68.2862 168.218 68.8143 168.057ZM-290.814 168.057C-290.286 168.218 -289.989 168.777 -290.151 169.306C-290.25 169.629 -290.348 169.952 -290.445 170.276C-290.605 170.805 -291.162 171.104 -291.691 170.945C-292.22 170.786 -292.52 170.228 -292.361 169.699C-292.262 169.373 -292.163 169.046 -292.063 168.72C-291.902 168.192 -291.342 167.895 -290.814 168.057ZM71.8704 178.83C72.4059 178.695 72.9494 179.02 73.0844 179.555C73.1678 179.886 73.2505 180.218 73.3324 180.549C73.4649 181.085 73.1377 181.627 72.6015 181.76C72.0654 181.892 71.5233 181.565 71.3908 181.029C71.3096 180.7 71.2277 180.372 71.145 180.044C71.0101 179.509 71.3348 178.965 71.8704 178.83ZM-293.87 178.83C-293.335 178.965 -293.01 179.509 -293.145 180.044C-293.228 180.372 -293.31 180.7 -293.391 181.029C-293.523 181.565 -294.065 181.892 -294.602 181.76C-295.138 181.627 -295.465 181.085 -295.332 180.549C-295.25 180.218 -295.168 179.886 -295.084 179.555C-294.949 179.02 -294.406 178.695 -293.87 178.83ZM-296.384 189.744C-295.842 189.852 -295.491 190.379 -295.599 190.92C-295.665 191.252 -295.731 191.584 -295.795 191.917C-295.901 192.459 -296.426 192.813 -296.968 192.707C-297.51 192.602 -297.864 192.076 -297.758 191.534C-297.693 191.199 -297.627 190.864 -297.56 190.529C-297.452 189.987 -296.925 189.636 -296.384 189.744ZM74.3837 189.744C74.9253 189.636 75.452 189.987 75.5601 190.529C75.5868 190.662 75.6134 190.796 75.6398 190.93C75.6796 191.131 75.7192 191.333 75.7585 191.534C75.8641 192.076 75.5103 192.602 74.9683 192.707C74.4262 192.813 73.9011 192.459 73.7954 191.917C73.7306 191.584 73.665 191.252 73.5988 190.92C73.4907 190.379 73.8421 189.852 74.3837 189.744ZM-298.352 200.769C-297.806 200.85 -297.429 201.359 -297.51 201.905C-297.56 202.241 -297.609 202.576 -297.658 202.912C-297.736 203.458 -298.243 203.838 -298.79 203.759C-299.337 203.68 -299.716 203.173 -299.637 202.626C-299.588 202.288 -299.539 201.949 -299.489 201.611C-299.407 201.065 -298.899 200.688 -298.352 200.769ZM76.3524 200.769C76.8987 200.688 77.4073 201.065 77.4886 201.611C77.5388 201.949 77.5884 202.288 77.6372 202.626C77.716 203.173 77.3367 203.68 76.7901 203.759C76.2434 203.838 75.7365 203.458 75.6577 202.912C75.6093 202.576 75.5602 202.241 75.5103 201.905C75.4291 201.359 75.8061 200.85 76.3524 200.769ZM-299.776 211.879C-299.227 211.933 -298.825 212.423 -298.88 212.972C-298.913 213.31 -298.946 213.648 -298.978 213.986C-299.03 214.535 -299.517 214.939 -300.067 214.887C-300.617 214.835 -301.021 214.347 -300.969 213.797C-300.936 213.456 -300.904 213.116 -300.87 212.775C-300.815 212.226 -300.326 211.824 -299.776 211.879ZM77.7762 211.879C78.3258 211.824 78.8155 212.226 78.8698 212.775C78.9036 213.116 78.9365 213.456 78.9687 213.797C79.0207 214.347 78.6171 214.835 78.0672 214.887C77.5174 214.939 77.0295 214.535 76.9776 213.986C76.9456 213.648 76.913 213.31 76.8796 212.972C76.8252 212.423 77.2266 211.933 77.7762 211.879ZM-300.657 223.045C-300.105 223.072 -299.68 223.542 -299.708 224.094C-299.725 224.432 -299.741 224.771 -299.757 225.11C-299.782 225.662 -300.25 226.089 -300.802 226.064C-301.353 226.038 -301.78 225.571 -301.755 225.019C-301.739 224.677 -301.723 224.335 -301.706 223.993C-301.678 223.442 -301.208 223.017 -300.657 223.045ZM78.6567 223.045C79.2083 223.017 79.6779 223.442 79.7056 223.993C79.7228 224.335 79.7392 224.677 79.7549 225.019C79.7801 225.571 79.3533 226.038 78.8016 226.064C78.2499 226.089 77.7822 225.662 77.7569 225.11C77.7414 224.771 77.7251 224.432 77.7081 224.094C77.6805 223.542 78.1052 223.072 78.6567 223.045ZM-300.997 234.24C-300.445 234.241 -299.998 234.69 -299.999 235.242C-300 235.412 -300 235.582 -300 235.752C-300 236.304 -300.448 236.752 -301 236.752C-301.552 236.752 -302 236.304 -302 235.752C-302 235.581 -302 235.409 -301.999 235.238C-301.998 234.686 -301.55 234.239 -300.997 234.24ZM78.9973 234.24C79.5496 234.239 79.9982 234.686 79.9995 235.238C79.9998 235.409 80 235.581 80 235.752C80 236.304 79.5523 236.752 79 236.752C78.4477 236.752 78 236.304 78 235.752C78 235.582 77.9998 235.412 77.9995 235.242C77.9982 234.69 78.445 234.241 78.9973 234.24Z" fill="#C7D2FE"/>
<path d="M267.524 39.9728C278.57 39.9728 287.855 31.0246 288.262 19.9864C288.67 8.94821 280.046 0 269 0C257.954 0 248.67 8.94821 248.262 19.9864C247.855 31.0246 256.479 39.9728 267.524 39.9728Z" fill="#FBBF24"/>
<path fill-rule="evenodd" clip-rule="evenodd" d="M646.628 0.751953C645.812 1.33532 645.035 2.00368 644.309 2.75702C637.873 9.43479 637.873 20.2616 644.309 26.9393C650.374 33.2329 659.992 33.595 666.466 28.0256C665.527 31.2703 663.823 34.3273 661.352 36.8905C653.384 45.1582 640.465 45.1582 632.497 36.8905C624.529 28.6228 624.529 15.2182 632.497 6.95051C636.406 2.89495 641.506 0.828766 646.628 0.751953Z" fill="#FDE68A"/>
</g>
<defs>
<clipPath id="clip0_2670_17595">
<rect width="669" height="209" fill="white"/>
</clipPath>
</defs>
</svg>
