<svg width="10" height="13" viewBox="0 0 10 13" fill="none" xmlns="http://www.w3.org/2000/svg">
<path d="M8.85686 4.78573C8.85686 6.92002 4.99972 12.0714 4.99972 12.0714C4.99972 12.0714 1.14258 6.92002 1.14258 4.78573C1.14258 3.76275 1.54895 2.78167 2.27231 2.05832C2.99566 1.33497 3.97674 0.928589 4.99972 0.928589C6.0227 0.928589 7.00378 1.33497 7.72713 2.05832C8.45049 2.78167 8.85686 3.76275 8.85686 4.78573V4.78573Z" stroke="black" stroke-linecap="round" stroke-linejoin="round"/>
<path d="M4.99958 6.07143C5.70966 6.07143 6.2853 5.49579 6.2853 4.78571C6.2853 4.07563 5.70966 3.5 4.99958 3.5C4.2895 3.5 3.71387 4.07563 3.71387 4.78571C3.71387 5.49579 4.2895 6.07143 4.99958 6.07143Z" stroke="black" stroke-linecap="round" stroke-linejoin="round"/>
</svg>
