<svg width="50" height="50" viewBox="0 0 50 50" fill="none" xmlns="http://www.w3.org/2000/svg">
<g filter="url(#filter0_dd_297_14025)">
<path d="M5 21C5 9.95431 13.9543 1 25 1C36.0457 1 45 9.95431 45 21C45 32.0457 36.0457 41 25 41H5V21Z" fill="white"/>
<rect x="9" y="5" width="32" height="32" rx="16" fill="black"/>
<path d="M19 29.4545V12H25.5455C26.8864 12 28.0114 12.25 28.9205 12.75C29.8352 13.25 30.5256 13.9375 30.9915 14.8125C31.4631 15.6818 31.6989 16.6705 31.6989 17.7784C31.6989 18.8977 31.4631 19.892 30.9915 20.7614C30.5199 21.6307 29.8239 22.3153 28.9034 22.8153C27.983 23.3097 26.8494 23.5568 25.5028 23.5568H21.1648V20.9574H25.0767C25.8608 20.9574 26.5028 20.821 27.0028 20.5483C27.5028 20.2756 27.8722 19.9006 28.1108 19.4233C28.3551 18.946 28.4773 18.3977 28.4773 17.7784C28.4773 17.1591 28.3551 16.6136 28.1108 16.142C27.8722 15.6705 27.5 15.304 26.9943 15.0426C26.4943 14.7756 25.8494 14.642 25.0597 14.642H22.1619V29.4545H19Z" fill="white"/>
</g>
<defs>
<filter id="filter0_dd_297_14025" x="0" y="0" width="50" height="50" filterUnits="userSpaceOnUse" color-interpolation-filters="sRGB">
<feFlood flood-opacity="0" result="BackgroundImageFix"/>
<feColorMatrix in="SourceAlpha" type="matrix" values="0 0 0 0 0 0 0 0 0 0 0 0 0 0 0 0 0 0 127 0" result="hardAlpha"/>
<feMorphology radius="2" operator="erode" in="SourceAlpha" result="effect1_dropShadow_297_14025"/>
<feOffset dy="2"/>
<feGaussianBlur stdDeviation="2"/>
<feComposite in2="hardAlpha" operator="out"/>
<feColorMatrix type="matrix" values="0 0 0 0 0 0 0 0 0 0 0 0 0 0 0 0 0 0 0.1 0"/>
<feBlend mode="normal" in2="BackgroundImageFix" result="effect1_dropShadow_297_14025"/>
<feColorMatrix in="SourceAlpha" type="matrix" values="0 0 0 0 0 0 0 0 0 0 0 0 0 0 0 0 0 0 127 0" result="hardAlpha"/>
<feMorphology radius="1" operator="erode" in="SourceAlpha" result="effect2_dropShadow_297_14025"/>
<feOffset dy="4"/>
<feGaussianBlur stdDeviation="3"/>
<feComposite in2="hardAlpha" operator="out"/>
<feColorMatrix type="matrix" values="0 0 0 0 0 0 0 0 0 0 0 0 0 0 0 0 0 0 0.1 0"/>
<feBlend mode="normal" in2="effect1_dropShadow_297_14025" result="effect2_dropShadow_297_14025"/>
<feBlend mode="normal" in="SourceGraphic" in2="effect2_dropShadow_297_14025" result="shape"/>
</filter>
</defs>
</svg>
