<svg width="23" height="24" viewBox="0 0 23 24" fill="none" xmlns="http://www.w3.org/2000/svg">
<g filter="url(#filter0_dd_2686_5663)">
<g clip-path="url(#clip0_2686_5663)">
<path d="M7.24264 15.2426C4.8995 12.8995 4.8995 9.1005 7.24264 6.75736C9.58579 4.41421 13.3848 4.41421 15.7279 6.75736C18.0711 9.1005 18.0711 12.8995 15.7279 15.2426L11.4853 19.4853L7.24264 15.2426Z" fill="white"/>
<rect x="3" y="11" width="12" height="12" rx="6" transform="rotate(-45 3 11)" fill="white"/>
<circle cx="11.4852" cy="11" r="2" transform="rotate(-45 11.4852 11)" fill="#1E293B"/>
</g>
</g>
<defs>
<filter id="filter0_dd_2686_5663" x="0" y="0.514709" width="22.9707" height="22.9706" filterUnits="userSpaceOnUse" color-interpolation-filters="sRGB">
<feFlood flood-opacity="0" result="BackgroundImageFix"/>
<feColorMatrix in="SourceAlpha" type="matrix" values="0 0 0 0 0 0 0 0 0 0 0 0 0 0 0 0 0 0 127 0" result="hardAlpha"/>
<feMorphology radius="1" operator="erode" in="SourceAlpha" result="effect1_dropShadow_2686_5663"/>
<feOffset dy="1"/>
<feGaussianBlur stdDeviation="1"/>
<feComposite in2="hardAlpha" operator="out"/>
<feColorMatrix type="matrix" values="0 0 0 0 0 0 0 0 0 0 0 0 0 0 0 0 0 0 0.1 0"/>
<feBlend mode="normal" in2="BackgroundImageFix" result="effect1_dropShadow_2686_5663"/>
<feColorMatrix in="SourceAlpha" type="matrix" values="0 0 0 0 0 0 0 0 0 0 0 0 0 0 0 0 0 0 127 0" result="hardAlpha"/>
<feOffset dy="1"/>
<feGaussianBlur stdDeviation="1.5"/>
<feComposite in2="hardAlpha" operator="out"/>
<feColorMatrix type="matrix" values="0 0 0 0 0 0 0 0 0 0 0 0 0 0 0 0 0 0 0.1 0"/>
<feBlend mode="normal" in2="effect1_dropShadow_2686_5663" result="effect2_dropShadow_2686_5663"/>
<feBlend mode="normal" in="SourceGraphic" in2="effect2_dropShadow_2686_5663" result="shape"/>
</filter>
<clipPath id="clip0_2686_5663">
<path d="M7.24264 15.2426C4.8995 12.8995 4.8995 9.1005 7.24264 6.75736C9.58579 4.41421 13.3848 4.41421 15.7279 6.75736C18.0711 9.1005 18.0711 12.8995 15.7279 15.2426L11.4853 19.4853L7.24264 15.2426Z" fill="white"/>
</clipPath>
</defs>
</svg>
