<svg width="14" height="14" viewBox="0 0 14 14" fill="none" xmlns="http://www.w3.org/2000/svg">
<g clip-path="url(#clip0_206_795)">
<path d="M7.49 1.08992L9.08 4.29992C9.11617 4.38139 9.17305 4.45197 9.24499 4.5046C9.31693 4.55724 9.40141 4.59011 9.49 4.59992L13 5.11992C13.1016 5.13298 13.1974 5.17469 13.2763 5.24017C13.3551 5.30566 13.4136 5.39221 13.4451 5.48973C13.4765 5.58725 13.4796 5.69171 13.4539 5.7909C13.4282 5.89009 13.3748 5.97993 13.3 6.04992L10.77 8.55992C10.7054 8.62025 10.657 8.69576 10.629 8.77959C10.6011 8.86343 10.5945 8.95291 10.61 9.03992L11.22 12.5699C11.2377 12.6714 11.2265 12.7757 11.1878 12.8711C11.1491 12.9665 11.0843 13.0491 11.001 13.1096C10.9176 13.17 10.819 13.2058 10.7163 13.2129C10.6136 13.2201 10.5109 13.1982 10.42 13.1499L7.26 11.4799C7.17909 11.4402 7.09014 11.4195 7 11.4195C6.90986 11.4195 6.82092 11.4402 6.74 11.4799L3.58 13.1499C3.48909 13.1982 3.38644 13.2201 3.28373 13.2129C3.18102 13.2058 3.08237 13.17 2.99902 13.1096C2.91566 13.0491 2.85094 12.9665 2.81222 12.8711C2.7735 12.7757 2.76234 12.6714 2.78 12.5699L3.39 8.99992C3.40546 8.91291 3.39892 8.82343 3.37098 8.73959C3.34303 8.65576 3.29457 8.58025 3.23 8.51992L0.670003 6.04992C0.594265 5.97802 0.541002 5.88569 0.516667 5.78413C0.492331 5.68258 0.497966 5.57614 0.53289 5.47772C0.567813 5.3793 0.630527 5.29311 0.713433 5.22961C0.79634 5.1661 0.895882 5.128 1 5.11992L4.51 4.59992C4.5986 4.59011 4.68308 4.55724 4.75502 4.5046C4.82695 4.45197 4.88384 4.38139 4.92 4.29992L6.51 1.08992C6.5533 0.996428 6.62244 0.917275 6.70927 0.861803C6.79609 0.806331 6.89697 0.776855 7 0.776855C7.10303 0.776855 7.20392 0.806331 7.29074 0.861803C7.37756 0.917275 7.4467 0.996428 7.49 1.08992V1.08992Z" stroke="#000001" stroke-linecap="round" stroke-linejoin="round"/>
</g>
<defs>
<clipPath id="clip0_206_795">
<rect width="14" height="14" fill="white"/>
</clipPath>
</defs>
</svg>
