<svg width="757" height="344" viewBox="0 0 757 344" fill="none" xmlns="http://www.w3.org/2000/svg">
<g clip-path="url(#clip0_2831_18004)">
<rect width="757" height="344" rx="12" fill="#FEF08A"/>
<g clip-path="url(#clip1_2831_18004)">
<path d="M371.354 234.637H371.347L449.449 132.082L529.845 234.638H529.843V376.25L371.354 375.944V234.637Z" fill="#FED7AA"/>
<path d="M366.572 240.907L371.347 234.637H371.354V375.943H237.144V240.907H366.572Z" fill="#FFF7ED"/>
<path fill-rule="evenodd" clip-rule="evenodd" d="M366.572 240.907L371.347 234.637L449.449 132.082L449.449 132.082L451.794 129.002L451.796 129L451.154 129L446.644 129.001L408.848 129.007L318.927 129.026L310.097 129.028L222.396 240.907H237.144H366.572ZM449.449 132.082L451.794 129.003L534.604 234.639H529.845L449.449 132.082Z" fill="#FB923C"/>
<path d="M371.347 234.637L372.143 235.243V235.243L371.347 234.637ZM366.572 240.907L367.368 241.513C367.179 241.761 366.884 241.907 366.572 241.907V240.907ZM449.449 132.082L448.464 131.907C448.492 131.751 448.557 131.603 448.653 131.476L449.449 132.082ZM451.794 129.002L452.595 129.601L452.59 129.608L451.794 129.002ZM451.796 129L451.796 128C452.174 128 452.52 128.214 452.69 128.552C452.859 128.891 452.823 129.296 452.597 129.599L451.796 129ZM451.154 129L451.154 130H451.154L451.154 129ZM446.644 129.001L446.644 130.001H446.644L446.644 129.001ZM408.848 129.007L408.848 128.007H408.848L408.848 129.007ZM318.927 129.026L318.927 130.026H318.927L318.927 129.026ZM310.097 129.028L309.31 128.411C309.499 128.169 309.789 128.028 310.096 128.028L310.097 129.028ZM222.396 240.907V241.907C222.013 241.907 221.664 241.689 221.496 241.345C221.329 241.001 221.372 240.591 221.608 240.29L222.396 240.907ZM451.794 129.003L450.998 128.397C451.186 128.151 451.477 128.005 451.787 128.003C452.097 128.001 452.39 128.142 452.581 128.386L451.794 129.003ZM534.604 234.639L535.391 234.022C535.628 234.323 535.671 234.732 535.504 235.076C535.336 235.42 534.987 235.639 534.604 235.639V234.639ZM529.845 234.639V235.639C529.538 235.639 529.248 235.497 529.058 235.256L529.845 234.639ZM372.143 235.243L367.368 241.513L365.777 240.301L370.552 234.031L372.143 235.243ZM450.244 132.688L372.143 235.243L370.552 234.031L448.653 131.477L450.244 132.688ZM450.433 132.257L450.433 132.257L448.464 131.908L448.464 131.907L450.433 132.257ZM452.59 129.608L450.244 132.688L448.653 131.476L450.998 128.397L452.59 129.608ZM452.597 129.599L452.595 129.601L450.993 128.403L450.995 128.401L452.597 129.599ZM451.154 128L451.796 128L451.796 130L451.154 130L451.154 128ZM446.644 128.001L451.154 128L451.154 130L446.644 130.001L446.644 128.001ZM408.848 128.007L446.644 128.001L446.644 130.001L408.849 130.007L408.848 128.007ZM318.926 128.026L408.848 128.007L408.849 130.007L318.927 130.026L318.926 128.026ZM310.096 128.028L318.926 128.026L318.927 130.026L310.097 130.028L310.096 128.028ZM221.608 240.29L309.31 128.411L310.884 129.645L223.183 241.524L221.608 240.29ZM237.144 241.907H222.396V239.907H237.144V241.907ZM366.572 241.907H237.144V239.907H366.572V241.907ZM448.653 131.477L450.998 128.397L452.589 129.609L450.244 132.688L448.653 131.477ZM452.581 128.386L535.391 234.022L533.817 235.256L451.007 129.62L452.581 128.386ZM534.604 235.639H529.845V233.639H534.604V235.639ZM529.058 235.256L448.662 132.699L450.236 131.466L530.632 234.022L529.058 235.256Z" fill="#FB923C"/>
<path d="M340.008 193.5H423.822C427.136 193.5 429.822 196.186 429.822 199.5L429.822 273.05" stroke="black" stroke-width="2"/>
<rect x="402.022" y="273.05" width="55.5989" height="55.9" rx="3" fill="white"/>
<ellipse cx="429.822" cy="301" rx="14.9689" ry="15.05" fill="#E5E5E5"/>
<ellipse cx="423.407" cy="303.15" rx="2.13842" ry="2.15" fill="#404040"/>
<ellipse cx="436.237" cy="303.15" rx="2.13842" ry="2.15" fill="#404040"/>
<ellipse cx="429.822" cy="294.55" rx="2.13842" ry="2.15" fill="#737373"/>
</g>
<path d="M579.511 159.973L586.996 152.448L579.511 144.923" stroke="black" stroke-width="2" stroke-linecap="round" stroke-linejoin="round"/>
<path d="M380.639 178.45H480.63C483.944 178.45 486.63 175.764 486.63 172.45L486.63 158.65C486.63 155.337 489.316 152.65 492.63 152.65H583.788" stroke="black" stroke-width="2"/>
<path d="M350.821 218.178C350.605 218.455 350.274 218.621 349.939 218.621H263.967C263.598 218.621 263.282 218.42 263.143 218.097C263.005 217.774 263.067 217.382 263.305 217.077L316.138 149.387C316.354 149.11 316.685 148.944 317.019 148.944H402.991C403.36 148.944 403.676 149.145 403.815 149.468C403.953 149.791 403.891 150.183 403.653 150.488L350.821 218.178Z" fill="#4F46E5" stroke="#C7D2FE" stroke-width="2" stroke-linejoin="round"/>
<path fill-rule="evenodd" clip-rule="evenodd" d="M325.72 166.97L325.625 164.661L337.119 149.936H336.464L325.126 164.462L321.108 166.97H303.851L303.23 167.766H320.395L320.503 170.385L312.358 180.821L308.251 183.384H290.804L290.183 184.18H307.63L307.735 186.744L298.539 198.526L294.432 201.09H276.985L276.363 201.886H293.81L293.916 204.45L283.631 217.626H284.285L294.725 204.25L298.513 201.886H316.343L316.461 204.748L306.41 217.626H307.064L317.736 203.952L321.047 201.886H338.589L338.69 204.35L328.328 217.626H328.982L339.344 204.35L343.293 201.886H362.335L362.957 201.09H343.914L343.812 198.625L353.163 186.645L357.112 184.18H376.155L376.776 183.384H357.734L357.632 180.92L365.932 170.286L369.969 167.766H389.202L389.824 166.97H370.499L370.4 164.561L381.815 149.936H381.161L369.746 164.562L365.887 166.97H348.253L348.171 164.96L359.897 149.936H359.243L348.138 164.164L343.641 166.97H325.72ZM339.21 201.09L343.158 198.626L352.51 186.644L352.408 184.18H334.867L331.556 186.247L321.583 199.024L321.668 201.09H339.21ZM299.135 201.09H316.965L321.55 198.228L321.55 198.228L330.281 187.042L330.281 187.042L330.163 184.18H312.333L308.544 186.545L299.038 198.725L299.135 201.09ZM335.488 183.384H353.03L356.977 180.92L365.278 170.285L365.174 167.766H347.723L344.324 169.888L335.403 181.318L335.488 183.384ZM321.313 170.186L312.857 181.019L312.955 183.384H330.784L335.37 180.522L343.049 170.683L342.928 167.766H325.19L321.313 170.186Z" fill="#C7D2FE"/>
<g clip-path="url(#clip2_2831_18004)">
<path d="M165.193 138.138C192.061 111.124 192.061 67.3267 165.193 40.3131C138.325 13.2995 94.7627 13.2994 67.8946 40.3131C41.0265 67.3267 41.0265 111.124 67.8946 138.138C94.7627 165.152 138.325 165.152 165.193 138.138Z" fill="#FBBF24"/>
</g>
<path d="M239.359 131.821L263.434 145.796" stroke="#FACC15" stroke-width="2" stroke-linecap="round" stroke-linejoin="round"/>
<path d="M253.21 148.551L263.434 145.797L260.695 135.518" stroke="#FACC15" stroke-width="2" stroke-linecap="round" stroke-linejoin="round"/>
<path d="M239.359 78.0713L263.434 92.0463" stroke="#FACC15" stroke-width="2" stroke-linecap="round" stroke-linejoin="round"/>
<path d="M253.21 94.8013L263.434 92.0469L260.695 81.7676" stroke="#FACC15" stroke-width="2" stroke-linecap="round" stroke-linejoin="round"/>
<path d="M209.422 168.371L233.497 182.346" stroke="#FACC15" stroke-width="2" stroke-linecap="round" stroke-linejoin="round"/>
<path d="M223.273 185.101L233.497 182.347L230.757 172.067" stroke="#FACC15" stroke-width="2" stroke-linecap="round" stroke-linejoin="round"/>
<path d="M147.925 354.75H-3.48627C-16.0722 354.75 -27.8743 347.603 -33.3942 335.859C-33.6553 335.303 -33.9019 334.745 -34.1329 334.183C-37.3675 326.319 -37.3268 316.56 -32.2815 309.802C-28.5741 304.835 -22.7773 302.099 -18.2822 297.892C-11.9521 291.966 -8.541 283.491 -3.87824 276.084C0.784386 268.676 7.92358 261.709 16.4424 261.983C23.1873 262.2 29.1345 266.938 35.8507 267.618C45.8277 268.627 54.302 260.762 63.3763 256.339C78.684 248.879 96.7381 251.216 113.002 256.023C138.473 263.551 163.505 277.921 176.768 301.72C178.125 304.154 179.215 306.685 180.053 309.28C187.284 331.676 170.676 354.75 147.925 354.75H147.925Z" fill="#E0E7FF"/>
<path d="M198.729 108.171L222.805 122.146" stroke="#FACC15" stroke-width="2" stroke-linecap="round" stroke-linejoin="round"/>
<path d="M212.58 124.901L222.804 122.147L220.065 111.867" stroke="#FACC15" stroke-width="2" stroke-linecap="round" stroke-linejoin="round"/>
<path d="M196.591 50.1211L220.666 64.0961" stroke="#FACC15" stroke-width="2" stroke-linecap="round" stroke-linejoin="round"/>
<path d="M210.442 66.8511L220.666 64.0967L217.927 53.8174" stroke="#FACC15" stroke-width="2" stroke-linecap="round" stroke-linejoin="round"/>
<path d="M173.068 146.871L197.143 160.846" stroke="#FACC15" stroke-width="2" stroke-linecap="round" stroke-linejoin="round"/>
<path d="M186.919 163.601L197.143 160.847L194.404 150.567" stroke="#FACC15" stroke-width="2" stroke-linecap="round" stroke-linejoin="round"/>
<g clip-path="url(#clip3_2831_18004)">
<path d="M758.667 277.075H737.424C734.886 277.075 732.83 279.14 732.83 281.688V285.609C732.83 288.157 730.773 290.222 728.235 290.222H674.186C671.649 290.222 669.592 288.157 669.592 285.609V261.629C669.592 259.082 671.649 257.017 674.186 257.017H679.095C681.632 257.017 683.689 254.951 683.689 252.404V208.184C683.689 205.636 681.632 203.571 679.095 203.571H672.761C670.224 203.571 668.167 201.506 668.167 198.958V120.546C668.167 117.999 666.11 115.934 663.573 115.934H653.762C651.224 115.934 649.168 117.999 649.168 120.546V135.275C649.168 137.823 647.111 139.888 644.573 139.888C642.036 139.888 639.979 141.953 639.979 144.501V172.605C639.979 175.153 637.922 177.218 635.385 177.218H598.187C595.649 177.218 593.593 175.153 593.593 172.605V144.501C593.593 141.953 591.536 139.888 588.998 139.888H588.382C585.845 139.888 583.788 137.823 583.788 135.275V76.471C583.788 73.9234 585.845 71.8581 588.382 71.8581H588.998C591.536 71.8581 593.593 69.7929 593.593 67.2453V55.7056C593.593 47.9884 599.823 41.7324 607.509 41.7324H732.728C740.414 41.7324 746.644 47.9884 746.644 55.7056C746.644 58.2532 748.701 60.3185 751.238 60.3185H759.138L758.667 277.075Z" fill="#A7F3D0"/>
<path d="M752.154 249.335V249.741C752.154 252.644 749.801 255.007 746.91 255.007H713.048C712.874 254.998 712.7 254.993 712.525 254.993C709.633 254.993 707.28 252.631 707.28 249.728V181.62C707.28 178.717 709.633 176.355 712.525 176.355H714.976C721.012 176.355 725.922 171.425 725.922 165.364V159.773H742.413C745.655 159.773 748.293 157.125 748.293 153.87V137.086C748.293 133.831 745.655 131.183 742.413 131.183C741.832 131.183 741.359 130.708 741.359 130.124V126.333C741.359 123.078 738.721 120.429 735.48 120.429H725.922V118.104H758.903V112.378H725.922V103.952C725.922 97.8913 721.012 92.9609 714.976 92.9609H645.549C639.513 92.9609 634.603 97.8913 634.603 103.952V121.98C634.603 124.884 632.25 127.246 629.359 127.246H621.543C615.507 127.246 610.596 132.176 610.596 138.237V177.246H616.299V138.237C616.299 135.333 618.651 132.971 621.543 132.971H629.359C635.395 132.971 640.305 128.041 640.305 121.98V103.952C640.305 101.049 642.658 98.6866 645.549 98.6866H714.976C717.867 98.6866 720.22 101.049 720.22 103.952V165.364C720.22 168.267 717.867 170.63 714.976 170.63H712.525C706.489 170.63 701.578 175.56 701.578 181.62V249.728C701.578 255.223 705.615 259.789 710.868 260.593V260.732H712.787C715.556 260.871 717.768 263.17 717.768 265.984V290.249H723.471V265.984C723.471 264.083 722.987 262.294 722.138 260.732H746.91C752.946 260.732 757.856 255.802 757.856 249.741V249.335C757.856 248.156 758.249 247.07 758.903 246.192V239.185C754.944 240.842 752.154 244.767 752.154 249.335ZM725.922 125.274H735.48C736.061 125.274 736.534 125.749 736.534 126.333V130.124C736.534 133.379 739.171 136.027 742.413 136.027C742.994 136.027 743.467 136.502 743.467 137.086V153.87C743.467 154.454 742.994 154.928 742.413 154.928H725.922V125.274Z" fill="#FEF08A"/>
<path d="M607.08 43.3789V52.3353C607.08 52.998 607.615 53.5353 608.275 53.5353C608.935 53.5353 609.47 52.998 609.47 52.3353V43.3789C609.079 43.4359 608.682 43.4754 608.275 43.4754C607.868 43.4754 607.471 43.4359 607.08 43.3789Z" fill="#C1965D"/>
<path d="M608.275 26.8662C603.707 26.8662 600.004 30.5842 600.004 35.1707C600.004 39.3484 603.08 42.7958 607.08 43.3787C607.471 43.4357 607.868 43.4751 608.275 43.4751C608.682 43.4751 609.079 43.4357 609.47 43.3787C613.47 42.7957 616.546 39.3484 616.546 35.1707C616.546 30.5842 612.843 26.8662 608.275 26.8662Z" fill="#10B981"/>
<path d="M694.106 253.117V263.104C694.106 263.843 694.703 264.442 695.439 264.442C696.175 264.442 696.771 263.843 696.771 263.104V253.117C696.335 253.181 695.893 253.225 695.439 253.225C694.985 253.225 694.542 253.181 694.106 253.117Z" fill="#C1965D"/>
<path d="M695.438 234.705C690.345 234.705 686.216 238.851 686.216 243.965C686.216 248.624 689.645 252.468 694.106 253.118C694.542 253.181 694.985 253.225 695.438 253.225C695.892 253.225 696.335 253.181 696.771 253.118C701.231 252.467 704.661 248.623 704.661 243.965C704.661 238.851 700.532 234.705 695.438 234.705Z" fill="#10B981"/>
<path d="M604.711 163.946V168.571C604.711 169.111 605.147 169.548 605.685 169.548C606.223 169.548 606.659 169.111 606.659 168.571V163.946C606.34 163.993 606.017 164.025 605.685 164.025C605.353 164.025 605.03 163.993 604.711 163.946Z" fill="#C1965D"/>
<path d="M605.685 150.494C601.964 150.494 598.947 153.523 598.947 157.259C598.947 160.663 601.453 163.471 604.711 163.946C605.03 163.992 605.353 164.024 605.685 164.024C606.017 164.024 606.34 163.992 606.659 163.946C609.917 163.471 612.423 160.663 612.423 157.259C612.423 153.523 609.406 150.494 605.685 150.494Z" fill="#10B981"/>
<path d="M606.171 118.654C606.171 113.271 601.825 108.906 596.463 108.906C591.101 108.906 586.754 113.271 586.754 118.654V128.403H606.171L606.171 118.654Z" fill="#10B981"/>
<path d="M628.631 45.5742C621.957 45.5742 616.546 51.0069 616.546 57.7084V61.5586C616.546 62.8764 617.61 63.9446 618.922 63.9446H638.34C639.652 63.9446 640.716 62.8764 640.716 61.5586V57.7084C640.716 51.0069 635.305 45.5742 628.631 45.5742Z" fill="#10B981"/>
<path d="M737.427 44.6384C737.427 40.6798 734.231 37.4707 730.288 37.4707C726.346 37.4707 723.149 40.6798 723.149 44.6384V51.8061H737.427V44.6384Z" fill="#10B981"/>
<path d="M741.589 66.2627C737.646 66.2627 734.45 69.4718 734.45 73.4304V80.5981H748.728V73.4304C748.728 69.4718 745.532 66.2627 741.589 66.2627Z" fill="#10B981"/>
<path d="M685.969 143.327C685.969 139.368 682.773 136.159 678.831 136.159C674.888 136.159 671.692 139.368 671.692 143.327V150.495H685.969V143.327Z" fill="#10B981"/>
<path d="M694.89 154.632C689.023 154.632 684.267 159.407 684.267 165.299V165.468C684.267 167.401 685.827 168.967 687.751 168.967H702.029C703.954 168.967 705.514 167.401 705.514 165.468V165.299C705.514 159.407 700.757 154.632 694.89 154.632Z" fill="#10B981"/>
<path d="M689.809 269.484H687.677C681.81 269.484 677.054 274.26 677.054 280.151V281.759C677.054 283.692 678.614 285.258 680.539 285.258H696.948C698.872 285.258 700.433 283.692 700.433 281.759V280.151C700.433 274.26 695.676 269.484 689.809 269.484Z" fill="#10B981"/>
<path d="M657.288 80.9209V84.5411C657.288 85.1368 657.769 85.6197 658.362 85.6197C658.956 85.6197 659.437 85.1368 659.437 84.5411V80.9209C659.091 81.0027 658.733 81.0505 658.362 81.0505C657.992 81.0505 657.634 81.0027 657.288 80.9209Z" fill="#C1965D"/>
<path d="M663.034 76.3603V68.6354C663.034 66.0451 660.942 63.9453 658.363 63.9453C655.783 63.9453 653.691 66.0451 653.691 68.6354V76.3603C653.691 78.5787 655.227 80.4329 657.288 80.9208C657.634 81.0026 657.992 81.0504 658.363 81.0504C658.733 81.0504 659.091 81.0026 659.437 80.9208C661.498 80.4329 663.034 78.5787 663.034 76.3603Z" fill="#10B981"/>
<path d="M669.76 102.507C669.303 102.615 668.83 102.678 668.341 102.678C667.851 102.678 667.378 102.615 666.921 102.507V107.289C666.921 108.076 667.557 108.714 668.341 108.714C669.124 108.714 669.76 108.076 669.76 107.289V102.507Z" fill="#C1965D"/>
<path d="M669.76 102.507C672.482 101.862 674.511 99.4128 674.511 96.4822V86.2777C674.511 82.8559 671.748 80.082 668.34 80.082C664.933 80.082 662.17 82.8559 662.17 86.2777V96.4822C662.17 99.4128 664.199 101.862 666.921 102.507C667.378 102.615 667.851 102.678 668.34 102.678C668.83 102.678 669.303 102.615 669.76 102.507Z" fill="#10B981"/>
<path d="M692.935 64.0508V68.2694C692.935 68.9636 693.496 69.5264 694.187 69.5264C694.878 69.5264 695.439 68.9636 695.439 68.2694V64.0508C695.036 64.1461 694.618 64.2018 694.187 64.2018C693.755 64.2018 693.338 64.1461 692.935 64.0508Z" fill="#C1965D"/>
<path d="M688.744 49.7349V58.7368C688.744 61.3219 690.533 63.4826 692.935 64.0511C693.338 64.1464 693.755 64.2022 694.187 64.2022C694.618 64.2022 695.036 64.1465 695.439 64.0512C697.841 63.4826 699.63 61.322 699.63 58.7368V49.7349C699.63 46.7165 697.193 44.2695 694.187 44.2695C691.181 44.2695 688.744 46.7165 688.744 49.7349Z" fill="#10B981"/>
<path d="M706 45.5811V49.7997C706 50.4938 706.561 51.0566 707.252 51.0566C707.944 51.0566 708.504 50.4938 708.504 49.7997V45.5811C708.102 45.6764 707.684 45.7321 707.252 45.7321C706.821 45.7321 706.403 45.6764 706 45.5811Z" fill="#C1965D"/>
<path d="M701.809 31.2652V40.267C701.809 42.8522 703.599 45.0128 706.001 45.5814C706.403 45.6767 706.821 45.7324 707.252 45.7324C707.684 45.7324 708.102 45.6767 708.504 45.5814C710.906 45.0129 712.696 42.8522 712.696 40.2671V31.2652C712.696 28.2467 710.259 25.7998 707.252 25.7998C704.246 25.7998 701.809 28.2467 701.809 31.2652Z" fill="#10B981"/>
<path d="M741.589 151.848V143.893C741.589 143.394 741.337 142.954 740.954 142.694C740.877 142.642 740.795 142.597 740.709 142.56C740.536 142.487 740.347 142.447 740.148 142.447H735.422C734.626 142.447 733.981 141.799 733.981 141V133.403C733.981 133.003 733.82 132.642 733.559 132.38C733.364 132.183 733.112 132.043 732.831 131.985C732.737 131.966 732.64 131.956 732.54 131.956H728.007V152.999C728.007 153.1 727.996 153.199 727.976 153.294H740.148C740.347 153.294 740.536 153.254 740.709 153.181C740.795 153.144 740.877 153.099 740.954 153.047C741.337 152.787 741.589 152.347 741.589 151.848Z" fill="#93C5FD"/>
<path d="M680.927 129.062C680.728 129.062 680.538 129.103 680.366 129.176C680.28 129.213 680.198 129.258 680.121 129.31C679.738 129.57 679.486 130.01 679.486 130.509V133.402C679.486 133.902 679.738 134.342 680.121 134.602C680.198 134.654 680.28 134.699 680.366 134.735C680.538 134.809 680.728 134.849 680.927 134.849H690.454C690.653 134.849 690.842 134.89 691.015 134.963C691.101 134.999 691.183 135.044 691.259 135.096C691.643 135.356 691.895 135.796 691.895 136.296V148.197C691.895 148.896 692.389 149.479 693.045 149.614C693.139 149.634 693.236 149.644 693.335 149.644H718.015V129.063L680.927 129.062Z" fill="#93C5FD"/>
<path d="M728.007 131.956V127.205C728.007 126.418 727.372 125.78 726.588 125.78H719.434C718.65 125.78 718.015 126.418 718.015 127.205V152.998C718.015 153.785 718.65 154.423 719.434 154.423H726.588C727.271 154.423 727.84 153.939 727.976 153.294C727.996 153.198 728.007 153.1 728.007 152.998V131.956Z" fill="#6366F1"/>
<g clip-path="url(#clip4_2831_18004)">
<path d="M684.824 184.567H684.824L690.708 176.541L696.766 184.567H696.765V195.65L684.824 195.626V184.567Z" fill="#FED7AA"/>
<path d="M684.464 185.058L684.824 184.567H684.824V195.626H674.713V185.058H684.464Z" fill="#FFF7ED"/>
<path fill-rule="evenodd" clip-rule="evenodd" d="M684.464 185.058L684.824 184.567L690.708 176.541L696.765 184.567H697.124L690.885 176.3L690.885 176.3L690.885 176.3L690.837 176.3L690.497 176.3L687.649 176.3L680.874 176.302L680.209 176.302L673.601 185.058H674.713H684.464Z" fill="#FB923C"/>
<path d="M684.824 184.567L684.925 184.641L684.925 184.641L684.824 184.567ZM684.464 185.058L684.565 185.132C684.541 185.164 684.504 185.183 684.464 185.183V185.058ZM690.708 176.541L690.607 176.467C690.631 176.435 690.668 176.416 690.707 176.416C690.747 176.416 690.784 176.434 690.808 176.466L690.708 176.541ZM696.765 184.567V184.692C696.726 184.692 696.689 184.674 696.666 184.642L696.765 184.567ZM697.124 184.567L697.224 184.492C697.252 184.53 697.257 184.58 697.236 184.623C697.215 184.665 697.171 184.692 697.124 184.692V184.567ZM690.885 176.3L690.785 176.375C690.752 176.331 690.751 176.27 690.784 176.226L690.885 176.3ZM690.885 176.3L690.986 176.373L690.986 176.374L690.885 176.3ZM690.885 176.3L690.885 176.175C690.932 176.175 690.975 176.201 690.996 176.243C691.018 176.284 691.014 176.335 690.987 176.373L690.885 176.3ZM690.837 176.3L690.837 176.425H690.837L690.837 176.3ZM690.497 176.3L690.497 176.425H690.497L690.497 176.3ZM687.649 176.3L687.649 176.175H687.649L687.649 176.3ZM680.874 176.302L680.874 176.427L680.874 176.302ZM680.209 176.302L680.109 176.227C680.133 176.195 680.17 176.177 680.209 176.177L680.209 176.302ZM673.601 185.058V185.183C673.554 185.183 673.511 185.156 673.49 185.113C673.468 185.071 673.473 185.02 673.502 184.982L673.601 185.058ZM684.925 184.641L684.565 185.132L684.363 184.984L684.723 184.493L684.925 184.641ZM690.809 176.615L684.925 184.641L684.723 184.493L690.607 176.467L690.809 176.615ZM696.666 184.642L690.608 176.616L690.808 176.466L696.865 184.492L696.666 184.642ZM697.124 184.692H696.765V184.442H697.124V184.692ZM690.985 176.225L697.224 184.492L697.024 184.642L690.785 176.375L690.985 176.225ZM690.986 176.374L690.986 176.374L690.784 176.226L690.784 176.226L690.986 176.374ZM690.987 176.373L690.986 176.373L690.783 176.227L690.783 176.227L690.987 176.373ZM690.837 176.175L690.885 176.175L690.885 176.425L690.837 176.425L690.837 176.175ZM690.497 176.175L690.837 176.175L690.837 176.425L690.497 176.425L690.497 176.175ZM687.649 176.175L690.497 176.175L690.497 176.425L687.649 176.425L687.649 176.175ZM680.874 176.177L687.649 176.175L687.649 176.425L680.874 176.427L680.874 176.177ZM680.209 176.177L680.874 176.177L680.874 176.427L680.209 176.427L680.209 176.177ZM673.502 184.982L680.109 176.227L680.309 176.377L673.701 185.133L673.502 184.982ZM674.713 185.183H673.601V184.933H674.713V185.183ZM684.464 185.183H674.713V184.933H684.464V185.183Z" fill="#FB923C"/>
</g>
<g clip-path="url(#clip5_2831_18004)">
<path d="M723.316 191.017H723.316L729.2 182.991L735.257 191.017H735.257V202.1L723.316 202.076V191.017Z" fill="#FED7AA"/>
<path d="M722.956 191.508L723.315 191.018H723.316V202.076H713.204V191.508H722.956Z" fill="#FFF7ED"/>
<path fill-rule="evenodd" clip-rule="evenodd" d="M722.956 191.508L723.316 191.017L729.2 182.991L735.257 191.017H735.616L729.377 182.75L729.377 182.75L729.377 182.75L729.328 182.75L728.989 182.75L726.141 182.751L719.366 182.752L718.701 182.752L712.093 191.508H713.204H722.956Z" fill="#FB923C"/>
<path d="M723.316 191.017L723.416 191.091L723.416 191.091L723.316 191.017ZM722.956 191.508L723.057 191.582C723.033 191.614 722.996 191.633 722.956 191.633V191.508ZM729.2 182.991L729.099 182.917C729.122 182.885 729.159 182.866 729.199 182.866C729.239 182.866 729.276 182.884 729.3 182.916L729.2 182.991ZM735.257 191.017V191.142C735.218 191.142 735.181 191.124 735.157 191.093L735.257 191.017ZM735.616 191.017L735.715 190.942C735.744 190.98 735.749 191.031 735.728 191.073C735.706 191.115 735.663 191.142 735.616 191.142V191.017ZM729.377 182.75L729.277 182.825C729.243 182.781 729.243 182.721 729.276 182.676L729.377 182.75ZM729.377 182.75L729.478 182.823L729.477 182.824L729.377 182.75ZM729.377 182.75L729.377 182.625C729.424 182.625 729.467 182.651 729.488 182.693C729.509 182.735 729.506 182.785 729.478 182.823L729.377 182.75ZM729.328 182.75L729.328 182.875H729.328L729.328 182.75ZM728.989 182.75L728.989 182.875H728.989L728.989 182.75ZM726.141 182.751L726.141 182.626H726.141L726.141 182.751ZM719.366 182.752L719.366 182.877L719.366 182.752ZM718.701 182.752L718.601 182.677C718.625 182.646 718.662 182.627 718.701 182.627L718.701 182.752ZM712.093 191.508V191.633C712.046 191.633 712.002 191.606 711.981 191.564C711.96 191.521 711.965 191.47 711.993 191.433L712.093 191.508ZM723.416 191.091L723.057 191.582L722.855 191.434L723.215 190.943L723.416 191.091ZM729.301 183.065L723.416 191.091L723.215 190.943L729.099 182.917L729.301 183.065ZM735.157 191.093L729.1 183.067L729.3 182.916L735.357 190.942L735.157 191.093ZM735.616 191.142H735.257V190.892H735.616V191.142ZM729.476 182.675L735.715 190.942L735.516 191.093L729.277 182.825L729.476 182.675ZM729.477 182.824L729.477 182.824L729.276 182.676L729.276 182.676L729.477 182.824ZM729.478 182.823L729.478 182.823L729.275 182.677L729.275 182.677L729.478 182.823ZM729.328 182.625L729.377 182.625L729.377 182.875L729.328 182.875L729.328 182.625ZM728.989 182.625L729.328 182.625L729.328 182.875L728.989 182.875L728.989 182.625ZM726.141 182.626L728.989 182.625L728.989 182.875L726.141 182.876L726.141 182.626ZM719.366 182.627L726.141 182.626L726.141 182.876L719.366 182.877L719.366 182.627ZM718.701 182.627L719.366 182.627L719.366 182.877L718.701 182.877L718.701 182.627ZM711.993 191.433L718.601 182.677L718.801 182.827L712.193 191.583L711.993 191.433ZM713.204 191.633H712.093V191.383H713.204V191.633ZM722.956 191.633H713.204V191.383H722.956V191.633Z" fill="#FB923C"/>
</g>
<g clip-path="url(#clip6_2831_18004)">
<path d="M731.87 214.667H731.869L737.754 206.641L743.811 214.667H743.811V225.749L731.87 225.725V214.667Z" fill="#FED7AA"/>
<path d="M731.509 215.158L731.869 214.667H731.87V225.726H721.758V215.158H731.509Z" fill="#FFF7ED"/>
<path fill-rule="evenodd" clip-rule="evenodd" d="M731.509 215.157L731.869 214.667L737.754 206.641L743.811 214.667H744.169L737.93 206.4L737.93 206.4L737.93 206.399L737.882 206.399L737.542 206.399L734.695 206.4L727.92 206.401L727.254 206.402L720.647 215.157H721.758H731.509Z" fill="#FB923C"/>
<path d="M731.869 214.667L731.97 214.741L731.97 214.741L731.869 214.667ZM731.509 215.157L731.61 215.231C731.587 215.263 731.549 215.282 731.509 215.282V215.157ZM737.754 206.641L737.653 206.567C737.676 206.535 737.713 206.516 737.753 206.516C737.792 206.515 737.83 206.534 737.853 206.565L737.754 206.641ZM743.811 214.667V214.792C743.772 214.792 743.735 214.773 743.711 214.742L743.811 214.667ZM744.169 214.667L744.269 214.591C744.298 214.629 744.302 214.68 744.281 214.722C744.26 214.765 744.217 214.792 744.169 214.792V214.667ZM737.93 206.4L737.831 206.475C737.797 206.431 737.797 206.37 737.83 206.325L737.93 206.4ZM737.93 206.4L738.032 206.472L738.031 206.474L737.93 206.4ZM737.93 206.399L737.93 206.274C737.977 206.274 738.02 206.301 738.042 206.342C738.063 206.384 738.059 206.434 738.032 206.472L737.93 206.399ZM737.882 206.399L737.882 206.524H737.882L737.882 206.399ZM737.542 206.399L737.542 206.524H737.542L737.542 206.399ZM734.695 206.4L734.695 206.275H734.695L734.695 206.4ZM727.92 206.401L727.92 206.526L727.92 206.401ZM727.254 206.402L727.155 206.326C727.178 206.295 727.215 206.277 727.254 206.277L727.254 206.402ZM720.647 215.157V215.282C720.599 215.282 720.556 215.256 720.535 215.213C720.514 215.171 720.519 215.12 720.547 215.082L720.647 215.157ZM731.97 214.741L731.61 215.231L731.409 215.083L731.768 214.593L731.97 214.741ZM737.854 206.715L731.97 214.741L731.768 214.593L737.653 206.567L737.854 206.715ZM743.711 214.742L737.654 206.716L737.853 206.565L743.911 214.591L743.711 214.742ZM744.169 214.792H743.811V214.542H744.169V214.792ZM738.03 206.324L744.269 214.591L744.07 214.742L737.831 206.475L738.03 206.324ZM738.031 206.474L738.031 206.474L737.83 206.325L737.83 206.325L738.031 206.474ZM738.032 206.472L738.032 206.472L737.829 206.327L737.829 206.327L738.032 206.472ZM737.882 206.274L737.93 206.274L737.93 206.524L737.882 206.524L737.882 206.274ZM737.542 206.274L737.882 206.274L737.882 206.524L737.542 206.524L737.542 206.274ZM734.695 206.275L737.542 206.274L737.542 206.524L734.695 206.525L734.695 206.275ZM727.92 206.276L734.695 206.275L734.695 206.525L727.92 206.526L727.92 206.276ZM727.254 206.277L727.92 206.276L727.92 206.526L727.254 206.527L727.254 206.277ZM720.547 215.082L727.155 206.326L727.354 206.477L720.747 215.233L720.547 215.082ZM721.758 215.282H720.647V215.032H721.758V215.282ZM731.509 215.282H721.758V215.032H731.509V215.282Z" fill="#FB923C"/>
</g>
<g clip-path="url(#clip7_2831_18004)">
<path d="M753.254 186.717H753.254L759.138 178.691L765.195 186.718H765.195V197.8L753.254 197.776V186.717Z" fill="#FED7AA"/>
<path d="M752.894 187.208L753.253 186.718H753.254V197.777H743.142V187.208H752.894Z" fill="#FFF7ED"/>
<path fill-rule="evenodd" clip-rule="evenodd" d="M752.894 187.208L753.253 186.717L759.138 178.691L765.195 186.718H765.554L759.315 178.45L759.315 178.45L759.315 178.45L759.266 178.45L758.927 178.45L756.079 178.451L749.304 178.452L748.639 178.452L742.031 187.208H743.142H752.894Z" fill="#FB923C"/>
<path d="M753.253 186.717L753.354 186.791L753.354 186.791L753.253 186.717ZM752.894 187.208L752.995 187.282C752.971 187.314 752.934 187.333 752.894 187.333V187.208ZM759.138 178.691L759.037 178.617C759.06 178.586 759.097 178.567 759.137 178.566C759.177 178.566 759.214 178.585 759.238 178.616L759.138 178.691ZM765.195 186.718V186.843C765.156 186.843 765.119 186.824 765.095 186.793L765.195 186.718ZM765.554 186.718L765.653 186.642C765.682 186.68 765.687 186.731 765.666 186.773C765.644 186.816 765.601 186.843 765.554 186.843V186.718ZM759.315 178.45L759.215 178.526C759.181 178.482 759.181 178.421 759.214 178.376L759.315 178.45ZM759.315 178.45L759.416 178.523L759.415 178.525L759.315 178.45ZM759.315 178.45L759.315 178.325C759.362 178.325 759.404 178.351 759.426 178.393C759.447 178.435 759.444 178.485 759.416 178.523L759.315 178.45ZM759.266 178.45L759.266 178.575H759.266L759.266 178.45ZM758.927 178.45L758.927 178.575H758.927L758.927 178.45ZM756.079 178.451L756.079 178.326H756.079L756.079 178.451ZM749.304 178.452L749.304 178.577L749.304 178.452ZM748.639 178.452L748.539 178.377C748.563 178.346 748.6 178.327 748.639 178.327L748.639 178.452ZM742.031 187.208V187.333C741.984 187.333 741.94 187.306 741.919 187.264C741.898 187.221 741.903 187.171 741.931 187.133L742.031 187.208ZM753.354 186.791L752.995 187.282L752.793 187.134L753.153 186.644L753.354 186.791ZM759.239 178.765L753.354 186.791L753.153 186.644L759.037 178.617L759.239 178.765ZM765.095 186.793L759.038 178.767L759.238 178.616L765.295 186.642L765.095 186.793ZM765.554 186.843H765.195V186.593H765.554V186.843ZM759.414 178.375L765.653 186.642L765.454 186.793L759.215 178.526L759.414 178.375ZM759.415 178.525L759.415 178.525L759.214 178.376L759.214 178.376L759.415 178.525ZM759.416 178.523L759.416 178.523L759.213 178.377L759.213 178.377L759.416 178.523ZM759.266 178.325L759.315 178.325L759.315 178.575L759.266 178.575L759.266 178.325ZM758.927 178.325L759.266 178.325L759.266 178.575L758.927 178.575L758.927 178.325ZM756.079 178.326L758.927 178.325L758.927 178.575L756.079 178.576L756.079 178.326ZM749.304 178.327L756.079 178.326L756.079 178.576L749.304 178.577L749.304 178.327ZM748.639 178.327L749.304 178.327L749.304 178.577L748.639 178.577L748.639 178.327ZM741.931 187.133L748.539 178.377L748.739 178.528L742.131 187.283L741.931 187.133ZM743.142 187.333H742.031V187.083H743.142V187.333ZM752.894 187.333H743.142V187.083H752.894V187.333Z" fill="#FB923C"/>
</g>
<g clip-path="url(#clip8_2831_18004)">
<path d="M723.316 238.317H723.316L729.2 230.291L735.257 238.317H735.257V249.4L723.316 249.376V238.317Z" fill="#FED7AA"/>
<path d="M722.956 238.808L723.315 238.317H723.316V249.376H713.204V238.808H722.956Z" fill="#FFF7ED"/>
<path fill-rule="evenodd" clip-rule="evenodd" d="M722.956 238.808L723.316 238.317L729.2 230.291L735.257 238.317H735.616L729.377 230.05L729.377 230.05L729.377 230.05L729.328 230.05L728.989 230.05L726.141 230.05L719.366 230.052L718.701 230.052L712.093 238.808H713.204H722.956Z" fill="#FB923C"/>
<path d="M723.316 238.317L723.416 238.391L723.416 238.391L723.316 238.317ZM722.956 238.808L723.057 238.882C723.033 238.914 722.996 238.933 722.956 238.933V238.808ZM729.2 230.291L729.099 230.217C729.122 230.185 729.159 230.166 729.199 230.166C729.239 230.166 729.276 230.184 729.3 230.216L729.2 230.291ZM735.257 238.317V238.442C735.218 238.442 735.181 238.424 735.157 238.392L735.257 238.317ZM735.616 238.317L735.715 238.242C735.744 238.28 735.749 238.33 735.728 238.373C735.706 238.415 735.663 238.442 735.616 238.442V238.317ZM729.377 230.05L729.277 230.125C729.243 230.081 729.243 230.02 729.276 229.976L729.377 230.05ZM729.377 230.05L729.478 230.123L729.477 230.124L729.377 230.05ZM729.377 230.05L729.377 229.925C729.424 229.925 729.467 229.951 729.488 229.993C729.509 230.034 729.506 230.085 729.478 230.123L729.377 230.05ZM729.328 230.05L729.328 230.175H729.328L729.328 230.05ZM728.989 230.05L728.989 230.175H728.989L728.989 230.05ZM726.141 230.05L726.141 229.925H726.141L726.141 230.05ZM719.366 230.052L719.366 230.177L719.366 230.052ZM718.701 230.052L718.601 229.977C718.625 229.945 718.662 229.927 718.701 229.927L718.701 230.052ZM712.093 238.808V238.933C712.046 238.933 712.002 238.906 711.981 238.863C711.96 238.821 711.965 238.77 711.993 238.732L712.093 238.808ZM723.416 238.391L723.057 238.882L722.855 238.734L723.215 238.243L723.416 238.391ZM729.301 230.365L723.416 238.391L723.215 238.243L729.099 230.217L729.301 230.365ZM735.157 238.392L729.1 230.366L729.3 230.216L735.357 238.242L735.157 238.392ZM735.616 238.442H735.257V238.192H735.616V238.442ZM729.476 229.975L735.715 238.242L735.516 238.392L729.277 230.125L729.476 229.975ZM729.477 230.124L729.477 230.124L729.276 229.976L729.276 229.976L729.477 230.124ZM729.478 230.123L729.478 230.123L729.275 229.977L729.275 229.977L729.478 230.123ZM729.328 229.925L729.377 229.925L729.377 230.175L729.328 230.175L729.328 229.925ZM728.989 229.925L729.328 229.925L729.328 230.175L728.989 230.175L728.989 229.925ZM726.141 229.925L728.989 229.925L728.989 230.175L726.141 230.175L726.141 229.925ZM719.366 229.927L726.141 229.925L726.141 230.175L719.366 230.177L719.366 229.927ZM718.701 229.927L719.366 229.927L719.366 230.177L718.701 230.177L718.701 229.927ZM711.993 238.732L718.601 229.977L718.801 230.127L712.193 238.883L711.993 238.732ZM713.204 238.933H712.093V238.683H713.204V238.933ZM722.956 238.933H713.204V238.683H722.956V238.933Z" fill="#FB923C"/>
</g>
<g clip-path="url(#clip9_2831_18004)">
<path d="M605.703 89.9675H605.703L611.587 81.9414L617.645 89.9675H617.644V101.05L605.703 101.026V89.9675Z" fill="#FED7AA"/>
<path d="M605.343 90.4585L605.703 89.9678H605.703V101.027H595.591V90.4585H605.343Z" fill="#FFF7ED"/>
<path fill-rule="evenodd" clip-rule="evenodd" d="M605.343 90.4581L605.703 89.9675L611.587 81.9414L617.644 89.9675H618.003L611.764 81.7004L611.764 81.7004L611.764 81.7002L611.716 81.7002L611.376 81.7003L608.528 81.7008L601.753 81.7022L601.088 81.7024L594.48 90.4581H595.592H605.343Z" fill="#FB923C"/>
<path d="M605.703 89.9675L605.804 90.0414L605.804 90.0414L605.703 89.9675ZM605.343 90.4581L605.444 90.5321C605.42 90.5642 605.383 90.5831 605.343 90.5831V90.4581ZM611.587 81.9414L611.486 81.8675C611.51 81.8356 611.547 81.8167 611.586 81.8164C611.626 81.8161 611.663 81.8346 611.687 81.8661L611.587 81.9414ZM617.644 89.9675V90.0925C617.605 90.0925 617.568 90.0741 617.545 90.0428L617.644 89.9675ZM618.003 89.9675L618.103 89.8922C618.131 89.93 618.136 89.9808 618.115 90.0232C618.094 90.0657 618.05 90.0925 618.003 90.0925V89.9675ZM611.764 81.7004L611.664 81.7757C611.631 81.7316 611.63 81.6708 611.663 81.6263L611.764 81.7004ZM611.764 81.7004L611.865 81.7733L611.864 81.7745L611.764 81.7004ZM611.764 81.7002L611.764 81.5752C611.811 81.5752 611.854 81.6014 611.875 81.6431C611.897 81.6848 611.893 81.735 611.865 81.7731L611.764 81.7002ZM611.716 81.7002L611.716 81.8252H611.716L611.716 81.7002ZM611.376 81.7003L611.376 81.8253H611.376L611.376 81.7003ZM608.528 81.7008L608.528 81.5758H608.528L608.528 81.7008ZM601.753 81.7022L601.753 81.8272L601.753 81.7022ZM601.088 81.7024L600.988 81.6271C601.012 81.5958 601.049 81.5774 601.088 81.5774L601.088 81.7024ZM594.48 90.4581V90.5831C594.433 90.5831 594.39 90.5563 594.368 90.5139C594.347 90.4714 594.352 90.4207 594.381 90.3828L594.48 90.4581ZM605.804 90.0414L605.444 90.5321L605.242 90.3842L605.602 89.8935L605.804 90.0414ZM611.688 82.0153L605.804 90.0414L605.602 89.8935L611.486 81.8675L611.688 82.0153ZM617.545 90.0428L611.487 82.0167L611.687 81.8661L617.744 89.8922L617.545 90.0428ZM618.003 90.0925H617.644V89.8425H618.003V90.0925ZM611.864 81.6251L618.103 89.8922L617.903 90.0428L611.664 81.7757L611.864 81.6251ZM611.864 81.7745L611.864 81.7745L611.663 81.6263L611.663 81.6262L611.864 81.7745ZM611.865 81.7731L611.865 81.7733L611.662 81.6275L611.662 81.6273L611.865 81.7731ZM611.716 81.5752L611.764 81.5752L611.764 81.8252L611.716 81.8252L611.716 81.5752ZM611.376 81.5753L611.716 81.5752L611.716 81.8252L611.376 81.8253L611.376 81.5753ZM608.528 81.5758L611.376 81.5753L611.376 81.8253L608.528 81.8258L608.528 81.5758ZM601.753 81.5772L608.528 81.5758L608.528 81.8258L601.753 81.8272L601.753 81.5772ZM601.088 81.5774L601.753 81.5772L601.753 81.8272L601.088 81.8274L601.088 81.5774ZM594.381 90.3828L600.988 81.6271L601.188 81.7777L594.58 90.5334L594.381 90.3828ZM595.592 90.5831H594.48V90.3331H595.592V90.5831ZM605.343 90.5831H595.592V90.3331H605.343V90.5831Z" fill="#FB923C"/>
</g>
<g clip-path="url(#clip10_2831_18004)">
<path d="M635.641 68.4675H635.64L641.525 60.4414L647.582 68.4675H647.582V79.5502L635.641 79.5262V68.4675Z" fill="#FED7AA"/>
<path d="M635.28 68.9585L635.64 68.4678H635.641V79.5265H625.529V68.9585H635.28Z" fill="#FFF7ED"/>
<path fill-rule="evenodd" clip-rule="evenodd" d="M635.28 68.9581L635.64 68.4675L641.525 60.4414L647.582 68.4675H647.94L641.701 60.2004L641.701 60.2004L641.701 60.2002L641.653 60.2002L641.313 60.2003L638.466 60.2008L631.691 60.2022L631.025 60.2024L624.418 68.9581H625.529H635.28Z" fill="#FB923C"/>
<path d="M635.64 68.4675L635.741 68.5414L635.741 68.5414L635.64 68.4675ZM635.28 68.9581L635.381 69.0321C635.358 69.0642 635.32 69.0831 635.28 69.0831V68.9581ZM641.525 60.4414L641.424 60.3675C641.447 60.3356 641.484 60.3167 641.524 60.3164C641.563 60.3161 641.601 60.3346 641.624 60.3661L641.525 60.4414ZM647.582 68.4675V68.5925C647.543 68.5925 647.506 68.5741 647.482 68.5428L647.582 68.4675ZM647.94 68.4675L648.04 68.3922C648.069 68.43 648.073 68.4808 648.052 68.5232C648.031 68.5657 647.988 68.5925 647.94 68.5925V68.4675ZM641.701 60.2004L641.602 60.2757C641.568 60.2316 641.568 60.1708 641.601 60.1263L641.701 60.2004ZM641.701 60.2004L641.803 60.2733L641.802 60.2745L641.701 60.2004ZM641.701 60.2002L641.701 60.0752C641.748 60.0752 641.791 60.1014 641.813 60.1431C641.834 60.1848 641.83 60.235 641.803 60.2731L641.701 60.2002ZM641.653 60.2002L641.653 60.3252H641.653L641.653 60.2002ZM641.313 60.2003L641.313 60.3253H641.313L641.313 60.2003ZM638.466 60.2008L638.466 60.0758H638.466L638.466 60.2008ZM631.691 60.2022L631.691 60.3272L631.691 60.2022ZM631.025 60.2024L630.926 60.1271C630.949 60.0958 630.986 60.0774 631.025 60.0774L631.025 60.2024ZM624.418 68.9581V69.0831C624.37 69.0831 624.327 69.0563 624.306 69.0139C624.285 68.9714 624.289 68.9207 624.318 68.8828L624.418 68.9581ZM635.741 68.5414L635.381 69.0321L635.18 68.8842L635.539 68.3935L635.741 68.5414ZM641.625 60.5153L635.741 68.5414L635.539 68.3935L641.424 60.3675L641.625 60.5153ZM647.482 68.5428L641.425 60.5167L641.624 60.3661L647.682 68.3922L647.482 68.5428ZM647.94 68.5925H647.582V68.3425H647.94V68.5925ZM641.801 60.1251L648.04 68.3922L647.841 68.5428L641.602 60.2757L641.801 60.1251ZM641.802 60.2745L641.802 60.2745L641.601 60.1263L641.601 60.1262L641.802 60.2745ZM641.803 60.2731L641.803 60.2733L641.6 60.1275L641.6 60.1273L641.803 60.2731ZM641.653 60.0752L641.701 60.0752L641.701 60.3252L641.653 60.3252L641.653 60.0752ZM641.313 60.0753L641.653 60.0752L641.653 60.3252L641.313 60.3253L641.313 60.0753ZM638.466 60.0758L641.313 60.0753L641.313 60.3253L638.466 60.3258L638.466 60.0758ZM631.691 60.0772L638.466 60.0758L638.466 60.3258L631.691 60.3272L631.691 60.0772ZM631.025 60.0774L631.691 60.0772L631.691 60.3272L631.025 60.3274L631.025 60.0774ZM624.318 68.8828L630.926 60.1271L631.125 60.2777L624.518 69.0334L624.318 68.8828ZM625.529 69.0831H624.418V68.8331H625.529V69.0831ZM635.28 69.0831H625.529V68.8331H635.28V69.0831Z" fill="#FB923C"/>
</g>
<g clip-path="url(#clip11_2831_18004)">
<path d="M663.441 44.8171H663.44L669.325 36.791L675.382 44.8171H675.382V55.8998L663.441 55.8758V44.8171Z" fill="#FED7AA"/>
<path d="M663.08 45.3081L663.44 44.8174H663.44V55.8762H653.329V45.3081H663.08Z" fill="#FFF7ED"/>
<path fill-rule="evenodd" clip-rule="evenodd" d="M663.08 45.3078L663.44 44.8171L669.324 36.791L675.382 44.8171H675.74L669.501 36.55L669.501 36.55L669.501 36.5498L669.453 36.5498L669.113 36.5499L666.265 36.5504L659.491 36.5518L658.825 36.552L652.218 45.3078H653.329H663.08Z" fill="#FB923C"/>
<path d="M663.44 44.8171L663.541 44.891L663.541 44.891L663.44 44.8171ZM663.08 45.3078L663.181 45.3817C663.158 45.4138 663.12 45.4328 663.08 45.4328V45.3078ZM669.324 36.791L669.224 36.7171C669.247 36.6852 669.284 36.6663 669.324 36.666C669.363 36.6657 669.4 36.6842 669.424 36.7157L669.324 36.791ZM675.382 44.8171V44.9421C675.342 44.9421 675.305 44.9237 675.282 44.8924L675.382 44.8171ZM675.74 44.8171L675.84 44.7418C675.869 44.7797 675.873 44.8304 675.852 44.8728C675.831 44.9153 675.788 44.9421 675.74 44.9421V44.8171ZM669.501 36.55L669.401 36.6253C669.368 36.5812 669.368 36.5204 669.4 36.4759L669.501 36.55ZM669.501 36.55L669.603 36.6229L669.602 36.6241L669.501 36.55ZM669.501 36.5498L669.501 36.4248C669.548 36.4248 669.591 36.451 669.612 36.4927C669.634 36.5344 669.63 36.5846 669.603 36.6227L669.501 36.5498ZM669.453 36.5498L669.453 36.6748H669.453L669.453 36.5498ZM669.113 36.5499L669.113 36.6749H669.113L669.113 36.5499ZM666.265 36.5504L666.265 36.4254H666.265L666.265 36.5504ZM659.491 36.5518L659.491 36.6768L659.491 36.5518ZM658.825 36.552L658.725 36.4767C658.749 36.4454 658.786 36.427 658.825 36.427L658.825 36.552ZM652.218 45.3078V45.4328C652.17 45.4328 652.127 45.4059 652.106 45.3635C652.085 45.321 652.089 45.2703 652.118 45.2325L652.218 45.3078ZM663.541 44.891L663.181 45.3817L662.979 45.2338L663.339 44.7432L663.541 44.891ZM669.425 36.8649L663.541 44.891L663.339 44.7432L669.224 36.7171L669.425 36.8649ZM675.282 44.8924L669.225 36.8663L669.424 36.7157L675.481 44.7418L675.282 44.8924ZM675.74 44.9421H675.382V44.6921H675.74V44.9421ZM669.601 36.4747L675.84 44.7418L675.64 44.8924L669.401 36.6253L669.601 36.4747ZM669.602 36.6241L669.602 36.6241L669.4 36.4759L669.4 36.4759L669.602 36.6241ZM669.603 36.6227L669.603 36.6229L669.4 36.4771L669.4 36.4769L669.603 36.6227ZM669.453 36.4248L669.501 36.4248L669.501 36.6748L669.453 36.6748L669.453 36.4248ZM669.113 36.4249L669.453 36.4248L669.453 36.6748L669.113 36.6749L669.113 36.4249ZM666.265 36.4254L669.113 36.4249L669.113 36.6749L666.265 36.6754L666.265 36.4254ZM659.491 36.4268L666.265 36.4254L666.265 36.6754L659.491 36.6768L659.491 36.4268ZM658.825 36.427L659.491 36.4268L659.491 36.6768L658.825 36.677L658.825 36.427ZM652.118 45.2325L658.725 36.4767L658.925 36.6273L652.317 45.3831L652.118 45.2325ZM653.329 45.4328H652.218V45.1828H653.329V45.4328ZM663.08 45.4328H653.329V45.1828H663.08V45.4328Z" fill="#FB923C"/>
</g>
<g clip-path="url(#clip12_2831_18004)">
<path d="M710.486 74.9167H710.485L716.369 66.8906L722.427 74.9168H722.427V85.9994L710.486 85.9754V74.9167Z" fill="#FED7AA"/>
<path d="M710.125 75.4077L710.485 74.917H710.485V85.9758H700.374V75.4077H710.125Z" fill="#FFF7ED"/>
<path fill-rule="evenodd" clip-rule="evenodd" d="M710.125 75.4074L710.485 74.9167L716.369 66.8906L722.427 74.9167H722.785L716.546 66.6496L716.546 66.6496L716.546 66.6494L716.498 66.6494L716.158 66.6495L713.31 66.65L706.535 66.6515L705.87 66.6516L699.263 75.4074H700.374H710.125Z" fill="#FB923C"/>
<path d="M710.485 74.9167L710.586 74.9906L710.586 74.9906L710.485 74.9167ZM710.125 75.4074L710.226 75.4813C710.202 75.5134 710.165 75.5324 710.125 75.5324V75.4074ZM716.369 66.8906L716.268 66.8167C716.292 66.7848 716.329 66.7659 716.368 66.7656C716.408 66.7653 716.445 66.7838 716.469 66.8153L716.369 66.8906ZM722.427 74.9167V75.0417C722.387 75.0417 722.35 75.0233 722.327 74.992L722.427 74.9167ZM722.785 74.9167L722.885 74.8414C722.913 74.8793 722.918 74.93 722.897 74.9725C722.876 75.0149 722.833 75.0417 722.785 75.0417V74.9167ZM716.546 66.6496L716.446 66.7249C716.413 66.6808 716.413 66.62 716.445 66.5755L716.546 66.6496ZM716.546 66.6496L716.648 66.7225L716.647 66.7237L716.546 66.6496ZM716.546 66.6494L716.546 66.5244C716.593 66.5244 716.636 66.5506 716.657 66.5923C716.679 66.634 716.675 66.6842 716.648 66.7223L716.546 66.6494ZM716.498 66.6494L716.498 66.7744H716.498L716.498 66.6494ZM716.158 66.6495L716.158 66.7745H716.158L716.158 66.6495ZM713.31 66.65L713.31 66.525H713.31L713.31 66.65ZM706.535 66.6515L706.535 66.7765L706.535 66.6515ZM705.87 66.6516L705.77 66.5763C705.794 66.545 705.831 66.5266 705.87 66.5266L705.87 66.6516ZM699.263 75.4074V75.5324C699.215 75.5324 699.172 75.5055 699.151 75.4631C699.13 75.4207 699.134 75.3699 699.163 75.3321L699.263 75.4074ZM710.586 74.9906L710.226 75.4813L710.024 75.3335L710.384 74.8428L710.586 74.9906ZM716.47 66.9645L710.586 74.9906L710.384 74.8428L716.268 66.8167L716.47 66.9645ZM722.327 74.992L716.27 66.9659L716.469 66.8153L722.526 74.8414L722.327 74.992ZM722.785 75.0417H722.427V74.7917H722.785V75.0417ZM716.646 66.5743L722.885 74.8414L722.685 74.992L716.446 66.7249L716.646 66.5743ZM716.647 66.7237L716.647 66.7237L716.445 66.5755L716.445 66.5755L716.647 66.7237ZM716.648 66.7223L716.648 66.7225L716.444 66.5767L716.445 66.5765L716.648 66.7223ZM716.498 66.5244L716.546 66.5244L716.546 66.7744L716.498 66.7744L716.498 66.5244ZM716.158 66.5245L716.498 66.5244L716.498 66.7744L716.158 66.7745L716.158 66.5245ZM713.31 66.525L716.158 66.5245L716.158 66.7745L713.31 66.775L713.31 66.525ZM706.535 66.5265L713.31 66.525L713.31 66.775L706.535 66.7765L706.535 66.5265ZM705.87 66.5266L706.535 66.5265L706.535 66.7765L705.87 66.7766L705.87 66.5266ZM699.163 75.3321L705.77 66.5763L705.97 66.7269L699.362 75.4827L699.163 75.3321ZM700.374 75.5324H699.263V75.2824H700.374V75.5324ZM710.125 75.5324H700.374V75.2824H710.125V75.5324Z" fill="#FB923C"/>
</g>
<g clip-path="url(#clip13_2831_18004)">
<path d="M691.24 111.467H691.24L697.124 103.441L703.181 111.468H703.181V122.55L691.24 122.526V111.467Z" fill="#FED7AA"/>
<path d="M690.879 111.958L691.239 111.468H691.24V122.527H681.128V111.958H690.879Z" fill="#FFF7ED"/>
<path fill-rule="evenodd" clip-rule="evenodd" d="M690.88 111.958L691.239 111.467L697.124 103.441L703.181 111.468H703.54L697.3 103.2L697.3 103.2L697.301 103.2L697.252 103.2L696.912 103.2L694.065 103.201L687.29 103.202L686.625 103.202L680.017 111.958H681.128H690.88Z" fill="#FB923C"/>
<path d="M691.239 111.467L691.34 111.541L691.34 111.541L691.239 111.467ZM690.88 111.958L690.98 112.032C690.957 112.064 690.919 112.083 690.88 112.083V111.958ZM697.124 103.441L697.023 103.367C697.046 103.336 697.083 103.317 697.123 103.316C697.162 103.316 697.2 103.335 697.223 103.366L697.124 103.441ZM703.181 111.468V111.593C703.142 111.593 703.105 111.574 703.081 111.543L703.181 111.468ZM703.54 111.468L703.639 111.392C703.668 111.43 703.673 111.481 703.651 111.523C703.63 111.566 703.587 111.593 703.54 111.593V111.468ZM697.3 103.2L697.201 103.276C697.167 103.232 697.167 103.171 697.2 103.126L697.3 103.2ZM697.3 103.2L697.402 103.273L697.401 103.275L697.3 103.2ZM697.301 103.2L697.301 103.075C697.347 103.075 697.39 103.101 697.412 103.143C697.433 103.185 697.429 103.235 697.402 103.273L697.301 103.2ZM697.252 103.2L697.252 103.325H697.252L697.252 103.2ZM696.912 103.2L696.912 103.325H696.912L696.912 103.2ZM694.065 103.201L694.065 103.076H694.065L694.065 103.201ZM687.29 103.202L687.29 103.327L687.29 103.202ZM686.625 103.202L686.525 103.127C686.548 103.096 686.585 103.077 686.625 103.077L686.625 103.202ZM680.017 111.958V112.083C679.97 112.083 679.926 112.056 679.905 112.014C679.884 111.971 679.889 111.921 679.917 111.883L680.017 111.958ZM691.34 111.541L690.98 112.032L690.779 111.884L691.139 111.394L691.34 111.541ZM697.225 103.515L691.34 111.541L691.139 111.394L697.023 103.367L697.225 103.515ZM703.081 111.543L697.024 103.517L697.223 103.366L703.281 111.392L703.081 111.543ZM703.54 111.593H703.181V111.343H703.54V111.593ZM697.4 103.125L703.639 111.392L703.44 111.543L697.201 103.276L697.4 103.125ZM697.401 103.275L697.401 103.275L697.2 103.126L697.2 103.126L697.401 103.275ZM697.402 103.273L697.402 103.273L697.199 103.127L697.199 103.127L697.402 103.273ZM697.252 103.075L697.301 103.075L697.301 103.325L697.252 103.325L697.252 103.075ZM696.912 103.075L697.252 103.075L697.252 103.325L696.912 103.325L696.912 103.075ZM694.065 103.076L696.912 103.075L696.912 103.325L694.065 103.326L694.065 103.076ZM687.29 103.077L694.065 103.076L694.065 103.326L687.29 103.327L687.29 103.077ZM686.625 103.077L687.29 103.077L687.29 103.327L686.625 103.327L686.625 103.077ZM679.917 111.883L686.525 103.127L686.724 103.278L680.117 112.033L679.917 111.883ZM681.128 112.083H680.017V111.833H681.128V112.083ZM690.88 112.083H681.128V111.833H690.88V112.083Z" fill="#FB923C"/>
</g>
<g clip-path="url(#clip14_2831_18004)">
<path d="M746.839 94.2673H746.838L752.723 86.2412L758.78 94.2673H758.78V105.35L746.839 105.326V94.2673Z" fill="#FED7AA"/>
<path d="M746.478 94.7583L746.838 94.2676H746.838V105.326H736.727V94.7583H746.478Z" fill="#FFF7ED"/>
<path fill-rule="evenodd" clip-rule="evenodd" d="M746.478 94.7579L746.838 94.2673L752.722 86.2412L758.78 94.2673H759.138L752.899 86.0002L752.899 86.0002L752.899 86L752.851 86L752.511 86.0001L749.663 86.0006L742.888 86.002L742.223 86.0022L735.616 94.7579H736.727H746.478Z" fill="#FB923C"/>
<path d="M746.838 94.2673L746.939 94.3412L746.939 94.3412L746.838 94.2673ZM746.478 94.7579L746.579 94.8319C746.555 94.864 746.518 94.8829 746.478 94.8829V94.7579ZM752.722 86.2412L752.622 86.1673C752.645 86.1354 752.682 86.1165 752.721 86.1162C752.761 86.1159 752.798 86.1344 752.822 86.1659L752.722 86.2412ZM758.78 94.2673V94.3923C758.74 94.3923 758.703 94.3739 758.68 94.3426L758.78 94.2673ZM759.138 94.2673L759.238 94.192C759.267 94.2299 759.271 94.2806 759.25 94.323C759.229 94.3655 759.186 94.3923 759.138 94.3923V94.2673ZM752.899 86.0002L752.799 86.0755C752.766 86.0314 752.766 85.9706 752.798 85.9261L752.899 86.0002ZM752.899 86.0002L753.001 86.0731L753 86.0743L752.899 86.0002ZM752.899 86L752.899 85.875C752.946 85.875 752.989 85.9012 753.01 85.9429C753.032 85.9846 753.028 86.0348 753.001 86.0729L752.899 86ZM752.851 86L752.851 86.125H752.851L752.851 86ZM752.511 86.0001L752.511 86.1251H752.511L752.511 86.0001ZM749.663 86.0006L749.663 85.8756H749.663L749.663 86.0006ZM742.888 86.002L742.889 86.127L742.888 86.002ZM742.223 86.0022L742.123 85.9269C742.147 85.8956 742.184 85.8772 742.223 85.8772L742.223 86.0022ZM735.616 94.7579V94.8829C735.568 94.8829 735.525 94.8561 735.504 94.8137C735.483 94.7712 735.487 94.7205 735.516 94.6827L735.616 94.7579ZM746.939 94.3412L746.579 94.8319L746.377 94.684L746.737 94.1933L746.939 94.3412ZM752.823 86.3151L746.939 94.3412L746.737 94.1933L752.622 86.1673L752.823 86.3151ZM758.68 94.3426L752.623 86.3165L752.822 86.1659L758.879 94.192L758.68 94.3426ZM759.138 94.3923H758.78V94.1423H759.138V94.3923ZM752.999 85.9249L759.238 94.192L759.038 94.3426L752.799 86.0755L752.999 85.9249ZM753 86.0743L753 86.0743L752.798 85.9261L752.798 85.926L753 86.0743ZM753.001 86.0729L753.001 86.0731L752.797 85.9273L752.798 85.9271L753.001 86.0729ZM752.851 85.875L752.899 85.875L752.899 86.125L752.851 86.125L752.851 85.875ZM752.511 85.8751L752.851 85.875L752.851 86.125L752.511 86.1251L752.511 85.8751ZM749.663 85.8756L752.511 85.8751L752.511 86.1251L749.663 86.1256L749.663 85.8756ZM742.888 85.877L749.663 85.8756L749.663 86.1256L742.889 86.127L742.888 85.877ZM742.223 85.8772L742.888 85.877L742.889 86.127L742.223 86.1272L742.223 85.8772ZM735.516 94.6827L742.123 85.9269L742.323 86.0775L735.715 94.8332L735.516 94.6827ZM736.727 94.8829H735.616V94.6329H736.727V94.8829ZM746.478 94.8829H736.727V94.6329H746.478V94.8829Z" fill="#FB923C"/>
</g>
</g>
</g>
<defs>
<clipPath id="clip0_2831_18004">
<rect width="757" height="344" rx="12" fill="white"/>
</clipPath>
<clipPath id="clip1_2831_18004">
<rect width="312.209" height="247.25" fill="white" transform="matrix(-1 0 0 1 534.604 129)"/>
</clipPath>
<clipPath id="clip2_2831_18004">
<rect width="194.596" height="195.65" fill="white" transform="translate(19.2456 -8.59961)"/>
</clipPath>
<clipPath id="clip3_2831_18004">
<rect width="175.35" height="264.45" fill="white" transform="translate(583.788 25.7998)"/>
</clipPath>
<clipPath id="clip4_2831_18004">
<rect width="23.5226" height="19.35" fill="white" transform="matrix(-1 0 0 1 697.124 176.3)"/>
</clipPath>
<clipPath id="clip5_2831_18004">
<rect width="23.5226" height="19.35" fill="white" transform="matrix(-1 0 0 1 735.616 182.75)"/>
</clipPath>
<clipPath id="clip6_2831_18004">
<rect width="23.5226" height="19.35" fill="white" transform="matrix(-1 0 0 1 744.169 206.399)"/>
</clipPath>
<clipPath id="clip7_2831_18004">
<rect width="23.5226" height="19.35" fill="white" transform="matrix(-1 0 0 1 765.554 178.45)"/>
</clipPath>
<clipPath id="clip8_2831_18004">
<rect width="23.5226" height="19.35" fill="white" transform="matrix(-1 0 0 1 735.616 230.05)"/>
</clipPath>
<clipPath id="clip9_2831_18004">
<rect width="23.5226" height="19.35" fill="white" transform="matrix(-1 0 0 1 618.003 81.7002)"/>
</clipPath>
<clipPath id="clip10_2831_18004">
<rect width="23.5226" height="19.35" fill="white" transform="matrix(-1 0 0 1 647.94 60.2002)"/>
</clipPath>
<clipPath id="clip11_2831_18004">
<rect width="23.5226" height="19.35" fill="white" transform="matrix(-1 0 0 1 675.74 36.5498)"/>
</clipPath>
<clipPath id="clip12_2831_18004">
<rect width="23.5226" height="19.35" fill="white" transform="matrix(-1 0 0 1 722.785 66.6494)"/>
</clipPath>
<clipPath id="clip13_2831_18004">
<rect width="23.5226" height="19.35" fill="white" transform="matrix(-1 0 0 1 703.54 103.2)"/>
</clipPath>
<clipPath id="clip14_2831_18004">
<rect width="23.5226" height="19.35" fill="white" transform="matrix(-1 0 0 1 759.138 86)"/>
</clipPath>
</defs>
</svg>
