<svg width="64" height="64" viewBox="0 0 64 64" fill="none" xmlns="http://www.w3.org/2000/svg">
<path fill-rule="evenodd" clip-rule="evenodd" d="M32.81 7.52637C32.81 7.80247 32.5861 8.02637 32.31 8.02637C32.0339 8.02637 31.81 7.80247 31.81 7.52637V4.26067C31.8127 3.60707 32.8071 3.60667 32.81 4.26067V7.52637ZM38.8295 10.4336C38.7358 10.5275 38.6086 10.5802 38.476 10.5801C38.0439 10.5924 37.8055 10.0243 38.1221 9.72657L40.4311 7.41747C40.8822 6.96707 41.5889 7.67287 41.1381 8.12447L38.8295 10.4336ZM38.1225 22.7656C37.9273 22.5704 37.9273 22.2538 38.1225 22.0586C38.3178 21.8634 38.6343 21.8633 38.8295 22.0586L41.1381 24.3677C41.5886 24.8188 40.8827 25.5255 40.4311 25.0747L38.1225 22.7656ZM41.0297 16.7461C40.7536 16.7461 40.5297 16.5222 40.5297 16.2461C40.5297 15.97 40.7532 15.7461 41.0293 15.7461H44.2953C44.9489 15.7488 44.9493 16.7432 44.2953 16.7461H41.0297ZM23.4805 24.3677L25.79 22.0586C26.2413 21.6041 26.9523 22.3138 26.4975 22.7656L24.1875 25.0747C24.1862 25.076 24.1849 25.0773 24.1836 25.0786C24.1809 25.0814 24.1781 25.0842 24.1753 25.0869C23.7155 25.5444 23.0072 24.8116 23.4805 24.3677ZM26.4971 9.72657C26.9515 10.178 26.2417 10.8884 25.79 10.4336L23.4801 8.12447C23.0297 7.67337 23.7355 6.96667 24.1871 7.41747L26.4971 9.72657ZM39.18 16.2462C39.18 20.0404 36.1042 23.1162 32.31 23.1162C28.5176 23.1118 25.4444 20.0386 25.44 16.2462C25.7521 7.15637 38.8648 7.14967 39.18 16.2462ZM32.3099 22.1162C40.0665 21.8778 40.07 10.6165 32.31 10.3762C29.0696 10.3801 26.4437 13.0058 26.44 16.2462C26.44 19.4881 29.0681 22.1162 32.3099 22.1162ZM23.59 16.7462H20.3246C19.671 16.7435 19.6702 15.7491 20.3242 15.7462H23.59C24.2436 15.7489 24.244 16.7433 23.59 16.7462ZM31.81 27.8477V24.9662C31.8127 24.3127 32.8071 24.3123 32.81 24.9663V27.8477H45.4961C45.6765 27.8654 45.8436 27.9601 45.9385 28.1146L59.4873 53.869C59.7877 54.4348 58.8992 54.9033 58.6025 54.335L45.5033 29.435L32.8986 54.2034C32.8137 54.3713 32.6415 54.4771 32.4533 54.4769H4.9553C4.5916 54.4842 4.337 54.0718 4.51 53.7503L17.5527 28.1211C17.6377 27.9532 17.8099 27.8475 17.998 27.8477H31.81ZM18.3049 28.8475L5.7705 53.4769H32.1465L44.6811 28.8475H18.3049Z" fill="black"/>
<path d="M31.81 4.26067L31.435 4.25913V4.26067H31.81ZM32.81 4.26067H33.185L33.185 4.25901L32.81 4.26067ZM38.476 10.5801L38.4763 10.2049L38.4653 10.2052L38.476 10.5801ZM38.8295 10.4336L38.5643 10.1684L38.564 10.1687L38.8295 10.4336ZM38.1221 9.72657L38.3791 9.9999L38.3873 9.99173L38.1221 9.72657ZM40.4311 7.41747L40.1661 7.1521L40.1659 7.15232L40.4311 7.41747ZM41.1381 8.12447L41.4033 8.38961L41.4035 8.3894L41.1381 8.12447ZM38.1225 22.0586L37.8574 21.7933L37.8573 21.7934L38.1225 22.0586ZM38.1225 22.7656L38.3877 22.5004L38.3877 22.5004L38.1225 22.7656ZM38.8295 22.0586L38.5643 22.3237L38.5643 22.3237L38.8295 22.0586ZM41.1381 24.3677L41.4034 24.1027L41.4033 24.1025L41.1381 24.3677ZM40.4311 25.0747L40.1659 25.3398L40.1662 25.3401L40.4311 25.0747ZM44.2953 15.7461L44.2968 15.3711H44.2953V15.7461ZM44.2953 16.7461V17.1211L44.297 17.1211L44.2953 16.7461ZM25.79 22.0586L26.0551 22.3238L26.0561 22.3228L25.79 22.0586ZM23.4805 24.3677L23.7372 24.6413L23.7456 24.6329L23.4805 24.3677ZM26.4975 22.7656L26.2332 22.4995L26.2324 22.5004L26.4975 22.7656ZM24.1875 25.0747L23.9224 24.8094L23.9191 24.8128L24.1875 25.0747ZM24.1836 25.0786L24.4511 25.3415L24.4511 25.3415L24.1836 25.0786ZM24.1753 25.0869L23.9166 24.8153L23.9108 24.821L24.1753 25.0869ZM25.79 10.4336L26.0561 10.1693L26.0551 10.1684L25.79 10.4336ZM26.4971 9.72657L26.232 9.99179L26.2328 9.99261L26.4971 9.72657ZM23.4801 8.12447L23.2147 8.38943L23.215 8.38969L23.4801 8.12447ZM24.1871 7.41747L24.4522 7.15226L24.452 7.15207L24.1871 7.41747ZM32.31 23.1162L32.3096 23.4912H32.31V23.1162ZM39.18 16.2462H39.5552L39.5548 16.2332L39.18 16.2462ZM25.44 16.2462L25.065 16.2333L25.065 16.2466L25.44 16.2462ZM32.31 10.3762L32.3216 10.0012L32.3095 10.0012L32.31 10.3762ZM32.3099 22.1162V22.4914L32.3214 22.491L32.3099 22.1162ZM26.44 16.2462L26.065 16.2457V16.2462H26.44ZM20.3246 16.7462L20.323 17.1212H20.3246V16.7462ZM23.59 16.7462V17.1212L23.5917 17.1212L23.59 16.7462ZM20.3242 15.7462V15.3712L20.3225 15.3712L20.3242 15.7462ZM23.59 15.7462L23.5915 15.3712H23.59V15.7462ZM31.81 24.9662L31.435 24.9646V24.9662H31.81ZM31.81 27.8477V28.2227H32.185V27.8477H31.81ZM32.81 24.9663H33.185L33.185 24.9646L32.81 24.9663ZM32.81 27.8477H32.435V28.2227H32.81V27.8477ZM45.4961 27.8477L45.5327 27.4745L45.5144 27.4727H45.4961V27.8477ZM45.9385 28.1146L46.2704 27.94L46.2646 27.929L46.258 27.9183L45.9385 28.1146ZM59.4873 53.869L59.1554 54.0436L59.1561 54.0449L59.4873 53.869ZM58.6025 54.335L58.9349 54.1615L58.9344 54.1604L58.6025 54.335ZM45.5033 29.435L45.8352 29.2604L45.4978 28.6191L45.1691 29.2649L45.5033 29.435ZM32.8986 54.2034L32.5644 54.0333L32.5639 54.0342L32.8986 54.2034ZM32.4533 54.4769L32.4537 54.1019H32.4533V54.4769ZM4.9553 54.4769V54.1018L4.94777 54.102L4.9553 54.4769ZM4.51 53.7503L4.84031 53.9281L4.84421 53.9204L4.51 53.7503ZM17.5527 28.1211L17.8869 28.2912L17.8873 28.2905L17.5527 28.1211ZM17.998 27.8477L17.9976 28.2227H17.998V27.8477ZM5.7705 53.4769L5.43629 53.3069L5.15889 53.8519H5.7705V53.4769ZM18.3049 28.8475V28.4725H18.075L17.9707 28.6774L18.3049 28.8475ZM32.1465 53.4769V53.8519H32.3764L32.4807 53.647L32.1465 53.4769ZM44.6811 28.8475L45.0153 29.0176L45.2927 28.4725H44.6811V28.8475ZM32.31 8.40137C32.7932 8.40137 33.185 8.00958 33.185 7.52637H32.435C32.435 7.59537 32.379 7.65137 32.31 7.65137V8.40137ZM31.435 7.52637C31.435 8.00958 31.8268 8.40137 32.31 8.40137V7.65137C32.241 7.65137 32.185 7.59537 32.185 7.52637H31.435ZM31.435 4.26067V7.52637H32.185V4.26067H31.435ZM33.185 4.25901C33.1838 3.99198 33.0774 3.76555 32.8994 3.61027C32.7286 3.4613 32.5128 3.39528 32.3098 3.39532C32.1069 3.39537 31.8911 3.46146 31.7204 3.61043C31.5425 3.76571 31.4361 3.99212 31.435 4.25913L32.185 4.26222C32.1852 4.20243 32.2042 4.18369 32.2135 4.1755C32.2302 4.16101 32.2636 4.14533 32.31 4.14532C32.3563 4.14532 32.3898 4.16098 32.4064 4.17544C32.4157 4.1836 32.4347 4.20237 32.435 4.26234L33.185 4.25901ZM33.185 7.52637V4.26067H32.435V7.52637H33.185ZM38.4757 10.9551C38.708 10.9552 38.9308 10.8629 39.0949 10.6985L38.564 10.1687C38.5408 10.192 38.5092 10.2051 38.4763 10.2051L38.4757 10.9551ZM37.8652 9.45338C37.5719 9.72914 37.5501 10.1208 37.6721 10.4138C37.7939 10.7062 38.0865 10.9663 38.4867 10.9549L38.4653 10.2052C38.4334 10.2061 38.3907 10.1884 38.3644 10.1254C38.3384 10.0629 38.3556 10.0217 38.379 9.99977L37.8652 9.45338ZM40.1659 7.15232L37.8569 9.46141L38.3873 9.99173L40.6963 7.68263L40.1659 7.15232ZM41.4035 8.3894C41.5921 8.20044 41.674 7.96444 41.655 7.72995C41.6369 7.506 41.5297 7.30923 41.3879 7.16747C41.246 7.02572 41.0492 6.91868 40.8254 6.90064C40.591 6.88174 40.355 6.96348 40.1661 7.1521L40.696 7.68285C40.7171 7.6618 40.7325 7.65435 40.7402 7.65148C40.7481 7.64856 40.7558 7.64746 40.7651 7.64821C40.7866 7.64994 40.8228 7.66313 40.8577 7.69797C40.8926 7.73282 40.9057 7.76903 40.9075 7.79035C40.9082 7.79963 40.9071 7.80732 40.9042 7.81518C40.9013 7.82292 40.8938 7.83837 40.8727 7.85955L41.4035 8.3894ZM39.0947 10.6987L41.4033 8.38961L40.8729 7.85934L38.5643 10.1684L39.0947 10.6987ZM37.8573 21.7934C37.5157 22.1351 37.5157 22.6891 37.8573 23.0307L38.3877 22.5004C38.3389 22.4517 38.3389 22.3725 38.3877 22.3237L37.8573 21.7934ZM39.0947 21.7935C38.7529 21.4515 38.199 21.4519 37.8574 21.7933L38.3876 22.3238C38.4366 22.2748 38.5156 22.275 38.5643 22.3237L39.0947 21.7935ZM41.4033 24.1025L39.0947 21.7934L38.5643 22.3237L40.8729 24.6328L41.4033 24.1025ZM40.1662 25.3401C40.3551 25.5287 40.5911 25.6105 40.8256 25.5916C41.0496 25.5735 41.2464 25.4663 41.3881 25.3245C41.5299 25.1826 41.6369 24.9858 41.655 24.762C41.6739 24.5276 41.5921 24.2916 41.4034 24.1027L40.8727 24.6327C40.8938 24.6537 40.9013 24.6691 40.9041 24.6769C40.907 24.6847 40.9081 24.6924 40.9074 24.7017C40.9057 24.7231 40.8925 24.7594 40.8576 24.7943C40.8228 24.8292 40.7866 24.8423 40.7652 24.844C40.7559 24.8448 40.7482 24.8437 40.7404 24.8408C40.7326 24.8379 40.7172 24.8304 40.696 24.8093L40.1662 25.3401ZM37.8573 23.0307L40.1659 25.3398L40.6963 24.8095L38.3877 22.5004L37.8573 23.0307ZM40.1547 16.2461C40.1547 16.7293 40.5465 17.1211 41.0297 17.1211V16.3711C40.9607 16.3711 40.9047 16.3151 40.9047 16.2461H40.1547ZM41.0293 15.3711C40.5457 15.3711 40.1547 15.7633 40.1547 16.2461H40.9047C40.9047 16.1767 40.9607 16.1211 41.0293 16.1211V15.3711ZM44.2953 15.3711H41.0293V16.1211H44.2953V15.3711ZM44.297 17.1211C44.564 17.1199 44.7904 17.0135 44.9457 16.8355C45.0947 16.6647 45.1607 16.4489 45.1606 16.2459C45.1606 16.043 45.0945 15.8272 44.9455 15.6565C44.7903 15.4786 44.5638 15.3722 44.2968 15.3711L44.2937 16.1211C44.3535 16.1213 44.3723 16.1403 44.3805 16.1496C44.395 16.1662 44.4106 16.1997 44.4106 16.2461C44.4107 16.2924 44.395 16.3259 44.3805 16.3425C44.3724 16.3518 44.3536 16.3708 44.2936 16.3711L44.297 17.1211ZM41.0297 17.1211H44.2953V16.3711H41.0297V17.1211ZM25.5249 21.7934L23.2154 24.1025L23.7456 24.6329L26.0551 22.3238L25.5249 21.7934ZM26.7618 23.0316C26.9519 22.8428 27.0348 22.6063 27.0161 22.3709C26.9983 22.1463 26.8907 21.9489 26.7485 21.8069C26.6063 21.6648 26.4089 21.5576 26.1843 21.5399C25.9491 21.5214 25.7126 21.6043 25.5239 21.7943L26.0561 22.3228C26.0773 22.3014 26.0928 22.2939 26.1006 22.291C26.1084 22.288 26.1161 22.2869 26.1255 22.2876C26.1469 22.2893 26.1834 22.3025 26.2185 22.3375C26.2536 22.3726 26.2668 22.409 26.2685 22.4302C26.2692 22.4395 26.2681 22.4471 26.2651 22.4549C26.2622 22.4627 26.2547 22.4782 26.2332 22.4995L26.7618 23.0316ZM24.4526 25.3399L26.7626 23.0308L26.2324 22.5004L23.9224 24.8095L24.4526 25.3399ZM24.4511 25.3415C24.453 25.3396 24.4547 25.3378 24.4559 25.3365L23.9191 24.8128C23.9177 24.8142 23.9169 24.8151 23.9161 24.8158L24.4511 25.3415ZM24.4339 25.3584C24.441 25.3516 24.447 25.3456 24.4511 25.3415L23.9162 24.8158L23.9167 24.8153L24.4339 25.3584ZM23.224 24.0942C23.0268 24.279 22.9368 24.5151 22.9503 24.7529C22.9632 24.9796 23.0678 25.1805 23.2083 25.3259C23.3488 25.4713 23.546 25.5827 23.7721 25.6034C24.0092 25.625 24.2482 25.5433 24.4398 25.3527L23.9108 24.821C23.8888 24.843 23.8728 24.8506 23.865 24.8534C23.8571 24.8563 23.8495 24.8573 23.8403 24.8565C23.8191 24.8545 23.7825 24.8408 23.7476 24.8047C23.7128 24.7686 23.7003 24.7317 23.6991 24.7104C23.6986 24.7013 23.6999 24.6937 23.703 24.6859C23.7062 24.6782 23.7143 24.6625 23.737 24.6412L23.224 24.0942ZM25.5239 10.6978C25.7127 10.8879 25.9491 10.9708 26.1844 10.9523C26.4091 10.9346 26.6065 10.8272 26.7485 10.685C26.8906 10.5429 26.998 10.3455 27.0157 10.1209C27.0342 9.88572 26.9514 9.64929 26.7614 9.46053L26.2328 9.99261C26.2542 10.0139 26.2618 10.0294 26.2647 10.0371C26.2676 10.045 26.2687 10.0526 26.268 10.0619C26.2663 10.0833 26.2531 10.1197 26.2181 10.1548C26.1831 10.1898 26.1468 10.2029 26.1255 10.2046C26.1162 10.2053 26.1085 10.2042 26.1007 10.2013C26.0929 10.1984 26.0774 10.1908 26.0561 10.1693L25.5239 10.6978ZM23.215 8.38969L25.5249 10.6988L26.0551 10.1684L23.7452 7.85926L23.215 8.38969ZM24.452 7.15207C24.2631 6.96345 24.0271 6.8816 23.7926 6.90054C23.5686 6.91864 23.3718 7.02584 23.2301 7.16768C23.0883 7.30952 22.9813 7.50632 22.9633 7.73017C22.9444 7.96454 23.0261 8.20052 23.2147 8.38943L23.7455 7.85952C23.7244 7.83844 23.717 7.82306 23.7141 7.81533C23.7112 7.80749 23.7101 7.79978 23.7108 7.79044C23.7126 7.769 23.7257 7.73271 23.7606 7.69784C23.7954 7.66297 23.8316 7.64983 23.853 7.64811C23.8623 7.64736 23.8699 7.64845 23.8778 7.65138C23.8855 7.65426 23.901 7.66173 23.9222 7.68287L24.452 7.15207ZM26.7622 9.46136L24.4522 7.15226L23.922 7.68269L26.232 9.99179L26.7622 9.46136ZM32.31 23.4912C36.3113 23.4912 39.555 20.2475 39.555 16.2462H38.805C38.805 19.8333 35.8971 22.7412 32.31 22.7412V23.4912ZM25.065 16.2466C25.0696 20.2458 28.3104 23.4865 32.3096 23.4912L32.3104 22.7412C28.7248 22.737 25.8192 19.8314 25.815 16.2457L25.065 16.2466ZM39.5548 16.2332C39.2228 6.65259 25.3938 6.66207 25.0652 16.2333L25.8148 16.259C26.1103 7.65068 38.5068 7.64675 38.8052 16.2592L39.5548 16.2332ZM32.2984 10.751C39.5731 10.9763 39.571 21.5178 32.2984 21.7414L32.3214 22.491C40.5619 22.2377 40.5668 10.2567 32.3216 10.0014L32.2984 10.751ZM26.815 16.2466C26.8185 13.213 29.2768 10.7548 32.3104 10.7512L32.3095 10.0012C28.8624 10.0053 26.0689 12.7986 26.065 16.2457L26.815 16.2466ZM32.3099 21.7412C29.2752 21.7412 26.815 19.281 26.815 16.2462H26.065C26.065 19.6952 28.861 22.4912 32.3099 22.4912V21.7412ZM20.3246 17.1212H23.59V16.3712H20.3246V17.1212ZM20.3225 15.3712C20.0555 15.3724 19.8291 15.4788 19.6738 15.6568C19.5248 15.8276 19.4589 16.0435 19.459 16.2465C19.4592 16.4494 19.5254 16.6652 19.6743 16.8358C19.8296 17.0137 20.056 17.1201 20.323 17.1212L20.3261 16.3712C20.2663 16.3709 20.2475 16.352 20.2393 16.3426C20.2248 16.3259 20.2091 16.2924 20.209 16.246C20.209 16.1997 20.2247 16.1663 20.2391 16.1497C20.2472 16.1404 20.2659 16.1214 20.3259 16.1212L20.3225 15.3712ZM23.59 15.3712H20.3242V16.1212H23.59V15.3712ZM23.5917 17.1212C23.8587 17.12 24.0851 17.0136 24.2404 16.8356C24.3894 16.6648 24.4554 16.449 24.4553 16.246C24.4553 16.0431 24.3892 15.8273 24.2402 15.6566C24.085 15.4787 23.8585 15.3723 23.5915 15.3712L23.5884 16.1212C23.6482 16.1214 23.667 16.1404 23.6752 16.1497C23.6897 16.1663 23.7053 16.1998 23.7053 16.2462C23.7054 16.2925 23.6897 16.326 23.6752 16.3426C23.6671 16.3519 23.6483 16.3709 23.5883 16.3712L23.5917 17.1212ZM31.435 24.9662V27.8477H32.185V24.9662H31.435ZM33.185 24.9646C33.1838 24.6976 33.0774 24.4711 32.8994 24.3159C32.7287 24.1669 32.5128 24.1009 32.3099 24.1009C32.1069 24.1009 31.8911 24.167 31.7204 24.316C31.5425 24.4712 31.4361 24.6976 31.435 24.9646L32.185 24.9677C32.1852 24.908 32.2042 24.8893 32.2135 24.8811C32.2301 24.8666 32.2636 24.8509 32.31 24.8509C32.3563 24.8509 32.3898 24.8666 32.4064 24.881C32.4157 24.8892 32.4347 24.908 32.435 24.9679L33.185 24.9646ZM33.185 27.8477V24.9663H32.435V27.8477H33.185ZM45.4961 27.4727H32.81V28.2227H45.4961V27.4727ZM46.258 27.9183C46.095 27.653 45.8166 27.5024 45.5327 27.4745L45.4595 28.2209C45.5364 28.2285 45.5922 28.2673 45.619 28.3109L46.258 27.9183ZM59.8192 53.6944L46.2704 27.94L45.6066 28.2892L59.1554 54.0436L59.8192 53.6944ZM58.2701 54.5086C58.3941 54.746 58.5953 54.8953 58.8256 54.9473C59.0454 54.9969 59.2658 54.9528 59.4436 54.8591C59.6214 54.7653 59.7824 54.6086 59.8658 54.3993C59.9532 54.1801 59.9441 53.9298 59.8185 53.6932L59.1561 54.0449C59.1702 54.0715 59.1729 54.0885 59.1733 54.0968C59.1738 54.1052 59.1726 54.1129 59.1692 54.1216C59.1612 54.1415 59.1378 54.1724 59.094 54.1955C59.0501 54.2186 59.0115 54.2204 58.9907 54.2157C58.9817 54.2137 58.9747 54.2103 58.968 54.2052C58.9615 54.2001 58.9489 54.1883 58.9349 54.1615L58.2701 54.5086ZM45.1714 29.6096L58.2706 54.5096L58.9344 54.1604L45.8352 29.2604L45.1714 29.6096ZM33.2328 54.3735L45.8375 29.6051L45.1691 29.2649L32.5644 54.0333L33.2328 54.3735ZM32.4529 54.8519C32.7827 54.8523 33.0845 54.6668 33.2332 54.3726L32.5639 54.0342C32.5429 54.0758 32.5003 54.102 32.4537 54.1019L32.4529 54.8519ZM4.9553 54.8519H32.4533V54.1019H4.9553V54.8519ZM4.17977 53.5726C3.86963 54.149 4.31453 54.8648 4.96282 54.8518L4.94777 54.102C4.91742 54.1026 4.87903 54.0864 4.85089 54.0406C4.82291 53.9951 4.82597 53.9545 4.84022 53.928L4.17977 53.5726ZM17.2185 27.951L4.17579 53.5802L4.84421 53.9204L17.8869 28.2912L17.2185 27.951ZM17.9984 27.4727C17.6688 27.4724 17.367 27.6576 17.2181 27.9517L17.8873 28.2905C17.9084 28.2488 17.951 28.2227 17.9976 28.2227L17.9984 27.4727ZM31.81 27.4727H17.998V28.2227H31.81V27.4727ZM6.10471 53.647L18.6391 29.0176L17.9707 28.6774L5.43629 53.3069L6.10471 53.647ZM32.1465 53.1019H5.7705V53.8519H32.1465V53.1019ZM44.3469 28.6774L31.8123 53.3068L32.4807 53.647L45.0153 29.0176L44.3469 28.6774ZM18.3049 29.2225H44.6811V28.4725H18.3049V29.2225Z" fill="black"/>
<rect x="43" y="44" width="5" height="9" rx="0.25" stroke="#DD3627" stroke-width="1.5"/>
</svg>
