<svg width="354" height="160" viewBox="0 0 354 160" fill="none" xmlns="http://www.w3.org/2000/svg">
<g clip-path="url(#clip0_1799_6356)">
<rect width="354" height="160" rx="12" fill="#FEF08A"/>
<rect x="177" width="177" height="160" fill="#A5B4FC"/>
<path d="M244.335 169.918C244.335 169.918 226.784 164.549 235.361 159.021C240.952 155.419 261.925 153.444 273.761 155.419C278.802 156.259 292.909 155.14 303.611 151.966C321.357 146.702 376.889 152.551 359.761 163.077C351.935 167.886 365.319 167.271 361.963 170L244.335 169.918Z" fill="#818CF8"/>
<path d="M12.3346 168.918C12.3346 168.918 -5.21627 163.549 3.36121 158.021C8.95218 154.419 29.9249 152.444 41.7609 154.419C46.802 155.259 60.9093 154.14 71.6106 150.966C89.3575 145.702 144.889 151.551 127.761 162.077C119.935 166.886 133.319 166.271 129.963 169L12.3346 168.918Z" fill="#A7F3D0"/>
<g clip-path="url(#clip1_1799_6356)">
<path d="M173.658 109.134H173.655L210.178 61.4336L247.774 109.134H247.773V175L173.658 174.858V109.134Z" fill="#FED7AA"/>
<path d="M171.422 112.05L173.655 109.134H173.658V174.858H110.897V112.05H171.422Z" fill="#FFF7ED"/>
<path fill-rule="evenodd" clip-rule="evenodd" d="M171.422 112.05L173.655 109.134L210.178 61.4335L211.275 60.0011L211.276 60L210.976 60.0001L208.867 60.0004L191.192 60.0034L149.141 60.0122L145.012 60.013L104 112.05H110.897H171.422ZM250 109.134L211.275 60.0015L210.178 61.4339L247.774 109.134H250Z" fill="#FB923C"/>
<path d="M173.655 109.134L174.449 109.742L174.449 109.742L173.655 109.134ZM171.422 112.05L172.216 112.658C172.027 112.905 171.733 113.05 171.422 113.05V112.05ZM210.178 61.4335L209.384 60.8256L209.384 60.8256L210.178 61.4335ZM211.275 60.0011L212.075 60.6016L212.069 60.6091L211.275 60.0011ZM211.276 60L211.276 59C211.654 58.9999 212.001 59.214 212.17 59.5529C212.34 59.8918 212.303 60.2974 212.075 60.6004L211.276 60ZM210.976 60.0001L210.976 61.0001H210.976L210.976 60.0001ZM208.867 60.0004L208.867 61.0004H208.867L208.867 60.0004ZM191.192 60.0034L191.192 59.0034H191.192L191.192 60.0034ZM149.141 60.0122L149.142 61.0122L149.141 60.0122ZM145.012 60.013L144.227 59.394C144.416 59.1535 144.706 59.0131 145.012 59.013L145.012 60.013ZM104 112.05V113.05C103.617 113.05 103.268 112.831 103.1 112.486C102.933 112.142 102.978 111.732 103.215 111.431L104 112.05ZM211.275 60.0015L210.481 59.3936C210.669 59.1484 210.959 59.0037 211.268 59.0016C211.577 58.9994 211.869 59.14 212.06 59.3825L211.275 60.0015ZM250 109.134L250.785 108.515C251.023 108.816 251.067 109.226 250.9 109.571C250.733 109.916 250.383 110.134 250 110.134V109.134ZM210.178 61.4339L209.393 62.0529C209.11 61.694 209.106 61.1889 209.384 60.826L210.178 61.4339ZM247.774 109.134V110.134C247.468 110.134 247.179 109.994 246.989 109.753L247.774 109.134ZM174.449 109.742L172.216 112.658L170.628 111.442L172.861 108.526L174.449 109.742ZM210.972 62.0415L174.449 109.742L172.861 108.526L209.384 60.8256L210.972 62.0415ZM212.069 60.6091L210.972 62.0415L209.384 60.8256L210.481 59.3932L212.069 60.6091ZM212.075 60.6004L212.075 60.6015L210.475 59.4008L210.476 59.3996L212.075 60.6004ZM210.975 59.0001L211.276 59L211.276 61L210.976 61.0001L210.975 59.0001ZM208.866 59.0004L210.975 59.0001L210.976 61.0001L208.867 61.0004L208.866 59.0004ZM191.192 59.0034L208.866 59.0004L208.867 61.0004L191.192 61.0034L191.192 59.0034ZM149.141 59.0122L191.192 59.0034L191.192 61.0034L149.142 61.0122L149.141 59.0122ZM145.012 59.013L149.141 59.0122L149.142 61.0122L145.012 61.013L145.012 59.013ZM103.215 111.431L144.227 59.394L145.798 60.632L104.785 112.669L103.215 111.431ZM110.897 113.05H104V111.05H110.897V113.05ZM171.422 113.05H110.897V111.05H171.422V113.05ZM212.06 59.3825L250.785 108.515L249.215 109.753L210.489 60.6205L212.06 59.3825ZM209.384 60.826L210.481 59.3936L212.069 60.6095L210.972 62.0419L209.384 60.826ZM246.989 109.753L209.393 62.0529L210.963 60.8149L248.56 108.515L246.989 109.753ZM250 110.134H247.774V108.134H250V110.134Z" fill="#FB923C"/>
<path d="M211.499 135.456C221.843 135.456 230.227 127.071 230.227 116.728C230.227 106.385 221.843 98 211.499 98C201.156 98 192.772 106.385 192.772 116.728C192.772 127.071 201.156 135.456 211.499 135.456Z" fill="#34D399"/>
<path d="M211 103.5V117.185L218 121.5" stroke="white" stroke-width="3" stroke-linecap="round"/>
</g>
<g clip-path="url(#clip2_1799_6356)">
<path d="M334.234 162C326.123 147.894 322.263 134.612 323.071 123.589C323.689 115.154 326.791 109.983 329.284 107.129L330.658 109.555C328.489 112.037 325.79 116.542 325.25 123.912C324.503 134.091 328.197 146.581 335.931 160.03L334.234 162Z" fill="#10B981"/>
<path d="M357 123.334C353.996 123.907 347.223 117.368 341.038 118.186C328.917 119.787 325.476 142.049 329.996 152.544C331.083 144.502 333.403 138.744 340.18 139.582C352.194 141.07 357 123.334 357 123.334Z" fill="#10B981"/>
<path d="M310 150.491C311.945 143.396 319.076 137.98 325.894 151.177C323.159 150.109 318.582 154.8 315.836 154.8C313.089 154.8 310 150.491 310 150.491Z" fill="#10B981"/>
<path d="M331.352 89.3292C319.015 91.4508 307.044 108.531 325.277 133.171C324.788 125.197 334.434 114.781 335.676 107.26C336.917 99.7384 331.352 89.3292 331.352 89.3292Z" fill="#10B981"/>
</g>
<g clip-path="url(#clip3_1799_6356)">
<path d="M-4.74574 162.793C-3.57287 146.431 0.688907 133.154 7.57845 124.397C12.8507 117.696 18.3586 115.122 22.0505 114.143L21.8316 116.945C18.6195 117.797 13.824 120.041 9.21754 125.895C2.85527 133.982 -1.09911 146.502 -2.21701 162.103L-4.74574 162.793Z" fill="#10B981"/>
<path d="M36.0789 143.312C33.246 142.096 31.271 132.813 25.641 130.01C14.608 124.515 -0.818496 141.181 -2.9573 152.5C2.48482 146.392 7.67001 142.887 12.8613 147.408C22.064 155.425 36.0789 143.312 36.0789 143.312Z" fill="#10B981"/>
<path d="M-18.5114 139.511C-12.8862 134.679 -3.8736 134.172 -5.61441 149.046C-7.29834 146.611 -13.7685 147.951 -16.0637 146.403C-18.3588 144.855 -18.5114 139.511 -18.5114 139.511Z" fill="#10B981"/>
<path d="M33.8143 100.432C22.3069 95.25 2.67272 102.776 4.0206 133.649C8.10758 126.709 22.0414 123.441 27.319 117.855C32.5965 112.269 33.8143 100.432 33.8143 100.432Z" fill="#10B981"/>
</g>
<path d="M95.25 68.25C107.814 55.6855 107.814 35.3145 95.25 22.75C82.6855 10.1855 62.3145 10.1855 49.75 22.75C37.1855 35.3145 37.1855 55.6855 49.75 68.25C62.3145 80.8145 82.6855 80.8145 95.25 68.25Z" fill="#FBBF24"/>
<path fill-rule="evenodd" clip-rule="evenodd" d="M290.702 13.3301C289.416 14.2161 288.192 15.2311 287.048 16.375C276.9 26.5232 276.9 42.9768 287.048 53.125C296.613 62.6896 311.778 63.2397 321.987 54.7752C320.507 59.7071 317.819 64.3539 313.923 68.25C301.359 80.8145 280.988 80.8145 268.423 68.25C255.859 55.6855 255.859 35.3145 268.423 22.75C274.586 16.5875 282.626 13.4476 290.702 13.3301Z" fill="#FDE68A"/>
<path d="M66.6125 110.216C65.3525 110.216 64.2485 109.94 63.3005 109.388C62.3645 108.836 61.6265 108.074 61.0865 107.102C60.5585 106.118 60.2945 104.984 60.2945 103.7C60.2945 102.416 60.5585 101.288 61.0865 100.316C61.6265 99.332 62.3645 98.564 63.3005 98.012C64.2485 97.46 65.3525 97.184 66.6125 97.184C67.8605 97.184 68.9585 97.46 69.9065 98.012C70.8545 98.564 71.5925 99.332 72.1205 100.316C72.6485 101.288 72.9125 102.416 72.9125 103.7C72.9125 104.984 72.6485 106.118 72.1205 107.102C71.5925 108.074 70.8545 108.836 69.9065 109.388C68.9585 109.94 67.8605 110.216 66.6125 110.216ZM66.6125 108.146C67.8125 108.146 68.7665 107.75 69.4745 106.958C70.1945 106.166 70.5545 105.08 70.5545 103.7C70.5545 102.32 70.1945 101.234 69.4745 100.442C68.7665 99.65 67.8125 99.254 66.6125 99.254C65.4125 99.254 64.4525 99.65 63.7325 100.442C63.0125 101.234 62.6525 102.32 62.6525 103.7C62.6525 105.08 63.0125 106.166 63.7325 106.958C64.4525 107.75 65.4125 108.146 66.6125 108.146ZM74.7668 110V97.4H77.0708L82.9928 106.274V97.4H85.2968V110H82.9928L77.0708 101.144V110H74.7668Z" fill="#4F46E5"/>
<path d="M63.3005 109.388L63.0465 109.819L63.0489 109.82L63.3005 109.388ZM61.0865 107.102L60.6459 107.338L60.6495 107.345L61.0865 107.102ZM61.0865 100.316L60.6482 100.075L60.6472 100.077L61.0865 100.316ZM63.3005 98.012L63.0489 97.5799L63.0465 97.5813L63.3005 98.012ZM69.9065 98.012L70.1581 97.5799H70.1581L69.9065 98.012ZM72.1205 100.316L71.6799 100.552L71.6812 100.555L72.1205 100.316ZM72.1205 107.102L72.5599 107.341L72.5611 107.338L72.1205 107.102ZM69.9065 109.388L70.1581 109.82H70.1581L69.9065 109.388ZM69.4745 106.958L69.1045 106.622L69.1018 106.625L69.4745 106.958ZM69.4745 100.442L69.1017 100.775L69.1046 100.778L69.4745 100.442ZM63.7325 100.442L64.1025 100.778L63.7325 100.442ZM63.7325 106.958L64.1025 106.622L63.7325 106.958ZM66.6125 109.716C65.4276 109.716 64.413 109.457 63.5521 108.956L63.0489 109.82C64.0841 110.423 65.2775 110.716 66.6125 110.716V109.716ZM63.5545 108.957C62.697 108.452 62.0214 107.755 61.5236 106.859L60.6495 107.345C61.2316 108.393 62.032 109.22 63.0465 109.819L63.5545 108.957ZM61.5271 106.866C61.0436 105.965 60.7945 104.914 60.7945 103.7H59.7945C59.7945 105.054 60.0735 106.271 60.646 107.338L61.5271 106.866ZM60.7945 103.7C60.7945 102.486 61.0437 101.442 61.5259 100.555L60.6472 100.077C60.0734 101.134 59.7945 102.346 59.7945 103.7H60.7945ZM61.5249 100.557C62.0231 99.6486 62.6986 98.9475 63.5545 98.4427L63.0465 97.5813C62.0305 98.1805 61.2299 99.0154 60.6482 100.075L61.5249 100.557ZM63.5521 98.4441C64.413 97.9428 65.4276 97.684 66.6125 97.684V96.684C65.2775 96.684 64.0841 96.9772 63.0489 97.5799L63.5521 98.4441ZM66.6125 97.684C67.7845 97.684 68.7934 97.9424 69.6549 98.4441L70.1581 97.5799C69.1237 96.9776 67.9365 96.684 66.6125 96.684V97.684ZM69.6549 98.4441C70.5216 98.9487 71.1948 99.6483 71.68 100.552L72.5611 100.08C71.9902 99.0157 71.1875 98.1793 70.1581 97.5799L69.6549 98.4441ZM71.6812 100.555C72.1634 101.442 72.4125 102.486 72.4125 103.7H73.4125C73.4125 102.346 73.1337 101.134 72.5599 100.077L71.6812 100.555ZM72.4125 103.7C72.4125 104.914 72.1635 105.965 71.68 106.866L72.5611 107.338C73.1336 106.271 73.4125 105.054 73.4125 103.7H72.4125ZM71.6812 106.863C71.1965 107.756 70.5231 108.45 69.6549 108.956L70.1581 109.82C71.1859 109.222 71.9886 108.392 72.5599 107.341L71.6812 106.863ZM69.6549 108.956C68.7934 109.458 67.7845 109.716 66.6125 109.716V110.716C67.9365 110.716 69.1237 110.422 70.1581 109.82L69.6549 108.956ZM66.6125 108.646C67.9344 108.646 69.0316 108.204 69.8473 107.291L69.1018 106.625C68.5015 107.296 67.6907 107.646 66.6125 107.646V108.646ZM69.8445 107.294C70.6702 106.386 71.0545 105.167 71.0545 103.7H70.0545C70.0545 104.993 69.7189 105.946 69.1046 106.622L69.8445 107.294ZM71.0545 103.7C71.0545 102.233 70.6702 101.014 69.8445 100.106L69.1046 100.778C69.7189 101.454 70.0545 102.407 70.0545 103.7H71.0545ZM69.8473 100.109C69.0316 99.1963 67.9344 98.754 66.6125 98.754V99.754C67.6907 99.754 68.5015 100.104 69.1018 100.775L69.8473 100.109ZM66.6125 98.754C65.2906 98.754 64.1894 99.1962 63.3626 100.106L64.1025 100.778C64.7157 100.104 65.5345 99.754 66.6125 99.754V98.754ZM63.3626 100.106C62.5369 101.014 62.1525 102.233 62.1525 103.7H63.1525C63.1525 102.407 63.4881 101.454 64.1025 100.778L63.3626 100.106ZM62.1525 103.7C62.1525 105.167 62.5369 106.386 63.3626 107.294L64.1025 106.622C63.4881 105.946 63.1525 104.993 63.1525 103.7H62.1525ZM63.3626 107.294C64.1894 108.204 65.2906 108.646 66.6125 108.646V107.646C65.5345 107.646 64.7157 107.296 64.1025 106.622L63.3626 107.294ZM74.7668 110H74.2668V110.5H74.7668V110ZM74.7668 97.4V96.9H74.2668V97.4H74.7668ZM77.0708 97.4L77.4867 97.1225L77.3383 96.9H77.0708V97.4ZM82.9928 106.274L82.5769 106.552L83.4928 107.924V106.274H82.9928ZM82.9928 97.4V96.9H82.4928V97.4H82.9928ZM85.2968 97.4H85.7968V96.9H85.2968V97.4ZM85.2968 110V110.5H85.7968V110H85.2968ZM82.9928 110L82.5772 110.278L82.7257 110.5H82.9928V110ZM77.0708 101.144L77.4864 100.866L76.5708 99.4968V101.144H77.0708ZM77.0708 110V110.5H77.5708V110H77.0708ZM75.2668 110V97.4H74.2668V110H75.2668ZM74.7668 97.9H77.0708V96.9H74.7668V97.9ZM76.6549 97.6775L82.5769 106.552L83.4087 105.996L77.4867 97.1225L76.6549 97.6775ZM83.4928 106.274V97.4H82.4928V106.274H83.4928ZM82.9928 97.9H85.2968V96.9H82.9928V97.9ZM84.7968 97.4V110H85.7968V97.4H84.7968ZM85.2968 109.5H82.9928V110.5H85.2968V109.5ZM83.4084 109.722L77.4864 100.866L76.6552 101.422L82.5772 110.278L83.4084 109.722ZM76.5708 101.144V110H77.5708V101.144H76.5708ZM77.0708 109.5H74.7668V110.5H77.0708V109.5Z" fill="#4F46E5"/>
<path d="M276.275 110.216C275.015 110.216 273.911 109.94 272.963 109.388C272.027 108.836 271.289 108.074 270.749 107.102C270.221 106.118 269.957 104.984 269.957 103.7C269.957 102.416 270.221 101.288 270.749 100.316C271.289 99.332 272.027 98.564 272.963 98.012C273.911 97.46 275.015 97.184 276.275 97.184C277.523 97.184 278.621 97.46 279.569 98.012C280.517 98.564 281.255 99.332 281.783 100.316C282.311 101.288 282.575 102.416 282.575 103.7C282.575 104.984 282.311 106.118 281.783 107.102C281.255 108.074 280.517 108.836 279.569 109.388C278.621 109.94 277.523 110.216 276.275 110.216ZM276.275 108.146C277.475 108.146 278.429 107.75 279.137 106.958C279.857 106.166 280.217 105.08 280.217 103.7C280.217 102.32 279.857 101.234 279.137 100.442C278.429 99.65 277.475 99.254 276.275 99.254C275.075 99.254 274.115 99.65 273.395 100.442C272.675 101.234 272.315 102.32 272.315 103.7C272.315 105.08 272.675 106.166 273.395 106.958C274.115 107.75 275.075 108.146 276.275 108.146ZM284.429 110V97.4H292.565V99.254H286.733V102.782H291.449V104.6H286.733V110H284.429ZM294.163 110V97.4H302.299V99.254H296.467V102.782H301.183V104.6H296.467V110H294.163Z" fill="white"/>
<path d="M272.963 109.388L272.709 109.819L272.711 109.82L272.963 109.388ZM270.749 107.102L270.308 107.338L270.312 107.345L270.749 107.102ZM270.749 100.316L270.31 100.075L270.309 100.077L270.749 100.316ZM272.963 98.012L272.711 97.5799L272.709 97.5813L272.963 98.012ZM279.569 98.012L279.82 97.5799H279.82L279.569 98.012ZM281.783 100.316L281.342 100.552L281.343 100.555L281.783 100.316ZM281.783 107.102L282.222 107.341L282.223 107.338L281.783 107.102ZM279.569 109.388L279.82 109.82H279.82L279.569 109.388ZM279.137 106.958L278.767 106.622L278.764 106.625L279.137 106.958ZM279.137 100.442L278.764 100.775L278.767 100.778L279.137 100.442ZM273.395 100.442L273.765 100.778L273.395 100.442ZM273.395 106.958L273.765 106.622L273.395 106.958ZM276.275 109.716C275.09 109.716 274.075 109.457 273.214 108.956L272.711 109.82C273.746 110.423 274.94 110.716 276.275 110.716V109.716ZM273.217 108.957C272.359 108.452 271.684 107.755 271.186 106.859L270.312 107.345C270.894 108.393 271.694 109.22 272.709 109.819L273.217 108.957ZM271.189 106.866C270.706 105.965 270.457 104.914 270.457 103.7H269.457C269.457 105.054 269.736 106.271 270.308 107.338L271.189 106.866ZM270.457 103.7C270.457 102.486 270.706 101.442 271.188 100.555L270.309 100.077C269.736 101.134 269.457 102.346 269.457 103.7H270.457ZM271.187 100.557C271.685 99.6486 272.361 98.9475 273.217 98.4427L272.709 97.5813C271.693 98.1805 270.892 99.0154 270.31 100.075L271.187 100.557ZM273.214 98.4441C274.075 97.9428 275.09 97.684 276.275 97.684V96.684C274.94 96.684 273.746 96.9772 272.711 97.5799L273.214 98.4441ZM276.275 97.684C277.447 97.684 278.456 97.9424 279.317 98.4441L279.82 97.5799C278.786 96.9776 277.599 96.684 276.275 96.684V97.684ZM279.317 98.4441C280.184 98.9487 280.857 99.6483 281.342 100.552L282.223 100.08C281.653 99.0157 280.85 98.1793 279.82 97.5799L279.317 98.4441ZM281.343 100.555C281.826 101.442 282.075 102.486 282.075 103.7H283.075C283.075 102.346 282.796 101.134 282.222 100.077L281.343 100.555ZM282.075 103.7C282.075 104.914 281.826 105.965 281.342 106.866L282.223 107.338C282.796 106.271 283.075 105.054 283.075 103.7H282.075ZM281.343 106.863C280.859 107.756 280.185 108.45 279.317 108.956L279.82 109.82C280.848 109.222 281.651 108.392 282.222 107.341L281.343 106.863ZM279.317 108.956C278.456 109.458 277.447 109.716 276.275 109.716V110.716C277.599 110.716 278.786 110.422 279.82 109.82L279.317 108.956ZM276.275 108.646C277.597 108.646 278.694 108.204 279.51 107.291L278.764 106.625C278.164 107.296 277.353 107.646 276.275 107.646V108.646ZM279.507 107.294C280.332 106.386 280.717 105.167 280.717 103.7H279.717C279.717 104.993 279.381 105.946 278.767 106.622L279.507 107.294ZM280.717 103.7C280.717 102.233 280.332 101.014 279.507 100.106L278.767 100.778C279.381 101.454 279.717 102.407 279.717 103.7H280.717ZM279.51 100.109C278.694 99.1963 277.597 98.754 276.275 98.754V99.754C277.353 99.754 278.164 100.104 278.764 100.775L279.51 100.109ZM276.275 98.754C274.953 98.754 273.852 99.1962 273.025 100.106L273.765 100.778C274.378 100.104 275.197 99.754 276.275 99.754V98.754ZM273.025 100.106C272.199 101.014 271.815 102.233 271.815 103.7H272.815C272.815 102.407 273.15 101.454 273.765 100.778L273.025 100.106ZM271.815 103.7C271.815 105.167 272.199 106.386 273.025 107.294L273.765 106.622C273.15 105.946 272.815 104.993 272.815 103.7H271.815ZM273.025 107.294C273.852 108.204 274.953 108.646 276.275 108.646V107.646C275.197 107.646 274.378 107.296 273.765 106.622L273.025 107.294ZM284.429 110H283.929V110.5H284.429V110ZM284.429 97.4V96.9H283.929V97.4H284.429ZM292.565 97.4H293.065V96.9H292.565V97.4ZM292.565 99.254V99.754H293.065V99.254H292.565ZM286.733 99.254V98.754H286.233V99.254H286.733ZM286.733 102.782H286.233V103.282H286.733V102.782ZM291.449 102.782H291.949V102.282H291.449V102.782ZM291.449 104.6V105.1H291.949V104.6H291.449ZM286.733 104.6V104.1H286.233V104.6H286.733ZM286.733 110V110.5H287.233V110H286.733ZM284.929 110V97.4H283.929V110H284.929ZM284.429 97.9H292.565V96.9H284.429V97.9ZM292.065 97.4V99.254H293.065V97.4H292.065ZM292.565 98.754H286.733V99.754H292.565V98.754ZM286.233 99.254V102.782H287.233V99.254H286.233ZM286.733 103.282H291.449V102.282H286.733V103.282ZM290.949 102.782V104.6H291.949V102.782H290.949ZM291.449 104.1H286.733V105.1H291.449V104.1ZM286.233 104.6V110H287.233V104.6H286.233ZM286.733 109.5H284.429V110.5H286.733V109.5ZM294.163 110H293.663V110.5H294.163V110ZM294.163 97.4V96.9H293.663V97.4H294.163ZM302.299 97.4H302.799V96.9H302.299V97.4ZM302.299 99.254V99.754H302.799V99.254H302.299ZM296.467 99.254V98.754H295.967V99.254H296.467ZM296.467 102.782H295.967V103.282H296.467V102.782ZM301.183 102.782H301.683V102.282H301.183V102.782ZM301.183 104.6V105.1H301.683V104.6H301.183ZM296.467 104.6V104.1H295.967V104.6H296.467ZM296.467 110V110.5H296.967V110H296.467ZM294.663 110V97.4H293.663V110H294.663ZM294.163 97.9H302.299V96.9H294.163V97.9ZM301.799 97.4V99.254H302.799V97.4H301.799ZM302.299 98.754H296.467V99.754H302.299V98.754ZM295.967 99.254V102.782H296.967V99.254H295.967ZM296.467 103.282H301.183V102.282H296.467V103.282ZM300.683 102.782V104.6H301.683V102.782H300.683ZM301.183 104.1H296.467V105.1H301.183V104.1ZM295.967 104.6V110H296.967V104.6H295.967ZM296.467 109.5H294.163V110.5H296.467V109.5Z" fill="white"/>
</g>
<defs>
<clipPath id="clip0_1799_6356">
<rect width="354" height="160" rx="12" fill="white"/>
</clipPath>
<clipPath id="clip1_1799_6356">
<rect width="146" height="115" fill="white" transform="matrix(-1 0 0 1 250 60)"/>
</clipPath>
<clipPath id="clip2_1799_6356">
<rect width="47" height="76" fill="white" transform="translate(310 86)"/>
</clipPath>
<clipPath id="clip3_1799_6356">
<rect width="47.382" height="76.6178" fill="white" transform="translate(17.8457 85.6123) rotate(34.0014)"/>
</clipPath>
</defs>
</svg>
