<svg width="354" height="160" viewBox="0 0 354 160" fill="none" xmlns="http://www.w3.org/2000/svg">
<g clip-path="url(#clip0_1799_6084)">
<rect width="354" height="160" rx="12" fill="#FEF08A"/>
<g clip-path="url(#clip1_1799_6084)">
<path d="M173.658 109.134H173.655L210.178 61.4336L247.774 109.134H247.773V175L173.658 174.858V109.134Z" fill="#FED7AA"/>
<path d="M171.422 112.05L173.655 109.134H173.658V174.858H110.897V112.05H171.422Z" fill="#FFF7ED"/>
<path fill-rule="evenodd" clip-rule="evenodd" d="M171.422 112.05L173.655 109.134L210.178 61.4335L211.275 60.0011L211.276 60L210.976 60.0001L208.867 60.0004L191.192 60.0034L149.141 60.0122L145.012 60.013L104 112.05H110.897H171.422ZM250 109.134L211.275 60.0015L210.178 61.4339L247.774 109.134H250Z" fill="#FB923C"/>
<path d="M173.655 109.134L174.449 109.742L174.449 109.742L173.655 109.134ZM171.422 112.05L172.216 112.658C172.027 112.905 171.733 113.05 171.422 113.05V112.05ZM210.178 61.4335L209.384 60.8256L209.384 60.8256L210.178 61.4335ZM211.275 60.0011L212.075 60.6016L212.069 60.6091L211.275 60.0011ZM211.276 60L211.276 59C211.654 58.9999 212.001 59.214 212.17 59.5529C212.34 59.8918 212.303 60.2974 212.075 60.6004L211.276 60ZM210.976 60.0001L210.976 61.0001H210.976L210.976 60.0001ZM208.867 60.0004L208.867 61.0004H208.867L208.867 60.0004ZM191.192 60.0034L191.192 59.0034H191.192L191.192 60.0034ZM149.141 60.0122L149.142 61.0122L149.141 60.0122ZM145.012 60.013L144.227 59.394C144.416 59.1535 144.706 59.0131 145.012 59.013L145.012 60.013ZM104 112.05V113.05C103.617 113.05 103.268 112.831 103.1 112.486C102.933 112.142 102.978 111.732 103.215 111.431L104 112.05ZM211.275 60.0015L210.481 59.3936C210.669 59.1484 210.959 59.0037 211.268 59.0016C211.577 58.9994 211.869 59.14 212.06 59.3825L211.275 60.0015ZM250 109.134L250.785 108.515C251.023 108.816 251.067 109.226 250.9 109.571C250.733 109.916 250.383 110.134 250 110.134V109.134ZM210.178 61.4339L209.393 62.0529C209.11 61.694 209.106 61.1889 209.384 60.826L210.178 61.4339ZM247.774 109.134V110.134C247.468 110.134 247.179 109.994 246.989 109.753L247.774 109.134ZM174.449 109.742L172.216 112.658L170.628 111.442L172.861 108.526L174.449 109.742ZM210.972 62.0415L174.449 109.742L172.861 108.526L209.384 60.8256L210.972 62.0415ZM212.069 60.6091L210.972 62.0415L209.384 60.8256L210.481 59.3932L212.069 60.6091ZM212.075 60.6004L212.075 60.6015L210.475 59.4008L210.476 59.3996L212.075 60.6004ZM210.975 59.0001L211.276 59L211.276 61L210.976 61.0001L210.975 59.0001ZM208.866 59.0004L210.975 59.0001L210.976 61.0001L208.867 61.0004L208.866 59.0004ZM191.192 59.0034L208.866 59.0004L208.867 61.0004L191.192 61.0034L191.192 59.0034ZM149.141 59.0122L191.192 59.0034L191.192 61.0034L149.142 61.0122L149.141 59.0122ZM145.012 59.013L149.141 59.0122L149.142 61.0122L145.012 61.013L145.012 59.013ZM103.215 111.431L144.227 59.394L145.798 60.632L104.785 112.669L103.215 111.431ZM110.897 113.05H104V111.05H110.897V113.05ZM171.422 113.05H110.897V111.05H171.422V113.05ZM212.06 59.3825L250.785 108.515L249.215 109.753L210.489 60.6205L212.06 59.3825ZM209.384 60.826L210.481 59.3936L212.069 60.6095L210.972 62.0419L209.384 60.826ZM246.989 109.753L209.393 62.0529L210.963 60.8149L248.56 108.515L246.989 109.753ZM250 110.134H247.774V108.134H250V110.134Z" fill="#FB923C"/>
<path d="M159 90H195C198.314 90 201 92.6863 201 96L201 127" stroke="black" stroke-width="2"/>
<rect x="188" y="127" width="26" height="26" rx="3" fill="white"/>
<circle cx="201" cy="140" r="7" fill="#E5E5E5"/>
<circle cx="198" cy="141" r="1" fill="#404040"/>
<circle cx="204" cy="141" r="1" fill="#404040"/>
<circle cx="201" cy="137" r="1" fill="#737373"/>
</g>
<path d="M271 74.4062L274.5 70.9062L271 67.4062" stroke="black" stroke-width="2" stroke-linecap="round" stroke-linejoin="round"/>
<path d="M178 83H221.565C224.879 83 227.565 80.3137 227.565 77V77C227.565 73.6863 230.252 71 233.565 71H273" stroke="black" stroke-width="2"/>
<g clip-path="url(#clip2_1799_6084)">
<path d="M164.465 101.775C164.249 102.051 163.919 102.216 163.585 102.216H123.381C123.012 102.216 122.695 102.014 122.558 101.691C122.42 101.367 122.483 100.974 122.722 100.67L147.429 69.1858C147.645 68.9103 147.975 68.7449 148.309 68.7449H188.512C188.881 68.7449 189.198 68.947 189.336 69.2707C189.474 69.5943 189.41 69.9868 189.171 70.2917L164.465 101.775Z" fill="#4F46E5" stroke="#C7D2FE" stroke-width="2" stroke-linejoin="round"/>
<path fill-rule="evenodd" clip-rule="evenodd" d="M152.318 77.6608L152.274 76.5869L157.649 69.7378H157.343L152.041 76.4943L150.161 77.6608H142.091L141.801 78.0312H149.828L149.878 79.2494L146.07 84.103L144.149 85.2953H135.99L135.7 85.6656H143.859L143.908 86.8579L139.607 92.3381L137.687 93.5304H129.528L129.237 93.9007H137.396L137.445 95.0932L132.636 101.222H132.942L137.824 95.0005L139.595 93.9007H147.933L147.988 95.232L143.288 101.222H143.594L148.585 94.8618L150.133 93.9007H158.336L158.384 95.0468L153.538 101.222H153.844L158.689 95.0469L160.536 93.9007H169.441L169.731 93.5304H160.826L160.779 92.3842L165.152 86.8119L166.998 85.6656H175.903L176.194 85.2953H167.289L167.241 84.1489L171.122 79.2031L173.01 78.0312H182.005L182.295 77.6608H173.258L173.212 76.5404L178.55 69.7378H178.244L172.906 76.5406L171.102 77.6608H162.856L162.817 76.7257L168.301 69.7378H167.995L162.801 76.3554L160.699 77.6608H152.318ZM158.627 93.5304L160.473 92.3845L164.846 86.8116L164.798 85.6656H156.595L155.047 86.6266L150.384 92.5694L150.423 93.5304H158.627ZM139.886 93.5304H148.224L150.368 92.1993L154.451 86.9968L154.396 85.6656H146.058L144.286 86.7655L139.841 92.4307L139.886 93.5304ZM156.886 85.2953H165.089L166.935 84.1493L170.817 79.2028L170.768 78.0312H162.608L161.018 79.0178L156.846 84.3342L156.886 85.2953ZM150.257 79.1564L146.303 84.1954L146.349 85.2953H154.686L156.831 83.9641L160.422 79.388L160.365 78.0312H152.07L150.257 79.1564Z" fill="#C7D2FE"/>
</g>
<path d="M77.25 64.25C89.8145 51.6855 89.8145 31.3145 77.25 18.75C64.6855 6.18552 44.3145 6.18552 31.75 18.75C19.1855 31.3145 19.1855 51.6855 31.75 64.25C44.3145 76.8145 64.6855 76.8145 77.25 64.25Z" fill="#FBBF24"/>
<path d="M111.933 61.3125L123.191 67.8125" stroke="#FACC15" stroke-width="2" stroke-linecap="round" stroke-linejoin="round"/>
<path d="M118.41 69.0934L123.191 67.8123L121.91 63.0312" stroke="#FACC15" stroke-width="2" stroke-linecap="round" stroke-linejoin="round"/>
<path d="M111.933 36.3125L123.191 42.8125" stroke="#FACC15" stroke-width="2" stroke-linecap="round" stroke-linejoin="round"/>
<path d="M118.41 44.0934L123.191 42.8123L121.91 38.0312" stroke="#FACC15" stroke-width="2" stroke-linecap="round" stroke-linejoin="round"/>
<path d="M97.9331 78.3125L109.191 84.8125" stroke="#FACC15" stroke-width="2" stroke-linecap="round" stroke-linejoin="round"/>
<path d="M104.41 86.0934L109.191 84.8123L107.91 80.0312" stroke="#FACC15" stroke-width="2" stroke-linecap="round" stroke-linejoin="round"/>
<path d="M69.175 165H-1.63034C-7.51596 165 -13.035 161.676 -15.6163 156.214C-15.7384 155.955 -15.8538 155.695 -15.9618 155.434C-17.4744 151.776 -17.4554 147.237 -15.096 144.094C-13.3623 141.784 -10.6515 140.511 -8.54942 138.554C-5.58927 135.798 -3.99411 131.856 -1.81364 128.411C0.366768 124.966 3.70531 121.725 7.689 121.853C10.8431 121.954 13.6243 124.157 16.765 124.473C21.4306 124.943 25.3935 121.285 29.6369 119.228C36.7954 115.758 45.2381 116.845 52.8438 119.08C64.7549 122.582 76.4606 129.266 82.6631 140.335C83.2974 141.467 83.8072 142.644 84.199 143.851C87.5807 154.268 79.8143 165 69.175 165H69.175Z" fill="#E0E7FF"/>
<path d="M92.9331 50.3125L104.191 56.8125" stroke="#FACC15" stroke-width="2" stroke-linecap="round" stroke-linejoin="round"/>
<path d="M99.4104 58.0934L104.191 56.8123L102.91 52.0312" stroke="#FACC15" stroke-width="2" stroke-linecap="round" stroke-linejoin="round"/>
<path d="M91.9331 23.3125L103.191 29.8125" stroke="#FACC15" stroke-width="2" stroke-linecap="round" stroke-linejoin="round"/>
<path d="M98.4104 31.0934L103.191 29.8123L101.91 25.0312" stroke="#FACC15" stroke-width="2" stroke-linecap="round" stroke-linejoin="round"/>
<path d="M80.9331 68.3125L92.1914 74.8125" stroke="#FACC15" stroke-width="2" stroke-linecap="round" stroke-linejoin="round"/>
<path d="M87.4104 76.0934L92.1915 74.8123L90.9104 70.0312" stroke="#FACC15" stroke-width="2" stroke-linecap="round" stroke-linejoin="round"/>
<g clip-path="url(#clip3_1799_6084)">
<path d="M354.779 128.872H344.845C343.659 128.872 342.697 129.833 342.697 131.018V132.842C342.697 134.027 341.735 134.987 340.549 134.987H315.273C314.087 134.987 313.125 134.027 313.125 132.842V121.688C313.125 120.503 314.087 119.543 315.273 119.543H317.569C318.755 119.543 319.717 118.582 319.717 117.397V96.8298C319.717 95.6449 318.755 94.6843 317.569 94.6843H314.607C313.421 94.6843 312.459 93.7237 312.459 92.5388V56.0683C312.459 54.8834 311.497 53.9228 310.31 53.9228H305.722C304.536 53.9228 303.574 54.8834 303.574 56.0683V62.9188C303.574 64.1038 302.612 65.0643 301.425 65.0643C300.239 65.0643 299.277 66.0249 299.277 67.2099V80.2818C299.277 81.4668 298.315 82.4273 297.128 82.4273H279.733C278.547 82.4273 277.585 81.4668 277.585 80.2818V67.2099C277.585 66.0249 276.623 65.0643 275.437 65.0643H275.148C273.962 65.0643 273 64.1038 273 62.9188V35.5681C273 34.3832 273.962 33.4226 275.148 33.4226H275.437C276.623 33.4226 277.585 32.462 277.585 31.2771V25.9098C277.585 22.3204 280.499 19.4106 284.093 19.4106H342.649C346.244 19.4106 349.157 22.3204 349.157 25.9098C349.157 27.0947 350.119 28.0553 351.306 28.0553H355L354.779 128.872Z" fill="#A7F3D0"/>
<path d="M351.734 115.97V116.159C351.734 117.509 350.634 118.608 349.281 118.608H333.446C333.365 118.604 333.284 118.602 333.202 118.602C331.849 118.602 330.749 117.503 330.749 116.153V84.4746C330.749 83.1243 331.849 82.0258 333.202 82.0258H334.348C337.171 82.0258 339.467 79.7326 339.467 76.9137V74.3132H347.179C348.695 74.3132 349.928 73.0815 349.928 71.5675V63.761C349.928 62.247 348.695 61.0153 347.179 61.0153C346.907 61.0153 346.686 60.7945 346.686 60.523V58.7595C346.686 57.2455 345.452 56.0138 343.936 56.0138H339.467V54.932H354.89V52.2689H339.467V48.3498C339.467 45.531 337.171 43.2378 334.348 43.2378H301.882C299.059 43.2378 296.763 45.531 296.763 48.3498V56.7352C296.763 58.0855 295.663 59.1841 294.31 59.1841H290.655C287.833 59.1841 285.536 61.4774 285.536 64.2962V82.4401H288.203V64.2962C288.203 62.9458 289.303 61.8472 290.655 61.8472H294.31C297.133 61.8472 299.429 59.554 299.429 56.7352V48.3498C299.429 46.9995 300.529 45.9009 301.882 45.9009H334.348C335.7 45.9009 336.8 46.9995 336.8 48.3498V76.9137C336.8 78.264 335.7 79.3627 334.348 79.3627H333.202C330.379 79.3627 328.083 81.6559 328.083 84.4746V116.153C328.083 118.709 329.971 120.832 332.427 121.206V121.271H333.324C334.619 121.335 335.654 122.405 335.654 123.714V135H338.321V123.714C338.321 122.83 338.094 121.997 337.697 121.271H349.281C352.104 121.271 354.4 118.978 354.4 116.159V115.97C354.4 115.422 354.584 114.917 354.89 114.508V111.249C353.039 112.02 351.734 113.845 351.734 115.97ZM339.467 58.2672H343.936C344.208 58.2672 344.429 58.4881 344.429 58.7595V60.523C344.429 62.037 345.663 63.2687 347.179 63.2687C347.451 63.2687 347.672 63.4895 347.672 63.761V71.5675C347.672 71.839 347.451 72.0599 347.179 72.0599H339.467V58.2672Z" fill="#FEF08A"/>
<path d="M283.892 20.1763V24.342C283.892 24.6503 284.142 24.9002 284.451 24.9002C284.76 24.9002 285.01 24.6503 285.01 24.342V20.1763C284.827 20.2028 284.641 20.2211 284.451 20.2211C284.261 20.2211 284.075 20.2028 283.892 20.1763Z" fill="#C1965D"/>
<path d="M284.451 12.4961C282.315 12.4961 280.583 14.2254 280.583 16.3586C280.583 18.3018 282.022 19.9052 283.892 20.1763C284.075 20.2028 284.261 20.2212 284.451 20.2212C284.641 20.2212 284.827 20.2028 285.01 20.1763C286.88 19.9052 288.319 18.3018 288.319 16.3586C288.319 14.2254 286.587 12.4961 284.451 12.4961Z" fill="#10B981"/>
<path d="M324.589 117.729V122.374C324.589 122.718 324.868 122.996 325.212 122.996C325.556 122.996 325.835 122.718 325.835 122.374V117.729C325.631 117.759 325.424 117.779 325.212 117.779C325 117.779 324.793 117.759 324.589 117.729Z" fill="#C1965D"/>
<path d="M325.212 109.165C322.83 109.165 320.899 111.093 320.899 113.472C320.899 115.639 322.503 117.427 324.589 117.729C324.793 117.759 324.999 117.779 325.212 117.779C325.424 117.779 325.631 117.759 325.835 117.729C327.921 117.427 329.525 115.639 329.525 113.472C329.525 111.093 327.594 109.165 325.212 109.165Z" fill="#10B981"/>
<path d="M282.785 76.2539V78.4048C282.785 78.6559 282.989 78.8595 283.24 78.8595C283.491 78.8595 283.695 78.6559 283.695 78.4048V76.2539C283.546 76.2755 283.395 76.2904 283.24 76.2904C283.085 76.2904 282.934 76.2755 282.785 76.2539Z" fill="#C1965D"/>
<path d="M283.24 69.9976C281.5 69.9976 280.089 71.4063 280.089 73.1441C280.089 74.7271 281.261 76.0333 282.785 76.2541C282.934 76.2757 283.085 76.2907 283.24 76.2907C283.395 76.2907 283.546 76.2757 283.695 76.2541C285.219 76.0333 286.391 74.7271 286.391 73.1441C286.391 71.4063 284.98 69.9976 283.24 69.9976Z" fill="#10B981"/>
<path d="M283.467 55.1883C283.467 52.6842 281.435 50.6543 278.927 50.6543C276.42 50.6543 274.387 52.6842 274.387 55.1883V59.7223H283.467L283.467 55.1883Z" fill="#10B981"/>
<path d="M293.97 21.1978C290.849 21.1978 288.319 23.7246 288.319 26.8415V28.6323C288.319 29.2453 288.816 29.7421 289.43 29.7421H298.51C299.124 29.7421 299.622 29.2453 299.622 28.6323V26.8415C299.622 23.7246 297.091 21.1978 293.97 21.1978Z" fill="#10B981"/>
<path d="M344.847 20.762C344.847 18.9208 343.352 17.4282 341.509 17.4282C339.665 17.4282 338.17 18.9208 338.17 20.762V24.0959H344.847V20.762Z" fill="#10B981"/>
<path d="M346.793 30.8203C344.95 30.8203 343.455 32.3129 343.455 34.1541V37.488H350.132V34.1541C350.132 32.3129 348.637 30.8203 346.793 30.8203Z" fill="#10B981"/>
<path d="M320.784 66.6639C320.784 64.8227 319.289 63.3301 317.445 63.3301C315.602 63.3301 314.107 64.8227 314.107 66.6639V69.9977H320.784V66.6639Z" fill="#10B981"/>
<path d="M324.955 71.9219C322.212 71.9219 319.987 74.1431 319.987 76.8831V76.9621C319.987 77.8609 320.717 78.5895 321.617 78.5895H328.294C329.194 78.5895 329.923 77.8609 329.923 76.9621V76.8831C329.923 74.1431 327.699 71.9219 324.955 71.9219Z" fill="#10B981"/>
<path d="M322.579 125.342H321.582C318.839 125.342 316.615 127.563 316.615 130.303V131.051C316.615 131.95 317.344 132.678 318.244 132.678H325.918C326.818 132.678 327.547 131.95 327.547 131.051V130.303C327.547 127.563 325.323 125.342 322.579 125.342Z" fill="#10B981"/>
<path d="M307.371 37.6377V39.3215C307.371 39.5986 307.596 39.8232 307.874 39.8232C308.151 39.8232 308.376 39.5986 308.376 39.3215V37.6377C308.215 37.6757 308.047 37.698 307.874 37.698C307.701 37.698 307.533 37.6757 307.371 37.6377Z" fill="#C1965D"/>
<path d="M310.058 35.5166V31.9236C310.058 30.7189 309.08 29.7422 307.874 29.7422C306.667 29.7422 305.689 30.7189 305.689 31.9236V35.5166C305.689 36.5484 306.407 37.4108 307.371 37.6378C307.533 37.6758 307.7 37.698 307.874 37.698C308.047 37.698 308.214 37.6758 308.376 37.6378C309.34 37.4108 310.058 36.5484 310.058 35.5166Z" fill="#10B981"/>
<path d="M313.203 47.6777C312.99 47.728 312.768 47.7574 312.54 47.7574C312.311 47.7574 312.089 47.728 311.876 47.6777V49.902C311.876 50.268 312.173 50.5648 312.54 50.5648C312.906 50.5648 313.203 50.268 313.203 49.902V47.6777Z" fill="#C1965D"/>
<path d="M313.203 47.6776C314.476 47.3779 315.425 46.2386 315.425 44.8756V40.1293C315.425 38.5377 314.133 37.2476 312.54 37.2476C310.946 37.2476 309.654 38.5377 309.654 40.1293V44.8756C309.654 46.2386 310.603 47.3778 311.876 47.6776C312.089 47.7279 312.311 47.7572 312.54 47.7572C312.768 47.7572 312.99 47.7279 313.203 47.6776Z" fill="#10B981"/>
<path d="M324.041 29.791V31.7532C324.041 32.076 324.303 32.3378 324.626 32.3378C324.95 32.3378 325.212 32.076 325.212 31.7532V29.791C325.024 29.8354 324.828 29.8613 324.626 29.8613C324.425 29.8613 324.229 29.8353 324.041 29.791Z" fill="#C1965D"/>
<path d="M322.081 23.1324V27.3193C322.081 28.5217 322.918 29.5266 324.041 29.7911C324.229 29.8354 324.424 29.8613 324.626 29.8613C324.828 29.8613 325.023 29.8354 325.212 29.7911C326.335 29.5267 327.172 28.5217 327.172 27.3193V23.1324C327.172 21.7284 326.032 20.5903 324.626 20.5903C323.22 20.5903 322.081 21.7284 322.081 23.1324Z" fill="#10B981"/>
<path d="M330.151 21.2007V23.1628C330.151 23.4857 330.413 23.7475 330.736 23.7475C331.06 23.7475 331.322 23.4857 331.322 23.1628V21.2007C331.133 21.245 330.938 21.2709 330.736 21.2709C330.534 21.2709 330.339 21.245 330.151 21.2007Z" fill="#C1965D"/>
<path d="M328.191 14.542V18.729C328.191 19.9313 329.028 20.9363 330.151 21.2008C330.339 21.2451 330.535 21.271 330.736 21.271C330.938 21.271 331.134 21.2451 331.322 21.2008C332.445 20.9363 333.282 19.9314 333.282 18.729V14.542C333.282 13.1381 332.142 12 330.736 12C329.331 12 328.191 13.1381 328.191 14.542Z" fill="#10B981"/>
<path d="M346.793 70.6269V66.9273C346.793 66.695 346.675 66.4902 346.496 66.3693C346.46 66.3451 346.422 66.3243 346.382 66.3073C346.301 66.2732 346.213 66.2544 346.12 66.2544H343.909C343.537 66.2544 343.236 65.9531 343.236 65.5815V62.0479C343.236 61.862 343.16 61.6938 343.038 61.5721C342.947 61.4808 342.829 61.4156 342.698 61.3887C342.654 61.3797 342.608 61.375 342.562 61.375H340.442V71.1623C340.442 71.2095 340.437 71.2554 340.427 71.2998H346.12C346.213 71.2998 346.301 71.2809 346.382 71.2469C346.422 71.2299 346.46 71.209 346.496 71.1848C346.675 71.0639 346.793 70.8592 346.793 70.6269Z" fill="#93C5FD"/>
<path d="M318.425 60.0293C318.332 60.0293 318.244 60.0481 318.163 60.0822C318.123 60.0992 318.085 60.12 318.049 60.1442C317.87 60.2651 317.752 60.4699 317.752 60.7022V62.0479C317.752 62.2801 317.87 62.4849 318.049 62.6058C318.085 62.63 318.123 62.6508 318.163 62.6679C318.244 62.7019 318.332 62.7207 318.425 62.7207H322.881C322.974 62.7207 323.062 62.7396 323.143 62.7736C323.183 62.7906 323.222 62.8115 323.257 62.8357C323.437 62.9566 323.555 63.1614 323.555 63.3936V68.9291C323.555 69.2543 323.785 69.5256 324.093 69.5883C324.136 69.5973 324.182 69.602 324.228 69.602H335.769V60.0293L318.425 60.0293Z" fill="#93C5FD"/>
<path d="M340.442 61.3747V59.165C340.442 58.7991 340.145 58.5024 339.778 58.5024H336.433C336.066 58.5024 335.769 58.7991 335.769 59.165V71.162C335.769 71.5279 336.066 71.8246 336.433 71.8246H339.778C340.098 71.8246 340.364 71.5993 340.427 71.2994C340.437 71.255 340.442 71.2092 340.442 71.162V61.3747Z" fill="#6366F1"/>
<g clip-path="url(#clip4_1799_6084)">
<path d="M320.248 85.8454H320.248L323 82.1123L325.832 85.8454H325.832V91.0001L320.248 90.989V85.8454Z" fill="#FED7AA"/>
<path d="M320.08 86.0734L320.248 85.8452H320.248V90.9888H315.52V86.0734H320.08Z" fill="#FFF7ED"/>
<path fill-rule="evenodd" clip-rule="evenodd" d="M320.08 86.0735L320.248 85.8452L323 82.1122L323.082 82.0001L323.082 82L323.06 82L322.901 82L321.569 82.0003L318.401 82.001L318.09 82.001L315 86.0735H315.52H320.08ZM326 85.8453L323.082 82.0002L323 82.1123L325.832 85.8453H326Z" fill="#FB923C"/>
<path d="M320.248 85.8452L320.349 85.9194L320.349 85.9194L320.248 85.8452ZM320.08 86.0735L320.18 86.1476C320.157 86.1796 320.119 86.1985 320.08 86.1985V86.0735ZM323 82.1122L322.899 82.038L322.899 82.038L323 82.1122ZM323.082 82.0001L323.184 82.0735L323.183 82.0743L323.082 82.0001ZM323.082 82L323.082 81.875C323.129 81.875 323.172 81.9013 323.194 81.9432C323.215 81.985 323.211 82.0353 323.184 82.0734L323.082 82ZM323.06 82L323.06 82.125H323.06L323.06 82ZM322.901 82L322.901 82.125H322.901L322.901 82ZM321.569 82.0003L321.569 81.8753H321.569L321.569 82.0003ZM318.401 82.001L318.401 82.126H318.401L318.401 82.001ZM318.09 82.001L317.99 81.9255C318.014 81.8943 318.051 81.876 318.09 81.876L318.09 82.001ZM315 86.0735V86.1985C314.953 86.1985 314.909 86.1716 314.888 86.1291C314.867 86.0865 314.872 86.0357 314.9 85.9979L315 86.0735ZM323.082 82.0002L322.982 81.926C323.005 81.8943 323.042 81.8754 323.081 81.8752C323.121 81.8749 323.158 81.8932 323.182 81.9246L323.082 82.0002ZM326 85.8453L326.1 85.7698C326.128 85.8076 326.133 85.8584 326.112 85.9009C326.091 85.9435 326.047 85.9703 326 85.9703V85.8453ZM323 82.1123L322.9 82.1878C322.867 82.1437 322.866 82.0827 322.899 82.0381L323 82.1123ZM325.832 85.8453V85.9703C325.793 85.9703 325.756 85.9521 325.733 85.9209L325.832 85.8453ZM320.349 85.9194L320.18 86.1476L319.979 85.9993L320.147 85.7711L320.349 85.9194ZM323.1 82.1864L320.349 85.9194L320.147 85.7711L322.899 82.038L323.1 82.1864ZM323.183 82.0743L323.1 82.1864L322.899 82.038L322.982 81.9259L323.183 82.0743ZM323.184 82.0734L323.184 82.0734L322.981 81.9267L322.981 81.9266L323.184 82.0734ZM323.06 81.875L323.082 81.875L323.082 82.125L323.06 82.125L323.06 81.875ZM322.901 81.875L323.06 81.875L323.06 82.125L322.901 82.125L322.901 81.875ZM321.569 81.8753L322.901 81.875L322.901 82.125L321.569 82.1253L321.569 81.8753ZM318.401 81.876L321.569 81.8753L321.569 82.1253L318.401 82.126L318.401 81.876ZM318.09 81.876L318.401 81.876L318.401 82.126L318.09 82.126L318.09 81.876ZM314.9 85.9979L317.99 81.9255L318.19 82.0766L315.1 86.149L314.9 85.9979ZM315.52 86.1985H315V85.9485H315.52V86.1985ZM320.08 86.1985H315.52V85.9485H320.08V86.1985ZM323.182 81.9246L326.1 85.7698L325.9 85.9209L322.983 82.0757L323.182 81.9246ZM322.899 82.0381L322.982 81.926L323.183 82.0743L323.1 82.1864L322.899 82.0381ZM325.733 85.9209L322.9 82.1878L323.099 82.0367L325.932 85.7698L325.733 85.9209ZM326 85.9703H325.832V85.7203H326V85.9703Z" fill="#FB923C"/>
</g>
<g clip-path="url(#clip5_1799_6084)">
<path d="M338.248 88.8454H338.248L341 85.1123L343.832 88.8454H343.832V94.0001L338.248 93.989V88.8454Z" fill="#FED7AA"/>
<path d="M338.08 89.0734L338.248 88.8452H338.248V93.9888H333.52V89.0734H338.08Z" fill="#FFF7ED"/>
<path fill-rule="evenodd" clip-rule="evenodd" d="M338.08 89.0735L338.248 88.8452L341 85.1122L341.082 85.0001L341.082 85L341.06 85L340.901 85L339.569 85.0003L336.401 85.001L336.09 85.001L333 89.0735H333.52H338.08ZM344 88.8453L341.082 85.0002L341 85.1123L343.832 88.8453H344Z" fill="#FB923C"/>
<path d="M338.248 88.8452L338.349 88.9194L338.349 88.9194L338.248 88.8452ZM338.08 89.0735L338.18 89.1476C338.157 89.1796 338.119 89.1985 338.08 89.1985V89.0735ZM341 85.1122L340.899 85.038L340.899 85.038L341 85.1122ZM341.082 85.0001L341.184 85.0735L341.183 85.0743L341.082 85.0001ZM341.082 85L341.082 84.875C341.129 84.875 341.172 84.9013 341.194 84.9432C341.215 84.985 341.211 85.0353 341.184 85.0734L341.082 85ZM341.06 85L341.06 85.125H341.06L341.06 85ZM340.901 85L340.901 85.125H340.901L340.901 85ZM339.569 85.0003L339.569 84.8753H339.569L339.569 85.0003ZM336.401 85.001L336.401 85.126H336.401L336.401 85.001ZM336.09 85.001L335.99 84.9255C336.014 84.8943 336.051 84.876 336.09 84.876L336.09 85.001ZM333 89.0735V89.1985C332.953 89.1985 332.909 89.1716 332.888 89.1291C332.867 89.0865 332.872 89.0357 332.9 88.9979L333 89.0735ZM341.082 85.0002L340.982 84.926C341.005 84.8943 341.042 84.8754 341.081 84.8752C341.121 84.8749 341.158 84.8932 341.182 84.9246L341.082 85.0002ZM344 88.8453L344.1 88.7698C344.128 88.8076 344.133 88.8584 344.112 88.9009C344.091 88.9435 344.047 88.9703 344 88.9703V88.8453ZM341 85.1123L340.9 85.1878C340.867 85.1437 340.866 85.0827 340.899 85.0381L341 85.1123ZM343.832 88.8453V88.9703C343.793 88.9703 343.756 88.9521 343.733 88.9209L343.832 88.8453ZM338.349 88.9194L338.18 89.1476L337.979 88.9993L338.147 88.7711L338.349 88.9194ZM341.1 85.1864L338.349 88.9194L338.147 88.7711L340.899 85.038L341.1 85.1864ZM341.183 85.0743L341.1 85.1864L340.899 85.038L340.982 84.9259L341.183 85.0743ZM341.184 85.0734L341.184 85.0734L340.981 84.9267L340.981 84.9266L341.184 85.0734ZM341.06 84.875L341.082 84.875L341.082 85.125L341.06 85.125L341.06 84.875ZM340.901 84.875L341.06 84.875L341.06 85.125L340.901 85.125L340.901 84.875ZM339.569 84.8753L340.901 84.875L340.901 85.125L339.569 85.1253L339.569 84.8753ZM336.401 84.876L339.569 84.8753L339.569 85.1253L336.401 85.126L336.401 84.876ZM336.09 84.876L336.401 84.876L336.401 85.126L336.09 85.126L336.09 84.876ZM332.9 88.9979L335.99 84.9255L336.19 85.0766L333.1 89.149L332.9 88.9979ZM333.52 89.1985H333V88.9485H333.52V89.1985ZM338.08 89.1985H333.52V88.9485H338.08V89.1985ZM341.182 84.9246L344.1 88.7698L343.9 88.9209L340.983 85.0757L341.182 84.9246ZM340.899 85.0381L340.982 84.926L341.183 85.0743L341.1 85.1864L340.899 85.0381ZM343.733 88.9209L340.9 85.1878L341.099 85.0367L343.932 88.7698L343.733 88.9209ZM344 88.9703H343.832V88.7203H344V88.9703Z" fill="#FB923C"/>
</g>
<g clip-path="url(#clip6_1799_6084)">
<path d="M342.248 99.8454H342.248L345 96.1123L347.832 99.8454H347.832V105L342.248 104.989V99.8454Z" fill="#FED7AA"/>
<path d="M342.08 100.073L342.248 99.8452H342.248V104.989H337.52V100.073H342.08Z" fill="#FFF7ED"/>
<path fill-rule="evenodd" clip-rule="evenodd" d="M342.08 100.073L342.248 99.8452L345 96.1122L345.082 96.0001L345.082 96L345.06 96L344.901 96L343.569 96.0003L340.401 96.001L340.09 96.001L337 100.073H337.52H342.08ZM348 99.8453L345.082 96.0002L345 96.1123L347.832 99.8453H348Z" fill="#FB923C"/>
<path d="M342.248 99.8452L342.349 99.9194L342.349 99.9194L342.248 99.8452ZM342.08 100.073L342.18 100.148C342.157 100.18 342.119 100.198 342.08 100.198V100.073ZM345 96.1122L344.899 96.038L344.899 96.038L345 96.1122ZM345.082 96.0001L345.184 96.0735L345.183 96.0743L345.082 96.0001ZM345.082 96L345.082 95.875C345.129 95.875 345.172 95.9013 345.194 95.9432C345.215 95.985 345.211 96.0353 345.184 96.0734L345.082 96ZM345.06 96L345.06 96.125H345.06L345.06 96ZM344.901 96L344.901 96.125H344.901L344.901 96ZM343.569 96.0003L343.569 95.8753H343.569L343.569 96.0003ZM340.401 96.001L340.401 96.126H340.401L340.401 96.001ZM340.09 96.001L339.99 95.9255C340.014 95.8943 340.051 95.876 340.09 95.876L340.09 96.001ZM337 100.073V100.198C336.953 100.198 336.909 100.172 336.888 100.129C336.867 100.087 336.872 100.036 336.9 99.9979L337 100.073ZM345.082 96.0002L344.982 95.926C345.005 95.8943 345.042 95.8754 345.081 95.8752C345.121 95.8749 345.158 95.8932 345.182 95.9246L345.082 96.0002ZM348 99.8453L348.1 99.7698C348.128 99.8076 348.133 99.8584 348.112 99.9009C348.091 99.9435 348.047 99.9703 348 99.9703V99.8453ZM345 96.1123L344.9 96.1878C344.867 96.1437 344.866 96.0827 344.899 96.0381L345 96.1123ZM347.832 99.8453V99.9703C347.793 99.9703 347.756 99.9521 347.733 99.9209L347.832 99.8453ZM342.349 99.9194L342.18 100.148L341.979 99.9993L342.147 99.7711L342.349 99.9194ZM345.1 96.1864L342.349 99.9194L342.147 99.7711L344.899 96.038L345.1 96.1864ZM345.183 96.0743L345.1 96.1864L344.899 96.038L344.982 95.9259L345.183 96.0743ZM345.184 96.0734L345.184 96.0734L344.981 95.9267L344.981 95.9266L345.184 96.0734ZM345.06 95.875L345.082 95.875L345.082 96.125L345.06 96.125L345.06 95.875ZM344.901 95.875L345.06 95.875L345.06 96.125L344.901 96.125L344.901 95.875ZM343.569 95.8753L344.901 95.875L344.901 96.125L343.569 96.1253L343.569 95.8753ZM340.401 95.876L343.569 95.8753L343.569 96.1253L340.401 96.126L340.401 95.876ZM340.09 95.876L340.401 95.876L340.401 96.126L340.09 96.126L340.09 95.876ZM336.9 99.9979L339.99 95.9255L340.19 96.0766L337.1 100.149L336.9 99.9979ZM337.52 100.198H337V99.9485H337.52V100.198ZM342.08 100.198H337.52V99.9485H342.08V100.198ZM345.182 95.9246L348.1 99.7698L347.9 99.9209L344.983 96.0757L345.182 95.9246ZM344.899 96.0381L344.982 95.926L345.183 96.0743L345.1 96.1864L344.899 96.0381ZM347.733 99.9209L344.9 96.1878L345.099 96.0367L347.932 99.7698L347.733 99.9209ZM348 99.9703H347.832V99.7203H348V99.9703Z" fill="#FB923C"/>
</g>
<g clip-path="url(#clip7_1799_6084)">
<path d="M352.248 86.8454H352.248L355 83.1123L357.832 86.8454H357.832V92.0001L352.248 91.989V86.8454Z" fill="#FED7AA"/>
<path d="M352.08 87.0734L352.248 86.8452H352.248V91.9888H347.52V87.0734H352.08Z" fill="#FFF7ED"/>
<path fill-rule="evenodd" clip-rule="evenodd" d="M352.08 87.0735L352.248 86.8452L355 83.1122L355.082 83.0001L355.082 83L355.06 83L354.901 83L353.569 83.0003L350.401 83.001L350.09 83.001L347 87.0735H347.52H352.08ZM358 86.8453L355.082 83.0002L355 83.1123L357.832 86.8453H358Z" fill="#FB923C"/>
<path d="M352.248 86.8452L352.349 86.9194L352.349 86.9194L352.248 86.8452ZM352.08 87.0735L352.18 87.1476C352.157 87.1796 352.119 87.1985 352.08 87.1985V87.0735ZM355 83.1122L354.899 83.038L354.899 83.038L355 83.1122ZM355.082 83.0001L355.184 83.0735L355.183 83.0743L355.082 83.0001ZM355.082 83L355.082 82.875C355.129 82.875 355.172 82.9013 355.194 82.9432C355.215 82.985 355.211 83.0353 355.184 83.0734L355.082 83ZM355.06 83L355.06 83.125H355.06L355.06 83ZM354.901 83L354.901 83.125H354.901L354.901 83ZM353.569 83.0003L353.569 82.8753H353.569L353.569 83.0003ZM350.401 83.001L350.401 83.126H350.401L350.401 83.001ZM350.09 83.001L349.99 82.9255C350.014 82.8943 350.051 82.876 350.09 82.876L350.09 83.001ZM347 87.0735V87.1985C346.953 87.1985 346.909 87.1716 346.888 87.1291C346.867 87.0865 346.872 87.0357 346.9 86.9979L347 87.0735ZM355.082 83.0002L354.982 82.926C355.005 82.8943 355.042 82.8754 355.081 82.8752C355.121 82.8749 355.158 82.8932 355.182 82.9246L355.082 83.0002ZM358 86.8453L358.1 86.7698C358.128 86.8076 358.133 86.8584 358.112 86.9009C358.091 86.9435 358.047 86.9703 358 86.9703V86.8453ZM355 83.1123L354.9 83.1878C354.867 83.1437 354.866 83.0827 354.899 83.0381L355 83.1123ZM357.832 86.8453V86.9703C357.793 86.9703 357.756 86.9521 357.733 86.9209L357.832 86.8453ZM352.349 86.9194L352.18 87.1476L351.979 86.9993L352.147 86.7711L352.349 86.9194ZM355.1 83.1864L352.349 86.9194L352.147 86.7711L354.899 83.038L355.1 83.1864ZM355.183 83.0743L355.1 83.1864L354.899 83.038L354.982 82.9259L355.183 83.0743ZM355.184 83.0734L355.184 83.0734L354.981 82.9267L354.981 82.9266L355.184 83.0734ZM355.06 82.875L355.082 82.875L355.082 83.125L355.06 83.125L355.06 82.875ZM354.901 82.875L355.06 82.875L355.06 83.125L354.901 83.125L354.901 82.875ZM353.569 82.8753L354.901 82.875L354.901 83.125L353.569 83.1253L353.569 82.8753ZM350.401 82.876L353.569 82.8753L353.569 83.1253L350.401 83.126L350.401 82.876ZM350.09 82.876L350.401 82.876L350.401 83.126L350.09 83.126L350.09 82.876ZM346.9 86.9979L349.99 82.9255L350.19 83.0766L347.1 87.149L346.9 86.9979ZM347.52 87.1985H347V86.9485H347.52V87.1985ZM352.08 87.1985H347.52V86.9485H352.08V87.1985ZM355.182 82.9246L358.1 86.7698L357.9 86.9209L354.983 83.0757L355.182 82.9246ZM354.899 83.0381L354.982 82.926L355.183 83.0743L355.1 83.1864L354.899 83.0381ZM357.733 86.9209L354.9 83.1878L355.099 83.0367L357.932 86.7698L357.733 86.9209ZM358 86.9703H357.832V86.7203H358V86.9703Z" fill="#FB923C"/>
</g>
<g clip-path="url(#clip8_1799_6084)">
<path d="M338.248 110.845H338.248L341 107.112L343.832 110.845H343.832V116L338.248 115.989V110.845Z" fill="#FED7AA"/>
<path d="M338.08 111.073L338.248 110.845H338.248V115.989H333.52V111.073H338.08Z" fill="#FFF7ED"/>
<path fill-rule="evenodd" clip-rule="evenodd" d="M338.08 111.073L338.248 110.845L341 107.112L341.082 107L341.082 107L341.06 107L340.901 107L339.569 107L336.401 107.001L336.09 107.001L333 111.073H333.52H338.08ZM344 110.845L341.082 107L341 107.112L343.832 110.845H344Z" fill="#FB923C"/>
<path d="M338.248 110.845L338.349 110.919L338.349 110.919L338.248 110.845ZM338.08 111.073L338.18 111.148C338.157 111.18 338.119 111.198 338.08 111.198V111.073ZM341 107.112L340.899 107.038L340.899 107.038L341 107.112ZM341.082 107L341.184 107.073L341.183 107.074L341.082 107ZM341.082 107L341.082 106.875C341.129 106.875 341.172 106.901 341.194 106.943C341.215 106.985 341.211 107.035 341.184 107.073L341.082 107ZM341.06 107L341.06 107.125H341.06L341.06 107ZM340.901 107L340.901 107.125H340.901L340.901 107ZM339.569 107L339.569 106.875H339.569L339.569 107ZM336.401 107.001L336.401 107.126H336.401L336.401 107.001ZM336.09 107.001L335.99 106.925C336.014 106.894 336.051 106.876 336.09 106.876L336.09 107.001ZM333 111.073V111.198C332.953 111.198 332.909 111.172 332.888 111.129C332.867 111.087 332.872 111.036 332.9 110.998L333 111.073ZM341.082 107L340.982 106.926C341.005 106.894 341.042 106.875 341.081 106.875C341.121 106.875 341.158 106.893 341.182 106.925L341.082 107ZM344 110.845L344.1 110.77C344.128 110.808 344.133 110.858 344.112 110.901C344.091 110.943 344.047 110.97 344 110.97V110.845ZM341 107.112L340.9 107.188C340.867 107.144 340.866 107.083 340.899 107.038L341 107.112ZM343.832 110.845V110.97C343.793 110.97 343.756 110.952 343.733 110.921L343.832 110.845ZM338.349 110.919L338.18 111.148L337.979 110.999L338.147 110.771L338.349 110.919ZM341.1 107.186L338.349 110.919L338.147 110.771L340.899 107.038L341.1 107.186ZM341.183 107.074L341.1 107.186L340.899 107.038L340.982 106.926L341.183 107.074ZM341.184 107.073L341.184 107.073L340.981 106.927L340.981 106.927L341.184 107.073ZM341.06 106.875L341.082 106.875L341.082 107.125L341.06 107.125L341.06 106.875ZM340.901 106.875L341.06 106.875L341.06 107.125L340.901 107.125L340.901 106.875ZM339.569 106.875L340.901 106.875L340.901 107.125L339.569 107.125L339.569 106.875ZM336.401 106.876L339.569 106.875L339.569 107.125L336.401 107.126L336.401 106.876ZM336.09 106.876L336.401 106.876L336.401 107.126L336.09 107.126L336.09 106.876ZM332.9 110.998L335.99 106.925L336.19 107.077L333.1 111.149L332.9 110.998ZM333.52 111.198H333V110.948H333.52V111.198ZM338.08 111.198H333.52V110.948H338.08V111.198ZM341.182 106.925L344.1 110.77L343.9 110.921L340.983 107.076L341.182 106.925ZM340.899 107.038L340.982 106.926L341.183 107.074L341.1 107.186L340.899 107.038ZM343.733 110.921L340.9 107.188L341.099 107.037L343.932 110.77L343.733 110.921ZM344 110.97H343.832V110.72H344V110.97Z" fill="#FB923C"/>
</g>
<g clip-path="url(#clip9_1799_6084)">
<path d="M283.248 41.8454H283.248L286 38.1123L288.832 41.8454H288.832V47.0001L283.248 46.989V41.8454Z" fill="#FED7AA"/>
<path d="M283.08 42.0734L283.248 41.8452H283.248V46.9888H278.52V42.0734H283.08Z" fill="#FFF7ED"/>
<path fill-rule="evenodd" clip-rule="evenodd" d="M283.08 42.0735L283.248 41.8452L286 38.1122L286.082 38.0001L286.082 38L286.06 38L285.901 38L284.569 38.0003L281.401 38.001L281.09 38.001L278 42.0735H278.52H283.08ZM289 41.8453L286.082 38.0002L286 38.1123L288.832 41.8453H289Z" fill="#FB923C"/>
<path d="M283.248 41.8452L283.349 41.9194L283.349 41.9194L283.248 41.8452ZM283.08 42.0735L283.18 42.1476C283.157 42.1796 283.119 42.1985 283.08 42.1985V42.0735ZM286 38.1122L285.899 38.038L285.899 38.038L286 38.1122ZM286.082 38.0001L286.184 38.0735L286.183 38.0743L286.082 38.0001ZM286.082 38L286.082 37.875C286.129 37.875 286.172 37.9013 286.194 37.9432C286.215 37.985 286.211 38.0353 286.184 38.0734L286.082 38ZM286.06 38L286.06 38.125H286.06L286.06 38ZM285.901 38L285.901 38.125H285.901L285.901 38ZM284.569 38.0003L284.569 37.8753H284.569L284.569 38.0003ZM281.401 38.001L281.401 38.126H281.401L281.401 38.001ZM281.09 38.001L280.99 37.9255C281.014 37.8943 281.051 37.876 281.09 37.876L281.09 38.001ZM278 42.0735V42.1985C277.953 42.1985 277.909 42.1716 277.888 42.1291C277.867 42.0865 277.872 42.0357 277.9 41.9979L278 42.0735ZM286.082 38.0002L285.982 37.926C286.005 37.8943 286.042 37.8754 286.081 37.8752C286.121 37.8749 286.158 37.8932 286.182 37.9246L286.082 38.0002ZM289 41.8453L289.1 41.7698C289.128 41.8076 289.133 41.8584 289.112 41.9009C289.091 41.9435 289.047 41.9703 289 41.9703V41.8453ZM286 38.1123L285.9 38.1878C285.867 38.1437 285.866 38.0827 285.899 38.0381L286 38.1123ZM288.832 41.8453V41.9703C288.793 41.9703 288.756 41.9521 288.733 41.9209L288.832 41.8453ZM283.349 41.9194L283.18 42.1476L282.979 41.9993L283.147 41.7711L283.349 41.9194ZM286.1 38.1864L283.349 41.9194L283.147 41.7711L285.899 38.038L286.1 38.1864ZM286.183 38.0743L286.1 38.1864L285.899 38.038L285.982 37.9259L286.183 38.0743ZM286.184 38.0734L286.184 38.0734L285.981 37.9267L285.981 37.9266L286.184 38.0734ZM286.06 37.875L286.082 37.875L286.082 38.125L286.06 38.125L286.06 37.875ZM285.901 37.875L286.06 37.875L286.06 38.125L285.901 38.125L285.901 37.875ZM284.569 37.8753L285.901 37.875L285.901 38.125L284.569 38.1253L284.569 37.8753ZM281.401 37.876L284.569 37.8753L284.569 38.1253L281.401 38.126L281.401 37.876ZM281.09 37.876L281.401 37.876L281.401 38.126L281.09 38.126L281.09 37.876ZM277.9 41.9979L280.99 37.9255L281.19 38.0766L278.1 42.149L277.9 41.9979ZM278.52 42.1985H278V41.9485H278.52V42.1985ZM283.08 42.1985H278.52V41.9485H283.08V42.1985ZM286.182 37.9246L289.1 41.7698L288.9 41.9209L285.983 38.0757L286.182 37.9246ZM285.899 38.0381L285.982 37.926L286.183 38.0743L286.1 38.1864L285.899 38.0381ZM288.733 41.9209L285.9 38.1878L286.099 38.0367L288.932 41.7698L288.733 41.9209ZM289 41.9703H288.832V41.7203H289V41.9703Z" fill="#FB923C"/>
</g>
<g clip-path="url(#clip10_1799_6084)">
<path d="M297.248 31.8454H297.248L300 28.1123L302.832 31.8454H302.832V37.0001L297.248 36.989V31.8454Z" fill="#FED7AA"/>
<path d="M297.08 32.0734L297.248 31.8452H297.248V36.9888H292.52V32.0734H297.08Z" fill="#FFF7ED"/>
<path fill-rule="evenodd" clip-rule="evenodd" d="M297.08 32.0735L297.248 31.8452L300 28.1122L300.082 28.0001L300.082 28L300.06 28L299.901 28L298.569 28.0003L295.401 28.001L295.09 28.001L292 32.0735H292.52H297.08ZM303 31.8453L300.082 28.0002L300 28.1123L302.832 31.8453H303Z" fill="#FB923C"/>
<path d="M297.248 31.8452L297.349 31.9194L297.349 31.9194L297.248 31.8452ZM297.08 32.0735L297.18 32.1476C297.157 32.1796 297.119 32.1985 297.08 32.1985V32.0735ZM300 28.1122L299.899 28.038L299.899 28.038L300 28.1122ZM300.082 28.0001L300.184 28.0735L300.183 28.0743L300.082 28.0001ZM300.082 28L300.082 27.875C300.129 27.875 300.172 27.9013 300.194 27.9432C300.215 27.985 300.211 28.0353 300.184 28.0734L300.082 28ZM300.06 28L300.06 28.125H300.06L300.06 28ZM299.901 28L299.901 28.125H299.901L299.901 28ZM298.569 28.0003L298.569 27.8753H298.569L298.569 28.0003ZM295.401 28.001L295.401 28.126H295.401L295.401 28.001ZM295.09 28.001L294.99 27.9255C295.014 27.8943 295.051 27.876 295.09 27.876L295.09 28.001ZM292 32.0735V32.1985C291.953 32.1985 291.909 32.1716 291.888 32.1291C291.867 32.0865 291.872 32.0357 291.9 31.9979L292 32.0735ZM300.082 28.0002L299.982 27.926C300.005 27.8943 300.042 27.8754 300.081 27.8752C300.121 27.8749 300.158 27.8932 300.182 27.9246L300.082 28.0002ZM303 31.8453L303.1 31.7698C303.128 31.8076 303.133 31.8584 303.112 31.9009C303.091 31.9435 303.047 31.9703 303 31.9703V31.8453ZM300 28.1123L299.9 28.1878C299.867 28.1437 299.866 28.0827 299.899 28.0381L300 28.1123ZM302.832 31.8453V31.9703C302.793 31.9703 302.756 31.9521 302.733 31.9209L302.832 31.8453ZM297.349 31.9194L297.18 32.1476L296.979 31.9993L297.147 31.7711L297.349 31.9194ZM300.1 28.1864L297.349 31.9194L297.147 31.7711L299.899 28.038L300.1 28.1864ZM300.183 28.0743L300.1 28.1864L299.899 28.038L299.982 27.9259L300.183 28.0743ZM300.184 28.0734L300.184 28.0734L299.981 27.9267L299.981 27.9266L300.184 28.0734ZM300.06 27.875L300.082 27.875L300.082 28.125L300.06 28.125L300.06 27.875ZM299.901 27.875L300.06 27.875L300.06 28.125L299.901 28.125L299.901 27.875ZM298.569 27.8753L299.901 27.875L299.901 28.125L298.569 28.1253L298.569 27.8753ZM295.401 27.876L298.569 27.8753L298.569 28.1253L295.401 28.126L295.401 27.876ZM295.09 27.876L295.401 27.876L295.401 28.126L295.09 28.126L295.09 27.876ZM291.9 31.9979L294.99 27.9255L295.19 28.0766L292.1 32.149L291.9 31.9979ZM292.52 32.1985H292V31.9485H292.52V32.1985ZM297.08 32.1985H292.52V31.9485H297.08V32.1985ZM300.182 27.9246L303.1 31.7698L302.9 31.9209L299.983 28.0757L300.182 27.9246ZM299.899 28.0381L299.982 27.926L300.183 28.0743L300.1 28.1864L299.899 28.0381ZM302.733 31.9209L299.9 28.1878L300.099 28.0367L302.932 31.7698L302.733 31.9209ZM303 31.9703H302.832V31.7203H303V31.9703Z" fill="#FB923C"/>
</g>
<g clip-path="url(#clip11_1799_6084)">
<path d="M310.248 20.8454H310.248L313 17.1123L315.832 20.8454H315.832V26.0001L310.248 25.989V20.8454Z" fill="#FED7AA"/>
<path d="M310.08 21.0734L310.248 20.8452H310.248V25.9888H305.52V21.0734H310.08Z" fill="#FFF7ED"/>
<path fill-rule="evenodd" clip-rule="evenodd" d="M310.08 21.0735L310.248 20.8452L313 17.1122L313.082 17.0001L313.082 17L313.06 17L312.901 17L311.569 17.0003L308.401 17.001L308.09 17.001L305 21.0735H305.52H310.08ZM316 20.8453L313.082 17.0002L313 17.1123L315.832 20.8453H316Z" fill="#FB923C"/>
<path d="M310.248 20.8452L310.349 20.9194L310.349 20.9194L310.248 20.8452ZM310.08 21.0735L310.18 21.1476C310.157 21.1796 310.119 21.1985 310.08 21.1985V21.0735ZM313 17.1122L312.899 17.038L312.899 17.038L313 17.1122ZM313.082 17.0001L313.184 17.0735L313.183 17.0743L313.082 17.0001ZM313.082 17L313.082 16.875C313.129 16.875 313.172 16.9013 313.194 16.9432C313.215 16.985 313.211 17.0353 313.184 17.0734L313.082 17ZM313.06 17L313.06 17.125H313.06L313.06 17ZM312.901 17L312.901 17.125H312.901L312.901 17ZM311.569 17.0003L311.569 16.8753H311.569L311.569 17.0003ZM308.401 17.001L308.401 17.126H308.401L308.401 17.001ZM308.09 17.001L307.99 16.9255C308.014 16.8943 308.051 16.876 308.09 16.876L308.09 17.001ZM305 21.0735V21.1985C304.953 21.1985 304.909 21.1716 304.888 21.1291C304.867 21.0865 304.872 21.0357 304.9 20.9979L305 21.0735ZM313.082 17.0002L312.982 16.926C313.005 16.8943 313.042 16.8754 313.081 16.8752C313.121 16.8749 313.158 16.8932 313.182 16.9246L313.082 17.0002ZM316 20.8453L316.1 20.7698C316.128 20.8076 316.133 20.8584 316.112 20.9009C316.091 20.9435 316.047 20.9703 316 20.9703V20.8453ZM313 17.1123L312.9 17.1878C312.867 17.1437 312.866 17.0827 312.899 17.0381L313 17.1123ZM315.832 20.8453V20.9703C315.793 20.9703 315.756 20.9521 315.733 20.9209L315.832 20.8453ZM310.349 20.9194L310.18 21.1476L309.979 20.9993L310.147 20.7711L310.349 20.9194ZM313.1 17.1864L310.349 20.9194L310.147 20.7711L312.899 17.038L313.1 17.1864ZM313.183 17.0743L313.1 17.1864L312.899 17.038L312.982 16.9259L313.183 17.0743ZM313.184 17.0734L313.184 17.0734L312.981 16.9267L312.981 16.9266L313.184 17.0734ZM313.06 16.875L313.082 16.875L313.082 17.125L313.06 17.125L313.06 16.875ZM312.901 16.875L313.06 16.875L313.06 17.125L312.901 17.125L312.901 16.875ZM311.569 16.8753L312.901 16.875L312.901 17.125L311.569 17.1253L311.569 16.8753ZM308.401 16.876L311.569 16.8753L311.569 17.1253L308.401 17.126L308.401 16.876ZM308.09 16.876L308.401 16.876L308.401 17.126L308.09 17.126L308.09 16.876ZM304.9 20.9979L307.99 16.9255L308.19 17.0766L305.1 21.149L304.9 20.9979ZM305.52 21.1985H305V20.9485H305.52V21.1985ZM310.08 21.1985H305.52V20.9485H310.08V21.1985ZM313.182 16.9246L316.1 20.7698L315.9 20.9209L312.983 17.0757L313.182 16.9246ZM312.899 17.0381L312.982 16.926L313.183 17.0743L313.1 17.1864L312.899 17.0381ZM315.733 20.9209L312.9 17.1878L313.099 17.0367L315.932 20.7698L315.733 20.9209ZM316 20.9703H315.832V20.7203H316V20.9703Z" fill="#FB923C"/>
</g>
<g clip-path="url(#clip12_1799_6084)">
<path d="M332.248 34.8454H332.248L335 31.1123L337.832 34.8454H337.832V40.0001L332.248 39.989V34.8454Z" fill="#FED7AA"/>
<path d="M332.08 35.0734L332.248 34.8452H332.248V39.9888H327.52V35.0734H332.08Z" fill="#FFF7ED"/>
<path fill-rule="evenodd" clip-rule="evenodd" d="M332.08 35.0735L332.248 34.8452L335 31.1122L335.082 31.0001L335.082 31L335.06 31L334.901 31L333.569 31.0003L330.401 31.001L330.09 31.001L327 35.0735H327.52H332.08ZM338 34.8453L335.082 31.0002L335 31.1123L337.832 34.8453H338Z" fill="#FB923C"/>
<path d="M332.248 34.8452L332.349 34.9194L332.349 34.9194L332.248 34.8452ZM332.08 35.0735L332.18 35.1476C332.157 35.1796 332.119 35.1985 332.08 35.1985V35.0735ZM335 31.1122L334.899 31.038L334.899 31.038L335 31.1122ZM335.082 31.0001L335.184 31.0735L335.183 31.0743L335.082 31.0001ZM335.082 31L335.082 30.875C335.129 30.875 335.172 30.9013 335.194 30.9432C335.215 30.985 335.211 31.0353 335.184 31.0734L335.082 31ZM335.06 31L335.06 31.125H335.06L335.06 31ZM334.901 31L334.901 31.125H334.901L334.901 31ZM333.569 31.0003L333.569 30.8753H333.569L333.569 31.0003ZM330.401 31.001L330.401 31.126H330.401L330.401 31.001ZM330.09 31.001L329.99 30.9255C330.014 30.8943 330.051 30.876 330.09 30.876L330.09 31.001ZM327 35.0735V35.1985C326.953 35.1985 326.909 35.1716 326.888 35.1291C326.867 35.0865 326.872 35.0357 326.9 34.9979L327 35.0735ZM335.082 31.0002L334.982 30.926C335.005 30.8943 335.042 30.8754 335.081 30.8752C335.121 30.8749 335.158 30.8932 335.182 30.9246L335.082 31.0002ZM338 34.8453L338.1 34.7698C338.128 34.8076 338.133 34.8584 338.112 34.9009C338.091 34.9435 338.047 34.9703 338 34.9703V34.8453ZM335 31.1123L334.9 31.1878C334.867 31.1437 334.866 31.0827 334.899 31.0381L335 31.1123ZM337.832 34.8453V34.9703C337.793 34.9703 337.756 34.9521 337.733 34.9209L337.832 34.8453ZM332.349 34.9194L332.18 35.1476L331.979 34.9993L332.147 34.7711L332.349 34.9194ZM335.1 31.1864L332.349 34.9194L332.147 34.7711L334.899 31.038L335.1 31.1864ZM335.183 31.0743L335.1 31.1864L334.899 31.038L334.982 30.9259L335.183 31.0743ZM335.184 31.0734L335.184 31.0734L334.981 30.9267L334.981 30.9266L335.184 31.0734ZM335.06 30.875L335.082 30.875L335.082 31.125L335.06 31.125L335.06 30.875ZM334.901 30.875L335.06 30.875L335.06 31.125L334.901 31.125L334.901 30.875ZM333.569 30.8753L334.901 30.875L334.901 31.125L333.569 31.1253L333.569 30.8753ZM330.401 30.876L333.569 30.8753L333.569 31.1253L330.401 31.126L330.401 30.876ZM330.09 30.876L330.401 30.876L330.401 31.126L330.09 31.126L330.09 30.876ZM326.9 34.9979L329.99 30.9255L330.19 31.0766L327.1 35.149L326.9 34.9979ZM327.52 35.1985H327V34.9485H327.52V35.1985ZM332.08 35.1985H327.52V34.9485H332.08V35.1985ZM335.182 30.9246L338.1 34.7698L337.9 34.9209L334.983 31.0757L335.182 30.9246ZM334.899 31.0381L334.982 30.926L335.183 31.0743L335.1 31.1864L334.899 31.0381ZM337.733 34.9209L334.9 31.1878L335.099 31.0367L337.932 34.7698L337.733 34.9209ZM338 34.9703H337.832V34.7203H338V34.9703Z" fill="#FB923C"/>
</g>
<g clip-path="url(#clip13_1799_6084)">
<path d="M323.248 51.8454H323.248L326 48.1123L328.832 51.8454H328.832V57.0001L323.248 56.989V51.8454Z" fill="#FED7AA"/>
<path d="M323.08 52.0734L323.248 51.8452H323.248V56.9888H318.52V52.0734H323.08Z" fill="#FFF7ED"/>
<path fill-rule="evenodd" clip-rule="evenodd" d="M323.08 52.0735L323.248 51.8452L326 48.1122L326.082 48.0001L326.082 48L326.06 48L325.901 48L324.569 48.0003L321.401 48.001L321.09 48.001L318 52.0735H318.52H323.08ZM329 51.8453L326.082 48.0002L326 48.1123L328.832 51.8453H329Z" fill="#FB923C"/>
<path d="M323.248 51.8452L323.349 51.9194L323.349 51.9194L323.248 51.8452ZM323.08 52.0735L323.18 52.1476C323.157 52.1796 323.119 52.1985 323.08 52.1985V52.0735ZM326 48.1122L325.899 48.038L325.899 48.038L326 48.1122ZM326.082 48.0001L326.184 48.0735L326.183 48.0743L326.082 48.0001ZM326.082 48L326.082 47.875C326.129 47.875 326.172 47.9013 326.194 47.9432C326.215 47.985 326.211 48.0353 326.184 48.0734L326.082 48ZM326.06 48L326.06 48.125H326.06L326.06 48ZM325.901 48L325.901 48.125H325.901L325.901 48ZM324.569 48.0003L324.569 47.8753H324.569L324.569 48.0003ZM321.401 48.001L321.401 48.126H321.401L321.401 48.001ZM321.09 48.001L320.99 47.9255C321.014 47.8943 321.051 47.876 321.09 47.876L321.09 48.001ZM318 52.0735V52.1985C317.953 52.1985 317.909 52.1716 317.888 52.1291C317.867 52.0865 317.872 52.0357 317.9 51.9979L318 52.0735ZM326.082 48.0002L325.982 47.926C326.005 47.8943 326.042 47.8754 326.081 47.8752C326.121 47.8749 326.158 47.8932 326.182 47.9246L326.082 48.0002ZM329 51.8453L329.1 51.7698C329.128 51.8076 329.133 51.8584 329.112 51.9009C329.091 51.9435 329.047 51.9703 329 51.9703V51.8453ZM326 48.1123L325.9 48.1878C325.867 48.1437 325.866 48.0827 325.899 48.0381L326 48.1123ZM328.832 51.8453V51.9703C328.793 51.9703 328.756 51.9521 328.733 51.9209L328.832 51.8453ZM323.349 51.9194L323.18 52.1476L322.979 51.9993L323.147 51.7711L323.349 51.9194ZM326.1 48.1864L323.349 51.9194L323.147 51.7711L325.899 48.038L326.1 48.1864ZM326.183 48.0743L326.1 48.1864L325.899 48.038L325.982 47.9259L326.183 48.0743ZM326.184 48.0734L326.184 48.0734L325.981 47.9267L325.981 47.9266L326.184 48.0734ZM326.06 47.875L326.082 47.875L326.082 48.125L326.06 48.125L326.06 47.875ZM325.901 47.875L326.06 47.875L326.06 48.125L325.901 48.125L325.901 47.875ZM324.569 47.8753L325.901 47.875L325.901 48.125L324.569 48.1253L324.569 47.8753ZM321.401 47.876L324.569 47.8753L324.569 48.1253L321.401 48.126L321.401 47.876ZM321.09 47.876L321.401 47.876L321.401 48.126L321.09 48.126L321.09 47.876ZM317.9 51.9979L320.99 47.9255L321.19 48.0766L318.1 52.149L317.9 51.9979ZM318.52 52.1985H318V51.9485H318.52V52.1985ZM323.08 52.1985H318.52V51.9485H323.08V52.1985ZM326.182 47.9246L329.1 51.7698L328.9 51.9209L325.983 48.0757L326.182 47.9246ZM325.899 48.0381L325.982 47.926L326.183 48.0743L326.1 48.1864L325.899 48.0381ZM328.733 51.9209L325.9 48.1878L326.099 48.0367L328.932 51.7698L328.733 51.9209ZM329 51.9703H328.832V51.7203H329V51.9703Z" fill="#FB923C"/>
</g>
<g clip-path="url(#clip14_1799_6084)">
<path d="M349.248 43.8454H349.248L352 40.1123L354.832 43.8454H354.832V49.0001L349.248 48.989V43.8454Z" fill="#FED7AA"/>
<path d="M349.08 44.0734L349.248 43.8452H349.248V48.9888H344.52V44.0734H349.08Z" fill="#FFF7ED"/>
<path fill-rule="evenodd" clip-rule="evenodd" d="M349.08 44.0735L349.248 43.8452L352 40.1122L352.082 40.0001L352.082 40L352.06 40L351.901 40L350.569 40.0003L347.401 40.001L347.09 40.001L344 44.0735H344.52H349.08ZM355 43.8453L352.082 40.0002L352 40.1123L354.832 43.8453H355Z" fill="#FB923C"/>
<path d="M349.248 43.8452L349.349 43.9194L349.349 43.9194L349.248 43.8452ZM349.08 44.0735L349.18 44.1476C349.157 44.1796 349.119 44.1985 349.08 44.1985V44.0735ZM352 40.1122L351.899 40.038L351.899 40.038L352 40.1122ZM352.082 40.0001L352.184 40.0735L352.183 40.0743L352.082 40.0001ZM352.082 40L352.082 39.875C352.129 39.875 352.172 39.9013 352.194 39.9432C352.215 39.985 352.211 40.0353 352.184 40.0734L352.082 40ZM352.06 40L352.06 40.125H352.06L352.06 40ZM351.901 40L351.901 40.125H351.901L351.901 40ZM350.569 40.0003L350.569 39.8753H350.569L350.569 40.0003ZM347.401 40.001L347.401 40.126H347.401L347.401 40.001ZM347.09 40.001L346.99 39.9255C347.014 39.8943 347.051 39.876 347.09 39.876L347.09 40.001ZM344 44.0735V44.1985C343.953 44.1985 343.909 44.1716 343.888 44.1291C343.867 44.0865 343.872 44.0357 343.9 43.9979L344 44.0735ZM352.082 40.0002L351.982 39.926C352.005 39.8943 352.042 39.8754 352.081 39.8752C352.121 39.8749 352.158 39.8932 352.182 39.9246L352.082 40.0002ZM355 43.8453L355.1 43.7698C355.128 43.8076 355.133 43.8584 355.112 43.9009C355.091 43.9435 355.047 43.9703 355 43.9703V43.8453ZM352 40.1123L351.9 40.1878C351.867 40.1437 351.866 40.0827 351.899 40.0381L352 40.1123ZM354.832 43.8453V43.9703C354.793 43.9703 354.756 43.9521 354.733 43.9209L354.832 43.8453ZM349.349 43.9194L349.18 44.1476L348.979 43.9993L349.147 43.7711L349.349 43.9194ZM352.1 40.1864L349.349 43.9194L349.147 43.7711L351.899 40.038L352.1 40.1864ZM352.183 40.0743L352.1 40.1864L351.899 40.038L351.982 39.9259L352.183 40.0743ZM352.184 40.0734L352.184 40.0734L351.981 39.9267L351.981 39.9266L352.184 40.0734ZM352.06 39.875L352.082 39.875L352.082 40.125L352.06 40.125L352.06 39.875ZM351.901 39.875L352.06 39.875L352.06 40.125L351.901 40.125L351.901 39.875ZM350.569 39.8753L351.901 39.875L351.901 40.125L350.569 40.1253L350.569 39.8753ZM347.401 39.876L350.569 39.8753L350.569 40.1253L347.401 40.126L347.401 39.876ZM347.09 39.876L347.401 39.876L347.401 40.126L347.09 40.126L347.09 39.876ZM343.9 43.9979L346.99 39.9255L347.19 40.0766L344.1 44.149L343.9 43.9979ZM344.52 44.1985H344V43.9485H344.52V44.1985ZM349.08 44.1985H344.52V43.9485H349.08V44.1985ZM352.182 39.9246L355.1 43.7698L354.9 43.9209L351.983 40.0757L352.182 39.9246ZM351.899 40.0381L351.982 39.926L352.183 40.0743L352.1 40.1864L351.899 40.0381ZM354.733 43.9209L351.9 40.1878L352.099 40.0367L354.932 43.7698L354.733 43.9209ZM355 43.9703H354.832V43.7203H355V43.9703Z" fill="#FB923C"/>
</g>
</g>
</g>
<defs>
<clipPath id="clip0_1799_6084">
<rect width="354" height="160" rx="12" fill="white"/>
</clipPath>
<clipPath id="clip1_1799_6084">
<rect width="146" height="115" fill="white" transform="matrix(-1 0 0 1 250 60)"/>
</clipPath>
<clipPath id="clip2_1799_6084">
<rect width="72" height="37.1875" fill="white" transform="matrix(-1 0 -0.110432 0.993884 194 67)"/>
</clipPath>
<clipPath id="clip3_1799_6084">
<rect width="82" height="123" fill="white" transform="translate(273 12)"/>
</clipPath>
<clipPath id="clip4_1799_6084">
<rect width="11" height="9" fill="white" transform="matrix(-1 0 0 1 326 82)"/>
</clipPath>
<clipPath id="clip5_1799_6084">
<rect width="11" height="9" fill="white" transform="matrix(-1 0 0 1 344 85)"/>
</clipPath>
<clipPath id="clip6_1799_6084">
<rect width="11" height="9" fill="white" transform="matrix(-1 0 0 1 348 96)"/>
</clipPath>
<clipPath id="clip7_1799_6084">
<rect width="11" height="9" fill="white" transform="matrix(-1 0 0 1 358 83)"/>
</clipPath>
<clipPath id="clip8_1799_6084">
<rect width="11" height="9" fill="white" transform="matrix(-1 0 0 1 344 107)"/>
</clipPath>
<clipPath id="clip9_1799_6084">
<rect width="11" height="9" fill="white" transform="matrix(-1 0 0 1 289 38)"/>
</clipPath>
<clipPath id="clip10_1799_6084">
<rect width="11" height="9" fill="white" transform="matrix(-1 0 0 1 303 28)"/>
</clipPath>
<clipPath id="clip11_1799_6084">
<rect width="11" height="9" fill="white" transform="matrix(-1 0 0 1 316 17)"/>
</clipPath>
<clipPath id="clip12_1799_6084">
<rect width="11" height="9" fill="white" transform="matrix(-1 0 0 1 338 31)"/>
</clipPath>
<clipPath id="clip13_1799_6084">
<rect width="11" height="9" fill="white" transform="matrix(-1 0 0 1 329 48)"/>
</clipPath>
<clipPath id="clip14_1799_6084">
<rect width="11" height="9" fill="white" transform="matrix(-1 0 0 1 355 40)"/>
</clipPath>
</defs>
</svg>
