<svg width="354" height="160" viewBox="0 0 354 160" fill="none" xmlns="http://www.w3.org/2000/svg">
<g clip-path="url(#clip0_1799_6439)">
<rect width="354" height="160" rx="12" fill="#FEF08A"/>
<path d="M41.8933 159.72C41.8933 159.72 28.1226 141.466 34.8526 122.673C39.2394 110.423 55.6949 103.711 64.9816 110.423C68.9369 113.282 80.0058 109.476 88.4021 98.6841C102.327 80.7862 145.898 100.672 132.459 136.461C126.318 152.814 136.82 150.72 134.187 160L41.8933 159.72Z" fill="#A7F3D0"/>
<g clip-path="url(#clip1_1799_6439)">
<path fill-rule="evenodd" clip-rule="evenodd" d="M278.094 44.4608L271.569 33.9111L268.995 35.4486L285.548 71.9226C285.461 72.1239 285.388 72.3437 285.341 72.5809L276.435 78.0538L264.421 93.3784L256.504 103.462L258.733 105.46L267.8 96.5621L286.416 78.2401L285.884 168.038L287.753 166.195C288.533 165.425 289.388 164.836 290.269 164.4L290.885 164.095L290.213 75.7535C290.354 75.6547 290.488 75.5433 290.614 75.4194L299.501 77.501L331.148 73.3227L330.973 70.2908H290.45L288.606 61.4504L278.094 44.4608Z" fill="white"/>
</g>
<g clip-path="url(#clip2_1799_6439)">
<path d="M173.658 109.134H173.655L210.178 61.4336L247.774 109.134H247.773V175L173.658 174.858V109.134Z" fill="#FED7AA"/>
<path d="M171.422 112.05L173.655 109.134H173.658V174.858H110.897V112.05H171.422Z" fill="#FFF7ED"/>
<path fill-rule="evenodd" clip-rule="evenodd" d="M171.422 112.05L173.655 109.134L210.178 61.4335L211.275 60.0011L211.276 60L210.976 60.0001L208.867 60.0004L191.192 60.0034L149.141 60.0122L145.012 60.013L104 112.05H110.897H171.422ZM250 109.134L211.275 60.0015L210.178 61.4339L247.774 109.134H250Z" fill="#FB923C"/>
<path d="M173.655 109.134L174.449 109.742L174.449 109.742L173.655 109.134ZM171.422 112.05L172.216 112.658C172.027 112.905 171.733 113.05 171.422 113.05V112.05ZM210.178 61.4335L209.384 60.8256L209.384 60.8256L210.178 61.4335ZM211.275 60.0011L212.075 60.6016L212.069 60.6091L211.275 60.0011ZM211.276 60L211.276 59C211.654 58.9999 212.001 59.214 212.17 59.5529C212.34 59.8918 212.303 60.2974 212.075 60.6004L211.276 60ZM210.976 60.0001L210.976 61.0001H210.976L210.976 60.0001ZM208.867 60.0004L208.867 61.0004H208.867L208.867 60.0004ZM191.192 60.0034L191.192 59.0034H191.192L191.192 60.0034ZM149.141 60.0122L149.142 61.0122L149.141 60.0122ZM145.012 60.013L144.227 59.394C144.416 59.1535 144.706 59.0131 145.012 59.013L145.012 60.013ZM104 112.05V113.05C103.617 113.05 103.268 112.831 103.1 112.486C102.933 112.142 102.978 111.732 103.215 111.431L104 112.05ZM211.275 60.0015L210.481 59.3936C210.669 59.1484 210.959 59.0037 211.268 59.0016C211.577 58.9994 211.869 59.14 212.06 59.3825L211.275 60.0015ZM250 109.134L250.785 108.515C251.023 108.816 251.067 109.226 250.9 109.571C250.733 109.916 250.383 110.134 250 110.134V109.134ZM210.178 61.4339L209.393 62.0529C209.11 61.694 209.106 61.1889 209.384 60.826L210.178 61.4339ZM247.774 109.134V110.134C247.468 110.134 247.179 109.994 246.989 109.753L247.774 109.134ZM174.449 109.742L172.216 112.658L170.628 111.442L172.861 108.526L174.449 109.742ZM210.972 62.0415L174.449 109.742L172.861 108.526L209.384 60.8256L210.972 62.0415ZM212.069 60.6091L210.972 62.0415L209.384 60.8256L210.481 59.3932L212.069 60.6091ZM212.075 60.6004L212.075 60.6015L210.475 59.4008L210.476 59.3996L212.075 60.6004ZM210.975 59.0001L211.276 59L211.276 61L210.976 61.0001L210.975 59.0001ZM208.866 59.0004L210.975 59.0001L210.976 61.0001L208.867 61.0004L208.866 59.0004ZM191.192 59.0034L208.866 59.0004L208.867 61.0004L191.192 61.0034L191.192 59.0034ZM149.141 59.0122L191.192 59.0034L191.192 61.0034L149.142 61.0122L149.141 59.0122ZM145.012 59.013L149.141 59.0122L149.142 61.0122L145.012 61.013L145.012 59.013ZM103.215 111.431L144.227 59.394L145.798 60.632L104.785 112.669L103.215 111.431ZM110.897 113.05H104V111.05H110.897V113.05ZM171.422 113.05H110.897V111.05H171.422V113.05ZM212.06 59.3825L250.785 108.515L249.215 109.753L210.489 60.6205L212.06 59.3825ZM209.384 60.826L210.481 59.3936L212.069 60.6095L210.972 62.0419L209.384 60.826ZM246.989 109.753L209.393 62.0529L210.963 60.8149L248.56 108.515L246.989 109.753ZM250 110.134H247.774V108.134H250V110.134Z" fill="#FB923C"/>
</g>
<path d="M168.174 69L139 105H143.677L172 69.0787L168.174 69Z" fill="#B45309"/>
<path fill-rule="evenodd" clip-rule="evenodd" d="M165.418 77.6132C164.507 74.5059 162.826 71.5763 160.375 69.1252C152.574 61.3242 139.926 61.3242 132.125 69.1252C124.324 76.9262 124.324 89.5742 132.125 97.3752C135.768 101.018 140.467 102.96 145.237 103.2L165.418 77.6132Z" fill="#FBBF24"/>
<path d="M114.096 28.3915C115.982 26.454 118.629 25.5 121.18 24.6058C131.012 21.159 131.396 21.0247 150.134 14.658C151.615 14.1548 153.098 15.4071 152.877 16.9613C152.47 19.8266 150.63 23.2487 146.619 24.5348C143.738 25.4587 134.429 28.0741 131.902 29.6251C128.828 31.5123 125.952 34.0387 124.491 37.3031L111.765 32.1714C112.311 30.7743 113.034 29.4827 114.096 28.3915Z" fill="#E3B07B"/>
<path d="M115.884 29.0377C118.655 27.4512 121.974 27.2274 125.165 27.0403C137.463 26.3192 137.943 26.2911 161.316 25.146C163.164 25.0554 164.447 26.9575 163.695 28.6492C162.308 31.7681 159.11 35.0541 154.133 35.2122C150.556 35.3258 139.122 35.2737 135.747 36.2139C131.64 37.3579 127.553 39.2913 124.839 42.5217L112.013 32.5704C113.085 31.1623 114.324 29.9313 115.884 29.0377Z" fill="#F1BB82"/>
<path d="M121.083 27.0214C124.245 26.5599 127.423 27.5654 130.468 28.5581C142.205 32.3847 142.662 32.5339 164.885 40.0156C166.642 40.6069 167.148 42.844 165.832 44.1412C163.404 46.5328 159.227 48.418 154.525 46.7448C151.147 45.5428 140.498 41.3136 137.008 40.9535C132.761 40.5153 128.245 40.8178 124.539 42.8281L116.188 28.8892C117.7 27.9724 119.303 27.2813 121.083 27.0214Z" fill="#FFC88F"/>
<path d="M22.123 -11.1475L72.6848 24.3762L54.5757 50.7663L-6.50045 19.8762L-6.50045 -7.00027L22.123 -11.1475Z" fill="#4F46E5"/>
<path d="M71.2466 26.3999L81.4255 34.3957C92.4881 32.0037 108.494 28.2995 111.813 28.1265C117.327 27.8391 123.093 25.7507 128.176 27.942C129.783 28.6352 131.166 29.704 132.429 30.9284L132.431 30.9298C132.471 30.9682 132.511 31.0057 132.55 31.0444L142.054 40.1644C144.296 42.3154 146.338 44.6665 148.155 47.1881L152.158 52.7423L158.821 61.9872C160.013 63.4122 159.278 65.5784 157.476 65.9887C154.153 66.7448 149.6 66.152 146.456 62.2612C144.197 59.4659 137.305 50.2798 134.51 48.1403C130.688 45.2146 126.088 42.8986 121.301 43.1786C116.514 43.4588 111.723 47.0472 111.399 51.846C111.171 55.2058 113.076 58.3827 115.43 60.7957C117.785 63.2087 120.628 65.0976 123.003 67.4901C125.025 69.5263 126.691 71.9171 127.902 74.52C128.816 76.4863 129.482 78.7286 128.637 80.7982C128.212 81.8383 127.366 82.6787 126.297 83.0155C124.597 83.551 123.417 82.5588 122.332 81.6159C117.464 77.3845 112.595 73.1532 107.727 68.9219C106.769 68.0893 105.77 67.2338 104.555 66.8779C102.918 66.3984 101.184 66.8994 99.5132 67.2227C93.0624 68.4705 85.7299 66.7506 80.1821 62.8258L80.1818 62.8318L55.7609 48.7662L71.2466 26.3999Z" fill="#FED7AA"/>
</g>
<defs>
<clipPath id="clip0_1799_6439">
<rect width="354" height="160" rx="12" fill="white"/>
</clipPath>
<clipPath id="clip1_1799_6439">
<rect width="72" height="130" fill="white" transform="translate(258 31)"/>
</clipPath>
<clipPath id="clip2_1799_6439">
<rect width="146" height="115" fill="white" transform="matrix(-1 0 0 1 250 60)"/>
</clipPath>
</defs>
</svg>
