<svg width="120" height="64" viewBox="0 0 120 64" fill="none" xmlns="http://www.w3.org/2000/svg">
<rect width="120" height="64" rx="8" fill="#FEF08A"/>
<g clip-path="url(#clip0_359_13867)">
<g clip-path="url(#clip1_359_13867)">
<path d="M70.9682 63.8025C70.9682 63.8025 61.3827 50.917 66.0674 37.6515C69.1209 29.0047 80.5752 24.2667 87.0395 29.0047C89.7927 31.0227 97.4975 28.3362 103.342 20.7182C113.035 8.08436 143.363 22.1215 134.009 47.3845C129.735 58.9275 137.044 57.4494 135.212 64L70.9682 63.8025Z" fill="#A7F3D0"/>
</g>
<g clip-path="url(#clip2_359_13867)">
<path d="M58.555 64H21.764C18.7058 64 15.838 62.2686 14.4967 59.4237C14.4333 59.2892 14.3734 59.1538 14.3172 59.0177C13.5313 57.1126 13.5411 54.7487 14.7671 53.1114C15.668 51.9082 17.0765 51.2455 18.1688 50.2262C19.7069 48.7908 20.5357 46.7377 21.6687 44.9433C22.8017 43.1489 24.5364 41.461 26.6064 41.5274C28.2453 41.58 29.6904 42.7277 31.3223 42.8924C33.7466 43.137 35.8058 41.2316 38.0107 40.1602C41.7303 38.3529 46.1172 38.919 50.0692 40.0835C56.2583 41.9073 62.3406 45.3884 65.5635 51.1537C65.8931 51.7433 66.158 52.3563 66.3616 52.9849C68.1187 58.4105 64.0832 64 58.555 64H58.555Z" fill="#E0E7FF"/>
</g>
<g clip-path="url(#clip3_359_13867)">
<path fill-rule="evenodd" clip-rule="evenodd" d="M15.9874 11.1091L12.9969 6.32117L11.817 7.01895L19.4041 23.5725C19.3639 23.6639 19.3305 23.7636 19.309 23.8713L15.2269 26.3551L9.72051 33.3101L6.09216 37.8865L7.11378 38.7935L11.2693 34.7551L19.8016 26.4397L19.558 67.1941L20.4145 66.3577C20.7722 66.0083 21.1641 65.7409 21.5677 65.5431L21.8501 65.4048L21.5422 25.3112C21.6067 25.2663 21.6683 25.2158 21.7257 25.1595L25.7991 26.1043L40.3041 24.208L40.2238 22.8319H21.6506L20.8054 18.8197L15.9874 11.1091Z" fill="white"/>
</g>
<g clip-path="url(#clip4_359_13867)">
<path d="M64.2885 34.2169H64.2899L47.7795 12.6482L30.7839 34.2171H30.7843V64L64.2885 63.9356V34.2169Z" fill="#FED7AA"/>
<path d="M65.2993 35.5356L64.2899 34.2169H64.2885V63.9356H92.66V35.5356H65.2993Z" fill="#FFF7ED"/>
<path fill-rule="evenodd" clip-rule="evenodd" d="M65.2993 35.5356L64.2899 34.2169L47.7795 12.6482L47.2837 12.0005L47.2833 12L47.419 12L48.3723 12.0002L56.3622 12.0015L75.3714 12.0055L77.238 12.0059L95.7778 35.5356H92.66H65.2993ZM29.7778 34.2173L47.2837 12.0007L47.7795 12.6484L30.7839 34.2173H29.7778Z" fill="#FB923C"/>
<path d="M64.2899 34.2169L63.4958 34.8248L63.4958 34.8248L64.2899 34.2169ZM65.2993 35.5356L64.5052 36.1434C64.6944 36.3906 64.988 36.5356 65.2993 36.5356V35.5356ZM47.7795 12.6482L48.5735 12.0404L48.5735 12.0404L47.7795 12.6482ZM47.2837 12.0005L46.4847 12.6019L46.4896 12.6084L47.2837 12.0005ZM47.2833 12L47.2835 11C46.9043 10.9999 46.5578 11.2142 46.3885 11.5535C46.2192 11.8927 46.2563 12.2985 46.4843 12.6014L47.2833 12ZM47.419 12L47.4188 13H47.4188L47.419 12ZM48.3723 12.0002L48.3721 13.0002H48.3721L48.3723 12.0002ZM56.3622 12.0015L56.3624 11.0015H56.3624L56.3622 12.0015ZM75.3714 12.0055L75.3712 13.0055H75.3712L75.3714 12.0055ZM77.238 12.0059L78.0235 11.387C77.8339 11.1464 77.5445 11.0059 77.2382 11.0059L77.238 12.0059ZM95.7778 35.5356V36.5356C96.1608 36.5356 96.5102 36.3167 96.6775 35.9721C96.8447 35.6275 96.8003 35.2176 96.5632 34.9167L95.7778 35.5356ZM47.2837 12.0007L48.0777 11.3929C47.89 11.1476 47.5995 11.0029 47.2907 11.0007C46.9818 10.9986 46.6893 11.1392 46.4982 11.3818L47.2837 12.0007ZM29.7778 34.2173L28.9923 33.5984C28.7552 33.8993 28.7109 34.3092 28.8781 34.6539C29.0453 34.9985 29.3947 35.2173 29.7778 35.2173V34.2173ZM47.7795 12.6484L48.5649 13.2673C48.8477 12.9084 48.8513 12.4034 48.5735 12.0406L47.7795 12.6484ZM30.7839 34.2173V35.2173C31.0903 35.2173 31.3798 35.0769 31.5694 34.8363L30.7839 34.2173ZM63.4958 34.8248L64.5052 36.1434L66.0933 34.9277L65.0839 33.6091L63.4958 34.8248ZM46.9854 13.256L63.4958 34.8248L65.0839 33.6091L48.5735 12.0404L46.9854 13.256ZM46.4896 12.6084L46.9854 13.256L48.5735 12.0404L48.0777 11.3927L46.4896 12.6084ZM46.4843 12.6014L46.4847 12.6019L48.0826 11.3991L48.0822 11.3986L46.4843 12.6014ZM47.4192 11L47.2835 11L47.2831 13L47.4188 13L47.4192 11ZM48.3725 11.0002L47.4191 11L47.4188 13L48.3721 13.0002L48.3725 11.0002ZM56.3624 11.0015L48.3725 11.0002L48.3721 13.0002L56.3621 13.0015L56.3624 11.0015ZM75.3716 11.0055L56.3624 11.0015L56.362 13.0015L75.3712 13.0055L75.3716 11.0055ZM77.2382 11.0059L75.3716 11.0055L75.3712 13.0055L77.2378 13.0059L77.2382 11.0059ZM96.5632 34.9167L78.0235 11.387L76.4525 12.6248L94.9923 36.1545L96.5632 34.9167ZM92.66 36.5356H95.7778V34.5356H92.66V36.5356ZM65.2993 36.5356H92.66V34.5356H65.2993V36.5356ZM46.4982 11.3818L28.9923 33.5984L30.5632 34.8363L48.0691 12.6196L46.4982 11.3818ZM48.5735 12.0406L48.0777 11.3929L46.4896 12.6086L46.9854 13.2562L48.5735 12.0406ZM31.5694 34.8363L48.5649 13.2673L46.994 12.0295L29.9985 33.5984L31.5694 34.8363ZM29.7778 35.2173H30.7839V33.2173H29.7778V35.2173Z" fill="#FB923C"/>
</g>
<g clip-path="url(#clip5_359_13867)">
<path d="M52.4058 65C48.3538 58.3161 46.4255 52.0225 46.8291 46.7993C47.1382 42.8025 48.6876 40.352 49.9328 39L50.6193 40.1493C49.5358 41.3255 48.1877 43.4603 47.9176 46.9523C47.5448 51.7756 49.3898 57.6937 53.2534 64.0664L52.4058 65Z" fill="#34D399"/>
<path d="M63.7781 46.6787C62.2777 46.9497 58.894 43.8515 55.8044 44.2389C49.7497 44.9979 48.0306 55.5465 50.2884 60.5192C50.8315 56.7088 51.9903 53.9802 55.3757 54.3775C61.3774 55.0823 63.7781 46.6787 63.7781 46.6787Z" fill="#34D399"/>
<path d="M40.2998 59.5462C41.2716 56.1848 44.8334 53.6184 48.2397 59.8715C46.8733 59.3654 44.5868 61.5883 43.215 61.5883C41.8431 61.5883 40.2998 59.5462 40.2998 59.5462Z" fill="#34D399"/>
<path d="M50.9661 30.5654C44.803 31.5707 38.8231 39.6642 47.9314 51.3398C47.6871 47.5611 52.5057 42.6256 53.1257 39.0617C53.7458 35.4978 50.9661 30.5654 50.9661 30.5654Z" fill="#34D399"/>
</g>
</g>
<defs>
<clipPath id="clip0_359_13867">
<rect width="120" height="64" rx="8" fill="white"/>
</clipPath>
<clipPath id="clip1_359_13867">
<rect width="71" height="48" fill="white" transform="translate(64.7778 16)"/>
</clipPath>
<clipPath id="clip2_359_13867">
<rect width="53" height="25" fill="white" transform="translate(13.7778 39)"/>
</clipPath>
<clipPath id="clip3_359_13867">
<rect width="33" height="59" fill="white" transform="translate(6.77777 5)"/>
</clipPath>
<clipPath id="clip4_359_13867">
<rect width="66" height="52" fill="white" transform="translate(29.7778 12)"/>
</clipPath>
<clipPath id="clip5_359_13867">
<rect width="23.4783" height="36.012" fill="white" transform="translate(40.2998 28.9879)"/>
</clipPath>
</defs>
</svg>
