<svg width="120" height="64" viewBox="0 0 120 64" fill="none" xmlns="http://www.w3.org/2000/svg">
<rect width="120" height="64" rx="8" fill="#FEF08A"/>
<g clip-path="url(#clip0_359_13868)">
<g clip-path="url(#clip1_359_13868)">
<path d="M35.4738 58.6463C34.6829 58.6305 33.8553 58.6377 32.9893 58.6699C28.1606 58.8478 26.2023 58.1387 24.8094 56.9656C24.3044 56.5414 23.8739 56.0556 23.4079 55.529C23.2689 55.3722 23.127 55.2119 22.9795 55.0485C22.8604 54.9172 22.7369 54.7839 22.6086 54.6486C22.1383 54.153 21.5943 53.6337 20.9035 53.1051C20.8737 53.0828 20.8439 53.0605 20.8141 53.0382C19.3751 51.9568 17.3076 50.8382 13.9755 49.8002C13.6897 49.7115 13.406 49.6262 13.1237 49.5448C13.0471 49.5231 12.9705 49.5014 12.8946 49.4798C12.6811 49.42 12.4698 49.3622 12.2584 49.3065C12.0697 49.2565 11.8825 49.2086 11.6953 49.162C11.669 49.1554 11.6428 49.1489 11.6165 49.1423C11.5229 49.1193 11.4293 49.097 11.3364 49.0747C8.68872 48.4425 6.20133 48.1345 3.93812 48.0368C3.68562 48.0255 3.43596 48.017 3.18914 48.0111C1.89456 47.9799 0.679382 48.0163 -0.444458 48.0969L-0.444458 67H48.2035C48.2077 66.9888 48.212 66.9783 48.2163 66.9672C49.805 62.9656 45.8566 58.8465 35.4738 58.6463Z" fill="#A7F3D0"/>
</g>
<path d="M93.75 33.75C99.9632 27.5368 99.9632 17.4632 93.75 11.25C87.5368 5.0368 77.4632 5.0368 71.25 11.25C65.0368 17.4632 65.0368 27.5368 71.25 33.75C77.4632 39.9632 87.5368 39.9632 93.75 33.75Z" fill="#FBBF24"/>
<g clip-path="url(#clip2_359_13868)">
<path d="M48.7982 42H14.0897C11.2046 42 8.49915 40.4071 7.23381 37.7898C7.17396 37.666 7.11743 37.5415 7.06446 37.4163C6.323 35.6636 6.33231 33.4888 7.48887 31.9825C8.33873 30.8756 9.66756 30.2658 10.698 29.3281C12.149 28.0076 12.931 26.1187 13.9998 24.4678C15.0687 22.8169 16.7052 21.2641 18.658 21.3252C20.2041 21.3736 21.5674 22.4295 23.107 22.581C25.3941 22.806 27.3367 21.0531 29.4168 20.0674C32.9258 18.4047 37.0644 18.9255 40.7927 19.9968C46.6315 21.6747 52.3695 24.8773 55.41 30.1814C55.721 30.7238 55.9708 31.2878 56.1629 31.8661C57.8206 36.8577 54.0135 42 48.7982 42H48.7982Z" fill="white"/>
</g>
<path d="M52.6873 54.987C52.8749 55.2507 53.1785 55.4073 53.5022 55.4073H93.7059C94.0801 55.4073 94.423 55.1984 94.5946 54.8658C94.7662 54.5332 94.7377 54.1326 94.5207 53.8277L73.3125 24.0136C73.1249 23.7499 72.8213 23.5933 72.4976 23.5933H32.2941C31.9199 23.5933 31.577 23.8022 31.4054 24.1348C31.2338 24.4674 31.2623 24.868 31.4793 25.1729L52.6873 54.987Z" fill="#4F46E5" stroke="#C7D2FE" stroke-width="2" stroke-linejoin="round"/>
<path fill-rule="evenodd" clip-rule="evenodd" d="M67.4972 32.0955L67.6611 31.0786L63.0473 24.5927H63.3532L67.9046 30.9908L69.654 32.0955H77.724L77.9735 32.4462H69.9462L69.7605 33.5998L73.03 38.196L74.8181 39.3251H82.9772L83.2265 39.6758H75.0676L74.8858 40.8049L78.5774 45.9944L80.3656 47.1235H88.5245L88.774 47.4742H80.6151L80.4333 48.6034L84.5617 54.407H84.2558L80.065 48.5156L78.4157 47.4742H70.0777L69.8748 48.7348L73.9097 54.407H73.6038L69.3195 48.3843L67.8781 47.4742H59.6749L59.5002 48.5595L63.6598 54.407H63.3539L59.1944 48.5596L57.4753 47.4742H48.5703L48.3209 47.1235H57.2259L57.4007 46.0381L53.6471 40.7613L51.9278 39.6758H43.0228L42.7735 39.3251H51.6784L51.8533 38.2396L48.5217 33.556L46.7638 32.4462H37.7698L37.5203 32.0955H46.5571L46.728 31.0345L42.1457 24.5927H42.4514L47.0339 31.0347L48.7139 32.0955H56.9599L57.1026 31.21L52.3953 24.5927H52.7013L57.1591 30.8594L59.1168 32.0955H67.4972ZM59.4254 47.1235L57.7068 46.0383L53.9528 40.761L54.1276 39.6758H62.3307L63.7721 40.5858L67.7753 46.2135L67.6287 47.1235H59.4254ZM78.1662 47.1235H69.8283L67.8319 45.863L64.3274 40.9363L64.5303 39.6758H72.868L74.5176 40.7173L78.3339 46.0821L78.1662 47.1235ZM62.0813 39.3251H53.8782L52.1593 38.2399L48.8273 33.5557L49.0061 32.4462H57.1667L58.6466 33.3805L62.2279 38.415L62.0813 39.3251ZM69.3919 33.5118L72.7863 38.2836L72.6185 39.3251H64.2808L62.2845 38.0645L59.2019 33.7311L59.4089 32.4462H67.704L69.3919 33.5118Z" fill="#C7D2FE"/>
</g>
<defs>
<clipPath id="clip0_359_13868">
<rect width="120" height="64" rx="8" fill="white"/>
</clipPath>
<clipPath id="clip1_359_13868">
<rect width="49" height="19" fill="white" transform="translate(-0.444458 48)"/>
</clipPath>
<clipPath id="clip2_359_13868">
<rect width="50" height="23" fill="white" transform="translate(6.55554 19)"/>
</clipPath>
</defs>
</svg>
