<svg width="354" height="180" viewBox="0 0 354 180" fill="none" xmlns="http://www.w3.org/2000/svg">
<g clip-path="url(#clip0_1680_12672)">
<path d="M244.335 189.918C244.335 189.918 226.784 184.549 235.361 179.021C240.952 175.419 261.925 173.444 273.761 175.419C278.802 176.259 292.909 175.14 303.611 171.966C321.357 166.702 376.889 172.551 359.761 183.077C351.935 187.886 365.319 187.271 361.963 190L244.335 189.918Z" fill="#A7F3D0"/>
<path d="M12.3346 188.918C12.3346 188.918 -5.21627 183.549 3.36121 178.021C8.95218 174.419 29.9249 172.444 41.7609 174.419C46.802 175.259 60.9093 174.14 71.6106 170.966C89.3575 165.702 144.889 171.551 127.761 182.077C119.935 186.886 133.319 186.271 129.963 189L12.3346 188.918Z" fill="#A7F3D0"/>
<g clip-path="url(#clip1_1680_12672)">
<path d="M173.658 129.134H173.655L210.178 81.4336L247.774 129.134H247.773V195L173.658 194.858V129.134Z" fill="#FED7AA"/>
<path d="M171.422 132.05L173.655 129.134H173.658V194.858H110.897V132.05H171.422Z" fill="#FFF7ED"/>
<path fill-rule="evenodd" clip-rule="evenodd" d="M171.422 132.05L173.655 129.134L210.178 81.4335L211.275 80.0011L211.276 80L210.976 80.0001L208.867 80.0004L191.192 80.0034L149.141 80.0122L145.012 80.013L104 132.05H110.897H171.422ZM250 129.134L211.275 80.0015L210.178 81.4339L247.774 129.134H250Z" fill="#FB923C"/>
<path d="M173.655 129.134L174.449 129.742L174.449 129.742L173.655 129.134ZM171.422 132.05L172.216 132.658C172.027 132.905 171.733 133.05 171.422 133.05V132.05ZM210.178 81.4335L209.384 80.8256L209.384 80.8256L210.178 81.4335ZM211.275 80.0011L212.075 80.6016L212.069 80.6091L211.275 80.0011ZM211.276 80L211.276 79C211.654 78.9999 212.001 79.214 212.17 79.5529C212.34 79.8918 212.303 80.2974 212.075 80.6004L211.276 80ZM210.976 80.0001L210.976 81.0001H210.976L210.976 80.0001ZM208.867 80.0004L208.867 81.0004H208.867L208.867 80.0004ZM191.192 80.0034L191.192 79.0034H191.192L191.192 80.0034ZM149.141 80.0122L149.142 81.0122L149.141 80.0122ZM145.012 80.013L144.227 79.394C144.416 79.1535 144.706 79.0131 145.012 79.013L145.012 80.013ZM104 132.05V133.05C103.617 133.05 103.268 132.831 103.1 132.486C102.933 132.142 102.978 131.732 103.215 131.431L104 132.05ZM211.275 80.0015L210.481 79.3936C210.669 79.1484 210.959 79.0037 211.268 79.0016C211.577 78.9994 211.869 79.14 212.06 79.3825L211.275 80.0015ZM250 129.134L250.785 128.515C251.023 128.816 251.067 129.226 250.9 129.571C250.733 129.916 250.383 130.134 250 130.134V129.134ZM210.178 81.4339L209.393 82.0529C209.11 81.694 209.106 81.1889 209.384 80.826L210.178 81.4339ZM247.774 129.134V130.134C247.468 130.134 247.179 129.994 246.989 129.753L247.774 129.134ZM174.449 129.742L172.216 132.658L170.628 131.442L172.861 128.526L174.449 129.742ZM210.972 82.0415L174.449 129.742L172.861 128.526L209.384 80.8256L210.972 82.0415ZM212.069 80.6091L210.972 82.0415L209.384 80.8256L210.481 79.3932L212.069 80.6091ZM212.075 80.6004L212.075 80.6015L210.475 79.4008L210.476 79.3996L212.075 80.6004ZM210.975 79.0001L211.276 79L211.276 81L210.976 81.0001L210.975 79.0001ZM208.866 79.0004L210.975 79.0001L210.976 81.0001L208.867 81.0004L208.866 79.0004ZM191.192 79.0034L208.866 79.0004L208.867 81.0004L191.192 81.0034L191.192 79.0034ZM149.141 79.0122L191.192 79.0034L191.192 81.0034L149.142 81.0122L149.141 79.0122ZM145.012 79.013L149.141 79.0122L149.142 81.0122L145.012 81.013L145.012 79.013ZM103.215 131.431L144.227 79.394L145.798 80.632L104.785 132.669L103.215 131.431ZM110.897 133.05H104V131.05H110.897V133.05ZM171.422 133.05H110.897V131.05H171.422V133.05ZM212.06 79.3825L250.785 128.515L249.215 129.753L210.489 80.6205L212.06 79.3825ZM209.384 80.826L210.481 79.3936L212.069 80.6095L210.972 82.0419L209.384 80.826ZM246.989 129.753L209.393 82.0529L210.963 80.8149L248.56 128.515L246.989 129.753ZM250 130.134H247.774V128.134H250V130.134Z" fill="#FB923C"/>
<g clip-path="url(#clip2_1680_12672)">
<path d="M164.572 121.775C164.355 122.05 164.025 122.216 163.692 122.216H123.488C123.119 122.216 122.802 122.014 122.664 121.69C122.526 121.366 122.59 120.974 122.829 120.669L147.535 89.1854C147.752 88.9098 148.082 88.7444 148.415 88.7444H188.619C188.988 88.7444 189.305 88.9465 189.442 89.2702C189.58 89.5938 189.517 89.9863 189.278 90.2912L164.572 121.775Z" fill="#4F46E5" stroke="#C7D2FE" stroke-width="2" stroke-linejoin="round"/>
<path fill-rule="evenodd" clip-rule="evenodd" d="M152.425 97.6603L152.38 96.5864L157.755 89.7373H157.449L152.147 96.4938L150.268 97.6603H142.198L141.908 98.0307H149.935L149.985 99.2489L146.176 104.102L144.256 105.295H136.097L135.806 105.665H143.965L144.014 106.857L139.714 112.338L137.793 113.53H129.634L129.344 113.9H137.503L137.552 115.093L132.743 121.221H133.048L137.931 115L139.702 113.9H148.04L148.095 115.231L143.395 121.221H143.7L148.691 114.861L150.24 113.9H158.443L158.49 115.046L153.644 121.221H153.95L158.796 115.046L160.642 113.9H169.547L169.838 113.53H160.933L160.885 112.384L165.258 106.811L167.105 105.665H176.01L176.3 105.295H167.395L167.348 104.148L171.229 99.2026L173.117 98.0307H182.111L182.402 97.6603H173.365L173.319 96.5399L178.657 89.7373H178.351L173.013 96.5401L171.208 97.6603H162.962L162.923 96.7253L168.407 89.7373H168.101L162.908 96.355L160.805 97.6603H152.425ZM158.733 113.53L160.579 112.384L164.953 106.811L164.905 105.665H156.702L155.154 106.626L150.49 112.569L150.53 113.53H158.733ZM139.993 113.53H148.331L150.475 112.199L154.557 106.996L154.502 105.665H146.165L144.393 106.765L139.947 112.43L139.993 113.53ZM156.993 105.295H165.196L167.042 104.149L170.924 99.2023L170.875 98.0307H162.714L161.125 99.0173L156.953 104.334L156.993 105.295ZM150.364 99.1559L146.41 104.195L146.455 105.295H154.793L156.937 103.964L160.528 99.3875L160.472 98.0307H152.177L150.364 99.1559Z" fill="#C7D2FE"/>
</g>
<path d="M160 172C156.336 165.39 149.868 161 142.5 161C135.132 161 128.664 165.39 125 172C125 172 132 168.5 142.5 168.5C153 168.5 160 172 160 172Z" fill="#FED7AA"/>
<path d="M135 142C135 145.314 131.418 148 127 148C122.582 148 119 145.314 119 142" stroke="#3730A3" stroke-linejoin="round"/>
<path d="M166 142C166 145.314 162.418 148 158 148C153.582 148 150 145.314 150 142" stroke="#3730A3" stroke-linejoin="round"/>
</g>
<circle cx="177" cy="179" r="134" stroke="#4F46E5" stroke-width="3" stroke-linecap="round" stroke-dasharray="1 10 1 10"/>
<rect x="162" y="33" width="24" height="24" rx="12" fill="#FECDD3"/>
<g clip-path="url(#clip3_1680_12672)">
<path fill-rule="evenodd" clip-rule="evenodd" d="M181.325 39.3246C181.78 38.869 181.78 38.1303 181.325 37.6747C180.869 37.2191 180.131 37.2191 179.675 37.6747L174 43.3498L168.325 37.6747C167.869 37.2191 167.131 37.2191 166.675 37.6747C166.219 38.1303 166.219 38.869 166.675 39.3246L172.35 44.9997L166.675 50.6747C166.219 51.1303 166.219 51.869 166.675 52.3246C167.131 52.7802 167.869 52.7802 168.325 52.3246L174 46.6496L179.675 52.3246C180.131 52.7802 180.869 52.7802 181.325 52.3246C181.78 51.869 181.78 51.1303 181.325 50.6747L175.65 44.9997L181.325 39.3246Z" fill="#BE123C"/>
</g>
</g>
<defs>
<clipPath id="clip0_1680_12672">
<rect width="354" height="180" rx="12" fill="white"/>
</clipPath>
<clipPath id="clip1_1680_12672">
<rect width="146" height="115" fill="white" transform="matrix(-1 0 0 1 250 80)"/>
</clipPath>
<clipPath id="clip2_1680_12672">
<rect width="72" height="37.1875" fill="white" transform="matrix(-1 0 -0.110432 0.993884 194.107 87)"/>
</clipPath>
<clipPath id="clip3_1680_12672">
<rect width="14" height="14" fill="white" transform="translate(167 38)"/>
</clipPath>
</defs>
</svg>
