<svg width="304" height="160" viewBox="0 0 304 160" fill="none" xmlns="http://www.w3.org/2000/svg">
<g clip-path="url(#clip0_2135_17093)">
<rect width="304" height="160" rx="12" fill="#FEF08A"/>
<mask id="mask0_2135_17093" style="mask-type:alpha" maskUnits="userSpaceOnUse" x="223" y="36" width="88" height="88">
<circle cx="43.41" cy="43.41" r="43.41" transform="matrix(-1 0 0 1 310.803 36.5898)" fill="#78AEB1"/>
</mask>
<g mask="url(#mask0_2135_17093)">
<circle cx="43.41" cy="43.41" r="43.41" transform="matrix(-1 0 0 1 310.803 36.5898)" fill="#FB923C"/>
<path fill-rule="evenodd" clip-rule="evenodd" d="M283.225 68.2536C283.225 69.1196 283.178 69.972 283.089 70.8071C283.089 70.8071 283.65 69.8432 284.246 69.5303C284.305 69.4995 284.359 69.4678 284.411 69.4374C284.606 69.3233 284.768 69.2284 285.012 69.275C285.417 69.3518 285.364 69.7519 285.306 70.1898C285.278 70.3972 285.249 70.613 285.268 70.8071C285.268 70.8071 285.261 73.0047 285.012 74.382C284.81 75.5009 284.665 76.1337 284.246 77.1909C283.918 78.0202 283.225 79.2337 283.225 79.2337L283.06 79.2309C282.561 83.4373 280.956 87.1912 278.629 90.0129V96.3423L280.161 98.8959L276.841 110.387H258.2L255.753 96.3423V87.1496C254.404 84.698 253.504 81.8267 253.204 78.7234L253.18 78.723C253.18 78.723 252.629 78.8643 252.327 78.723C252.03 78.5838 251.997 78.3163 251.96 78.0201C251.936 77.8319 251.911 77.6321 251.816 77.4463C251.628 77.0781 251.408 76.8305 251.191 76.5856C250.957 76.3224 250.726 76.0622 250.54 75.6588C250.135 74.7815 250.105 74.1255 250.066 73.2834C250.057 73.0682 250.046 72.8409 250.029 72.5946C250.02 72.4646 250.01 72.3426 250.002 72.2263C249.949 71.5416 249.911 71.0545 250.029 70.2964C250.061 70.088 250.06 69.8704 250.059 69.6605C250.057 69.1479 250.054 68.6816 250.54 68.5089C250.792 68.4191 250.97 68.4503 251.216 68.4934C251.245 68.4985 251.275 68.5037 251.306 68.5089C252.303 68.6766 253.18 70.2964 253.18 70.2964C253.123 69.6253 253.093 68.9438 253.093 68.2536C253.093 57.8175 259.838 49.3574 268.159 49.3574C276.48 49.3574 283.225 57.8175 283.225 68.2536Z" fill="#FED7AA"/>
<path d="M275.309 53.4424C272.804 52.454 271.03 54.0788 268.414 53.4424C266.849 53.0617 266.193 51.9856 264.584 51.9103C262.267 51.8019 261.011 52.9879 259.222 54.4639C257.912 55.5445 256.996 56.1887 256.413 57.7835C255.83 59.3755 256.995 60.5324 256.413 62.1245C255.829 63.7192 254.13 63.8296 253.604 65.444C253.171 66.7713 253.604 69.019 253.604 69.019V73.6153C253.604 73.6153 251.998 70.4236 251.306 68.2529C250.563 65.9238 250.234 64.5605 250.029 62.1245C249.887 60.4352 249.591 59.4211 250.029 57.7835C250.551 55.8328 251.227 54.6608 252.838 53.4424C254.347 52.3008 255.549 52.0732 257.434 51.9103H259.222L258.455 51.1443C258.455 51.1443 258.137 49.3851 258.455 48.3354C259.008 46.5121 262.03 45.0158 262.03 45.0158C262.03 45.0158 265.851 43.4595 268.414 43.4837C270.881 43.5069 274.543 45.0158 274.543 45.0158C274.543 45.0158 278.868 47.6412 281.182 49.8675C283.225 51.8327 284.705 52.8616 285.778 55.4853C286.766 57.901 286.668 59.5174 286.544 62.1245C286.414 64.8795 285.268 69.5297 285.268 69.5297C285.268 69.5297 284.757 68.7636 283.991 69.785C283.225 70.8065 282.714 74.3814 282.714 74.3814V70.8065C282.714 70.8065 283.126 68.1098 282.714 66.4655C282.236 64.5577 280.639 64.0322 280.16 62.1245C279.748 60.4801 280.712 59.3865 280.16 57.7835C279.333 55.3793 277.674 54.3758 275.309 53.4424Z" fill="black"/>
<path d="M263.052 104.77C264.154 105.46 264.915 105.665 265.861 106.557C267.068 107.696 268.159 110.132 268.159 110.132C268.159 110.132 269.339 108.52 270.202 107.579C272.263 105.327 274.536 105.196 276.33 102.727C277.563 101.031 278.118 97.8751 278.118 97.8751L278.628 92.5127H278.884L280.161 95.5769L303.398 107.579C303.398 107.579 305.802 108.143 306.973 109.111C307.681 109.696 308.505 110.898 308.505 110.898L314.633 123.921H220.663C220.663 123.921 221.557 120.951 222.195 119.069C223.361 115.632 223.177 113.164 225.515 110.387C227.121 108.48 228.532 107.916 230.622 106.557C234.698 103.907 241.858 101.195 241.858 101.195L253.349 95.3216L255.647 92.5127C255.647 92.5127 255.625 94.3048 255.647 95.3216C255.678 96.8037 255.773 97.3037 256.413 98.6412C257.069 100.014 257.42 100.845 258.456 101.961C259.887 103.502 261.269 103.653 263.052 104.77Z" fill="#12373F"/>
</g>
<circle cx="37.41" cy="79.9999" r="43.41" fill="#A7F3D0"/>
<mask id="mask1_2135_17093" style="mask-type:alpha" maskUnits="userSpaceOnUse" x="-6" y="36" width="87" height="88">
<circle cx="37.41" cy="79.9999" r="43.41" fill="#D9D9D9"/>
</mask>
<g mask="url(#mask1_2135_17093)">
<path d="M55.2218 77.4912C55.2218 80.1021 55.19 82.6234 54.8901 85.0019C54.6535 86.8783 54.2499 88.6659 53.5633 90.3384C53.1984 91.2273 52.7967 92.0837 52.3613 92.9037C51.9967 93.5902 51.6083 94.2512 51.1979 94.8843C50.1266 96.5372 48.9049 98.0003 47.5626 99.2327C44.57 101.98 40.9777 103.581 37.1146 103.581C33.0698 103.581 29.3218 101.826 26.2483 98.8373C25.0697 97.6913 23.9903 96.3638 23.0313 94.8843C22.9393 94.7424 22.8484 94.5991 22.7586 94.4544C21.8642 93.0125 21.0818 91.4343 20.4298 89.7455C20.1092 88.9147 19.8811 88.0572 19.7202 87.176C19.1733 84.1816 19.4011 80.9133 19.4011 77.4912C19.4011 76.4207 19.4412 75.3654 19.5199 74.3288C20.4999 61.4111 27.4547 51.4014 37.1146 51.4014C46.2447 51.4014 53.2596 60.3432 54.8714 72.2307C55.1018 73.9298 55.2218 75.6892 55.2218 77.4912Z" fill="#C18D77"/>
<path d="M52.3613 92.9037C51.9967 93.5902 51.6083 94.2512 51.1979 94.8843C50.1266 96.5372 48.9049 98.0003 47.5626 99.2327C44.57 101.98 40.9777 103.581 37.1146 103.581C33.0698 103.581 29.3218 101.826 26.2483 98.8373C25.0697 97.6913 23.9903 96.3638 23.0313 94.8843C22.9393 94.7424 22.8484 94.5991 22.7586 94.4544C22.8097 94.7891 22.8994 95.5652 22.7311 96.0703C22.5899 96.4941 22.4755 96.7468 22.1565 97.0585C21.6458 97.5576 21.2618 97.4538 20.4298 97.6515C19.5979 97.8491 17.3638 98.23 15.4647 98.8373C12.3189 99.8434 7.78887 102.395 7.78887 102.395V127.497H67.0308V101.011C67.0308 101.011 63.5862 98.642 61.1263 97.6515C58.9113 96.7595 56.009 96.2679 55.2218 96.0703C54.4345 95.8726 53.0568 95.6749 52.6632 95.4773C52.2695 95.2797 52.2695 94.2914 52.2695 94.2914L52.3613 92.9037Z" fill="#C18D77"/>
<path d="M19.4011 77.4912C19.4011 76.4207 19.4412 75.3654 19.5199 74.3288C19.5199 74.3288 19.2476 74.0113 19.0074 73.9335C18.788 73.8623 18.6344 73.8564 18.417 73.9335C18.0546 74.0619 17.8123 74.3844 17.6297 74.7241C17.2931 75.3503 17.2361 75.7913 17.2361 76.5029C17.2361 77.0959 17.3179 77.3586 17.4329 77.8865C17.5214 78.2925 17.6263 78.5109 17.8265 78.8747C17.9606 79.1183 18.0905 79.2217 18.2202 79.4677C18.5869 80.1633 18.5566 80.6591 18.6138 81.4442C18.6475 81.906 18.6138 82.6301 18.6138 82.6301C18.6138 82.6301 18.7401 83.4884 18.6138 84.0136C18.4928 84.5169 18.0234 85.1995 18.0234 85.1995C18.0234 85.1995 17.642 86.0697 17.8265 86.5831C17.9206 86.8448 18.2202 87.176 18.2202 87.176C18.2202 87.176 18.6672 87.5225 19.0074 87.5713C19.1596 87.5931 19.2586 87.6293 19.4011 87.5713C19.5845 87.4967 19.7202 87.176 19.7202 87.176C19.1733 84.1816 19.4011 80.9133 19.4011 77.4912Z" fill="#C18D77"/>
<path d="M54.8714 72.2307C55.1018 73.9298 55.2218 75.6892 55.2218 77.4912C55.2218 80.1021 55.19 82.6234 54.8901 85.0019L55.4186 85.3972C55.5948 85.5289 56.0528 85.5569 56.4027 85.3972C56.6995 85.2616 56.872 85.1083 56.9931 84.8042C57.1073 84.5175 56.9931 84.0136 56.9931 84.0136L56.5995 83.223C56.5995 83.223 56.2692 82.7717 56.2059 82.4324C56.1634 82.2048 56.2059 81.8395 56.2059 81.8395L56.4027 80.6536C56.4027 80.6536 56.5137 79.9292 56.5995 79.4677C56.7876 78.4553 57.0151 77.9129 57.1899 76.8982C57.2826 76.3604 57.3548 76.0595 57.3868 75.5147C57.4411 74.5868 57.1899 73.1429 57.1899 73.1429C57.1899 73.1429 57.1899 72.3523 56.9931 71.957C56.7963 71.5617 56.5856 71.423 56.2059 71.364C55.8927 71.3153 55.6881 71.3942 55.4186 71.5617C55.1323 71.7396 54.8714 72.2307 54.8714 72.2307Z" fill="#C18D77"/>
<path fill-rule="evenodd" clip-rule="evenodd" d="M45.521 88.2848C44.8237 87.586 43.5523 86.7013 43.5523 86.7013C43.5523 86.7013 41.6378 85.3062 40.2055 85.1177C39.5956 85.0374 39.1974 84.8777 38.6305 85.1177C38.2762 85.2677 38.132 85.4566 37.843 85.7115C37.5979 85.9279 37.2524 86.3054 37.2524 86.3054H36.8587C36.4145 86.2445 36.2587 85.9434 35.8743 85.7115C35.4899 85.4796 35.337 85.1523 34.89 85.1177C34.3757 85.0779 32.9815 85.4654 32.5275 85.7115C31.4013 86.3222 31.1967 86.336 30.1651 87.0972C29.2841 87.7471 29.2523 88.0047 28.5901 88.8787C28.2144 89.3744 27.9528 90.0556 27.8026 90.6602C27.6153 91.4139 28.0156 91.8844 28.1963 92.6397C28.3101 93.115 28.6186 93.3393 28.5901 93.8274C28.5598 94.3451 28.3038 94.5964 27.9995 95.0151C27.5813 95.5905 27.137 95.7137 26.6214 96.2028C26.305 96.5028 25.8339 96.9945 25.8339 96.9945C25.8339 96.9945 26.4935 98.0103 27.0151 98.5781C28.4197 100.107 29.6479 100.512 31.5432 101.349C33.2354 102.097 34.2451 102.447 36.0712 102.735C37.2889 102.927 37.995 103.059 39.2211 102.933C40.4085 102.811 41.095 102.654 42.1742 102.141C43.6073 101.46 44.2694 100.955 45.3242 99.7658C46.2465 98.7256 47.0359 98.0271 47.6866 96.7966C48.2364 95.757 49.0647 94.2233 49.0647 94.2233L47.4897 93.0356L46.7023 91.8479L46.8991 90.6602L46.7023 89.6705C46.7023 89.6705 46.0231 88.788 45.521 88.2848ZM40.7961 88.4828C41.985 88.5888 42.3324 88.748 43.7492 89.2746C44.1375 89.4189 44.9304 90.2643 44.9304 90.2643C44.9304 90.2643 45.3242 91.2634 45.3242 91.65C45.3242 92.7322 45.4594 92.798 45.1273 93.8274C44.674 95.2322 42.568 96.9945 42.568 96.9945C42.568 96.9945 39.8412 98.5202 37.843 98.5781C35.8011 98.6373 32.9213 96.7966 32.9213 96.7966C32.9213 96.7966 31.6427 95.6619 30.9525 94.8171C30.2487 93.9556 29.3776 92.4417 29.3776 92.4417C29.3776 92.4417 29.1225 91.7206 29.1807 91.2541C29.296 90.3305 30.0148 90.0307 30.7557 89.4725C31.8649 88.6369 34.1025 88.2848 34.1025 88.2848C34.1025 88.2848 34.89 88.0869 35.6775 88.4828C36.2319 88.7615 36.4447 89.1689 37.0556 89.2746C37.3586 89.327 37.7353 89.3173 38.0399 89.2746C38.6198 89.1932 38.6449 88.5871 39.2211 88.4828C39.6751 88.4006 40.1835 88.4282 40.7961 88.4828Z" fill="#1E1E1E"/>
<path d="M37.843 92.2438C37.843 92.2438 36.6439 91.9762 35.8743 92.0459C35.2429 92.103 34.8342 92.0995 34.2994 92.4417C33.9324 92.6765 33.5119 93.2335 33.5119 93.2335C33.5119 93.2335 34.0791 93.7625 34.4962 94.0253C35.2587 94.5058 35.7825 94.6246 36.6618 94.8171C37.3421 94.9661 38.4337 95.0151 38.4337 95.0151C38.4337 95.0151 39.6825 94.6347 40.4024 94.2233C41.0708 93.8412 41.9773 93.0356 41.9773 93.0356C41.9773 93.0356 41.6892 92.4824 41.3867 92.2438C40.9463 91.8965 40.5656 91.9032 40.0086 91.8479C39.1532 91.763 37.843 92.2438 37.843 92.2438Z" fill="#1E1E1E"/>
<path d="M54.774 80.5649C54.774 80.5649 53.9518 77.8138 53.5928 76.0121C53.2873 74.4792 53.1921 73.6048 53.0021 72.0531C52.9171 71.3584 53.0288 70.9345 52.8053 70.2716C52.6062 69.6814 52.3564 69.408 52.0178 68.886C51.3026 67.7833 50.3671 67.523 49.8522 66.3127C49.6321 65.7952 49.5723 65.478 49.4585 64.927C49.2701 64.0156 49.2546 63.4825 49.2616 62.5516C49.268 61.6978 49.5965 61.2167 49.4585 60.3742C49.3517 59.7225 49.2066 59.3565 48.8678 58.7906C48.4192 58.0413 47.4897 57.0091 47.4897 57.0091C47.4897 57.0091 46.254 55.9243 45.1273 55.2276C45.1273 55.2276 43.7492 54.4358 43.5523 54.4358C43.2353 54.4333 42.6475 54.4778 42.3711 54.6337C42.0866 54.7942 40.993 55.6235 40.993 55.6235C40.993 55.6235 40.0564 56.0615 39.418 56.2173L37.843 56.4153C37.843 56.4153 36.767 56.5895 36.0712 56.6132C35.0693 56.6474 34.1025 56.4153 33.5119 56.2173C32.7512 56.0261 32.3166 55.9506 31.5432 55.8214C31.0069 55.7318 30.7086 55.6331 30.1651 55.6235C29.5453 55.6125 29.1681 55.5964 28.5901 55.8214C28.0731 56.0227 27.6733 56.304 27.212 56.6132C26.52 57.077 25.637 57.8009 25.637 57.8009C25.637 57.8009 24.8094 58.4374 24.4558 58.9886C24.0997 59.5436 24.0815 59.9485 23.8652 60.5722C23.5209 61.565 23.2015 62.1014 23.0777 63.1455C22.9958 63.8363 23.0531 64.2317 23.0777 64.927C23.1106 65.8573 23.0107 66.4101 23.2746 67.3024C23.3925 67.7014 23.6683 68.2921 23.6683 68.2921C23.6683 68.2921 23.0921 69.0369 22.6839 69.4798C22.3883 69.8006 22.1768 69.9373 21.8965 70.2716C21.4289 70.8292 21.2214 71.1955 20.9121 71.8552C20.6011 72.5185 20.4994 72.9255 20.3215 73.6367C19.8335 75.5873 20.1246 78.7834 20.1246 78.7834C20.1246 78.7834 19.5615 76.3714 19.3371 74.8244C19.1803 73.7426 19.1403 72.8449 19.1403 72.0531C19.1402 68.0304 18.7011 65.6945 19.534 61.7599C19.833 60.3474 19.9278 59.5132 20.5184 58.1968C21.4417 56.1388 22.4503 55.216 24.062 53.644C25.6403 52.1046 26.7047 51.4167 28.5901 50.2789C30.4181 49.1757 31.4012 48.2061 33.5119 47.9035C34.5013 47.7617 35.0733 47.8478 36.0712 47.9035C37.309 47.9727 38.017 48.0028 39.2211 48.2994C40.9273 48.7197 43.3554 50.0809 43.3554 50.0809C43.3554 50.0809 46.6907 51.7381 48.2772 53.4461C49.529 54.7937 49.9126 55.8122 50.8365 57.405C51.6682 58.8387 52.1805 59.6297 52.8053 61.166C53.8217 63.6652 54.3802 67.8962 54.3802 67.8962L54.774 80.5649Z" fill="#1E1E1E"/>
<path d="M52.6352 95.3213C52.6352 95.3213 52.9342 96.5347 52.8324 97.3074C52.7232 98.1355 52.4393 98.5593 52.0436 99.2934C51.3141 100.646 50.6501 101.282 49.4799 102.273C48.0026 103.523 46.8884 103.83 45.1414 104.656C42.1871 106.053 37.2533 107.436 37.2533 107.436C37.2533 107.436 31.3186 106.908 27.9847 105.252C26.7766 104.651 26.1054 104.277 25.0267 103.464C23.9357 102.642 23.335 102.135 22.463 101.081C21.6428 100.089 21.0477 99.5395 20.6882 98.3004C20.5781 97.9208 20.491 97.3074 20.491 97.3074C20.491 97.3074 16.8134 98.4369 14.3777 98.6976C8.8105 99.2934 -1.65897 102.273 -1.65897 102.273L0.128498 104.656L7.47559 127.496H67.031L77.7558 102.273C77.7558 102.273 75.1147 106.561 76.1513 106.046C82.5453 102.868 62.9462 98.1619 61.9037 97.7046C60.7874 97.2149 58.9457 96.7115 58.9457 96.7115C58.9457 96.7115 56.9078 96.2036 55.5932 95.9171C54.4418 95.6662 52.6352 95.3213 52.6352 95.3213Z" fill="#651B34"/>
</g>
<circle cx="152.401" cy="79.9999" r="43.41" fill="#6366F1"/>
<mask id="mask2_2135_17093" style="mask-type:alpha" maskUnits="userSpaceOnUse" x="108" y="36" width="88" height="88">
<circle cx="152.401" cy="79.9999" r="43.41" fill="#FED18F"/>
</mask>
<g mask="url(#mask2_2135_17093)">
<path d="M167.978 71.8285C167.978 74.4194 167.702 76.9101 167.193 79.2337C167.098 79.6652 166.995 80.0909 166.885 80.5105C164.678 88.899 159.368 94.8102 153.168 94.8102C148.384 94.8102 144.129 91.2903 141.421 85.8283C140.55 84.0693 139.838 82.1089 139.321 79.9998C138.698 77.4608 138.357 74.7064 138.357 71.8285C138.357 70.6124 137.729 69.1631 137.847 67.9982C138.153 64.9492 137.869 62.3543 138.868 59.8269C139.896 57.227 140.088 54.7135 141.677 52.9323C144.113 50.201 149.933 48.8467 153.168 48.8467C156.695 48.8467 160.838 49.7384 163.382 52.9323C166.458 56.7945 167.612 63.551 167.934 70.041C167.963 70.6309 167.978 71.227 167.978 71.8285Z" fill="#FFDFC1"/>
<path d="M138.357 71.8285C138.357 71.8285 137.308 70.8829 136.57 71.0624C136.085 71.1802 135.791 71.3931 135.548 71.8285C135.257 72.3509 135.357 72.7938 135.548 73.3606C135.753 73.9655 136.335 74.0435 136.57 74.6373C136.863 75.3793 136.432 75.8944 136.57 76.6802C136.717 77.5194 136.898 77.992 137.336 78.723C137.664 79.2708 137.752 79.7962 138.357 79.9998C138.714 80.1197 139.321 79.9998 139.321 79.9998C138.698 77.4608 138.357 74.7064 138.357 71.8285Z" fill="#FFDFC1"/>
<path d="M167.934 70.041C167.963 70.6309 167.978 71.227 167.978 71.8285C167.978 74.4194 167.702 76.9101 167.193 79.2337L167.934 78.9783C167.934 78.9783 168.516 78.1948 168.744 77.7016C169.026 77.0947 169.142 76.8289 169.255 76.1695C169.374 75.4744 169.255 74.382 169.255 74.382C169.255 74.382 169.091 73.2731 169.255 72.5945C169.412 71.9442 169.766 71.0624 169.766 71.0624C169.766 71.0624 170.038 70.2033 169.766 69.7856C169.569 69.4845 169.357 69.312 169 69.2749C168.49 69.2221 167.934 70.041 167.934 70.041Z" fill="#FFDFC1"/>
<path d="M166.885 80.5105C164.678 88.899 159.368 94.8102 153.168 94.8102C148.384 94.8102 144.129 91.2903 141.421 85.8283V94.8102L140.911 95.8317L139.634 96.5977L138.357 100.173L140.911 104.514L147.039 109.365L159.807 111.153L169.255 108.855L172.83 104.514L167.934 95.8317H166.446L166.885 80.5105Z" fill="#FFDFC1"/>
<path d="M148.826 52.6761H152.401C152.401 52.6761 154.733 52.4629 156.232 52.4208C157.328 52.3899 157.946 52.3542 159.041 52.4208C159.942 52.4756 160.523 52.2896 161.339 52.6761C161.916 52.9495 162.348 53.1178 162.615 53.6975C162.866 54.2408 162.409 54.668 162.615 55.2297C162.787 55.6977 163.059 55.8705 163.382 56.2511C163.837 56.7894 164.465 56.8498 164.658 57.5278C164.768 57.9114 164.603 58.1542 164.658 58.5493C164.763 59.3014 165.026 59.6899 165.424 60.3367C165.759 60.8806 166.199 61.0245 166.446 61.6135C166.792 62.4414 166.41 63.0149 166.446 63.9117C166.515 65.6172 166.306 66.6747 166.956 68.2527C167.263 68.9959 167.978 70.0401 167.978 70.0401L168.744 69.2741C168.744 69.2741 168.852 66.4695 168.744 64.6777C168.642 62.9739 168.481 62.0256 168.233 60.3367C167.983 58.6335 167.875 57.6682 167.467 55.9957C166.944 53.8511 166.823 52.5214 165.68 50.6333C164.62 48.8832 163.747 48.0238 162.105 46.803C160.744 45.7916 159.875 45.318 158.274 44.7602C156.277 44.0641 155.027 43.9449 152.912 43.9941C151.093 44.0364 150.061 44.2436 148.316 44.7602C146.092 45.4186 144.906 46.062 142.953 47.3137C141.104 48.4989 139.929 49.1312 138.612 50.8887C137.489 52.3881 137.061 53.4217 136.569 55.2297C135.941 57.5412 136.059 58.8046 136.314 61.3581C136.533 63.5434 136.294 64.7972 136.569 66.9759C136.773 68.5864 137.336 71.3169 137.336 71.3169L138.612 72.083C138.612 72.083 138.404 70.1192 138.357 69.0187C138.314 68.0224 138.357 66.4652 138.357 66.4652C138.357 66.4652 138.013 64.2992 138.612 63.1456C138.778 62.8266 138.94 62.6893 139.123 62.3796C139.349 61.9953 139.465 61.7708 139.634 61.3581C140.206 59.9617 139.687 58.9658 140.144 57.5278C140.55 56.253 140.777 55.4536 141.677 54.4636C142.551 53.5015 143.252 53.0873 144.485 52.6761C146.094 52.14 147.131 52.6761 148.826 52.6761Z" fill="#CEA465"/>
<path fill-rule="evenodd" clip-rule="evenodd" d="M162.615 80.5096C162.615 80.5096 161.996 79.2737 161.339 78.7222C160.718 78.201 160.165 78.0616 159.49 77.8911C159.27 77.8356 159.037 77.7769 158.785 77.7007C157.905 77.4349 157.395 77.3369 156.487 77.19C155.4 77.0141 154.779 76.9766 153.678 76.9347C153.473 76.9269 153.291 76.9154 153.119 76.9045C152.624 76.8733 152.222 76.8478 151.635 76.9347C150.699 77.0733 149.592 77.4879 149.082 77.7007C148.258 78.0438 147.294 78.4668 147.294 78.4668C147.294 78.4668 146.182 79.3428 145.762 79.9989C145.422 80.5302 145.251 81.531 145.251 81.531C145.251 81.531 144.138 81.2889 143.464 81.0203C143.43 81.007 143.397 80.9938 143.364 80.9807C142.341 80.5739 141.68 80.3111 140.91 79.4882C140.256 78.7884 140.037 78.2258 139.706 77.3764C139.683 77.3158 139.659 77.2537 139.634 77.19C139.369 76.514 139.123 75.4026 139.123 75.4026C139.123 75.4026 138.819 78.2299 139.123 79.9989C139.297 81.0127 139.537 81.6616 139.838 82.4745C139.934 82.7335 140.036 83.0091 140.144 83.3185C140.262 83.6563 140.364 83.9638 140.46 84.2531C140.796 85.2669 141.059 86.0583 141.677 87.1488C142.301 88.2505 142.785 88.8334 143.551 89.7551C143.606 89.8208 143.662 89.8882 143.719 89.9577C143.949 90.2347 144.158 90.4953 144.356 90.7425C145.245 91.8511 145.917 92.69 147.294 93.5326C148.4 94.2093 149.112 94.4542 150.359 94.8094C152.191 95.3315 153.311 95.4646 155.21 95.3201C156.634 95.2118 157.467 95.1023 158.785 94.5541C160.498 93.8418 161.319 93.0719 162.615 91.7452C163.969 90.3603 164.555 89.3894 165.424 87.6595C166.232 86.0534 166.552 85.0702 166.956 83.3185C167.268 81.97 167.335 81.1384 167.438 79.8496C167.447 79.7331 167.457 79.6129 167.467 79.4882C167.662 77.1028 167.467 73.3597 167.467 73.3597L166.446 76.424C166.446 76.424 165.997 78.0692 165.424 78.9775C165.366 79.0703 165.311 79.1588 165.259 79.2437C164.941 79.7613 164.707 80.1419 164.148 80.5096C163.699 80.8047 162.871 81.0203 162.871 81.0203L162.615 80.5096ZM159.507 80.5518C159.248 80.1271 159.032 79.7741 158.53 79.4882C157.576 78.9458 155.721 79.4882 155.721 79.4882H153.678C153.678 79.4882 151.787 79.2497 150.614 79.4882C150.574 79.4963 150.535 79.5043 150.496 79.5122C149.51 79.712 148.852 79.8453 148.06 80.5096C147.403 81.0611 146.998 81.4666 146.784 82.2971C146.634 82.8764 146.656 83.2447 146.784 83.8292C146.985 84.7482 147.305 85.3118 148.06 85.872C148.419 86.1376 148.656 86.2516 149.082 86.3828C149.205 86.4207 149.335 86.466 149.467 86.5121C150.149 86.7503 150.89 87.0088 151.125 86.3828C151.125 86.3828 151.062 85.3985 151.125 85.106C151.216 84.6801 151.397 84.6216 151.681 84.53C151.813 84.4873 151.968 84.4375 152.146 84.3399C152.563 84.1115 152.925 84.2459 153.318 84.3919C153.585 84.4909 153.866 84.5953 154.189 84.5953C154.439 84.5953 154.653 84.5042 154.858 84.4175C155.144 84.2965 155.409 84.184 155.721 84.3399C155.82 84.3896 155.948 84.4377 156.085 84.489C156.469 84.6333 156.922 84.8033 156.998 85.106C157.195 85.8958 157.199 85.8955 157.458 85.8754C157.534 85.8695 157.632 85.8619 157.764 85.872C158.281 85.9118 158.59 85.6631 158.957 85.3681C159.063 85.2826 159.174 85.1933 159.296 85.106C159.394 85.0357 159.489 84.9715 159.58 84.9098C160.02 84.612 160.368 84.3763 160.573 83.8292C160.783 83.269 160.735 82.8731 160.573 82.2971C160.456 81.8828 160.274 81.6441 160.053 81.3543C159.975 81.2526 159.893 81.1445 159.807 81.0203C159.692 80.8554 159.597 80.6993 159.507 80.5518Z" fill="#CEA465"/>
<path d="M139.634 98.3849C139.837 97.2886 140.911 95.8314 140.911 95.8314C140.911 95.8314 136.977 97.6131 134.527 98.8957C131.042 100.72 129.144 101.861 125.845 104.003C122.131 106.414 120.24 108.047 116.652 110.642C113.759 112.734 111.532 113.261 109.247 116.004C107.901 117.621 107.364 118.712 106.438 120.601C105.59 122.33 104.651 125.197 104.651 125.197L205.26 126.474C205.26 126.474 205.443 123.508 205.26 121.622C204.981 118.758 204.649 117.099 203.472 114.472C202.815 113.005 202.336 112.225 201.429 110.897C199.916 108.681 198.866 107.542 196.833 105.79C192.643 102.18 189.162 101.81 184.065 99.6617C177.352 96.8324 166.446 94.0439 166.446 94.0439V95.8314C166.446 95.8314 167.288 95.9515 167.723 96.5975C168.623 97.9337 169.035 98.8318 169.255 100.428C169.546 102.54 169.305 103.947 168.234 105.79C166.617 108.57 164.2 109.08 161.084 109.876C158.185 110.616 156.37 110.393 153.423 109.876C150.721 109.401 149.178 108.917 146.784 107.578C144.555 106.33 141.677 103.492 141.677 103.492C141.677 103.492 139.243 100.497 139.634 98.3849Z" fill="#565A65"/>
</g>
<rect x="289.286" y="95.6963" width="28.7139" height="28.7139" rx="14.3569" fill="#D9F99D"/>
<g clip-path="url(#clip1_2135_17093)">
<path fill-rule="evenodd" clip-rule="evenodd" d="M311.256 103.381C311.778 103.812 311.851 104.585 311.42 105.107L302.266 116.184L302.263 116.188C302.046 116.448 301.774 116.656 301.467 116.798C301.16 116.94 300.825 117.012 300.486 117.008L300.485 117.008C300.141 117.003 299.803 116.921 299.495 116.767C299.189 116.614 298.921 116.394 298.711 116.122C298.711 116.121 298.71 116.121 298.709 116.12L295.844 112.436C295.428 111.901 295.524 111.131 296.059 110.715C296.593 110.299 297.364 110.395 297.779 110.93L300.517 114.45L309.529 103.545C309.961 103.023 310.734 102.949 311.256 103.381Z" fill="#4D7C0F"/>
</g>
<rect x="289.286" y="95.6963" width="28.7139" height="28.7139" rx="14.3569" stroke="white" stroke-width="2"/>
<rect x="61.4541" y="95.6963" width="28.7139" height="28.7139" rx="14.3569" fill="#D9F99D"/>
<g clip-path="url(#clip2_2135_17093)">
<path fill-rule="evenodd" clip-rule="evenodd" d="M83.4235 103.381C83.9456 103.812 84.019 104.585 83.5877 105.107L74.4335 116.184L74.4306 116.188C74.214 116.448 73.9422 116.656 73.635 116.798C73.3277 116.94 72.9928 117.012 72.6544 117.008L72.6533 117.008C72.3094 117.003 71.9709 116.921 71.6633 116.767C71.3568 116.614 71.0888 116.394 70.8793 116.122C70.8786 116.121 70.8779 116.121 70.8771 116.12L68.0117 112.436C67.596 111.901 67.6923 111.131 68.2268 110.715C68.7613 110.299 69.5317 110.395 69.9475 110.93L72.6854 114.45L81.6973 103.545C82.1287 103.023 82.9015 102.949 83.4235 103.381Z" fill="#4D7C0F"/>
</g>
<rect x="61.4541" y="95.6963" width="28.7139" height="28.7139" rx="14.3569" stroke="white" stroke-width="2"/>
<rect x="176.622" y="95.6963" width="28.7139" height="28.7139" rx="14.3569" fill="#D9F99D"/>
<g clip-path="url(#clip3_2135_17093)">
<path fill-rule="evenodd" clip-rule="evenodd" d="M198.592 103.381C199.114 103.812 199.187 104.585 198.756 105.107L189.602 116.184L189.599 116.188C189.382 116.448 189.111 116.656 188.803 116.798C188.496 116.94 188.161 117.012 187.823 117.008L187.822 117.008C187.478 117.003 187.139 116.921 186.832 116.767C186.525 116.614 186.257 116.394 186.048 116.122C186.047 116.121 186.046 116.121 186.045 116.12L183.18 112.436C182.764 111.901 182.861 111.131 183.395 110.715C183.93 110.299 184.7 110.395 185.116 110.93L187.854 114.45L196.866 103.545C197.297 103.023 198.07 102.949 198.592 103.381Z" fill="#4D7C0F"/>
</g>
<rect x="176.622" y="95.6963" width="28.7139" height="28.7139" rx="14.3569" stroke="white" stroke-width="2"/>
</g>
<defs>
<clipPath id="clip0_2135_17093">
<rect width="304" height="160" rx="12" fill="white"/>
</clipPath>
<clipPath id="clip1_2135_17093">
<rect width="14.7139" height="14.7139" fill="white" transform="translate(296.286 102.696)"/>
</clipPath>
<clipPath id="clip2_2135_17093">
<rect width="14.7139" height="14.7139" fill="white" transform="translate(68.4541 102.696)"/>
</clipPath>
<clipPath id="clip3_2135_17093">
<rect width="14.7139" height="14.7139" fill="white" transform="translate(183.622 102.696)"/>
</clipPath>
</defs>
</svg>
