<svg width="14" height="16" viewBox="0 0 14 16" fill="none" xmlns="http://www.w3.org/2000/svg">
<path d="M11.5718 6.28571H2.42899C1.79781 6.28571 1.28613 6.79738 1.28613 7.42856V14.2857C1.28613 14.9169 1.79781 15.4286 2.42899 15.4286H11.5718C12.203 15.4286 12.7147 14.9169 12.7147 14.2857V7.42856C12.7147 6.79738 12.203 6.28571 11.5718 6.28571Z" stroke="#64748B" stroke-linecap="round" stroke-linejoin="round"/>
<path d="M11 6.2857V4.57141C11 3.51055 10.5786 2.49313 9.82843 1.74298C9.07828 0.992838 8.06087 0.571411 7 0.571411C5.93913 0.571411 4.92172 0.992838 4.17157 1.74298C3.42143 2.49313 3 3.51055 3 4.57141V6.2857" stroke="#64748B" stroke-linecap="round" stroke-linejoin="round"/>
<path d="M7.00014 11.4286C7.31573 11.4286 7.57157 11.1727 7.57157 10.8571C7.57157 10.5415 7.31573 10.2857 7.00014 10.2857C6.68455 10.2857 6.42871 10.5415 6.42871 10.8571C6.42871 11.1727 6.68455 11.4286 7.00014 11.4286Z" stroke="#64748B" stroke-linecap="round" stroke-linejoin="round"/>
</svg>
