<svg width="16" height="14" viewBox="0 0 16 14" fill="none" xmlns="http://www.w3.org/2000/svg">
<path d="M15.4284 4.14286V11.5714C15.4284 11.9503 15.2779 12.3137 15.01 12.5816C14.7421 12.8495 14.3787 13 13.9999 13C13.621 13 13.2576 12.8495 12.9897 12.5816C12.7218 12.3137 12.5713 11.9503 12.5713 11.5714V1.57143C12.5713 1.41988 12.5111 1.27453 12.4039 1.16737C12.2968 1.0602 12.1514 1 11.9999 1H1.14272C0.991165 1 0.84582 1.0602 0.738657 1.16737C0.631493 1.27453 0.571289 1.41988 0.571289 1.57143V11.8571C0.571289 12.1602 0.691697 12.4509 0.906024 12.6653C1.12035 12.8796 1.41104 13 1.71415 13H13.9999" stroke="#64748B" stroke-linecap="round" stroke-linejoin="round"/>
<path d="M9.14286 3.85712H4V6.71426H9.14286V3.85712Z" stroke="#64748B" stroke-linecap="round" stroke-linejoin="round"/>
<path d="M4 10.1429H9.14286" stroke="#64748B" stroke-linecap="round" stroke-linejoin="round"/>
</svg>
