<svg width="16" height="16" viewBox="0 0 16 16" fill="none" xmlns="http://www.w3.org/2000/svg">
<path d="M8 0.571411V5.14284" stroke="#64748B" stroke-linecap="round" stroke-linejoin="round"/>
<path d="M9.71436 12.5714H12.5715" stroke="#64748B" stroke-linecap="round" stroke-linejoin="round"/>
<path d="M0.571289 5.14282H15.4284V14.2857C15.4284 14.5888 15.308 14.8795 15.0937 15.0938C14.8794 15.3081 14.5887 15.4285 14.2856 15.4285H1.71415C1.41104 15.4285 1.12035 15.3081 0.906024 15.0938C0.691697 14.8795 0.571289 14.5888 0.571289 14.2857V5.14282Z" stroke="#64748B" stroke-linecap="round" stroke-linejoin="round"/>
<path d="M0.571289 5.14284L2.28557 1.83998C2.47039 1.46772 2.7532 1.15289 3.10358 0.929371C3.45397 0.705848 3.85867 0.58209 4.27415 0.571411H11.7256C12.1508 0.571637 12.5676 0.690483 12.929 0.914588C13.2903 1.13869 13.5821 1.45917 13.7713 1.83998L15.4284 5.14284" stroke="#64748B" stroke-linecap="round" stroke-linejoin="round"/>
</svg>
