<svg width="16" height="16" viewBox="0 0 16 16" fill="none" xmlns="http://www.w3.org/2000/svg">
<path d="M12.5714 5.14284C13.8337 5.14284 14.8571 4.11949 14.8571 2.85713C14.8571 1.59476 13.8337 0.571411 12.5714 0.571411C11.309 0.571411 10.2856 1.59476 10.2856 2.85713C10.2856 4.11949 11.309 5.14284 12.5714 5.14284Z" stroke="#64748B" stroke-linecap="round" stroke-linejoin="round"/>
<path d="M12.5715 7.42859C9.71436 7.42859 9.71436 15.4286 9.71436 15.4286H15.4286C15.4286 15.4286 15.4286 7.42859 12.5715 7.42859Z" stroke="#64748B" stroke-linecap="round" stroke-linejoin="round"/>
<path d="M3.42829 5.14284C4.69066 5.14284 5.71401 4.11949 5.71401 2.85713C5.71401 1.59476 4.69066 0.571411 3.42829 0.571411C2.16593 0.571411 1.14258 1.59476 1.14258 2.85713C1.14258 4.11949 2.16593 5.14284 3.42829 5.14284Z" stroke="#64748B" stroke-linecap="round" stroke-linejoin="round"/>
<path d="M3.42843 15.4286C0.571289 15.4286 0.571289 7.42859 0.571289 7.42859H6.28557C6.28557 7.42859 6.28557 15.4286 3.42843 15.4286Z" stroke="#64748B" stroke-linecap="round" stroke-linejoin="round"/>
</svg>
