<svg width="16" height="16" viewBox="0 0 16 16" fill="none" xmlns="http://www.w3.org/2000/svg">
<g clip-path="url(#clip0_1481_23645)">
<path d="M5.31471 2.56L4.86899 2.66285C4.90936 2.83852 4.9144 3.02046 4.88383 3.1981C4.85326 3.37573 4.78769 3.54552 4.69092 3.69759C4.59415 3.84965 4.46811 3.98097 4.32015 4.08389C4.17218 4.18682 4.00522 4.25931 3.82899 4.29714C3.47163 4.37231 3.09905 4.30428 2.79131 4.10767C2.48357 3.91107 2.26526 3.60157 2.18328 3.24571L1.29185 3.42857C1.1696 3.45524 1.05403 3.50642 0.952116 3.57902C0.850203 3.65161 0.764065 3.74411 0.698905 3.85093C0.633746 3.95775 0.590917 4.07667 0.573008 4.20051C0.555099 4.32434 0.56248 4.45052 0.594707 4.57143C0.594707 4.57143 1.00614 6.48 1.48614 8.62857" stroke="#64748B" stroke-linecap="round" stroke-linejoin="round"/>
<path d="M13.8859 2.5486C13.8176 2.74103 13.711 2.9176 13.5724 3.0676C13.4339 3.21761 13.2663 3.33792 13.0799 3.42126C12.8935 3.5046 12.6921 3.54923 12.488 3.55244C12.2838 3.55565 12.0811 3.51738 11.8921 3.43994C11.7032 3.3625 11.532 3.24752 11.3888 3.10195C11.2456 2.95637 11.1334 2.78325 11.0591 2.59305C10.9848 2.40286 10.9499 2.19956 10.9564 1.99547C10.963 1.79138 11.011 1.59076 11.0974 1.40574L10.1716 0.971455C9.92445 0.868441 9.64661 0.867067 9.39842 0.967629C9.15022 1.06819 8.9517 1.26258 8.84593 1.5086L5.00593 10.5486L4.50307 11.6915C4.40006 11.9386 4.39868 12.2165 4.49924 12.4647C4.59981 12.7129 4.79419 12.9114 5.04021 13.0172L9.68021 14.9943C9.9274 15.0973 10.2052 15.0987 10.4534 14.9981C10.7016 14.8976 10.9002 14.7032 11.0059 14.4572L15.3488 4.24003C15.4445 4.00244 15.4471 3.73747 15.356 3.49806C15.2649 3.25865 15.0868 3.06242 14.8574 2.9486L13.8859 2.5486Z" stroke="#64748B" stroke-linecap="round" stroke-linejoin="round"/>
</g>
<defs>
<clipPath id="clip0_1481_23645">
<rect width="16" height="16" fill="white"/>
</clipPath>
</defs>
</svg>
