<svg width="12" height="16" viewBox="0 0 12 16" fill="none" xmlns="http://www.w3.org/2000/svg">
<path d="M6 15.4286V12.5714" stroke="#64748B" stroke-linecap="round" stroke-linejoin="round"/>
<path d="M3.14307 4.57141V1.71427C3.14307 1.41116 3.26347 1.12047 3.4778 0.906146C3.69213 0.691819 3.98282 0.571411 4.28592 0.571411H7.71449C8.0176 0.571411 8.30829 0.691819 8.52262 0.906146C8.73694 1.12047 8.85735 1.41116 8.85735 1.71427V4.57141" stroke="#64748B" stroke-linecap="round" stroke-linejoin="round"/>
<path d="M10.0001 4.57141H2.00014C1.84859 4.57141 1.70324 4.63162 1.59608 4.73878C1.48891 4.84594 1.42871 4.99129 1.42871 5.14284V8.10284C1.42997 8.40266 1.549 8.68997 1.76014 8.90284L3.143 10.2857V11.4286C3.143 11.7317 3.2634 12.0223 3.47773 12.2367C3.69206 12.451 3.98275 12.5714 4.28585 12.5714H7.71442C8.01753 12.5714 8.30822 12.451 8.52255 12.2367C8.73687 12.0223 8.85728 11.7317 8.85728 11.4286V10.2857L10.2401 8.90284C10.4513 8.68997 10.5703 8.40266 10.5716 8.10284V5.14284C10.5716 4.99129 10.5114 4.84594 10.4042 4.73878C10.297 4.63162 10.1517 4.57141 10.0001 4.57141Z" stroke="#64748B" stroke-linecap="round" stroke-linejoin="round"/>
<path d="M5.42871 7.42859H6.57157" stroke="#64748B" stroke-linecap="round" stroke-linejoin="round"/>
</svg>
