<svg width="16" height="16" viewBox="0 0 16 16" fill="none" xmlns="http://www.w3.org/2000/svg">
<path d="M6.31982 12.4L7.27982 15.0857" stroke="#64748B" stroke-linecap="round" stroke-linejoin="round"/>
<path d="M2.2627 1.10864L2.65127 2.18293" stroke="#64748B" stroke-linecap="round" stroke-linejoin="round"/>
<path d="M6.31982 12.4001L4.31982 11.9087" stroke="#64748B" stroke-linecap="round" stroke-linejoin="round"/>
<path d="M6.31982 12.4001L7.54268 10.7429" stroke="#64748B" stroke-linecap="round" stroke-linejoin="round"/>
<path d="M5.34863 9.71441L3.34863 9.21155" stroke="#64748B" stroke-linecap="round" stroke-linejoin="round"/>
<path d="M5.34863 9.71439L6.58292 8.05725" stroke="#64748B" stroke-linecap="round" stroke-linejoin="round"/>
<path d="M4.38818 7.01719L2.38818 6.52576" stroke="#64748B" stroke-linecap="round" stroke-linejoin="round"/>
<path d="M4.38818 7.01717L5.61104 5.37146" stroke="#64748B" stroke-linecap="round" stroke-linejoin="round"/>
<path d="M3.41699 4.33152L1.41699 3.84009" stroke="#64748B" stroke-linecap="round" stroke-linejoin="round"/>
<path d="M3.41699 4.33146L4.65128 2.67432" stroke="#64748B" stroke-linecap="round" stroke-linejoin="round"/>
<path d="M10.8685 11.7144L10.2285 14.2858" stroke="#64748B" stroke-linecap="round" stroke-linejoin="round"/>
<path d="M13.5429 0.914307L13.2915 1.94288" stroke="#64748B" stroke-linecap="round" stroke-linejoin="round"/>
<path d="M10.8686 11.7143L9.57715 10.2971" stroke="#64748B" stroke-linecap="round" stroke-linejoin="round"/>
<path d="M10.8687 11.7143L12.6629 11.0743" stroke="#64748B" stroke-linecap="round" stroke-linejoin="round"/>
<path d="M11.4973 9.14285L10.2173 7.72571" stroke="#64748B" stroke-linecap="round" stroke-linejoin="round"/>
<path d="M11.4971 9.14288L13.3028 8.49146" stroke="#64748B" stroke-linecap="round" stroke-linejoin="round"/>
<path d="M12.1369 6.57144L10.8569 5.1543" stroke="#64748B" stroke-linecap="round" stroke-linejoin="round"/>
<path d="M12.1372 6.57147L13.9429 5.92004" stroke="#64748B" stroke-linecap="round" stroke-linejoin="round"/>
<path d="M12.7771 4.00003L11.4971 2.58289" stroke="#64748B" stroke-linecap="round" stroke-linejoin="round"/>
<path d="M12.7773 4.00006L14.5831 3.34863" stroke="#64748B" stroke-linecap="round" stroke-linejoin="round"/>
</svg>
