<svg width="20" height="20" viewBox="0 0 20 20" fill="none" xmlns="http://www.w3.org/2000/svg">
<g clip-path="url(#clip0_1922_10817)">
<path d="M6.42864 17.8567L0.714355 19.2853L2.14293 14.9996V2.14244C2.14293 1.76356 2.29344 1.4002 2.56135 1.13229C2.82926 0.864377 3.19262 0.713867 3.5715 0.713867H17.8572C18.2361 0.713867 18.5995 0.864377 18.8674 1.13229C19.1353 1.4002 19.2858 1.76356 19.2858 2.14244V16.4282C19.2858 16.807 19.1353 17.1704 18.8674 17.4383C18.5995 17.7062 18.2361 17.8567 17.8572 17.8567H6.42864Z" stroke="#D97706" stroke-linecap="round" stroke-linejoin="round"/>
<path d="M10.7144 4.28516V8.57087" stroke="#D97706" stroke-linecap="round" stroke-linejoin="round"/>
<path d="M10.7143 13.5711C11.1088 13.5711 11.4286 13.2514 11.4286 12.8569C11.4286 12.4624 11.1088 12.1426 10.7143 12.1426C10.3198 12.1426 10 12.4624 10 12.8569C10 13.2514 10.3198 13.5711 10.7143 13.5711Z" stroke="#D97706" stroke-linecap="round" stroke-linejoin="round"/>
</g>
<defs>
<clipPath id="clip0_1922_10817">
<rect width="20" height="20" fill="white"/>
</clipPath>
</defs>
</svg>
