<svg width="304" height="160" viewBox="0 0 304 160" fill="none" xmlns="http://www.w3.org/2000/svg">
<g clip-path="url(#clip0_2135_17066)">
<rect width="304" height="160" rx="12" fill="#FEF08A"/>
<path d="M35.9762 159.72C35.9762 159.72 24.1505 141.466 29.93 122.673C33.6971 110.423 47.8284 103.711 55.8034 110.423C59.2001 113.282 68.7055 109.476 75.916 98.6841C87.8737 80.7862 125.291 100.672 113.75 136.461C108.477 152.814 117.495 150.72 115.234 160L35.9762 159.72Z" fill="#A7F3D0"/>
<g clip-path="url(#clip1_2135_17066)">
<path fill-rule="evenodd" clip-rule="evenodd" d="M278.094 44.4608L271.569 33.9111L268.995 35.4486L285.548 71.9226C285.461 72.1239 285.388 72.3437 285.341 72.5809L276.435 78.0538L264.421 93.3784L256.504 103.462L258.733 105.46L267.8 96.5621L286.416 78.2401L285.884 168.038L287.753 166.195C288.533 165.425 289.388 164.836 290.269 164.4L290.885 164.095L290.213 75.7535C290.354 75.6547 290.488 75.5433 290.614 75.4194L299.501 77.501L331.148 73.3227L330.973 70.2908H290.45L288.606 61.4504L278.094 44.4608Z" fill="white"/>
</g>
<g clip-path="url(#clip2_2135_17066)">
<path d="M173.658 109.134H173.655L210.178 61.4336L247.774 109.134H247.773V175L173.658 174.858V109.134Z" fill="#FED7AA"/>
<path d="M171.422 112.05L173.655 109.134H173.658V174.858H110.897V112.05H171.422Z" fill="#FFF7ED"/>
<path fill-rule="evenodd" clip-rule="evenodd" d="M171.422 112.05L173.655 109.134L210.178 61.4335L211.275 60.0011L211.276 60L210.976 60.0001L208.867 60.0004L191.192 60.0034L149.141 60.0122L145.012 60.013L104 112.05H110.897H171.422ZM250 109.134L211.275 60.0015L210.178 61.4339L247.774 109.134H250Z" fill="#FB923C"/>
<path d="M173.655 109.134L174.449 109.742L174.449 109.742L173.655 109.134ZM171.422 112.05L172.216 112.658C172.027 112.905 171.733 113.05 171.422 113.05V112.05ZM210.178 61.4335L209.384 60.8256L209.384 60.8256L210.178 61.4335ZM211.275 60.0011L212.075 60.6016L212.069 60.6091L211.275 60.0011ZM211.276 60L211.276 59C211.654 58.9999 212.001 59.214 212.17 59.5529C212.34 59.8918 212.303 60.2974 212.075 60.6004L211.276 60ZM210.976 60.0001L210.976 61.0001H210.976L210.976 60.0001ZM208.867 60.0004L208.867 61.0004H208.867L208.867 60.0004ZM191.192 60.0034L191.192 59.0034H191.192L191.192 60.0034ZM149.141 60.0122L149.142 61.0122L149.141 60.0122ZM145.012 60.013L144.227 59.394C144.416 59.1535 144.706 59.0131 145.012 59.013L145.012 60.013ZM104 112.05V113.05C103.617 113.05 103.268 112.831 103.1 112.486C102.933 112.142 102.978 111.732 103.215 111.431L104 112.05ZM211.275 60.0015L210.481 59.3936C210.669 59.1484 210.959 59.0037 211.268 59.0016C211.577 58.9994 211.869 59.14 212.06 59.3825L211.275 60.0015ZM250 109.134L250.785 108.515C251.023 108.816 251.067 109.226 250.9 109.571C250.733 109.916 250.383 110.134 250 110.134V109.134ZM210.178 61.4339L209.393 62.0529C209.11 61.694 209.106 61.1889 209.384 60.826L210.178 61.4339ZM247.774 109.134V110.134C247.468 110.134 247.179 109.994 246.989 109.753L247.774 109.134ZM174.449 109.742L172.216 112.658L170.628 111.442L172.861 108.526L174.449 109.742ZM210.972 62.0415L174.449 109.742L172.861 108.526L209.384 60.8256L210.972 62.0415ZM212.069 60.6091L210.972 62.0415L209.384 60.8256L210.481 59.3932L212.069 60.6091ZM212.075 60.6004L212.075 60.6015L210.475 59.4008L210.476 59.3996L212.075 60.6004ZM210.975 59.0001L211.276 59L211.276 61L210.976 61.0001L210.975 59.0001ZM208.866 59.0004L210.975 59.0001L210.976 61.0001L208.867 61.0004L208.866 59.0004ZM191.192 59.0034L208.866 59.0004L208.867 61.0004L191.192 61.0034L191.192 59.0034ZM149.141 59.0122L191.192 59.0034L191.192 61.0034L149.142 61.0122L149.141 59.0122ZM145.012 59.013L149.141 59.0122L149.142 61.0122L145.012 61.013L145.012 59.013ZM103.215 111.431L144.227 59.394L145.798 60.632L104.785 112.669L103.215 111.431ZM110.897 113.05H104V111.05H110.897V113.05ZM171.422 113.05H110.897V111.05H171.422V113.05ZM212.06 59.3825L250.785 108.515L249.215 109.753L210.489 60.6205L212.06 59.3825ZM209.384 60.826L210.481 59.3936L212.069 60.6095L210.972 62.0419L209.384 60.826ZM246.989 109.753L209.393 62.0529L210.963 60.8149L248.56 108.515L246.989 109.753ZM250 110.134H247.774V108.134H250V110.134Z" fill="#FB923C"/>
</g>
<path d="M164.42 69L139.367 105H143.383L167.706 69.0787L164.42 69Z" fill="#B45309"/>
<path fill-rule="evenodd" clip-rule="evenodd" d="M162.054 77.6132C161.272 74.5059 159.828 71.5763 157.723 69.1252C151.024 61.3242 140.163 61.3242 133.463 69.1252C126.764 76.9262 126.764 89.5742 133.463 97.3752C136.592 101.018 140.627 102.96 144.723 103.2L162.054 77.6132Z" fill="#FBBF24"/>
<g clip-path="url(#clip3_2135_17066)">
<path d="M114.096 28.3915C115.982 26.454 118.629 25.5 121.18 24.6058C131.012 21.159 131.396 21.0247 150.134 14.658C151.615 14.1548 153.098 15.4071 152.877 16.9613C152.47 19.8266 150.63 23.2487 146.619 24.5348C143.738 25.4587 134.429 28.0741 131.902 29.6251C128.828 31.5123 125.951 34.0387 124.491 37.3031L111.765 32.1714C112.311 30.7743 113.034 29.4827 114.096 28.3915Z" fill="#E3B07B"/>
<path d="M115.884 29.0377C118.655 27.4512 121.974 27.2274 125.165 27.0403C137.463 26.3192 137.943 26.2911 161.316 25.146C163.164 25.0554 164.447 26.9575 163.695 28.6492C162.308 31.7681 159.11 35.0541 154.133 35.2122C150.556 35.3258 139.122 35.2737 135.747 36.2139C131.64 37.3579 127.553 39.2913 124.839 42.5217L112.013 32.5704C113.085 31.1623 114.324 29.9313 115.884 29.0377Z" fill="#F1BB82"/>
<path d="M121.083 27.0219C124.245 26.5604 127.423 27.5659 130.468 28.5586C142.205 32.3852 142.662 32.5344 164.885 40.0161C166.642 40.6074 167.148 42.8445 165.832 44.1417C163.404 46.5333 159.227 48.4185 154.525 46.7453C151.147 45.5433 140.498 41.3141 137.008 40.954C132.761 40.5158 128.245 40.8183 124.539 42.8286L116.188 28.8897C117.7 27.9729 119.303 27.2818 121.083 27.0219Z" fill="#FFC88F"/>
<path d="M22.123 -11.1465L72.6848 24.3772L54.5758 50.7673L-6.50042 19.8772L-6.50042 -6.9993L22.123 -11.1465Z" fill="#4F46E5"/>
<path d="M71.2465 26.4009L81.4255 34.3967C92.4881 32.0047 108.494 28.3005 111.813 28.1275C117.327 27.8401 123.093 25.7517 128.176 27.943C129.783 28.6361 131.166 29.705 132.429 30.9294L132.431 30.9308C132.471 30.9692 132.511 31.0067 132.55 31.0454L142.054 40.1653C144.296 42.3164 146.338 44.6675 148.155 47.1891L152.158 52.7432L158.821 61.9882C160.013 63.4131 159.278 65.5794 157.476 65.9897C154.153 66.7458 149.6 66.153 146.456 62.2622C144.197 59.4669 137.305 50.2808 134.51 48.1413C130.688 45.2156 126.088 42.8996 121.301 43.1796C116.514 43.4598 111.723 47.0482 111.399 51.847C111.171 55.2068 113.076 58.3837 115.43 60.7966C117.785 63.2097 120.628 65.0985 123.003 67.491C125.025 69.5273 126.691 71.918 127.902 74.521C128.816 76.4873 129.482 78.7296 128.637 80.7991C128.212 81.8393 127.366 82.6797 126.297 83.0165C124.597 83.5519 123.417 82.5597 122.332 81.6169C117.464 77.3855 112.595 73.1542 107.727 68.9229C106.769 68.0903 105.77 67.2348 104.555 66.8789C102.918 66.3994 101.184 66.9004 99.5132 67.2237C93.0624 68.4715 85.7298 66.7516 80.1821 62.8268L80.1818 62.8327L55.7609 48.7672L71.2465 26.4009Z" fill="#FED7AA"/>
</g>
</g>
<defs>
<clipPath id="clip0_2135_17066">
<rect width="304" height="160" rx="12" fill="white"/>
</clipPath>
<clipPath id="clip1_2135_17066">
<rect width="72" height="130" fill="white" transform="translate(258 31)"/>
</clipPath>
<clipPath id="clip2_2135_17066">
<rect width="146" height="115" fill="white" transform="matrix(-1 0 0 1 250 60)"/>
</clipPath>
<clipPath id="clip3_2135_17066">
<rect width="198.725" height="167.802" fill="white" transform="matrix(-0.876977 0.480533 0.480533 0.876977 126.821 -85.3262)"/>
</clipPath>
</defs>
</svg>
