<svg width="64" height="64" viewBox="0 0 64 64" fill="none" xmlns="http://www.w3.org/2000/svg">
<path d="M11.5 22H48C48 22 50.5 22 51.5 25C52.6068 28.3204 49.5 28.5 49.5 28.5H15C15 28.5 12 28.5 11 32C10 35.5 13.5 35.5 13.5 35.5H58" stroke="#DD3627" stroke-width="1.5"/>
<path d="M6 44H28V52H15C14.45 52 14 52.45 14 53C14 53.55 14.45 54 15 54H29H35H49C49.55 54 50 53.55 50 53C50 52.45 49.55 52 49 52H36V44H58C59.65 44 61 42.65 61 41V39C61 38.99 60.99 38.98 60.99 38.96C60.99 38.85 60.97 38.73 60.93 38.63L58.13 31.63L55.33 24.63L53.43 19.89C52.97 18.74 51.88 18 50.65 18H42H32H22H13.35C12.12 18 11.02 18.74 10.56 19.89L8.66 24.63L5.86 31.63L3.06 38.63C3.02 38.74 3 38.85 3 38.96C3.01 38.98 3 38.99 3 39V41C3 42.65 4.35 44 6 44ZM34 52H30V44H34V52ZM59 41C59 41.55 58.55 42 58 42H35H29H6C5.45 42 5 41.55 5 41V40H18H32H46H59V41ZM33 20H41.18L41.98 24H33V20ZM19.22 38L20.22 33H31V38H19.22ZM42.38 26L43.38 31H33V26H42.38ZM33 33H43.78L44.78 38H33V33ZM31 31H20.62L21.62 26H31V31ZM46.82 38L45.82 33H56.52L58.52 38H46.82ZM45.42 31L44.42 26H53.72L55.72 31H45.42ZM51.57 20.63L52.92 24H44.02L43.22 20H50.65C51.06 20 51.42 20.25 51.57 20.63ZM31 24H22.02L22.82 20H31V24ZM12.43 20.63C12.58 20.25 12.95 20 13.36 20H20.79L19.99 24H11.09L12.43 20.63ZM10.28 26H19.58L18.58 31H8.28L10.28 26ZM7.48 33H18.18L17.18 38H5.48L7.48 33Z" fill="black"/>
</svg>
